G04 #@! TF.GenerationSoftware,KiCad,Pcbnew,(5.1.12)-1*
G04 #@! TF.CreationDate,2024-03-07T16:38:44+08:00*
G04 #@! TF.ProjectId,CM2_MesoScope,434d325f-4d65-4736-9f53-636f70652e6b,rev?*
G04 #@! TF.SameCoordinates,Original*
G04 #@! TF.FileFunction,Copper,L1,Top*
G04 #@! TF.FilePolarity,Positive*
%FSLAX46Y46*%
G04 Gerber Fmt 4.6, Leading zero omitted, Abs format (unit mm)*
G04 Created by KiCad (PCBNEW (5.1.12)-1) date 2024-03-07 16:38:44*
%MOMM*%
%LPD*%
G01*
G04 APERTURE LIST*
G04 #@! TA.AperFunction,SMDPad,CuDef*
%ADD10R,0.800000X0.400000*%
G04 #@! TD*
G04 #@! TA.AperFunction,SMDPad,CuDef*
%ADD11R,0.800000X0.300000*%
G04 #@! TD*
G04 #@! TA.AperFunction,SMDPad,CuDef*
%ADD12R,0.340000X0.310000*%
G04 #@! TD*
G04 #@! TA.AperFunction,SMDPad,CuDef*
%ADD13R,0.310000X0.340000*%
G04 #@! TD*
G04 #@! TA.AperFunction,SMDPad,CuDef*
%ADD14R,0.630000X0.580000*%
G04 #@! TD*
G04 #@! TA.AperFunction,SMDPad,CuDef*
%ADD15R,0.750000X0.750000*%
G04 #@! TD*
G04 #@! TA.AperFunction,SMDPad,CuDef*
%ADD16C,0.350000*%
G04 #@! TD*
G04 #@! TA.AperFunction,SMDPad,CuDef*
%ADD17R,2.500000X2.500000*%
G04 #@! TD*
G04 #@! TA.AperFunction,SMDPad,CuDef*
%ADD18R,0.260000X0.680000*%
G04 #@! TD*
G04 #@! TA.AperFunction,SMDPad,CuDef*
%ADD19R,0.680000X0.260000*%
G04 #@! TD*
G04 #@! TA.AperFunction,SMDPad,CuDef*
%ADD20R,3.100000X3.100000*%
G04 #@! TD*
G04 #@! TA.AperFunction,SMDPad,CuDef*
%ADD21R,2.200000X1.050000*%
G04 #@! TD*
G04 #@! TA.AperFunction,SMDPad,CuDef*
%ADD22R,1.050000X1.000000*%
G04 #@! TD*
G04 #@! TA.AperFunction,SMDPad,CuDef*
%ADD23R,1.060000X0.540000*%
G04 #@! TD*
G04 #@! TA.AperFunction,SMDPad,CuDef*
%ADD24R,0.830000X0.880000*%
G04 #@! TD*
G04 #@! TA.AperFunction,SMDPad,CuDef*
%ADD25R,0.675000X0.254000*%
G04 #@! TD*
G04 #@! TA.AperFunction,SMDPad,CuDef*
%ADD26R,0.254000X0.675000*%
G04 #@! TD*
G04 #@! TA.AperFunction,SMDPad,CuDef*
%ADD27R,0.870000X2.620000*%
G04 #@! TD*
G04 #@! TA.AperFunction,ViaPad*
%ADD28C,0.350000*%
G04 #@! TD*
G04 #@! TA.AperFunction,Conductor*
%ADD29C,0.152400*%
G04 #@! TD*
G04 #@! TA.AperFunction,Conductor*
%ADD30C,0.254000*%
G04 #@! TD*
G04 #@! TA.AperFunction,Conductor*
%ADD31C,0.101600*%
G04 #@! TD*
G04 APERTURE END LIST*
D10*
X131505500Y-111065080D03*
D11*
X129005500Y-114101080D03*
X129005500Y-112601080D03*
X129005500Y-113101080D03*
X129005500Y-113601080D03*
D10*
X131505500Y-115101080D03*
D11*
X129005500Y-112093080D03*
D10*
X122809800Y-111339460D03*
D11*
X125309800Y-112839460D03*
X125309800Y-113339460D03*
X125309800Y-113839460D03*
X125309800Y-112339460D03*
D10*
X122809800Y-114839460D03*
D12*
X126455340Y-116557240D03*
X126455340Y-116007240D03*
X126290240Y-114294100D03*
X126290240Y-113744100D03*
X125756840Y-115882780D03*
X125756840Y-116432780D03*
D13*
X124721880Y-116437180D03*
X124171880Y-116437180D03*
D14*
X106844040Y-115416620D03*
X106844040Y-114526620D03*
X106818640Y-113648020D03*
X106818640Y-112758020D03*
X106336040Y-110752420D03*
X106336040Y-109862420D03*
X106351240Y-109050620D03*
X106351240Y-108160620D03*
X98096240Y-114943420D03*
X98096240Y-114053420D03*
D15*
X123966140Y-112042980D03*
X123968680Y-114110540D03*
D16*
X120268660Y-116744900D03*
X120768660Y-116744900D03*
X121268660Y-116744900D03*
X121768660Y-116744900D03*
X122268660Y-116744900D03*
X120268660Y-117244900D03*
X120768660Y-117244900D03*
X121268660Y-117244900D03*
X121768660Y-117244900D03*
X122268660Y-117244900D03*
X120268660Y-117744900D03*
X120768660Y-117744900D03*
X121268660Y-117744900D03*
X121768660Y-117744900D03*
X122268660Y-117744900D03*
D17*
X114476860Y-110222640D03*
D18*
X100054640Y-114039420D03*
X100554640Y-114039420D03*
X101054640Y-114039420D03*
X101554640Y-114039420D03*
X102054640Y-114039420D03*
X102554640Y-114039420D03*
X103054640Y-114039420D03*
X103554640Y-114039420D03*
D19*
X104139640Y-113454420D03*
X104139640Y-112954420D03*
X104139640Y-112454420D03*
X104139640Y-111954420D03*
X104139640Y-111454420D03*
X104139640Y-110954420D03*
X104139640Y-110454420D03*
X104139640Y-109954420D03*
D18*
X103554640Y-109369420D03*
X103054640Y-109369420D03*
X102554640Y-109369420D03*
X102054640Y-109369420D03*
X101554640Y-109369420D03*
X101054640Y-109369420D03*
X100554640Y-109369420D03*
X100054640Y-109369420D03*
D19*
X99469640Y-109954420D03*
X99469640Y-110454420D03*
X99469640Y-110954420D03*
X99469640Y-111454420D03*
X99469640Y-111954420D03*
X99469640Y-112454420D03*
X99469640Y-112954420D03*
X99469640Y-113454420D03*
D20*
X101804640Y-111704420D03*
D21*
X117042900Y-108727680D03*
X117042900Y-111677680D03*
D22*
X118542900Y-110202680D03*
D23*
X123883560Y-117623360D03*
X125943560Y-117623360D03*
D24*
X98189040Y-115966420D03*
X98189040Y-117856420D03*
X99629040Y-117856420D03*
X99629040Y-115966420D03*
D25*
X118194360Y-116192640D03*
X118194360Y-115692640D03*
X118194360Y-115192640D03*
D26*
X118056860Y-117105140D03*
X117556860Y-117105140D03*
X117056860Y-117105140D03*
X116556860Y-117105140D03*
X116056860Y-117105140D03*
X115556860Y-117105140D03*
X115056860Y-117105140D03*
X114556860Y-117105140D03*
X114056860Y-117105140D03*
X118056860Y-113780140D03*
X117556860Y-113780140D03*
X117056860Y-113780140D03*
X116556860Y-113780140D03*
X116056860Y-113780140D03*
X115556860Y-113780140D03*
X115056860Y-113780140D03*
X114556860Y-113780140D03*
X114056860Y-113780140D03*
D25*
X113419360Y-116192640D03*
X113419360Y-115692640D03*
X113419360Y-115192640D03*
D26*
X113556860Y-113780140D03*
D25*
X113419360Y-114692640D03*
D26*
X113556860Y-117105140D03*
D25*
X118194360Y-114692640D03*
D12*
X105523240Y-115348220D03*
X105523240Y-114798220D03*
X104126240Y-114569620D03*
X104126240Y-115119620D03*
X104685040Y-115119620D03*
X104685040Y-114569620D03*
D13*
X106651640Y-112060020D03*
X106101640Y-112060020D03*
D12*
X106107440Y-114798220D03*
X106107440Y-115348220D03*
D13*
X105559440Y-112060020D03*
X105009440Y-112060020D03*
X105559440Y-111475820D03*
X105009440Y-111475820D03*
G04 #@! TA.AperFunction,SMDPad,CuDef*
G36*
G01*
X121154360Y-108897640D02*
X120299360Y-108897640D01*
G75*
G02*
X120066860Y-108665140I0J232500D01*
G01*
X120066860Y-108200140D01*
G75*
G02*
X120299360Y-107967640I232500J0D01*
G01*
X121154360Y-107967640D01*
G75*
G02*
X121386860Y-108200140I0J-232500D01*
G01*
X121386860Y-108665140D01*
G75*
G02*
X121154360Y-108897640I-232500J0D01*
G01*
G37*
G04 #@! TD.AperFunction*
G04 #@! TA.AperFunction,SMDPad,CuDef*
G36*
G01*
X121154360Y-110537640D02*
X120299360Y-110537640D01*
G75*
G02*
X120066860Y-110305140I0J232500D01*
G01*
X120066860Y-109840140D01*
G75*
G02*
X120299360Y-109607640I232500J0D01*
G01*
X121154360Y-109607640D01*
G75*
G02*
X121386860Y-109840140I0J-232500D01*
G01*
X121386860Y-110305140D01*
G75*
G02*
X121154360Y-110537640I-232500J0D01*
G01*
G37*
G04 #@! TD.AperFunction*
G04 #@! TA.AperFunction,SMDPad,CuDef*
G36*
G01*
X100376140Y-115557620D02*
X100561140Y-115557620D01*
G75*
G02*
X100638640Y-115635120I0J-77500D01*
G01*
X100638640Y-115790120D01*
G75*
G02*
X100561140Y-115867620I-77500J0D01*
G01*
X100376140Y-115867620D01*
G75*
G02*
X100298640Y-115790120I0J77500D01*
G01*
X100298640Y-115635120D01*
G75*
G02*
X100376140Y-115557620I77500J0D01*
G01*
G37*
G04 #@! TD.AperFunction*
G04 #@! TA.AperFunction,SMDPad,CuDef*
G36*
G01*
X100376140Y-116107620D02*
X100561140Y-116107620D01*
G75*
G02*
X100638640Y-116185120I0J-77500D01*
G01*
X100638640Y-116340120D01*
G75*
G02*
X100561140Y-116417620I-77500J0D01*
G01*
X100376140Y-116417620D01*
G75*
G02*
X100298640Y-116340120I0J77500D01*
G01*
X100298640Y-116185120D01*
G75*
G02*
X100376140Y-116107620I77500J0D01*
G01*
G37*
G04 #@! TD.AperFunction*
G04 #@! TA.AperFunction,SMDPad,CuDef*
G36*
G01*
X102696440Y-114748320D02*
X102696440Y-115093320D01*
G75*
G02*
X102548940Y-115240820I-147500J0D01*
G01*
X102253940Y-115240820D01*
G75*
G02*
X102106440Y-115093320I0J147500D01*
G01*
X102106440Y-114748320D01*
G75*
G02*
X102253940Y-114600820I147500J0D01*
G01*
X102548940Y-114600820D01*
G75*
G02*
X102696440Y-114748320I0J-147500D01*
G01*
G37*
G04 #@! TD.AperFunction*
G04 #@! TA.AperFunction,SMDPad,CuDef*
G36*
G01*
X101726440Y-114748320D02*
X101726440Y-115093320D01*
G75*
G02*
X101578940Y-115240820I-147500J0D01*
G01*
X101283940Y-115240820D01*
G75*
G02*
X101136440Y-115093320I0J147500D01*
G01*
X101136440Y-114748320D01*
G75*
G02*
X101283940Y-114600820I147500J0D01*
G01*
X101578940Y-114600820D01*
G75*
G02*
X101726440Y-114748320I0J-147500D01*
G01*
G37*
G04 #@! TD.AperFunction*
G04 #@! TA.AperFunction,SMDPad,CuDef*
G36*
G01*
X107307340Y-118032620D02*
X107122340Y-118032620D01*
G75*
G02*
X107044840Y-117955120I0J77500D01*
G01*
X107044840Y-117800120D01*
G75*
G02*
X107122340Y-117722620I77500J0D01*
G01*
X107307340Y-117722620D01*
G75*
G02*
X107384840Y-117800120I0J-77500D01*
G01*
X107384840Y-117955120D01*
G75*
G02*
X107307340Y-118032620I-77500J0D01*
G01*
G37*
G04 #@! TD.AperFunction*
G04 #@! TA.AperFunction,SMDPad,CuDef*
G36*
G01*
X107307340Y-117482620D02*
X107122340Y-117482620D01*
G75*
G02*
X107044840Y-117405120I0J77500D01*
G01*
X107044840Y-117250120D01*
G75*
G02*
X107122340Y-117172620I77500J0D01*
G01*
X107307340Y-117172620D01*
G75*
G02*
X107384840Y-117250120I0J-77500D01*
G01*
X107384840Y-117405120D01*
G75*
G02*
X107307340Y-117482620I-77500J0D01*
G01*
G37*
G04 #@! TD.AperFunction*
G04 #@! TA.AperFunction,SMDPad,CuDef*
G36*
G01*
X107686320Y-117172620D02*
X107871320Y-117172620D01*
G75*
G02*
X107948820Y-117250120I0J-77500D01*
G01*
X107948820Y-117405120D01*
G75*
G02*
X107871320Y-117482620I-77500J0D01*
G01*
X107686320Y-117482620D01*
G75*
G02*
X107608820Y-117405120I0J77500D01*
G01*
X107608820Y-117250120D01*
G75*
G02*
X107686320Y-117172620I77500J0D01*
G01*
G37*
G04 #@! TD.AperFunction*
G04 #@! TA.AperFunction,SMDPad,CuDef*
G36*
G01*
X107686320Y-117722620D02*
X107871320Y-117722620D01*
G75*
G02*
X107948820Y-117800120I0J-77500D01*
G01*
X107948820Y-117955120D01*
G75*
G02*
X107871320Y-118032620I-77500J0D01*
G01*
X107686320Y-118032620D01*
G75*
G02*
X107608820Y-117955120I0J77500D01*
G01*
X107608820Y-117800120D01*
G75*
G02*
X107686320Y-117722620I77500J0D01*
G01*
G37*
G04 #@! TD.AperFunction*
G04 #@! TA.AperFunction,SMDPad,CuDef*
G36*
G01*
X98656640Y-112907320D02*
X98656640Y-113092320D01*
G75*
G02*
X98579140Y-113169820I-77500J0D01*
G01*
X98424140Y-113169820D01*
G75*
G02*
X98346640Y-113092320I0J77500D01*
G01*
X98346640Y-112907320D01*
G75*
G02*
X98424140Y-112829820I77500J0D01*
G01*
X98579140Y-112829820D01*
G75*
G02*
X98656640Y-112907320I0J-77500D01*
G01*
G37*
G04 #@! TD.AperFunction*
G04 #@! TA.AperFunction,SMDPad,CuDef*
G36*
G01*
X98106640Y-112907320D02*
X98106640Y-113092320D01*
G75*
G02*
X98029140Y-113169820I-77500J0D01*
G01*
X97874140Y-113169820D01*
G75*
G02*
X97796640Y-113092320I0J77500D01*
G01*
X97796640Y-112907320D01*
G75*
G02*
X97874140Y-112829820I77500J0D01*
G01*
X98029140Y-112829820D01*
G75*
G02*
X98106640Y-112907320I0J-77500D01*
G01*
G37*
G04 #@! TD.AperFunction*
G04 #@! TA.AperFunction,SMDPad,CuDef*
G36*
G01*
X100050240Y-115015520D02*
X100050240Y-115200520D01*
G75*
G02*
X99972740Y-115278020I-77500J0D01*
G01*
X99817740Y-115278020D01*
G75*
G02*
X99740240Y-115200520I0J77500D01*
G01*
X99740240Y-115015520D01*
G75*
G02*
X99817740Y-114938020I77500J0D01*
G01*
X99972740Y-114938020D01*
G75*
G02*
X100050240Y-115015520I0J-77500D01*
G01*
G37*
G04 #@! TD.AperFunction*
G04 #@! TA.AperFunction,SMDPad,CuDef*
G36*
G01*
X99500240Y-115015520D02*
X99500240Y-115200520D01*
G75*
G02*
X99422740Y-115278020I-77500J0D01*
G01*
X99267740Y-115278020D01*
G75*
G02*
X99190240Y-115200520I0J77500D01*
G01*
X99190240Y-115015520D01*
G75*
G02*
X99267740Y-114938020I77500J0D01*
G01*
X99422740Y-114938020D01*
G75*
G02*
X99500240Y-115015520I0J-77500D01*
G01*
G37*
G04 #@! TD.AperFunction*
G04 #@! TA.AperFunction,SMDPad,CuDef*
G36*
G01*
X100365940Y-116862420D02*
X100550940Y-116862420D01*
G75*
G02*
X100628440Y-116939920I0J-77500D01*
G01*
X100628440Y-117094920D01*
G75*
G02*
X100550940Y-117172420I-77500J0D01*
G01*
X100365940Y-117172420D01*
G75*
G02*
X100288440Y-117094920I0J77500D01*
G01*
X100288440Y-116939920D01*
G75*
G02*
X100365940Y-116862420I77500J0D01*
G01*
G37*
G04 #@! TD.AperFunction*
G04 #@! TA.AperFunction,SMDPad,CuDef*
G36*
G01*
X100365940Y-117412420D02*
X100550940Y-117412420D01*
G75*
G02*
X100628440Y-117489920I0J-77500D01*
G01*
X100628440Y-117644920D01*
G75*
G02*
X100550940Y-117722420I-77500J0D01*
G01*
X100365940Y-117722420D01*
G75*
G02*
X100288440Y-117644920I0J77500D01*
G01*
X100288440Y-117489920D01*
G75*
G02*
X100365940Y-117412420I77500J0D01*
G01*
G37*
G04 #@! TD.AperFunction*
G04 #@! TA.AperFunction,SMDPad,CuDef*
G36*
G01*
X103246340Y-117462620D02*
X103431340Y-117462620D01*
G75*
G02*
X103508840Y-117540120I0J-77500D01*
G01*
X103508840Y-117695120D01*
G75*
G02*
X103431340Y-117772620I-77500J0D01*
G01*
X103246340Y-117772620D01*
G75*
G02*
X103168840Y-117695120I0J77500D01*
G01*
X103168840Y-117540120D01*
G75*
G02*
X103246340Y-117462620I77500J0D01*
G01*
G37*
G04 #@! TD.AperFunction*
G04 #@! TA.AperFunction,SMDPad,CuDef*
G36*
G01*
X103246340Y-118012620D02*
X103431340Y-118012620D01*
G75*
G02*
X103508840Y-118090120I0J-77500D01*
G01*
X103508840Y-118245120D01*
G75*
G02*
X103431340Y-118322620I-77500J0D01*
G01*
X103246340Y-118322620D01*
G75*
G02*
X103168840Y-118245120I0J77500D01*
G01*
X103168840Y-118090120D01*
G75*
G02*
X103246340Y-118012620I77500J0D01*
G01*
G37*
G04 #@! TD.AperFunction*
G04 #@! TA.AperFunction,SMDPad,CuDef*
G36*
G01*
X103957540Y-117462620D02*
X104142540Y-117462620D01*
G75*
G02*
X104220040Y-117540120I0J-77500D01*
G01*
X104220040Y-117695120D01*
G75*
G02*
X104142540Y-117772620I-77500J0D01*
G01*
X103957540Y-117772620D01*
G75*
G02*
X103880040Y-117695120I0J77500D01*
G01*
X103880040Y-117540120D01*
G75*
G02*
X103957540Y-117462620I77500J0D01*
G01*
G37*
G04 #@! TD.AperFunction*
G04 #@! TA.AperFunction,SMDPad,CuDef*
G36*
G01*
X103957540Y-118012620D02*
X104142540Y-118012620D01*
G75*
G02*
X104220040Y-118090120I0J-77500D01*
G01*
X104220040Y-118245120D01*
G75*
G02*
X104142540Y-118322620I-77500J0D01*
G01*
X103957540Y-118322620D01*
G75*
G02*
X103880040Y-118245120I0J77500D01*
G01*
X103880040Y-118090120D01*
G75*
G02*
X103957540Y-118012620I77500J0D01*
G01*
G37*
G04 #@! TD.AperFunction*
G04 #@! TA.AperFunction,SMDPad,CuDef*
G36*
G01*
X103421140Y-108730820D02*
X103236140Y-108730820D01*
G75*
G02*
X103158640Y-108653320I0J77500D01*
G01*
X103158640Y-108498320D01*
G75*
G02*
X103236140Y-108420820I77500J0D01*
G01*
X103421140Y-108420820D01*
G75*
G02*
X103498640Y-108498320I0J-77500D01*
G01*
X103498640Y-108653320D01*
G75*
G02*
X103421140Y-108730820I-77500J0D01*
G01*
G37*
G04 #@! TD.AperFunction*
G04 #@! TA.AperFunction,SMDPad,CuDef*
G36*
G01*
X103421140Y-108180820D02*
X103236140Y-108180820D01*
G75*
G02*
X103158640Y-108103320I0J77500D01*
G01*
X103158640Y-107948320D01*
G75*
G02*
X103236140Y-107870820I77500J0D01*
G01*
X103421140Y-107870820D01*
G75*
G02*
X103498640Y-107948320I0J-77500D01*
G01*
X103498640Y-108103320D01*
G75*
G02*
X103421140Y-108180820I-77500J0D01*
G01*
G37*
G04 #@! TD.AperFunction*
G04 #@! TA.AperFunction,SMDPad,CuDef*
G36*
G01*
X105547540Y-107870820D02*
X105732540Y-107870820D01*
G75*
G02*
X105810040Y-107948320I0J-77500D01*
G01*
X105810040Y-108103320D01*
G75*
G02*
X105732540Y-108180820I-77500J0D01*
G01*
X105547540Y-108180820D01*
G75*
G02*
X105470040Y-108103320I0J77500D01*
G01*
X105470040Y-107948320D01*
G75*
G02*
X105547540Y-107870820I77500J0D01*
G01*
G37*
G04 #@! TD.AperFunction*
G04 #@! TA.AperFunction,SMDPad,CuDef*
G36*
G01*
X105547540Y-108420820D02*
X105732540Y-108420820D01*
G75*
G02*
X105810040Y-108498320I0J-77500D01*
G01*
X105810040Y-108653320D01*
G75*
G02*
X105732540Y-108730820I-77500J0D01*
G01*
X105547540Y-108730820D01*
G75*
G02*
X105470040Y-108653320I0J77500D01*
G01*
X105470040Y-108498320D01*
G75*
G02*
X105547540Y-108420820I77500J0D01*
G01*
G37*
G04 #@! TD.AperFunction*
G04 #@! TA.AperFunction,SMDPad,CuDef*
G36*
G01*
X98656640Y-111225320D02*
X98656640Y-111410320D01*
G75*
G02*
X98579140Y-111487820I-77500J0D01*
G01*
X98424140Y-111487820D01*
G75*
G02*
X98346640Y-111410320I0J77500D01*
G01*
X98346640Y-111225320D01*
G75*
G02*
X98424140Y-111147820I77500J0D01*
G01*
X98579140Y-111147820D01*
G75*
G02*
X98656640Y-111225320I0J-77500D01*
G01*
G37*
G04 #@! TD.AperFunction*
G04 #@! TA.AperFunction,SMDPad,CuDef*
G36*
G01*
X98106640Y-111225320D02*
X98106640Y-111410320D01*
G75*
G02*
X98029140Y-111487820I-77500J0D01*
G01*
X97874140Y-111487820D01*
G75*
G02*
X97796640Y-111410320I0J77500D01*
G01*
X97796640Y-111225320D01*
G75*
G02*
X97874140Y-111147820I77500J0D01*
G01*
X98029140Y-111147820D01*
G75*
G02*
X98106640Y-111225320I0J-77500D01*
G01*
G37*
G04 #@! TD.AperFunction*
G04 #@! TA.AperFunction,SMDPad,CuDef*
G36*
G01*
X102535140Y-117462620D02*
X102720140Y-117462620D01*
G75*
G02*
X102797640Y-117540120I0J-77500D01*
G01*
X102797640Y-117695120D01*
G75*
G02*
X102720140Y-117772620I-77500J0D01*
G01*
X102535140Y-117772620D01*
G75*
G02*
X102457640Y-117695120I0J77500D01*
G01*
X102457640Y-117540120D01*
G75*
G02*
X102535140Y-117462620I77500J0D01*
G01*
G37*
G04 #@! TD.AperFunction*
G04 #@! TA.AperFunction,SMDPad,CuDef*
G36*
G01*
X102535140Y-118012620D02*
X102720140Y-118012620D01*
G75*
G02*
X102797640Y-118090120I0J-77500D01*
G01*
X102797640Y-118245120D01*
G75*
G02*
X102720140Y-118322620I-77500J0D01*
G01*
X102535140Y-118322620D01*
G75*
G02*
X102457640Y-118245120I0J77500D01*
G01*
X102457640Y-118090120D01*
G75*
G02*
X102535140Y-118012620I77500J0D01*
G01*
G37*
G04 #@! TD.AperFunction*
G04 #@! TA.AperFunction,SMDPad,CuDef*
G36*
G01*
X102735340Y-108730820D02*
X102550340Y-108730820D01*
G75*
G02*
X102472840Y-108653320I0J77500D01*
G01*
X102472840Y-108498320D01*
G75*
G02*
X102550340Y-108420820I77500J0D01*
G01*
X102735340Y-108420820D01*
G75*
G02*
X102812840Y-108498320I0J-77500D01*
G01*
X102812840Y-108653320D01*
G75*
G02*
X102735340Y-108730820I-77500J0D01*
G01*
G37*
G04 #@! TD.AperFunction*
G04 #@! TA.AperFunction,SMDPad,CuDef*
G36*
G01*
X102735340Y-108180820D02*
X102550340Y-108180820D01*
G75*
G02*
X102472840Y-108103320I0J77500D01*
G01*
X102472840Y-107948320D01*
G75*
G02*
X102550340Y-107870820I77500J0D01*
G01*
X102735340Y-107870820D01*
G75*
G02*
X102812840Y-107948320I0J-77500D01*
G01*
X102812840Y-108103320D01*
G75*
G02*
X102735340Y-108180820I-77500J0D01*
G01*
G37*
G04 #@! TD.AperFunction*
G04 #@! TA.AperFunction,SMDPad,CuDef*
G36*
G01*
X107343640Y-112127120D02*
X107343640Y-111942120D01*
G75*
G02*
X107421140Y-111864620I77500J0D01*
G01*
X107576140Y-111864620D01*
G75*
G02*
X107653640Y-111942120I0J-77500D01*
G01*
X107653640Y-112127120D01*
G75*
G02*
X107576140Y-112204620I-77500J0D01*
G01*
X107421140Y-112204620D01*
G75*
G02*
X107343640Y-112127120I0J77500D01*
G01*
G37*
G04 #@! TD.AperFunction*
G04 #@! TA.AperFunction,SMDPad,CuDef*
G36*
G01*
X107893640Y-112127120D02*
X107893640Y-111942120D01*
G75*
G02*
X107971140Y-111864620I77500J0D01*
G01*
X108126140Y-111864620D01*
G75*
G02*
X108203640Y-111942120I0J-77500D01*
G01*
X108203640Y-112127120D01*
G75*
G02*
X108126140Y-112204620I-77500J0D01*
G01*
X107971140Y-112204620D01*
G75*
G02*
X107893640Y-112127120I0J77500D01*
G01*
G37*
G04 #@! TD.AperFunction*
G04 #@! TA.AperFunction,SMDPad,CuDef*
G36*
G01*
X107343640Y-112838320D02*
X107343640Y-112653320D01*
G75*
G02*
X107421140Y-112575820I77500J0D01*
G01*
X107576140Y-112575820D01*
G75*
G02*
X107653640Y-112653320I0J-77500D01*
G01*
X107653640Y-112838320D01*
G75*
G02*
X107576140Y-112915820I-77500J0D01*
G01*
X107421140Y-112915820D01*
G75*
G02*
X107343640Y-112838320I0J77500D01*
G01*
G37*
G04 #@! TD.AperFunction*
G04 #@! TA.AperFunction,SMDPad,CuDef*
G36*
G01*
X107893640Y-112838320D02*
X107893640Y-112653320D01*
G75*
G02*
X107971140Y-112575820I77500J0D01*
G01*
X108126140Y-112575820D01*
G75*
G02*
X108203640Y-112653320I0J-77500D01*
G01*
X108203640Y-112838320D01*
G75*
G02*
X108126140Y-112915820I-77500J0D01*
G01*
X107971140Y-112915820D01*
G75*
G02*
X107893640Y-112838320I0J77500D01*
G01*
G37*
G04 #@! TD.AperFunction*
G04 #@! TA.AperFunction,SMDPad,CuDef*
G36*
G01*
X102024140Y-108730820D02*
X101839140Y-108730820D01*
G75*
G02*
X101761640Y-108653320I0J77500D01*
G01*
X101761640Y-108498320D01*
G75*
G02*
X101839140Y-108420820I77500J0D01*
G01*
X102024140Y-108420820D01*
G75*
G02*
X102101640Y-108498320I0J-77500D01*
G01*
X102101640Y-108653320D01*
G75*
G02*
X102024140Y-108730820I-77500J0D01*
G01*
G37*
G04 #@! TD.AperFunction*
G04 #@! TA.AperFunction,SMDPad,CuDef*
G36*
G01*
X102024140Y-108180820D02*
X101839140Y-108180820D01*
G75*
G02*
X101761640Y-108103320I0J77500D01*
G01*
X101761640Y-107948320D01*
G75*
G02*
X101839140Y-107870820I77500J0D01*
G01*
X102024140Y-107870820D01*
G75*
G02*
X102101640Y-107948320I0J-77500D01*
G01*
X102101640Y-108103320D01*
G75*
G02*
X102024140Y-108180820I-77500J0D01*
G01*
G37*
G04 #@! TD.AperFunction*
D27*
X125561260Y-109327720D03*
X122511260Y-109327720D03*
D12*
X106132840Y-112639220D03*
X106132840Y-113189220D03*
X105574040Y-113189220D03*
X105574040Y-112639220D03*
D13*
X98498240Y-110739220D03*
X97948240Y-110739220D03*
X97952640Y-110180420D03*
X98502640Y-110180420D03*
D12*
X106112440Y-113724820D03*
X106112440Y-114274820D03*
X105538440Y-114265420D03*
X105538440Y-113715420D03*
X105596640Y-110902820D03*
X105596640Y-110352820D03*
X105015240Y-110353220D03*
X105015240Y-110903220D03*
D13*
X98501640Y-112441020D03*
X97951640Y-112441020D03*
X97951640Y-111882220D03*
X98501640Y-111882220D03*
G04 #@! TA.AperFunction,SMDPad,CuDef*
G36*
G01*
X107535140Y-114217020D02*
X107880140Y-114217020D01*
G75*
G02*
X108027640Y-114364520I0J-147500D01*
G01*
X108027640Y-114659520D01*
G75*
G02*
X107880140Y-114807020I-147500J0D01*
G01*
X107535140Y-114807020D01*
G75*
G02*
X107387640Y-114659520I0J147500D01*
G01*
X107387640Y-114364520D01*
G75*
G02*
X107535140Y-114217020I147500J0D01*
G01*
G37*
G04 #@! TD.AperFunction*
G04 #@! TA.AperFunction,SMDPad,CuDef*
G36*
G01*
X107535140Y-115187020D02*
X107880140Y-115187020D01*
G75*
G02*
X108027640Y-115334520I0J-147500D01*
G01*
X108027640Y-115629520D01*
G75*
G02*
X107880140Y-115777020I-147500J0D01*
G01*
X107535140Y-115777020D01*
G75*
G02*
X107387640Y-115629520I0J147500D01*
G01*
X107387640Y-115334520D01*
G75*
G02*
X107535140Y-115187020I147500J0D01*
G01*
G37*
G04 #@! TD.AperFunction*
G04 #@! TA.AperFunction,SMDPad,CuDef*
G36*
G01*
X107361940Y-110066620D02*
X107016940Y-110066620D01*
G75*
G02*
X106869440Y-109919120I0J147500D01*
G01*
X106869440Y-109624120D01*
G75*
G02*
X107016940Y-109476620I147500J0D01*
G01*
X107361940Y-109476620D01*
G75*
G02*
X107509440Y-109624120I0J-147500D01*
G01*
X107509440Y-109919120D01*
G75*
G02*
X107361940Y-110066620I-147500J0D01*
G01*
G37*
G04 #@! TD.AperFunction*
G04 #@! TA.AperFunction,SMDPad,CuDef*
G36*
G01*
X107361940Y-111036620D02*
X107016940Y-111036620D01*
G75*
G02*
X106869440Y-110889120I0J147500D01*
G01*
X106869440Y-110594120D01*
G75*
G02*
X107016940Y-110446620I147500J0D01*
G01*
X107361940Y-110446620D01*
G75*
G02*
X107509440Y-110594120I0J-147500D01*
G01*
X107509440Y-110889120D01*
G75*
G02*
X107361940Y-111036620I-147500J0D01*
G01*
G37*
G04 #@! TD.AperFunction*
D28*
X126061640Y-112032820D03*
X125855900Y-114971600D03*
X126450260Y-116566720D03*
X121766500Y-117747820D03*
X120692080Y-115825040D03*
X116417260Y-111728020D03*
X117458660Y-108916240D03*
X117882840Y-111735640D03*
X113326080Y-114656640D03*
X103084840Y-111517220D03*
X101992640Y-113015820D03*
X100544840Y-112965020D03*
X101713240Y-111720420D03*
X116211660Y-115412000D03*
X116211660Y-114421400D03*
X106148040Y-117673420D03*
X101220440Y-108504020D03*
X104725640Y-108504020D03*
X104039840Y-108504020D03*
X99086840Y-114625420D03*
X98274040Y-117851220D03*
X101916400Y-117664000D03*
X103476640Y-115158820D03*
X106818640Y-113648020D03*
X105078450Y-113355420D03*
X106376640Y-109697820D03*
X107776040Y-117876620D03*
X106844028Y-115416608D03*
X106656640Y-112057820D03*
X104736640Y-117672820D03*
X106920240Y-108672420D03*
X103135640Y-110374220D03*
X97954840Y-108088220D03*
X102424440Y-115632020D03*
X117075360Y-114954800D03*
X114485860Y-109307960D03*
X114581860Y-115052640D03*
X113556860Y-117105140D03*
X113435300Y-111199020D03*
X123092382Y-116835960D03*
X124486840Y-114956360D03*
X122558280Y-112020820D03*
X124082980Y-108428560D03*
X125756840Y-115882780D03*
X115331660Y-114454800D03*
X115331660Y-114954800D03*
X115352260Y-108417960D03*
X122652200Y-108417640D03*
X122315140Y-110082100D03*
X106794040Y-116952820D03*
X98401640Y-116937820D03*
X120735260Y-110084640D03*
X119952940Y-112484940D03*
X114055060Y-113818440D03*
X113321000Y-115151940D03*
X117091660Y-116448580D03*
X121768660Y-117244900D03*
X114051040Y-116321820D03*
X123333680Y-116150160D03*
X126297860Y-112898960D03*
X122716460Y-113973380D03*
X123300660Y-110478340D03*
X114034740Y-115670100D03*
X101931640Y-108580220D03*
X99569440Y-114549220D03*
X107498640Y-112745820D03*
X106198840Y-115819220D03*
X107911640Y-108342224D03*
X112878360Y-112314080D03*
X108622000Y-110605360D03*
X118548320Y-110125280D03*
X101054634Y-114039414D03*
X100712440Y-114752424D03*
X100356840Y-115082618D03*
X118068260Y-113782880D03*
X102054640Y-114039406D03*
X102043400Y-116546400D03*
X108573740Y-116063800D03*
X112855938Y-113696520D03*
X122268660Y-117744900D03*
X122269420Y-117244900D03*
X118947100Y-113790500D03*
X101554640Y-114039438D03*
X101561640Y-115784420D03*
X108586440Y-114542340D03*
X112838400Y-113119940D03*
X119074100Y-116020620D03*
X102554640Y-109369422D03*
X102054640Y-109369426D03*
X101554640Y-109369422D03*
X101054640Y-109369422D03*
X100554640Y-109369406D03*
X99546840Y-109367620D03*
X98401640Y-109237820D03*
X99315440Y-110459820D03*
X99136640Y-108502820D03*
X99469642Y-110954420D03*
X99836640Y-108502820D03*
X99696440Y-111958420D03*
X100536640Y-108502820D03*
X99442440Y-112466420D03*
X104050040Y-117613220D03*
X99848840Y-116200220D03*
X103328640Y-108580220D03*
X102642840Y-108580220D03*
X98496640Y-111323420D03*
X105513040Y-115336620D03*
X102627640Y-117613220D03*
X103338840Y-117613220D03*
X107504440Y-112050620D03*
X107447038Y-108650991D03*
X106108240Y-116952820D03*
X112874640Y-111749020D03*
X113315920Y-115698040D03*
X115241240Y-116307640D03*
X125731440Y-109033080D03*
X119495740Y-110165920D03*
X124573200Y-113488240D03*
X126795700Y-114113080D03*
X119970720Y-113798120D03*
X120770820Y-117745280D03*
X120267900Y-117244900D03*
X123577520Y-117608120D03*
X125355520Y-114684580D03*
X124044320Y-115734160D03*
X124253160Y-112888800D03*
X104143980Y-110445320D03*
X124753540Y-109782380D03*
X112734260Y-109899220D03*
X124263320Y-110178620D03*
X128263820Y-113102160D03*
X126338360Y-109833320D03*
X128294300Y-112093780D03*
X126348660Y-110518980D03*
X126341040Y-111034600D03*
X125596820Y-111507040D03*
D29*
X101698640Y-108025820D02*
X101220440Y-108504020D01*
X102642840Y-108025820D02*
X101698640Y-108025820D01*
X103561640Y-108025820D02*
X104039840Y-108504020D01*
X103328640Y-108025820D02*
X103561640Y-108025820D01*
X98096240Y-114943420D02*
X98768840Y-114943420D01*
X98768840Y-114943420D02*
X99086840Y-114625420D01*
X98189040Y-117856420D02*
X98268840Y-117856420D01*
X98268840Y-117856420D02*
X98274040Y-117851220D01*
X102554640Y-114039420D02*
X103054640Y-114039420D01*
X103054640Y-114039420D02*
X103054640Y-114697020D01*
X103054640Y-114736820D02*
X103476640Y-115158820D01*
X105574040Y-113189220D02*
X106132840Y-113189220D01*
X106132840Y-113189220D02*
X106359840Y-113189220D01*
X106359840Y-113189220D02*
X106818640Y-113648020D01*
X105547840Y-113724820D02*
X105538440Y-113715420D01*
X106112440Y-113724820D02*
X105547840Y-113724820D01*
X105538440Y-113715420D02*
X105438450Y-113715420D01*
X105438450Y-113715420D02*
X105078450Y-113355420D01*
X108048640Y-112745820D02*
X108048640Y-112034620D01*
X104087040Y-115158820D02*
X104126240Y-115119620D01*
X103476640Y-115158820D02*
X104087040Y-115158820D01*
X105583440Y-110353220D02*
X105599440Y-110337220D01*
X105015240Y-110353220D02*
X105583440Y-110353220D01*
X105861240Y-110337220D02*
X106336040Y-109862420D01*
X105599440Y-110337220D02*
X105861240Y-110337220D01*
X106336040Y-109862420D02*
X106336040Y-109738420D01*
X106336040Y-109738420D02*
X106376640Y-109697820D01*
X106114840Y-109050620D02*
X105640040Y-108575820D01*
X106351240Y-109050620D02*
X106114840Y-109050620D01*
X107753420Y-117854000D02*
X107776040Y-117876620D01*
X106844040Y-115416620D02*
X106844028Y-115416608D01*
X106775640Y-115348220D02*
X106844028Y-115416608D01*
X106107440Y-115348220D02*
X106775640Y-115348220D01*
X106651640Y-112060020D02*
X106656040Y-112060020D01*
X106656040Y-112060020D02*
X106681440Y-112085420D01*
X107146440Y-113648020D02*
X106818640Y-113648020D01*
X108048640Y-112745820D02*
X107146440Y-113648020D01*
X103338840Y-118167620D02*
X104050040Y-118167620D01*
X104050040Y-118167620D02*
X104241840Y-118167620D01*
X104241840Y-118167620D02*
X104736640Y-117672820D01*
X102627640Y-118167620D02*
X102369240Y-118167620D01*
X102369240Y-118167620D02*
X101906240Y-117704620D01*
X106542040Y-109050620D02*
X106920240Y-108672420D01*
X106351240Y-109050620D02*
X106542040Y-109050620D01*
X103054640Y-114697020D02*
X103054640Y-114736820D01*
X97952640Y-110180420D02*
X97952640Y-108090420D01*
X97952640Y-108090420D02*
X97954840Y-108088220D01*
X102401440Y-115609020D02*
X102424440Y-115632020D01*
X102401440Y-114920820D02*
X102401440Y-115609020D01*
X97952640Y-110734820D02*
X97948240Y-110739220D01*
X97952640Y-110180420D02*
X97952640Y-110734820D01*
X97948240Y-111314420D02*
X97951640Y-111317820D01*
X97948240Y-110739220D02*
X97948240Y-111314420D01*
X97951640Y-111317820D02*
X97951640Y-111882220D01*
X97951640Y-111882220D02*
X97951640Y-112441020D01*
X97951640Y-112441020D02*
X97951640Y-112999820D01*
X101819820Y-117567420D02*
X101916400Y-117664000D01*
X100458440Y-117567420D02*
X101819820Y-117567420D01*
X118056860Y-116330140D02*
X118194360Y-116192640D01*
X118056860Y-117105140D02*
X118056860Y-116330140D01*
X118194360Y-115692640D02*
X118194360Y-116192640D01*
X118194360Y-115192640D02*
X118194360Y-115692640D01*
X117313200Y-115192640D02*
X118194360Y-115192640D01*
X117075360Y-114954800D02*
X117313200Y-115192640D01*
X115913578Y-114421400D02*
X116211660Y-114421400D01*
X115556860Y-114064682D02*
X115913578Y-114421400D01*
X115556860Y-113780140D02*
X115556860Y-114064682D01*
X113419360Y-116967640D02*
X113556860Y-117105140D01*
X113419360Y-116192640D02*
X113419360Y-116967640D01*
X113556860Y-117105140D02*
X113556860Y-117105140D01*
D30*
X120431820Y-108727680D02*
X120726860Y-108432640D01*
X117042900Y-108727680D02*
X120431820Y-108727680D01*
D29*
X118696620Y-117744900D02*
X118056860Y-117105140D01*
X120268660Y-117744900D02*
X118696620Y-117744900D01*
X125855900Y-115783720D02*
X125756840Y-115882780D01*
X125855900Y-114971600D02*
X125855900Y-115783720D01*
X125756840Y-115882780D02*
X125756840Y-115882780D01*
X107778820Y-117327620D02*
X107214840Y-117327620D01*
X107168840Y-117327620D02*
X106794040Y-116952820D01*
X107214840Y-117327620D02*
X107168840Y-117327620D01*
X99629040Y-117856420D02*
X99320240Y-117856420D01*
X99320240Y-117856420D02*
X98401640Y-116937820D01*
X121768660Y-117244900D02*
X121768660Y-117244900D01*
X121768660Y-117244900D02*
X121268660Y-117744900D01*
X123620700Y-116437180D02*
X123333680Y-116150160D01*
X124171880Y-116437180D02*
X123620700Y-116437180D01*
X126290240Y-113295200D02*
X126290240Y-113295200D01*
X126290240Y-112906580D02*
X126297860Y-112898960D01*
X126290240Y-113744100D02*
X126290240Y-112906580D01*
X115056860Y-117105140D02*
X115101600Y-117105140D01*
X115056860Y-116692220D02*
X115056860Y-117105140D01*
X114034740Y-115670100D02*
X115056860Y-116692220D01*
X98900640Y-111454420D02*
X99469640Y-111454420D01*
X98472840Y-111882220D02*
X98900640Y-111454420D01*
X98472840Y-113676820D02*
X98096240Y-114053420D01*
X98096240Y-114053420D02*
X99073640Y-114053420D01*
X99073640Y-114053420D02*
X99569440Y-114549220D01*
X105389240Y-112454420D02*
X105574040Y-112639220D01*
X104139640Y-112454420D02*
X105389240Y-112454420D01*
X106699840Y-112639220D02*
X106818640Y-112758020D01*
X105574040Y-112639220D02*
X106699840Y-112639220D01*
X106818640Y-112758020D02*
X107486440Y-112758020D01*
X107498640Y-112745820D02*
X107486440Y-112758020D01*
X106264041Y-115884421D02*
X106198840Y-115819220D01*
X107707640Y-115482020D02*
X107305239Y-115884421D01*
X107305239Y-115884421D02*
X106264041Y-115884421D01*
X105077240Y-115819220D02*
X106198840Y-115819220D01*
X104685040Y-115427020D02*
X105077240Y-115819220D01*
X104685040Y-115119620D02*
X104685040Y-115427020D01*
X107911640Y-109049420D02*
X107911640Y-108342224D01*
X107189440Y-109771620D02*
X107911640Y-109049420D01*
X98501640Y-111882220D02*
X98501640Y-112441020D01*
X98501640Y-112999820D02*
X98501640Y-112441020D01*
X98501640Y-113648020D02*
X98472840Y-113676820D01*
X98501640Y-112999820D02*
X98501640Y-113648020D01*
D30*
X107751540Y-111475820D02*
X108622000Y-110605360D01*
X105559440Y-111475820D02*
X107751540Y-111475820D01*
D29*
X106107440Y-114798220D02*
X105523240Y-114798220D01*
X105381040Y-114798220D02*
X105523240Y-114798220D01*
X105081240Y-114295220D02*
X105081240Y-114498420D01*
X105081240Y-114498420D02*
X105381040Y-114798220D01*
X104139640Y-113454420D02*
X104240440Y-113454420D01*
X104240440Y-113454420D02*
X105081240Y-114295220D01*
X106103040Y-114265420D02*
X106112440Y-114274820D01*
X105538440Y-114265420D02*
X106103040Y-114265420D01*
X105410664Y-114265420D02*
X105538440Y-114265420D01*
X104725640Y-113580396D02*
X105410664Y-114265420D01*
X104725640Y-113177620D02*
X104725640Y-113580396D01*
X104139640Y-112954420D02*
X104502440Y-112954420D01*
X104502440Y-112954420D02*
X104725640Y-113177620D01*
X106592240Y-114274820D02*
X106844040Y-114526620D01*
X106112440Y-114274820D02*
X106592240Y-114274820D01*
X107693040Y-114526620D02*
X107707640Y-114512020D01*
X106844040Y-114526620D02*
X107693040Y-114526620D01*
X104964040Y-110954420D02*
X105015240Y-110903220D01*
X104139640Y-110954420D02*
X104964040Y-110954420D01*
X105583440Y-110903220D02*
X105599440Y-110887220D01*
X105015240Y-110903220D02*
X105583440Y-110903220D01*
X106201240Y-110887220D02*
X106336040Y-110752420D01*
X105599440Y-110887220D02*
X106201240Y-110887220D01*
X107178640Y-110752420D02*
X107189440Y-110741620D01*
X106336040Y-110752420D02*
X107178640Y-110752420D01*
X101054640Y-114039420D02*
X101054634Y-114039414D01*
X100554640Y-114039420D02*
X100554640Y-114594624D01*
X100554640Y-114594624D02*
X100712440Y-114752424D01*
X100356840Y-114927620D02*
X100356840Y-115082618D01*
X100054640Y-114039420D02*
X100054640Y-114625420D01*
X100054640Y-114625420D02*
X100356840Y-114927620D01*
X102043400Y-116546400D02*
X107961600Y-116546400D01*
X118056860Y-113780140D02*
X118064021Y-113772979D01*
X107964140Y-116548940D02*
X107961600Y-116546400D01*
X118042860Y-113481598D02*
X117455142Y-112893880D01*
X118042860Y-113767640D02*
X118042860Y-113481598D01*
X113658578Y-112893880D02*
X112855938Y-113696520D01*
X117455142Y-112893880D02*
X113658578Y-112893880D01*
X112855938Y-113696520D02*
X112855938Y-113696520D01*
X108088600Y-116548940D02*
X108573740Y-116063800D01*
X107964140Y-116548940D02*
X108088600Y-116548940D01*
X122268660Y-117744900D02*
X122268660Y-117744900D01*
X102369787Y-116172021D02*
X107797697Y-116172021D01*
X101982186Y-115784420D02*
X102369787Y-116172021D01*
X101561640Y-115784420D02*
X101982186Y-115784420D01*
X118194360Y-114692640D02*
X118478902Y-114692640D01*
X118194360Y-114692640D02*
X118423420Y-114692640D01*
X118340040Y-112545900D02*
X113412440Y-112545900D01*
X113412440Y-112545900D02*
X112838400Y-113119940D01*
X112838400Y-113119940D02*
X112838400Y-113119940D01*
X108586440Y-115383278D02*
X108586440Y-114542340D01*
X107797697Y-116172021D02*
X108586440Y-115383278D01*
X118684260Y-114692640D02*
X119074100Y-115082480D01*
X118194360Y-114692640D02*
X118684260Y-114692640D01*
X119074100Y-115082480D02*
X119074100Y-116020620D01*
X119074100Y-116020620D02*
X119074100Y-116020620D01*
X118947100Y-113152960D02*
X118340040Y-112545900D01*
X118947100Y-113790500D02*
X118947100Y-113152960D01*
X118525020Y-114692640D02*
X118194360Y-114692640D01*
X118947100Y-114270560D02*
X118525020Y-114692640D01*
X118947100Y-113790500D02*
X118947100Y-114270560D01*
X103596040Y-114039420D02*
X104126240Y-114569620D01*
X103554640Y-114039420D02*
X103596040Y-114039420D01*
X104126240Y-114569620D02*
X104685040Y-114569620D01*
X100054640Y-109369420D02*
X99548640Y-109369420D01*
X99548640Y-109369420D02*
X99546840Y-109367620D01*
X99469640Y-110454420D02*
X99320840Y-110454420D01*
X99320840Y-110454420D02*
X99315440Y-110459820D01*
D31*
X99469640Y-110987820D02*
X99298228Y-110987820D01*
X99298228Y-110987820D02*
X99292828Y-110993220D01*
D29*
X99469640Y-110954420D02*
X99469642Y-110954420D01*
X99469640Y-111954420D02*
X99692440Y-111954420D01*
X99692440Y-111954420D02*
X99696440Y-111958420D01*
X99469640Y-112454420D02*
X99454440Y-112454420D01*
X99454440Y-112454420D02*
X99442440Y-112466420D01*
X99327440Y-112987820D02*
X99315440Y-112999820D01*
X99898840Y-115696620D02*
X99629040Y-115966420D01*
X99895240Y-115700220D02*
X99629040Y-115966420D01*
X99895240Y-115108020D02*
X99895240Y-115700220D01*
X105523240Y-115348220D02*
X105523240Y-115346820D01*
X105523240Y-115346820D02*
X105513040Y-115336620D01*
X105661040Y-108046820D02*
X105640040Y-108025820D01*
X106351240Y-108160620D02*
X106237440Y-108046820D01*
X106237440Y-108046820D02*
X105661040Y-108046820D01*
X99911240Y-116262620D02*
X99848840Y-116200220D01*
X100468640Y-116262620D02*
X99911240Y-116262620D01*
X107498640Y-112034620D02*
X107498640Y-112044820D01*
X107498640Y-112044820D02*
X107504440Y-112050620D01*
X98728640Y-109954420D02*
X98502640Y-110180420D01*
X99469640Y-109954420D02*
X98728640Y-109954420D01*
X98502640Y-110734820D02*
X98498240Y-110739220D01*
X98502640Y-110180420D02*
X98502640Y-110734820D01*
X98498240Y-111302420D02*
X98477240Y-111323420D01*
X106351240Y-108160620D02*
X106956667Y-108160620D01*
X106956667Y-108160620D02*
X107447038Y-108650991D01*
X107214840Y-117877620D02*
X107033040Y-117877620D01*
X107033040Y-117877620D02*
X106108240Y-116952820D01*
X98498240Y-111321820D02*
X98496640Y-111323420D01*
X98498240Y-110739220D02*
X98498240Y-111321820D01*
X100468640Y-117007220D02*
X100458440Y-117017420D01*
X100468640Y-116262620D02*
X100468640Y-117007220D01*
X116056860Y-116820598D02*
X116056860Y-117105140D01*
X115543902Y-116307640D02*
X116056860Y-116820598D01*
X115241240Y-116307640D02*
X115543902Y-116307640D01*
D30*
X104988040Y-111454420D02*
X105009440Y-111475820D01*
X104139640Y-111454420D02*
X104988040Y-111454420D01*
D29*
X104903840Y-111954420D02*
X105009440Y-112060020D01*
X104139640Y-111954420D02*
X104903840Y-111954420D01*
X105559440Y-112060020D02*
X106101640Y-112060020D01*
X98486840Y-115966420D02*
X99345240Y-115108020D01*
X98189040Y-115966420D02*
X98486840Y-115966420D01*
X120770820Y-117992767D02*
X121082133Y-118304080D01*
X120770820Y-117745280D02*
X120770820Y-117992767D01*
X125262840Y-118304080D02*
X125943560Y-117623360D01*
X121082133Y-118304080D02*
X125262840Y-118304080D01*
X100639640Y-115712620D02*
X101431440Y-114920820D01*
X100468640Y-115712620D02*
X100639640Y-115712620D01*
D30*
X122089759Y-113953901D02*
X123955980Y-112087680D01*
X122089759Y-116176314D02*
X122089759Y-113953901D01*
X121768660Y-116497413D02*
X122089759Y-116176314D01*
X121768660Y-116744900D02*
X121768660Y-116497413D01*
X125058020Y-112087680D02*
X125309800Y-112339460D01*
X123955980Y-112087680D02*
X125058020Y-112087680D01*
X125309800Y-112839460D02*
X125309800Y-112339460D01*
X122445368Y-116121394D02*
X123955980Y-114610782D01*
X123955980Y-114610782D02*
X123955980Y-114087680D01*
X122445368Y-116568192D02*
X122445368Y-116121394D01*
X122268660Y-116744900D02*
X122445368Y-116568192D01*
X125061580Y-114087680D02*
X125309800Y-113839460D01*
X123955980Y-114087680D02*
X125061580Y-114087680D01*
X125309800Y-113339460D02*
X125309800Y-113839460D01*
D29*
X126452800Y-115345660D02*
X126452800Y-115345660D01*
X126452800Y-114456660D02*
X126290240Y-114294100D01*
X126452800Y-116004700D02*
X126452800Y-114456660D01*
X126455340Y-116007240D02*
X126452800Y-116004700D01*
X125746000Y-114294100D02*
X125355520Y-114684580D01*
X126290240Y-114294100D02*
X125746000Y-114294100D01*
X124341260Y-115734160D02*
X124044320Y-115734160D01*
X124721880Y-116114780D02*
X124341260Y-115734160D01*
X124721880Y-116437180D02*
X124721880Y-116114780D01*
X124726280Y-116432780D02*
X124721880Y-116437180D01*
X125756840Y-116432780D02*
X124726280Y-116432780D01*
M02*
