G04 #@! TF.GenerationSoftware,KiCad,Pcbnew,(5.1.12)-1*
G04 #@! TF.CreationDate,2024-03-07T16:38:44+08:00*
G04 #@! TF.ProjectId,CM2_MesoScope,434d325f-4d65-4736-9f53-636f70652e6b,rev?*
G04 #@! TF.SameCoordinates,Original*
G04 #@! TF.FileFunction,Legend,Bot*
G04 #@! TF.FilePolarity,Positive*
%FSLAX46Y46*%
G04 Gerber Fmt 4.6, Leading zero omitted, Abs format (unit mm)*
G04 Created by KiCad (PCBNEW (5.1.12)-1) date 2024-03-07 16:38:44*
%MOMM*%
%LPD*%
G01*
G04 APERTURE LIST*
%ADD10C,0.100000*%
%ADD11C,0.120000*%
%ADD12C,0.160000*%
%ADD13C,0.150000*%
%ADD14C,0.050000*%
%ADD15C,0.200000*%
%ADD16C,0.080000*%
G04 APERTURE END LIST*
D10*
X123839640Y-117664480D02*
X123839640Y-117094480D01*
X125959640Y-117664480D02*
X125959640Y-117094480D01*
X125959640Y-115604480D02*
X125959640Y-116174480D01*
X123839640Y-115604480D02*
X123839640Y-116174480D01*
D11*
X122897160Y-110135820D02*
X122897160Y-109660820D01*
X126117160Y-112880820D02*
X125642160Y-112880820D01*
X126117160Y-112405820D02*
X126117160Y-112880820D01*
X126117160Y-109660820D02*
X125642160Y-109660820D01*
X126117160Y-110135820D02*
X126117160Y-109660820D01*
X122897160Y-112880820D02*
X123372160Y-112880820D01*
X122897160Y-112405820D02*
X122897160Y-112880820D01*
D10*
X121500340Y-116576820D02*
X121250340Y-116576820D01*
X121500340Y-115616820D02*
X121250340Y-115616820D01*
D11*
X107266640Y-118127820D02*
X108026640Y-118127820D01*
X108026640Y-118127820D02*
X108026640Y-117367820D01*
X98706640Y-118127820D02*
X97946640Y-118127820D01*
X97946640Y-118127820D02*
X97946640Y-117367820D01*
X98706640Y-108047820D02*
X97946640Y-108047820D01*
X97946640Y-108047820D02*
X97946640Y-108807820D01*
X107266640Y-108047820D02*
X108026640Y-108047820D01*
X108026640Y-108047820D02*
X108026640Y-108807820D01*
D10*
G36*
X114302900Y-113112220D02*
G01*
X114302900Y-113312220D01*
X114802900Y-113312220D01*
X114802900Y-113112220D01*
X114302900Y-113112220D01*
G37*
X114302900Y-113112220D02*
X114302900Y-113312220D01*
X114802900Y-113312220D01*
X114802900Y-113112220D01*
X114302900Y-113112220D01*
D11*
X117302900Y-113312220D02*
X117302900Y-113122220D01*
X114302900Y-113312220D02*
X117302900Y-113312220D01*
X114302900Y-113122220D02*
X114302900Y-113312220D01*
X117302900Y-110312220D02*
X117302900Y-110502220D01*
X114302900Y-110312220D02*
X117302900Y-110312220D01*
X114302900Y-110502220D02*
X114302900Y-110312220D01*
D10*
G36*
X115161660Y-115734800D02*
G01*
X115161660Y-116004800D01*
X115511660Y-115996200D01*
X115511660Y-115742200D01*
X115161660Y-115734800D01*
G37*
X115161660Y-115734800D02*
X115161660Y-116004800D01*
X115511660Y-115996200D01*
X115511660Y-115742200D01*
X115161660Y-115734800D01*
X117261660Y-116004800D02*
X117261660Y-115734800D01*
X115161660Y-116004800D02*
X117261660Y-116004800D01*
X115161660Y-115734800D02*
X115161660Y-116004800D01*
X117261660Y-113904800D02*
X117261660Y-114174800D01*
X115161660Y-113904800D02*
X117261660Y-113904800D01*
X115161660Y-114174800D02*
X115161660Y-113904800D01*
X117659500Y-115817560D02*
X117659500Y-116457560D01*
X119859500Y-115817560D02*
X119859500Y-116457560D01*
D12*
X126095830Y-115774718D02*
X126095830Y-117045670D01*
X126021068Y-117195194D01*
X125946306Y-117269956D01*
X125796782Y-117344718D01*
X125497735Y-117344718D01*
X125348211Y-117269956D01*
X125273449Y-117195194D01*
X125198687Y-117045670D01*
X125198687Y-115774718D01*
X124376306Y-117344718D02*
X124077259Y-117344718D01*
X123927735Y-117269956D01*
X123852973Y-117195194D01*
X123703449Y-116970908D01*
X123628687Y-116671860D01*
X123628687Y-116073765D01*
X123703449Y-115924241D01*
X123778211Y-115849480D01*
X123927735Y-115774718D01*
X124226782Y-115774718D01*
X124376306Y-115849480D01*
X124451068Y-115924241D01*
X124525830Y-116073765D01*
X124525830Y-116447575D01*
X124451068Y-116597099D01*
X124376306Y-116671860D01*
X124226782Y-116746622D01*
X123927735Y-116746622D01*
X123778211Y-116671860D01*
X123703449Y-116597099D01*
X123628687Y-116447575D01*
D13*
X123875720Y-110513995D02*
X124685244Y-110513995D01*
X124780482Y-110561614D01*
X124828101Y-110609233D01*
X124875720Y-110704471D01*
X124875720Y-110894947D01*
X124828101Y-110990185D01*
X124780482Y-111037804D01*
X124685244Y-111085423D01*
X123875720Y-111085423D01*
X123970959Y-111513995D02*
X123923340Y-111561614D01*
X123875720Y-111656852D01*
X123875720Y-111894947D01*
X123923340Y-111990185D01*
X123970959Y-112037804D01*
X124066197Y-112085423D01*
X124161435Y-112085423D01*
X124304292Y-112037804D01*
X124875720Y-111466376D01*
X124875720Y-112085423D01*
D14*
X125494068Y-114339270D02*
X125660735Y-114101175D01*
X125779782Y-114339270D02*
X125779782Y-113839270D01*
X125589306Y-113839270D01*
X125541687Y-113863080D01*
X125517878Y-113886889D01*
X125494068Y-113934508D01*
X125494068Y-114005937D01*
X125517878Y-114053556D01*
X125541687Y-114077365D01*
X125589306Y-114101175D01*
X125779782Y-114101175D01*
X125017878Y-114339270D02*
X125303592Y-114339270D01*
X125160735Y-114339270D02*
X125160735Y-113839270D01*
X125208354Y-113910699D01*
X125255973Y-113958318D01*
X125303592Y-113982127D01*
X124732163Y-114053556D02*
X124779782Y-114029746D01*
X124803592Y-114005937D01*
X124827401Y-113958318D01*
X124827401Y-113934508D01*
X124803592Y-113886889D01*
X124779782Y-113863080D01*
X124732163Y-113839270D01*
X124636925Y-113839270D01*
X124589306Y-113863080D01*
X124565497Y-113886889D01*
X124541687Y-113934508D01*
X124541687Y-113958318D01*
X124565497Y-114005937D01*
X124589306Y-114029746D01*
X124636925Y-114053556D01*
X124732163Y-114053556D01*
X124779782Y-114077365D01*
X124803592Y-114101175D01*
X124827401Y-114148794D01*
X124827401Y-114244032D01*
X124803592Y-114291651D01*
X124779782Y-114315460D01*
X124732163Y-114339270D01*
X124636925Y-114339270D01*
X124589306Y-114315460D01*
X124565497Y-114291651D01*
X124541687Y-114244032D01*
X124541687Y-114148794D01*
X124565497Y-114101175D01*
X124589306Y-114077365D01*
X124636925Y-114053556D01*
X126831390Y-114824766D02*
X126593295Y-114658100D01*
X126831390Y-114539052D02*
X126331390Y-114539052D01*
X126331390Y-114729528D01*
X126355200Y-114777147D01*
X126379009Y-114800957D01*
X126426628Y-114824766D01*
X126498057Y-114824766D01*
X126545676Y-114800957D01*
X126569485Y-114777147D01*
X126593295Y-114729528D01*
X126593295Y-114539052D01*
X126331390Y-115277147D02*
X126331390Y-115039052D01*
X126569485Y-115015242D01*
X126545676Y-115039052D01*
X126521866Y-115086671D01*
X126521866Y-115205719D01*
X126545676Y-115253338D01*
X126569485Y-115277147D01*
X126617104Y-115300957D01*
X126736152Y-115300957D01*
X126783771Y-115277147D01*
X126807580Y-115253338D01*
X126831390Y-115205719D01*
X126831390Y-115086671D01*
X126807580Y-115039052D01*
X126783771Y-115015242D01*
X124533268Y-115134931D02*
X124557078Y-115158740D01*
X124628506Y-115182550D01*
X124676125Y-115182550D01*
X124747554Y-115158740D01*
X124795173Y-115111121D01*
X124818982Y-115063502D01*
X124842792Y-114968264D01*
X124842792Y-114896836D01*
X124818982Y-114801598D01*
X124795173Y-114753979D01*
X124747554Y-114706360D01*
X124676125Y-114682550D01*
X124628506Y-114682550D01*
X124557078Y-114706360D01*
X124533268Y-114730169D01*
X124080887Y-114682550D02*
X124318982Y-114682550D01*
X124342792Y-114920645D01*
X124318982Y-114896836D01*
X124271363Y-114873026D01*
X124152316Y-114873026D01*
X124104697Y-114896836D01*
X124080887Y-114920645D01*
X124057078Y-114968264D01*
X124057078Y-115087312D01*
X124080887Y-115134931D01*
X124104697Y-115158740D01*
X124152316Y-115182550D01*
X124271363Y-115182550D01*
X124318982Y-115158740D01*
X124342792Y-115134931D01*
X123866601Y-114730169D02*
X123842792Y-114706360D01*
X123795173Y-114682550D01*
X123676125Y-114682550D01*
X123628506Y-114706360D01*
X123604697Y-114730169D01*
X123580887Y-114777788D01*
X123580887Y-114825407D01*
X123604697Y-114896836D01*
X123890411Y-115182550D01*
X123580887Y-115182550D01*
X125897928Y-115147631D02*
X125921738Y-115171440D01*
X125993166Y-115195250D01*
X126040785Y-115195250D01*
X126112214Y-115171440D01*
X126159833Y-115123821D01*
X126183642Y-115076202D01*
X126207452Y-114980964D01*
X126207452Y-114909536D01*
X126183642Y-114814298D01*
X126159833Y-114766679D01*
X126112214Y-114719060D01*
X126040785Y-114695250D01*
X125993166Y-114695250D01*
X125921738Y-114719060D01*
X125897928Y-114742869D01*
X125445547Y-114695250D02*
X125683642Y-114695250D01*
X125707452Y-114933345D01*
X125683642Y-114909536D01*
X125636023Y-114885726D01*
X125516976Y-114885726D01*
X125469357Y-114909536D01*
X125445547Y-114933345D01*
X125421738Y-114980964D01*
X125421738Y-115100012D01*
X125445547Y-115147631D01*
X125469357Y-115171440D01*
X125516976Y-115195250D01*
X125636023Y-115195250D01*
X125683642Y-115171440D01*
X125707452Y-115147631D01*
X124945547Y-115195250D02*
X125231261Y-115195250D01*
X125088404Y-115195250D02*
X125088404Y-114695250D01*
X125136023Y-114766679D01*
X125183642Y-114814298D01*
X125231261Y-114838107D01*
X121932371Y-109562551D02*
X121956180Y-109538741D01*
X121979990Y-109467313D01*
X121979990Y-109419694D01*
X121956180Y-109348265D01*
X121908561Y-109300646D01*
X121860942Y-109276837D01*
X121765704Y-109253027D01*
X121694276Y-109253027D01*
X121599038Y-109276837D01*
X121551419Y-109300646D01*
X121503800Y-109348265D01*
X121479990Y-109419694D01*
X121479990Y-109467313D01*
X121503800Y-109538741D01*
X121527609Y-109562551D01*
X121646657Y-109991122D02*
X121979990Y-109991122D01*
X121456180Y-109872075D02*
X121813323Y-109753027D01*
X121813323Y-110062551D01*
X121694276Y-110324456D02*
X121670466Y-110276837D01*
X121646657Y-110253027D01*
X121599038Y-110229218D01*
X121575228Y-110229218D01*
X121527609Y-110253027D01*
X121503800Y-110276837D01*
X121479990Y-110324456D01*
X121479990Y-110419694D01*
X121503800Y-110467313D01*
X121527609Y-110491122D01*
X121575228Y-110514932D01*
X121599038Y-110514932D01*
X121646657Y-110491122D01*
X121670466Y-110467313D01*
X121694276Y-110419694D01*
X121694276Y-110324456D01*
X121718085Y-110276837D01*
X121741895Y-110253027D01*
X121789514Y-110229218D01*
X121884752Y-110229218D01*
X121932371Y-110253027D01*
X121956180Y-110276837D01*
X121979990Y-110324456D01*
X121979990Y-110419694D01*
X121956180Y-110467313D01*
X121932371Y-110491122D01*
X121884752Y-110514932D01*
X121789514Y-110514932D01*
X121741895Y-110491122D01*
X121718085Y-110467313D01*
X121694276Y-110419694D01*
X123258188Y-108607131D02*
X123281998Y-108630940D01*
X123353426Y-108654750D01*
X123401045Y-108654750D01*
X123472474Y-108630940D01*
X123520093Y-108583321D01*
X123543902Y-108535702D01*
X123567712Y-108440464D01*
X123567712Y-108369036D01*
X123543902Y-108273798D01*
X123520093Y-108226179D01*
X123472474Y-108178560D01*
X123401045Y-108154750D01*
X123353426Y-108154750D01*
X123281998Y-108178560D01*
X123258188Y-108202369D01*
X122829617Y-108321417D02*
X122829617Y-108654750D01*
X122948664Y-108130940D02*
X123067712Y-108488083D01*
X122758188Y-108488083D01*
X122615331Y-108154750D02*
X122281998Y-108154750D01*
X122496283Y-108654750D01*
X123081733Y-114151951D02*
X123105542Y-114175760D01*
X123176971Y-114199570D01*
X123224590Y-114199570D01*
X123296019Y-114175760D01*
X123343638Y-114128141D01*
X123367447Y-114080522D01*
X123391257Y-113985284D01*
X123391257Y-113913856D01*
X123367447Y-113818618D01*
X123343638Y-113770999D01*
X123296019Y-113723380D01*
X123224590Y-113699570D01*
X123176971Y-113699570D01*
X123105542Y-113723380D01*
X123081733Y-113747189D01*
X122653161Y-113699570D02*
X122748400Y-113699570D01*
X122796019Y-113723380D01*
X122819828Y-113747189D01*
X122867447Y-113818618D01*
X122891257Y-113913856D01*
X122891257Y-114104332D01*
X122867447Y-114151951D01*
X122843638Y-114175760D01*
X122796019Y-114199570D01*
X122700780Y-114199570D01*
X122653161Y-114175760D01*
X122629352Y-114151951D01*
X122605542Y-114104332D01*
X122605542Y-113985284D01*
X122629352Y-113937665D01*
X122653161Y-113913856D01*
X122700780Y-113890046D01*
X122796019Y-113890046D01*
X122843638Y-113913856D01*
X122867447Y-113937665D01*
X122891257Y-113985284D01*
X124445713Y-108604591D02*
X124469522Y-108628400D01*
X124540951Y-108652210D01*
X124588570Y-108652210D01*
X124659999Y-108628400D01*
X124707618Y-108580781D01*
X124731427Y-108533162D01*
X124755237Y-108437924D01*
X124755237Y-108366496D01*
X124731427Y-108271258D01*
X124707618Y-108223639D01*
X124659999Y-108176020D01*
X124588570Y-108152210D01*
X124540951Y-108152210D01*
X124469522Y-108176020D01*
X124445713Y-108199829D01*
X123993332Y-108152210D02*
X124231427Y-108152210D01*
X124255237Y-108390305D01*
X124231427Y-108366496D01*
X124183808Y-108342686D01*
X124064760Y-108342686D01*
X124017141Y-108366496D01*
X123993332Y-108390305D01*
X123969522Y-108437924D01*
X123969522Y-108556972D01*
X123993332Y-108604591D01*
X124017141Y-108628400D01*
X124064760Y-108652210D01*
X124183808Y-108652210D01*
X124231427Y-108628400D01*
X124255237Y-108604591D01*
X114530293Y-108929388D02*
X114539817Y-108938912D01*
X114568388Y-108948436D01*
X114587436Y-108948436D01*
X114616007Y-108938912D01*
X114635055Y-108919864D01*
X114644579Y-108900817D01*
X114654102Y-108862721D01*
X114654102Y-108834150D01*
X114644579Y-108796055D01*
X114635055Y-108777007D01*
X114616007Y-108757960D01*
X114587436Y-108748436D01*
X114568388Y-108748436D01*
X114539817Y-108757960D01*
X114530293Y-108767483D01*
X114454102Y-108767483D02*
X114444579Y-108757960D01*
X114425531Y-108748436D01*
X114377912Y-108748436D01*
X114358864Y-108757960D01*
X114349340Y-108767483D01*
X114339817Y-108786531D01*
X114339817Y-108805579D01*
X114349340Y-108834150D01*
X114463626Y-108948436D01*
X114339817Y-108948436D01*
X113643833Y-108931848D02*
X113653357Y-108941372D01*
X113681928Y-108950896D01*
X113700976Y-108950896D01*
X113729547Y-108941372D01*
X113748595Y-108922324D01*
X113758119Y-108903277D01*
X113767642Y-108865181D01*
X113767642Y-108836610D01*
X113758119Y-108798515D01*
X113748595Y-108779467D01*
X113729547Y-108760420D01*
X113700976Y-108750896D01*
X113681928Y-108750896D01*
X113653357Y-108760420D01*
X113643833Y-108769943D01*
X113453357Y-108950896D02*
X113567642Y-108950896D01*
X113510500Y-108950896D02*
X113510500Y-108750896D01*
X113529547Y-108779467D01*
X113548595Y-108798515D01*
X113567642Y-108808039D01*
X115513571Y-108910188D02*
X115523095Y-108919712D01*
X115551666Y-108929236D01*
X115570714Y-108929236D01*
X115599285Y-108919712D01*
X115618333Y-108900664D01*
X115627857Y-108881617D01*
X115637380Y-108843521D01*
X115637380Y-108814950D01*
X115627857Y-108776855D01*
X115618333Y-108757807D01*
X115599285Y-108738760D01*
X115570714Y-108729236D01*
X115551666Y-108729236D01*
X115523095Y-108738760D01*
X115513571Y-108748283D01*
X115437380Y-108748283D02*
X115427857Y-108738760D01*
X115408809Y-108729236D01*
X115361190Y-108729236D01*
X115342142Y-108738760D01*
X115332619Y-108748283D01*
X115323095Y-108767331D01*
X115323095Y-108786379D01*
X115332619Y-108814950D01*
X115446904Y-108929236D01*
X115323095Y-108929236D01*
X115199285Y-108729236D02*
X115180238Y-108729236D01*
X115161190Y-108738760D01*
X115151666Y-108748283D01*
X115142142Y-108767331D01*
X115132619Y-108805426D01*
X115132619Y-108853045D01*
X115142142Y-108891140D01*
X115151666Y-108910188D01*
X115161190Y-108919712D01*
X115180238Y-108929236D01*
X115199285Y-108929236D01*
X115218333Y-108919712D01*
X115227857Y-108910188D01*
X115237380Y-108891140D01*
X115246904Y-108853045D01*
X115246904Y-108805426D01*
X115237380Y-108767331D01*
X115227857Y-108748283D01*
X115218333Y-108738760D01*
X115199285Y-108729236D01*
X116949388Y-117784611D02*
X116973198Y-117808420D01*
X117044626Y-117832230D01*
X117092245Y-117832230D01*
X117163674Y-117808420D01*
X117211293Y-117760801D01*
X117235102Y-117713182D01*
X117258912Y-117617944D01*
X117258912Y-117546516D01*
X117235102Y-117451278D01*
X117211293Y-117403659D01*
X117163674Y-117356040D01*
X117092245Y-117332230D01*
X117044626Y-117332230D01*
X116973198Y-117356040D01*
X116949388Y-117379849D01*
X116520817Y-117498897D02*
X116520817Y-117832230D01*
X116639864Y-117308420D02*
X116758912Y-117665563D01*
X116449388Y-117665563D01*
X116044626Y-117332230D02*
X116139864Y-117332230D01*
X116187483Y-117356040D01*
X116211293Y-117379849D01*
X116258912Y-117451278D01*
X116282721Y-117546516D01*
X116282721Y-117736992D01*
X116258912Y-117784611D01*
X116235102Y-117808420D01*
X116187483Y-117832230D01*
X116092245Y-117832230D01*
X116044626Y-117808420D01*
X116020817Y-117784611D01*
X115997007Y-117736992D01*
X115997007Y-117617944D01*
X116020817Y-117570325D01*
X116044626Y-117546516D01*
X116092245Y-117522706D01*
X116187483Y-117522706D01*
X116235102Y-117546516D01*
X116258912Y-117570325D01*
X116282721Y-117617944D01*
X116721091Y-116673708D02*
X116730615Y-116683232D01*
X116759186Y-116692756D01*
X116778234Y-116692756D01*
X116806805Y-116683232D01*
X116825853Y-116664184D01*
X116835377Y-116645137D01*
X116844900Y-116607041D01*
X116844900Y-116578470D01*
X116835377Y-116540375D01*
X116825853Y-116521327D01*
X116806805Y-116502280D01*
X116778234Y-116492756D01*
X116759186Y-116492756D01*
X116730615Y-116502280D01*
X116721091Y-116511803D01*
X116644900Y-116511803D02*
X116635377Y-116502280D01*
X116616329Y-116492756D01*
X116568710Y-116492756D01*
X116549662Y-116502280D01*
X116540139Y-116511803D01*
X116530615Y-116530851D01*
X116530615Y-116549899D01*
X116540139Y-116578470D01*
X116654424Y-116692756D01*
X116530615Y-116692756D01*
X116340139Y-116692756D02*
X116454424Y-116692756D01*
X116397281Y-116692756D02*
X116397281Y-116492756D01*
X116416329Y-116521327D01*
X116435377Y-116540375D01*
X116454424Y-116549899D01*
X118294450Y-113189671D02*
X118056355Y-113023004D01*
X118294450Y-112903957D02*
X117794450Y-112903957D01*
X117794450Y-113094433D01*
X117818260Y-113142052D01*
X117842069Y-113165861D01*
X117889688Y-113189671D01*
X117961117Y-113189671D01*
X118008736Y-113165861D01*
X118032545Y-113142052D01*
X118056355Y-113094433D01*
X118056355Y-112903957D01*
X118294450Y-113665861D02*
X118294450Y-113380147D01*
X118294450Y-113523004D02*
X117794450Y-113523004D01*
X117865879Y-113475385D01*
X117913498Y-113427766D01*
X117937307Y-113380147D01*
X117961117Y-114094433D02*
X118294450Y-114094433D01*
X117770640Y-113975385D02*
X118127783Y-113856338D01*
X118127783Y-114165861D01*
X119183450Y-113187131D02*
X118945355Y-113020464D01*
X119183450Y-112901417D02*
X118683450Y-112901417D01*
X118683450Y-113091893D01*
X118707260Y-113139512D01*
X118731069Y-113163321D01*
X118778688Y-113187131D01*
X118850117Y-113187131D01*
X118897736Y-113163321D01*
X118921545Y-113139512D01*
X118945355Y-113091893D01*
X118945355Y-112901417D01*
X119183450Y-113663321D02*
X119183450Y-113377607D01*
X119183450Y-113520464D02*
X118683450Y-113520464D01*
X118754879Y-113472845D01*
X118802498Y-113425226D01*
X118826307Y-113377607D01*
X118683450Y-114115702D02*
X118683450Y-113877607D01*
X118921545Y-113853798D01*
X118897736Y-113877607D01*
X118873926Y-113925226D01*
X118873926Y-114044274D01*
X118897736Y-114091893D01*
X118921545Y-114115702D01*
X118969164Y-114139512D01*
X119088212Y-114139512D01*
X119135831Y-114115702D01*
X119159640Y-114091893D01*
X119183450Y-114044274D01*
X119183450Y-113925226D01*
X119159640Y-113877607D01*
X119135831Y-113853798D01*
X120193258Y-113058673D02*
X120193258Y-112811054D01*
X119673258Y-112811054D01*
X119673258Y-113182482D02*
X119673258Y-113504387D01*
X119871353Y-113331054D01*
X119871353Y-113405340D01*
X119896115Y-113454863D01*
X119920877Y-113479625D01*
X119970400Y-113504387D01*
X120094210Y-113504387D01*
X120143734Y-113479625D01*
X120168496Y-113454863D01*
X120193258Y-113405340D01*
X120193258Y-113256768D01*
X120168496Y-113207244D01*
X120143734Y-113182482D01*
X121612948Y-116300791D02*
X121636758Y-116324600D01*
X121708186Y-116348410D01*
X121755805Y-116348410D01*
X121827234Y-116324600D01*
X121874853Y-116276981D01*
X121898662Y-116229362D01*
X121922472Y-116134124D01*
X121922472Y-116062696D01*
X121898662Y-115967458D01*
X121874853Y-115919839D01*
X121827234Y-115872220D01*
X121755805Y-115848410D01*
X121708186Y-115848410D01*
X121636758Y-115872220D01*
X121612948Y-115896029D01*
X121160567Y-115848410D02*
X121398662Y-115848410D01*
X121422472Y-116086505D01*
X121398662Y-116062696D01*
X121351043Y-116038886D01*
X121231996Y-116038886D01*
X121184377Y-116062696D01*
X121160567Y-116086505D01*
X121136758Y-116134124D01*
X121136758Y-116253172D01*
X121160567Y-116300791D01*
X121184377Y-116324600D01*
X121231996Y-116348410D01*
X121351043Y-116348410D01*
X121398662Y-116324600D01*
X121422472Y-116300791D01*
X120827234Y-115848410D02*
X120779615Y-115848410D01*
X120731996Y-115872220D01*
X120708186Y-115896029D01*
X120684377Y-115943648D01*
X120660567Y-116038886D01*
X120660567Y-116157934D01*
X120684377Y-116253172D01*
X120708186Y-116300791D01*
X120731996Y-116324600D01*
X120779615Y-116348410D01*
X120827234Y-116348410D01*
X120874853Y-116324600D01*
X120898662Y-116300791D01*
X120922472Y-116253172D01*
X120946281Y-116157934D01*
X120946281Y-116038886D01*
X120922472Y-115943648D01*
X120898662Y-115896029D01*
X120874853Y-115872220D01*
X120827234Y-115848410D01*
X114143288Y-117321211D02*
X114167098Y-117345020D01*
X114238526Y-117368830D01*
X114286145Y-117368830D01*
X114357574Y-117345020D01*
X114405193Y-117297401D01*
X114429002Y-117249782D01*
X114452812Y-117154544D01*
X114452812Y-117083116D01*
X114429002Y-116987878D01*
X114405193Y-116940259D01*
X114357574Y-116892640D01*
X114286145Y-116868830D01*
X114238526Y-116868830D01*
X114167098Y-116892640D01*
X114143288Y-116916449D01*
X113714717Y-117035497D02*
X113714717Y-117368830D01*
X113833764Y-116845020D02*
X113952812Y-117202163D01*
X113643288Y-117202163D01*
X113429002Y-117368830D02*
X113333764Y-117368830D01*
X113286145Y-117345020D01*
X113262336Y-117321211D01*
X113214717Y-117249782D01*
X113190907Y-117154544D01*
X113190907Y-116964068D01*
X113214717Y-116916449D01*
X113238526Y-116892640D01*
X113286145Y-116868830D01*
X113381383Y-116868830D01*
X113429002Y-116892640D01*
X113452812Y-116916449D01*
X113476621Y-116964068D01*
X113476621Y-117083116D01*
X113452812Y-117130735D01*
X113429002Y-117154544D01*
X113381383Y-117178354D01*
X113286145Y-117178354D01*
X113238526Y-117154544D01*
X113214717Y-117130735D01*
X113190907Y-117083116D01*
X114638288Y-116538830D02*
X114804955Y-116300735D01*
X114924002Y-116538830D02*
X114924002Y-116038830D01*
X114733526Y-116038830D01*
X114685907Y-116062640D01*
X114662098Y-116086449D01*
X114638288Y-116134068D01*
X114638288Y-116205497D01*
X114662098Y-116253116D01*
X114685907Y-116276925D01*
X114733526Y-116300735D01*
X114924002Y-116300735D01*
X114162098Y-116538830D02*
X114447812Y-116538830D01*
X114304955Y-116538830D02*
X114304955Y-116038830D01*
X114352574Y-116110259D01*
X114400193Y-116157878D01*
X114447812Y-116181687D01*
X113852574Y-116038830D02*
X113804955Y-116038830D01*
X113757336Y-116062640D01*
X113733526Y-116086449D01*
X113709717Y-116134068D01*
X113685907Y-116229306D01*
X113685907Y-116348354D01*
X113709717Y-116443592D01*
X113733526Y-116491211D01*
X113757336Y-116515020D01*
X113804955Y-116538830D01*
X113852574Y-116538830D01*
X113900193Y-116515020D01*
X113924002Y-116491211D01*
X113947812Y-116443592D01*
X113971621Y-116348354D01*
X113971621Y-116229306D01*
X113947812Y-116134068D01*
X113924002Y-116086449D01*
X113900193Y-116062640D01*
X113852574Y-116038830D01*
X113553050Y-115914306D02*
X113314955Y-115747640D01*
X113553050Y-115628592D02*
X113053050Y-115628592D01*
X113053050Y-115819068D01*
X113076860Y-115866687D01*
X113100669Y-115890497D01*
X113148288Y-115914306D01*
X113219717Y-115914306D01*
X113267336Y-115890497D01*
X113291145Y-115866687D01*
X113314955Y-115819068D01*
X113314955Y-115628592D01*
X113553050Y-116152401D02*
X113553050Y-116247640D01*
X113529240Y-116295259D01*
X113505431Y-116319068D01*
X113434002Y-116366687D01*
X113338764Y-116390497D01*
X113148288Y-116390497D01*
X113100669Y-116366687D01*
X113076860Y-116342878D01*
X113053050Y-116295259D01*
X113053050Y-116200020D01*
X113076860Y-116152401D01*
X113100669Y-116128592D01*
X113148288Y-116104782D01*
X113267336Y-116104782D01*
X113314955Y-116128592D01*
X113338764Y-116152401D01*
X113362574Y-116200020D01*
X113362574Y-116295259D01*
X113338764Y-116342878D01*
X113314955Y-116366687D01*
X113267336Y-116390497D01*
X114628288Y-115231211D02*
X114652098Y-115255020D01*
X114723526Y-115278830D01*
X114771145Y-115278830D01*
X114842574Y-115255020D01*
X114890193Y-115207401D01*
X114914002Y-115159782D01*
X114937812Y-115064544D01*
X114937812Y-114993116D01*
X114914002Y-114897878D01*
X114890193Y-114850259D01*
X114842574Y-114802640D01*
X114771145Y-114778830D01*
X114723526Y-114778830D01*
X114652098Y-114802640D01*
X114628288Y-114826449D01*
X114199717Y-114945497D02*
X114199717Y-115278830D01*
X114318764Y-114755020D02*
X114437812Y-115112163D01*
X114128288Y-115112163D01*
X113985431Y-114778830D02*
X113675907Y-114778830D01*
X113842574Y-114969306D01*
X113771145Y-114969306D01*
X113723526Y-114993116D01*
X113699717Y-115016925D01*
X113675907Y-115064544D01*
X113675907Y-115183592D01*
X113699717Y-115231211D01*
X113723526Y-115255020D01*
X113771145Y-115278830D01*
X113914002Y-115278830D01*
X113961621Y-115255020D01*
X113985431Y-115231211D01*
X114628288Y-114591211D02*
X114652098Y-114615020D01*
X114723526Y-114638830D01*
X114771145Y-114638830D01*
X114842574Y-114615020D01*
X114890193Y-114567401D01*
X114914002Y-114519782D01*
X114937812Y-114424544D01*
X114937812Y-114353116D01*
X114914002Y-114257878D01*
X114890193Y-114210259D01*
X114842574Y-114162640D01*
X114771145Y-114138830D01*
X114723526Y-114138830D01*
X114652098Y-114162640D01*
X114628288Y-114186449D01*
X114199717Y-114305497D02*
X114199717Y-114638830D01*
X114318764Y-114115020D02*
X114437812Y-114472163D01*
X114128288Y-114472163D01*
X113961621Y-114186449D02*
X113937812Y-114162640D01*
X113890193Y-114138830D01*
X113771145Y-114138830D01*
X113723526Y-114162640D01*
X113699717Y-114186449D01*
X113675907Y-114234068D01*
X113675907Y-114281687D01*
X113699717Y-114353116D01*
X113985431Y-114638830D01*
X113675907Y-114638830D01*
X113504651Y-114561271D02*
X113528460Y-114537461D01*
X113552270Y-114466033D01*
X113552270Y-114418414D01*
X113528460Y-114346985D01*
X113480841Y-114299366D01*
X113433222Y-114275557D01*
X113337984Y-114251747D01*
X113266556Y-114251747D01*
X113171318Y-114275557D01*
X113123699Y-114299366D01*
X113076080Y-114346985D01*
X113052270Y-114418414D01*
X113052270Y-114466033D01*
X113076080Y-114537461D01*
X113099889Y-114561271D01*
X113052270Y-114727938D02*
X113052270Y-115037461D01*
X113242746Y-114870795D01*
X113242746Y-114942223D01*
X113266556Y-114989842D01*
X113290365Y-115013652D01*
X113337984Y-115037461D01*
X113457032Y-115037461D01*
X113504651Y-115013652D01*
X113528460Y-114989842D01*
X113552270Y-114942223D01*
X113552270Y-114799366D01*
X113528460Y-114751747D01*
X113504651Y-114727938D01*
X113052270Y-115204128D02*
X113052270Y-115537461D01*
X113552270Y-115323176D01*
X114628288Y-115861211D02*
X114652098Y-115885020D01*
X114723526Y-115908830D01*
X114771145Y-115908830D01*
X114842574Y-115885020D01*
X114890193Y-115837401D01*
X114914002Y-115789782D01*
X114937812Y-115694544D01*
X114937812Y-115623116D01*
X114914002Y-115527878D01*
X114890193Y-115480259D01*
X114842574Y-115432640D01*
X114771145Y-115408830D01*
X114723526Y-115408830D01*
X114652098Y-115432640D01*
X114628288Y-115456449D01*
X114437812Y-115456449D02*
X114414002Y-115432640D01*
X114366383Y-115408830D01*
X114247336Y-115408830D01*
X114199717Y-115432640D01*
X114175907Y-115456449D01*
X114152098Y-115504068D01*
X114152098Y-115551687D01*
X114175907Y-115623116D01*
X114461621Y-115908830D01*
X114152098Y-115908830D01*
X113985431Y-115408830D02*
X113652098Y-115408830D01*
X113866383Y-115908830D01*
D15*
X104510449Y-111992581D02*
X104510449Y-113611629D01*
X104415211Y-113802105D01*
X104319973Y-113897343D01*
X104129497Y-113992581D01*
X103748544Y-113992581D01*
X103558068Y-113897343D01*
X103462830Y-113802105D01*
X103367592Y-113611629D01*
X103367592Y-111992581D01*
X102129497Y-112849724D02*
X102319973Y-112754486D01*
X102415211Y-112659248D01*
X102510449Y-112468772D01*
X102510449Y-112373534D01*
X102415211Y-112183058D01*
X102319973Y-112087820D01*
X102129497Y-111992581D01*
X101748544Y-111992581D01*
X101558068Y-112087820D01*
X101462830Y-112183058D01*
X101367592Y-112373534D01*
X101367592Y-112468772D01*
X101462830Y-112659248D01*
X101558068Y-112754486D01*
X101748544Y-112849724D01*
X102129497Y-112849724D01*
X102319973Y-112944962D01*
X102415211Y-113040200D01*
X102510449Y-113230677D01*
X102510449Y-113611629D01*
X102415211Y-113802105D01*
X102319973Y-113897343D01*
X102129497Y-113992581D01*
X101748544Y-113992581D01*
X101558068Y-113897343D01*
X101462830Y-113802105D01*
X101367592Y-113611629D01*
X101367592Y-113230677D01*
X101462830Y-113040200D01*
X101558068Y-112944962D01*
X101748544Y-112849724D01*
D14*
X117023400Y-110423296D02*
X117023400Y-110585200D01*
X117013877Y-110604248D01*
X117004353Y-110613772D01*
X116985305Y-110623296D01*
X116947210Y-110623296D01*
X116928162Y-110613772D01*
X116918639Y-110604248D01*
X116909115Y-110585200D01*
X116909115Y-110423296D01*
X116728162Y-110489962D02*
X116728162Y-110623296D01*
X116775781Y-110413772D02*
X116823400Y-110556629D01*
X116699591Y-110556629D01*
X117074020Y-114045176D02*
X117074020Y-114207080D01*
X117064497Y-114226128D01*
X117054973Y-114235652D01*
X117035925Y-114245176D01*
X116997830Y-114245176D01*
X116978782Y-114235652D01*
X116969259Y-114226128D01*
X116959735Y-114207080D01*
X116959735Y-114045176D01*
X116883544Y-114045176D02*
X116759735Y-114045176D01*
X116826401Y-114121366D01*
X116797830Y-114121366D01*
X116778782Y-114130890D01*
X116769259Y-114140414D01*
X116759735Y-114159461D01*
X116759735Y-114207080D01*
X116769259Y-114226128D01*
X116778782Y-114235652D01*
X116797830Y-114245176D01*
X116854973Y-114245176D01*
X116874020Y-114235652D01*
X116883544Y-114226128D01*
D16*
X118797866Y-115541172D02*
X118988342Y-115541172D01*
X118988342Y-115141172D01*
X118493104Y-115141172D02*
X118569295Y-115141172D01*
X118607390Y-115160220D01*
X118626438Y-115179267D01*
X118664533Y-115236410D01*
X118683580Y-115312600D01*
X118683580Y-115464981D01*
X118664533Y-115503077D01*
X118645485Y-115522124D01*
X118607390Y-115541172D01*
X118531200Y-115541172D01*
X118493104Y-115522124D01*
X118474057Y-115503077D01*
X118455009Y-115464981D01*
X118455009Y-115369743D01*
X118474057Y-115331648D01*
X118493104Y-115312600D01*
X118531200Y-115293553D01*
X118607390Y-115293553D01*
X118645485Y-115312600D01*
X118664533Y-115331648D01*
X118683580Y-115369743D01*
D14*
X113579111Y-112993248D02*
X113588635Y-113002772D01*
X113617206Y-113012296D01*
X113636254Y-113012296D01*
X113664825Y-113002772D01*
X113683873Y-112983724D01*
X113693397Y-112964677D01*
X113702920Y-112926581D01*
X113702920Y-112898010D01*
X113693397Y-112859915D01*
X113683873Y-112840867D01*
X113664825Y-112821820D01*
X113636254Y-112812296D01*
X113617206Y-112812296D01*
X113588635Y-112821820D01*
X113579111Y-112831343D01*
X113502920Y-112831343D02*
X113493397Y-112821820D01*
X113474349Y-112812296D01*
X113426730Y-112812296D01*
X113407682Y-112821820D01*
X113398159Y-112831343D01*
X113388635Y-112850391D01*
X113388635Y-112869439D01*
X113398159Y-112898010D01*
X113512444Y-113012296D01*
X113388635Y-113012296D01*
X113217206Y-112878962D02*
X113217206Y-113012296D01*
X113264825Y-112802772D02*
X113312444Y-112945629D01*
X113188635Y-112945629D01*
X113548631Y-111845168D02*
X113558155Y-111854692D01*
X113586726Y-111864216D01*
X113605774Y-111864216D01*
X113634345Y-111854692D01*
X113653393Y-111835644D01*
X113662917Y-111816597D01*
X113672440Y-111778501D01*
X113672440Y-111749930D01*
X113662917Y-111711835D01*
X113653393Y-111692787D01*
X113634345Y-111673740D01*
X113605774Y-111664216D01*
X113586726Y-111664216D01*
X113558155Y-111673740D01*
X113548631Y-111683263D01*
X113472440Y-111683263D02*
X113462917Y-111673740D01*
X113443869Y-111664216D01*
X113396250Y-111664216D01*
X113377202Y-111673740D01*
X113367679Y-111683263D01*
X113358155Y-111702311D01*
X113358155Y-111721359D01*
X113367679Y-111749930D01*
X113481964Y-111864216D01*
X113358155Y-111864216D01*
X113186726Y-111664216D02*
X113224821Y-111664216D01*
X113243869Y-111673740D01*
X113253393Y-111683263D01*
X113272440Y-111711835D01*
X113281964Y-111749930D01*
X113281964Y-111826120D01*
X113272440Y-111845168D01*
X113262917Y-111854692D01*
X113243869Y-111864216D01*
X113205774Y-111864216D01*
X113186726Y-111854692D01*
X113177202Y-111845168D01*
X113167679Y-111826120D01*
X113167679Y-111778501D01*
X113177202Y-111759454D01*
X113186726Y-111749930D01*
X113205774Y-111740406D01*
X113243869Y-111740406D01*
X113262917Y-111749930D01*
X113272440Y-111759454D01*
X113281964Y-111778501D01*
X114950711Y-117983128D02*
X114960235Y-117992652D01*
X114988806Y-118002176D01*
X115007854Y-118002176D01*
X115036425Y-117992652D01*
X115055473Y-117973604D01*
X115064997Y-117954557D01*
X115074520Y-117916461D01*
X115074520Y-117887890D01*
X115064997Y-117849795D01*
X115055473Y-117830747D01*
X115036425Y-117811700D01*
X115007854Y-117802176D01*
X114988806Y-117802176D01*
X114960235Y-117811700D01*
X114950711Y-117821223D01*
X114874520Y-117821223D02*
X114864997Y-117811700D01*
X114845949Y-117802176D01*
X114798330Y-117802176D01*
X114779282Y-117811700D01*
X114769759Y-117821223D01*
X114760235Y-117840271D01*
X114760235Y-117859319D01*
X114769759Y-117887890D01*
X114884044Y-118002176D01*
X114760235Y-118002176D01*
X114579282Y-117802176D02*
X114674520Y-117802176D01*
X114684044Y-117897414D01*
X114674520Y-117887890D01*
X114655473Y-117878366D01*
X114607854Y-117878366D01*
X114588806Y-117887890D01*
X114579282Y-117897414D01*
X114569759Y-117916461D01*
X114569759Y-117964080D01*
X114579282Y-117983128D01*
X114588806Y-117992652D01*
X114607854Y-118002176D01*
X114655473Y-118002176D01*
X114674520Y-117992652D01*
X114684044Y-117983128D01*
X118588053Y-110700896D02*
X118683291Y-110700896D01*
X118683291Y-110500896D01*
X118416624Y-110700896D02*
X118530910Y-110700896D01*
X118473767Y-110700896D02*
X118473767Y-110500896D01*
X118492815Y-110529467D01*
X118511862Y-110548515D01*
X118530910Y-110558039D01*
X116417573Y-109085456D02*
X116484240Y-108990218D01*
X116531859Y-109085456D02*
X116531859Y-108885456D01*
X116455668Y-108885456D01*
X116436620Y-108894980D01*
X116427097Y-108904503D01*
X116417573Y-108923551D01*
X116417573Y-108952122D01*
X116427097Y-108971170D01*
X116436620Y-108980694D01*
X116455668Y-108990218D01*
X116531859Y-108990218D01*
X116227097Y-109085456D02*
X116341382Y-109085456D01*
X116284240Y-109085456D02*
X116284240Y-108885456D01*
X116303287Y-108914027D01*
X116322335Y-108933075D01*
X116341382Y-108942599D01*
M02*
