G04 #@! TF.GenerationSoftware,KiCad,Pcbnew,(5.1.12)-1*
G04 #@! TF.CreationDate,2024-03-07T16:38:44+08:00*
G04 #@! TF.ProjectId,CM2_MesoScope,434d325f-4d65-4736-9f53-636f70652e6b,rev?*
G04 #@! TF.SameCoordinates,Original*
G04 #@! TF.FileFunction,Other,ECO1*
%FSLAX46Y46*%
G04 Gerber Fmt 4.6, Leading zero omitted, Abs format (unit mm)*
G04 Created by KiCad (PCBNEW (5.1.12)-1) date 2024-03-07 16:38:44*
%MOMM*%
%LPD*%
G01*
G04 APERTURE LIST*
%ADD10C,0.050000*%
G04 APERTURE END LIST*
D10*
X119670000Y-118680000D02*
X127164000Y-118682260D01*
X112178000Y-118680000D02*
X114670000Y-118680000D01*
X118670000Y-119680000D02*
G75*
G02*
X115670000Y-119680000I-1500000J0D01*
G01*
X118670000Y-119680000D02*
G75*
G02*
X119670000Y-118680000I1000000J0D01*
G01*
X114670000Y-118680000D02*
G75*
G02*
X115670000Y-119680000I0J-1000000D01*
G01*
X112178000Y-107504000D02*
X114670000Y-107504000D01*
X119664920Y-107504000D02*
X127164000Y-107504000D01*
X119670000Y-107504000D02*
G75*
G02*
X118670000Y-106504000I0J1000000D01*
G01*
X115670000Y-106504000D02*
G75*
G02*
X114670000Y-107504000I-1000000J0D01*
G01*
X115670000Y-106504000D02*
G75*
G02*
X118670000Y-106504000I1500000J0D01*
G01*
X104446000Y-119680000D02*
G75*
G02*
X101446000Y-119680000I-1500000J0D01*
G01*
X104446000Y-119680000D02*
G75*
G02*
X105446000Y-118680000I1000000J0D01*
G01*
X100446000Y-118680000D02*
G75*
G02*
X101446000Y-119680000I0J-1000000D01*
G01*
X105446000Y-118680000D02*
X109130000Y-118682260D01*
X97446000Y-118680000D02*
X100446000Y-118680000D01*
X101446000Y-106504000D02*
G75*
G02*
X104446000Y-106504000I1500000J0D01*
G01*
X97446000Y-107504000D02*
X100446000Y-107504000D01*
X101446000Y-106504000D02*
G75*
G02*
X100446000Y-107504000I-1000000J0D01*
G01*
X105440920Y-107504000D02*
X109130000Y-107504000D01*
X105446000Y-107504000D02*
G75*
G02*
X104446000Y-106504000I0J1000000D01*
G01*
X127164000Y-107504000D02*
X127164000Y-118680000D01*
X112178000Y-118680000D02*
X112178000Y-107504000D01*
X97446000Y-118680000D02*
X97446000Y-107504000D01*
X109130000Y-107504000D02*
X109130000Y-118680000D01*
X103186260Y-107145279D02*
X103186260Y-107395279D01*
X103186260Y-107276232D02*
X103043403Y-107276232D01*
X103043403Y-107145279D02*
X103043403Y-107395279D01*
X102948164Y-107395279D02*
X102793403Y-107395279D01*
X102876736Y-107300041D01*
X102841022Y-107300041D01*
X102817212Y-107288136D01*
X102805307Y-107276232D01*
X102793403Y-107252422D01*
X102793403Y-107192898D01*
X102805307Y-107169089D01*
X102817212Y-107157184D01*
X102841022Y-107145279D01*
X102912450Y-107145279D01*
X102936260Y-107157184D01*
X102948164Y-107169089D01*
X103188800Y-120323539D02*
X103188800Y-120573539D01*
X103188800Y-120454492D02*
X103045943Y-120454492D01*
X103045943Y-120323539D02*
X103045943Y-120573539D01*
X102950704Y-120573539D02*
X102795943Y-120573539D01*
X102879276Y-120478301D01*
X102843562Y-120478301D01*
X102819752Y-120466396D01*
X102807847Y-120454492D01*
X102795943Y-120430682D01*
X102795943Y-120371158D01*
X102807847Y-120347349D01*
X102819752Y-120335444D01*
X102843562Y-120323539D01*
X102914990Y-120323539D01*
X102938800Y-120335444D01*
X102950704Y-120347349D01*
X117410260Y-107145279D02*
X117410260Y-107395279D01*
X117410260Y-107276232D02*
X117267403Y-107276232D01*
X117267403Y-107145279D02*
X117267403Y-107395279D01*
X117172164Y-107395279D02*
X117017403Y-107395279D01*
X117100736Y-107300041D01*
X117065022Y-107300041D01*
X117041212Y-107288136D01*
X117029307Y-107276232D01*
X117017403Y-107252422D01*
X117017403Y-107192898D01*
X117029307Y-107169089D01*
X117041212Y-107157184D01*
X117065022Y-107145279D01*
X117136450Y-107145279D01*
X117160260Y-107157184D01*
X117172164Y-107169089D01*
X117412800Y-120323539D02*
X117412800Y-120573539D01*
X117412800Y-120454492D02*
X117269943Y-120454492D01*
X117269943Y-120323539D02*
X117269943Y-120573539D01*
X117174704Y-120573539D02*
X117019943Y-120573539D01*
X117103276Y-120478301D01*
X117067562Y-120478301D01*
X117043752Y-120466396D01*
X117031847Y-120454492D01*
X117019943Y-120430682D01*
X117019943Y-120371158D01*
X117031847Y-120347349D01*
X117043752Y-120335444D01*
X117067562Y-120323539D01*
X117138990Y-120323539D01*
X117162800Y-120335444D01*
X117174704Y-120347349D01*
M02*
