G04 #@! TF.GenerationSoftware,KiCad,Pcbnew,(5.1.12)-1*
G04 #@! TF.CreationDate,2024-03-07T16:38:44+08:00*
G04 #@! TF.ProjectId,CM2_MesoScope,434d325f-4d65-4736-9f53-636f70652e6b,rev?*
G04 #@! TF.SameCoordinates,Original*
G04 #@! TF.FileFunction,Copper,L3,Inr*
G04 #@! TF.FilePolarity,Positive*
%FSLAX46Y46*%
G04 Gerber Fmt 4.6, Leading zero omitted, Abs format (unit mm)*
G04 Created by KiCad (PCBNEW (5.1.12)-1) date 2024-03-07 16:38:44*
%MOMM*%
%LPD*%
G01*
G04 APERTURE LIST*
G04 #@! TA.AperFunction,ViaPad*
%ADD10C,0.350000*%
G04 #@! TD*
G04 #@! TA.AperFunction,Conductor*
%ADD11C,0.381000*%
G04 #@! TD*
G04 #@! TA.AperFunction,Conductor*
%ADD12C,0.254000*%
G04 #@! TD*
G04 #@! TA.AperFunction,Conductor*
%ADD13C,0.152400*%
G04 #@! TD*
G04 #@! TA.AperFunction,Conductor*
%ADD14C,0.203200*%
G04 #@! TD*
G04 #@! TA.AperFunction,Conductor*
%ADD15C,0.100000*%
G04 #@! TD*
G04 APERTURE END LIST*
D10*
X126061640Y-112032820D03*
X125855900Y-114971600D03*
X126450260Y-116566720D03*
X121766500Y-117747820D03*
X120692080Y-115825040D03*
X116417260Y-111728020D03*
X117458660Y-108916240D03*
X117882840Y-111735640D03*
X113326080Y-114656640D03*
X103084840Y-111517220D03*
X101992640Y-113015820D03*
X100544840Y-112965020D03*
X101713240Y-111720420D03*
X116211660Y-115412000D03*
X116211660Y-114421400D03*
X106148040Y-117673420D03*
X101220440Y-108504020D03*
X104725640Y-108504020D03*
X104039840Y-108504020D03*
X99086840Y-114625420D03*
X98274040Y-117851220D03*
X101916400Y-117664000D03*
X103476640Y-115158820D03*
X106818640Y-113648020D03*
X105078450Y-113355420D03*
X106376640Y-109697820D03*
X107776040Y-117876620D03*
X106844028Y-115416608D03*
X106656640Y-112057820D03*
X104736640Y-117672820D03*
X106920240Y-108672420D03*
X103135640Y-110374220D03*
X97954840Y-108088220D03*
X102424440Y-115632020D03*
X117075360Y-114954800D03*
X114485860Y-109307960D03*
X114581860Y-115052640D03*
X113556860Y-117105140D03*
X113435300Y-111199020D03*
X123092382Y-116835960D03*
X124486840Y-114956360D03*
X122558280Y-112020820D03*
X124082980Y-108428560D03*
X125756840Y-115882780D03*
X115331660Y-114454800D03*
X115331660Y-114954800D03*
X115352260Y-108417960D03*
X122652200Y-108417640D03*
X122315140Y-110082100D03*
X106794040Y-116952820D03*
X98401640Y-116937820D03*
X120735260Y-110084640D03*
X119952940Y-112484940D03*
X114055060Y-113818440D03*
X113321000Y-115151940D03*
X117091660Y-116448580D03*
X121768660Y-117244900D03*
X114051040Y-116321820D03*
X123333680Y-116150160D03*
X126297860Y-112898960D03*
X122716460Y-113973380D03*
X123300660Y-110478340D03*
X114034740Y-115670100D03*
X101931640Y-108580220D03*
X99569440Y-114549220D03*
X107498640Y-112745820D03*
X106198840Y-115819220D03*
X107911640Y-108342224D03*
X112878360Y-112314080D03*
X108622000Y-110605360D03*
X118548320Y-110125280D03*
X101054634Y-114039414D03*
X100712440Y-114752424D03*
X100356840Y-115082618D03*
X118068260Y-113782880D03*
X102054640Y-114039406D03*
X102043400Y-116546400D03*
X108573740Y-116063800D03*
X112855938Y-113696520D03*
X122268660Y-117744900D03*
X122269420Y-117244900D03*
X118947100Y-113790500D03*
X101554640Y-114039438D03*
X101561640Y-115784420D03*
X108586440Y-114542340D03*
X112838400Y-113119940D03*
X119074100Y-116020620D03*
X102554640Y-109369422D03*
X102054640Y-109369426D03*
X101554640Y-109369422D03*
X101054640Y-109369422D03*
X100554640Y-109369406D03*
X99546840Y-109367620D03*
X98401640Y-109237820D03*
X99315440Y-110459820D03*
X99136640Y-108502820D03*
X99469642Y-110954420D03*
X99836640Y-108502820D03*
X99696440Y-111958420D03*
X100536640Y-108502820D03*
X99442440Y-112466420D03*
X104050040Y-117613220D03*
X99848840Y-116200220D03*
X103328640Y-108580220D03*
X102642840Y-108580220D03*
X98496640Y-111323420D03*
X105513040Y-115336620D03*
X102627640Y-117613220D03*
X103338840Y-117613220D03*
X107504440Y-112050620D03*
X107447038Y-108650991D03*
X106108240Y-116952820D03*
X112874640Y-111749020D03*
X113315920Y-115698040D03*
X115241240Y-116307640D03*
X125731440Y-109033080D03*
X119495740Y-110165920D03*
X124573200Y-113488240D03*
X126795700Y-114113080D03*
X119970720Y-113798120D03*
X120770820Y-117745280D03*
X120267900Y-117244900D03*
X123577520Y-117608120D03*
X125355520Y-114684580D03*
X124044320Y-115734160D03*
X124253160Y-112888800D03*
X104143980Y-110445320D03*
X124753540Y-109782380D03*
X112734260Y-109899220D03*
X124263320Y-110178620D03*
X128263820Y-113102160D03*
X126338360Y-109833320D03*
X128294300Y-112093780D03*
X126348660Y-110518980D03*
X126341040Y-111034600D03*
X125596820Y-111507040D03*
D11*
X115352260Y-114434200D02*
X115331660Y-114454800D01*
X115352260Y-108417960D02*
X115352260Y-114434200D01*
D12*
X106710439Y-118077021D02*
X99789441Y-118077021D01*
X107498640Y-117288820D02*
X106710439Y-118077021D01*
X99569440Y-114796707D02*
X99569440Y-114549220D01*
X99445239Y-114920908D02*
X99569440Y-114796707D01*
X99445239Y-117732819D02*
X99445239Y-114920908D01*
X99789441Y-118077021D02*
X99445239Y-117732819D01*
X107464029Y-115820209D02*
X107498640Y-115854820D01*
X106650299Y-115820209D02*
X107464029Y-115820209D01*
X106649310Y-115819220D02*
X106650299Y-115820209D01*
X106198840Y-115819220D02*
X106649310Y-115819220D01*
X107498640Y-115854820D02*
X107498640Y-117288820D01*
X107498640Y-112745820D02*
X107498640Y-115854820D01*
X101363440Y-108012020D02*
X101931640Y-108580220D01*
X99569440Y-114301733D02*
X97929440Y-112661733D01*
X98920040Y-108012020D02*
X101363440Y-108012020D01*
X99569440Y-114549220D02*
X99569440Y-114301733D01*
X97929440Y-109002620D02*
X98920040Y-108012020D01*
X97929440Y-112661733D02*
X97929440Y-109002620D01*
X107635037Y-108065621D02*
X107911640Y-108342224D01*
X107911640Y-108317620D02*
X107911640Y-108342224D01*
X102446239Y-108065621D02*
X107635037Y-108065621D01*
X107908041Y-108314021D02*
X107911640Y-108317620D01*
X101931640Y-108580220D02*
X102446239Y-108065621D01*
D13*
X102054640Y-116535160D02*
X102043400Y-116546400D01*
X102054640Y-114039406D02*
X102054640Y-116535160D01*
X118068260Y-113782880D02*
X118068260Y-116046020D01*
X118068260Y-116046020D02*
X120122861Y-118100621D01*
X122268660Y-117767806D02*
X122268660Y-117744900D01*
X121935845Y-118100621D02*
X122268660Y-117767806D01*
X120122861Y-118100621D02*
X121935845Y-118100621D01*
X101561640Y-114046438D02*
X101554640Y-114039438D01*
X101561640Y-115784420D02*
X101561640Y-114046438D01*
X121418520Y-116394000D02*
X122269420Y-117244900D01*
X119447480Y-116394000D02*
X121418520Y-116394000D01*
X119074100Y-116020620D02*
X119447480Y-116394000D01*
D12*
X119495740Y-110165920D02*
X119495740Y-109396300D01*
X119858960Y-109033080D02*
X125731440Y-109033080D01*
X119495740Y-109396300D02*
X119858960Y-109033080D01*
D13*
X126795700Y-113871780D02*
X126795700Y-114113080D01*
X126704260Y-113780340D02*
X126795700Y-113871780D01*
X124573200Y-113638100D02*
X124715440Y-113780340D01*
X124573200Y-113488240D02*
X124573200Y-113638100D01*
X124715440Y-113780340D02*
X126704260Y-113780340D01*
D14*
X104143980Y-110445320D02*
X107712680Y-110445320D01*
X107712680Y-110445320D02*
X108258780Y-109899220D01*
X108258780Y-109899220D02*
X112734260Y-109899220D01*
D13*
X124263320Y-110178620D02*
X124263320Y-111700080D01*
X124263320Y-111700080D02*
X125896540Y-113333300D01*
D12*
X128032680Y-113333300D02*
X128263820Y-113102160D01*
X125896540Y-113333300D02*
X128032680Y-113333300D01*
D13*
X128294300Y-112093780D02*
X128294300Y-112093780D01*
D12*
X126338360Y-109833320D02*
X126904920Y-110399880D01*
X126904920Y-110704400D02*
X128294300Y-112093780D01*
X126904920Y-110399880D02*
X126904920Y-110704400D01*
D13*
X108799800Y-109569020D02*
X108274992Y-109569020D01*
X108258779Y-109567423D01*
X108242566Y-109569020D01*
X108242565Y-109569020D01*
X108194050Y-109573798D01*
X108131807Y-109592680D01*
X108105103Y-109606953D01*
X108074442Y-109623341D01*
X108052414Y-109641420D01*
X108024164Y-109664604D01*
X108013825Y-109677202D01*
X107575908Y-110115120D01*
X104376262Y-110115120D01*
X104335156Y-110087654D01*
X104261706Y-110057230D01*
X104183731Y-110041720D01*
X104104229Y-110041720D01*
X104026254Y-110057230D01*
X103952804Y-110087654D01*
X103886700Y-110131823D01*
X103830483Y-110188040D01*
X103786314Y-110254144D01*
X103755890Y-110327594D01*
X103740380Y-110405569D01*
X103740380Y-110485071D01*
X103755890Y-110563046D01*
X103786314Y-110636496D01*
X103830483Y-110702600D01*
X103886700Y-110758817D01*
X103952804Y-110802986D01*
X104026254Y-110833410D01*
X104104229Y-110848920D01*
X104183731Y-110848920D01*
X104261706Y-110833410D01*
X104335156Y-110802986D01*
X104376262Y-110775520D01*
X107696467Y-110775520D01*
X107712680Y-110777117D01*
X107728893Y-110775520D01*
X107728895Y-110775520D01*
X107777410Y-110770742D01*
X107839653Y-110751860D01*
X107897017Y-110721199D01*
X107947296Y-110679936D01*
X107957639Y-110667333D01*
X108395553Y-110229420D01*
X108474941Y-110229420D01*
X108430824Y-110247694D01*
X108364720Y-110291863D01*
X108308503Y-110348080D01*
X108264334Y-110414184D01*
X108233910Y-110487634D01*
X108218400Y-110565609D01*
X108218400Y-110645111D01*
X108233910Y-110723086D01*
X108264334Y-110796536D01*
X108308503Y-110862640D01*
X108364720Y-110918857D01*
X108430824Y-110963026D01*
X108504274Y-110993450D01*
X108582249Y-111008960D01*
X108661751Y-111008960D01*
X108739726Y-110993450D01*
X108799800Y-110968567D01*
X108799800Y-114199497D01*
X108777616Y-114184674D01*
X108704166Y-114154250D01*
X108626191Y-114138740D01*
X108546689Y-114138740D01*
X108468714Y-114154250D01*
X108395264Y-114184674D01*
X108329160Y-114228843D01*
X108272943Y-114285060D01*
X108228774Y-114351164D01*
X108198350Y-114424614D01*
X108182840Y-114502589D01*
X108182840Y-114582091D01*
X108198350Y-114660066D01*
X108228774Y-114733516D01*
X108272943Y-114799620D01*
X108329160Y-114855837D01*
X108395264Y-114900006D01*
X108468714Y-114930430D01*
X108546689Y-114945940D01*
X108626191Y-114945940D01*
X108704166Y-114930430D01*
X108777616Y-114900006D01*
X108799800Y-114885183D01*
X108799800Y-115729443D01*
X108764916Y-115706134D01*
X108691466Y-115675710D01*
X108613491Y-115660200D01*
X108533989Y-115660200D01*
X108456014Y-115675710D01*
X108382564Y-115706134D01*
X108316460Y-115750303D01*
X108260243Y-115806520D01*
X108216074Y-115872624D01*
X108185650Y-115946074D01*
X108170140Y-116024049D01*
X108170140Y-116103551D01*
X108185650Y-116181526D01*
X108216074Y-116254976D01*
X108260243Y-116321080D01*
X108316460Y-116377297D01*
X108382564Y-116421466D01*
X108456014Y-116451890D01*
X108533989Y-116467400D01*
X108613491Y-116467400D01*
X108691466Y-116451890D01*
X108764916Y-116421466D01*
X108799800Y-116398157D01*
X108799800Y-118349800D01*
X106938591Y-118349800D01*
X106963102Y-118329684D01*
X106974238Y-118316115D01*
X107372696Y-117917658D01*
X107387950Y-117994346D01*
X107418374Y-118067796D01*
X107462543Y-118133900D01*
X107518760Y-118190117D01*
X107584864Y-118234286D01*
X107658314Y-118264710D01*
X107736289Y-118280220D01*
X107815791Y-118280220D01*
X107893766Y-118264710D01*
X107967216Y-118234286D01*
X108033320Y-118190117D01*
X108089537Y-118133900D01*
X108133706Y-118067796D01*
X108164130Y-117994346D01*
X108179640Y-117916371D01*
X108179640Y-117836869D01*
X108164130Y-117758894D01*
X108133706Y-117685444D01*
X108089537Y-117619340D01*
X108033320Y-117563123D01*
X107967216Y-117518954D01*
X107893766Y-117488530D01*
X107815791Y-117473020D01*
X107803393Y-117473020D01*
X107828761Y-117425560D01*
X107849094Y-117358530D01*
X107854240Y-117306283D01*
X107854240Y-117306275D01*
X107855959Y-117288820D01*
X107854240Y-117271365D01*
X107854240Y-115872272D01*
X107855959Y-115854819D01*
X107854240Y-115837366D01*
X107854240Y-112940088D01*
X107856306Y-112936996D01*
X107886730Y-112863546D01*
X107902240Y-112785571D01*
X107902240Y-112706069D01*
X107886730Y-112628094D01*
X107856306Y-112554644D01*
X107812137Y-112488540D01*
X107755920Y-112432323D01*
X107689816Y-112388154D01*
X107616366Y-112357730D01*
X107538391Y-112342220D01*
X107458889Y-112342220D01*
X107380914Y-112357730D01*
X107307464Y-112388154D01*
X107241360Y-112432323D01*
X107185143Y-112488540D01*
X107140974Y-112554644D01*
X107110550Y-112628094D01*
X107095040Y-112706069D01*
X107095040Y-112785571D01*
X107110550Y-112863546D01*
X107140974Y-112936996D01*
X107143040Y-112940088D01*
X107143040Y-113407058D01*
X107132137Y-113390740D01*
X107075920Y-113334523D01*
X107009816Y-113290354D01*
X106936366Y-113259930D01*
X106858391Y-113244420D01*
X106778889Y-113244420D01*
X106700914Y-113259930D01*
X106627464Y-113290354D01*
X106561360Y-113334523D01*
X106505143Y-113390740D01*
X106460974Y-113456844D01*
X106430550Y-113530294D01*
X106415040Y-113608269D01*
X106415040Y-113687771D01*
X106430550Y-113765746D01*
X106460974Y-113839196D01*
X106505143Y-113905300D01*
X106561360Y-113961517D01*
X106627464Y-114005686D01*
X106700914Y-114036110D01*
X106778889Y-114051620D01*
X106858391Y-114051620D01*
X106936366Y-114036110D01*
X107009816Y-114005686D01*
X107075920Y-113961517D01*
X107132137Y-113905300D01*
X107143040Y-113888982D01*
X107143041Y-115144844D01*
X107101308Y-115103111D01*
X107035204Y-115058942D01*
X106961754Y-115028518D01*
X106883779Y-115013008D01*
X106804277Y-115013008D01*
X106726302Y-115028518D01*
X106652852Y-115058942D01*
X106586748Y-115103111D01*
X106530531Y-115159328D01*
X106486362Y-115225432D01*
X106455938Y-115298882D01*
X106440428Y-115376857D01*
X106440428Y-115456359D01*
X106441872Y-115463620D01*
X106393108Y-115463620D01*
X106390016Y-115461554D01*
X106316566Y-115431130D01*
X106238591Y-115415620D01*
X106159089Y-115415620D01*
X106081114Y-115431130D01*
X106007664Y-115461554D01*
X105941560Y-115505723D01*
X105885343Y-115561940D01*
X105841174Y-115628044D01*
X105810750Y-115701494D01*
X105795240Y-115779469D01*
X105795240Y-115858971D01*
X105810750Y-115936946D01*
X105841174Y-116010396D01*
X105885343Y-116076500D01*
X105941560Y-116132717D01*
X106007664Y-116176886D01*
X106081114Y-116207310D01*
X106159089Y-116222820D01*
X106238591Y-116222820D01*
X106316566Y-116207310D01*
X106390016Y-116176886D01*
X106393108Y-116174820D01*
X106622795Y-116174820D01*
X106632836Y-116175809D01*
X106632844Y-116175809D01*
X106650299Y-116177528D01*
X106667754Y-116175809D01*
X107143040Y-116175809D01*
X107143041Y-116748675D01*
X107107537Y-116695540D01*
X107051320Y-116639323D01*
X106985216Y-116595154D01*
X106911766Y-116564730D01*
X106833791Y-116549220D01*
X106754289Y-116549220D01*
X106676314Y-116564730D01*
X106602864Y-116595154D01*
X106536760Y-116639323D01*
X106480543Y-116695540D01*
X106436374Y-116761644D01*
X106405950Y-116835094D01*
X106390440Y-116913069D01*
X106390440Y-116992571D01*
X106405950Y-117070546D01*
X106436374Y-117143996D01*
X106480543Y-117210100D01*
X106536760Y-117266317D01*
X106602864Y-117310486D01*
X106676314Y-117340910D01*
X106754289Y-117356420D01*
X106833791Y-117356420D01*
X106911766Y-117340910D01*
X106966206Y-117318360D01*
X106563146Y-117721421D01*
X106549999Y-117721421D01*
X106551640Y-117713171D01*
X106551640Y-117633669D01*
X106536130Y-117555694D01*
X106505706Y-117482244D01*
X106461537Y-117416140D01*
X106405320Y-117359923D01*
X106339216Y-117315754D01*
X106265766Y-117285330D01*
X106187791Y-117269820D01*
X106108289Y-117269820D01*
X106030314Y-117285330D01*
X105956864Y-117315754D01*
X105890760Y-117359923D01*
X105834543Y-117416140D01*
X105790374Y-117482244D01*
X105759950Y-117555694D01*
X105744440Y-117633669D01*
X105744440Y-117713171D01*
X105746081Y-117721421D01*
X105138480Y-117721421D01*
X105140240Y-117712571D01*
X105140240Y-117633069D01*
X105124730Y-117555094D01*
X105094306Y-117481644D01*
X105050137Y-117415540D01*
X104993920Y-117359323D01*
X104927816Y-117315154D01*
X104854366Y-117284730D01*
X104776391Y-117269220D01*
X104696889Y-117269220D01*
X104618914Y-117284730D01*
X104545464Y-117315154D01*
X104479360Y-117359323D01*
X104423143Y-117415540D01*
X104378974Y-117481644D01*
X104348550Y-117555094D01*
X104333040Y-117633069D01*
X104333040Y-117712571D01*
X104334800Y-117721421D01*
X102316485Y-117721421D01*
X102320000Y-117703751D01*
X102320000Y-117624249D01*
X102304490Y-117546274D01*
X102274066Y-117472824D01*
X102229897Y-117406720D01*
X102173680Y-117350503D01*
X102107576Y-117306334D01*
X102034126Y-117275910D01*
X101956151Y-117260400D01*
X101876649Y-117260400D01*
X101798674Y-117275910D01*
X101725224Y-117306334D01*
X101659120Y-117350503D01*
X101602903Y-117406720D01*
X101558734Y-117472824D01*
X101528310Y-117546274D01*
X101512800Y-117624249D01*
X101512800Y-117703751D01*
X101516315Y-117721421D01*
X99936735Y-117721421D01*
X99800839Y-117585525D01*
X99800839Y-115068201D01*
X99808539Y-115060501D01*
X99822102Y-115049370D01*
X99827439Y-115042867D01*
X99953240Y-115042867D01*
X99953240Y-115122369D01*
X99968750Y-115200344D01*
X99999174Y-115273794D01*
X100043343Y-115339898D01*
X100099560Y-115396115D01*
X100165664Y-115440284D01*
X100239114Y-115470708D01*
X100317089Y-115486218D01*
X100396591Y-115486218D01*
X100474566Y-115470708D01*
X100548016Y-115440284D01*
X100614120Y-115396115D01*
X100670337Y-115339898D01*
X100714506Y-115273794D01*
X100744930Y-115200344D01*
X100753810Y-115155702D01*
X100830166Y-115140514D01*
X100903616Y-115110090D01*
X100969720Y-115065921D01*
X101025937Y-115009704D01*
X101070106Y-114943600D01*
X101100530Y-114870150D01*
X101116040Y-114792175D01*
X101116040Y-114712673D01*
X101100530Y-114634698D01*
X101070106Y-114561248D01*
X101025937Y-114495144D01*
X100969720Y-114438927D01*
X100959286Y-114431955D01*
X101014883Y-114443014D01*
X101094385Y-114443014D01*
X101172360Y-114427504D01*
X101245810Y-114397080D01*
X101256841Y-114389710D01*
X101256840Y-115518443D01*
X101248143Y-115527140D01*
X101203974Y-115593244D01*
X101173550Y-115666694D01*
X101158040Y-115744669D01*
X101158040Y-115824171D01*
X101173550Y-115902146D01*
X101203974Y-115975596D01*
X101248143Y-116041700D01*
X101304360Y-116097917D01*
X101370464Y-116142086D01*
X101443914Y-116172510D01*
X101521889Y-116188020D01*
X101601391Y-116188020D01*
X101679366Y-116172510D01*
X101749841Y-116143318D01*
X101749841Y-116269182D01*
X101729903Y-116289120D01*
X101685734Y-116355224D01*
X101655310Y-116428674D01*
X101639800Y-116506649D01*
X101639800Y-116586151D01*
X101655310Y-116664126D01*
X101685734Y-116737576D01*
X101729903Y-116803680D01*
X101786120Y-116859897D01*
X101852224Y-116904066D01*
X101925674Y-116934490D01*
X102003649Y-116950000D01*
X102083151Y-116950000D01*
X102161126Y-116934490D01*
X102234576Y-116904066D01*
X102300680Y-116859897D01*
X102356897Y-116803680D01*
X102401066Y-116737576D01*
X102431490Y-116664126D01*
X102447000Y-116586151D01*
X102447000Y-116506649D01*
X102431490Y-116428674D01*
X102401066Y-116355224D01*
X102359440Y-116292926D01*
X102359440Y-116030598D01*
X102384689Y-116035620D01*
X102464191Y-116035620D01*
X102542166Y-116020110D01*
X102615616Y-115989686D01*
X102681720Y-115945517D01*
X102737937Y-115889300D01*
X102782106Y-115823196D01*
X102812530Y-115749746D01*
X102828040Y-115671771D01*
X102828040Y-115592269D01*
X102812530Y-115514294D01*
X102782106Y-115440844D01*
X102737937Y-115374740D01*
X102681720Y-115318523D01*
X102615616Y-115274354D01*
X102542166Y-115243930D01*
X102464191Y-115228420D01*
X102384689Y-115228420D01*
X102359440Y-115233442D01*
X102359440Y-115119069D01*
X103073040Y-115119069D01*
X103073040Y-115198571D01*
X103088550Y-115276546D01*
X103118974Y-115349996D01*
X103163143Y-115416100D01*
X103219360Y-115472317D01*
X103285464Y-115516486D01*
X103358914Y-115546910D01*
X103436889Y-115562420D01*
X103516391Y-115562420D01*
X103594366Y-115546910D01*
X103667816Y-115516486D01*
X103733920Y-115472317D01*
X103790137Y-115416100D01*
X103834306Y-115349996D01*
X103864730Y-115276546D01*
X103880240Y-115198571D01*
X103880240Y-115119069D01*
X103864730Y-115041094D01*
X103834306Y-114967644D01*
X103790137Y-114901540D01*
X103733920Y-114845323D01*
X103667816Y-114801154D01*
X103594366Y-114770730D01*
X103516391Y-114755220D01*
X103436889Y-114755220D01*
X103358914Y-114770730D01*
X103285464Y-114801154D01*
X103219360Y-114845323D01*
X103163143Y-114901540D01*
X103118974Y-114967644D01*
X103088550Y-115041094D01*
X103073040Y-115119069D01*
X102359440Y-115119069D01*
X102359440Y-114305383D01*
X102368137Y-114296686D01*
X102412306Y-114230582D01*
X102442730Y-114157132D01*
X102458240Y-114079157D01*
X102458240Y-113999655D01*
X102442730Y-113921680D01*
X102412306Y-113848230D01*
X102368137Y-113782126D01*
X102311920Y-113725909D01*
X102245816Y-113681740D01*
X102172366Y-113651316D01*
X102094391Y-113635806D01*
X102014889Y-113635806D01*
X101936914Y-113651316D01*
X101863464Y-113681740D01*
X101804616Y-113721061D01*
X101745816Y-113681772D01*
X101672366Y-113651348D01*
X101594391Y-113635838D01*
X101514889Y-113635838D01*
X101436914Y-113651348D01*
X101363464Y-113681772D01*
X101304655Y-113721067D01*
X101245810Y-113681748D01*
X101172360Y-113651324D01*
X101094385Y-113635814D01*
X101014883Y-113635814D01*
X100936908Y-113651324D01*
X100863458Y-113681748D01*
X100797354Y-113725917D01*
X100741137Y-113782134D01*
X100696968Y-113848238D01*
X100666544Y-113921688D01*
X100651034Y-113999663D01*
X100651034Y-114079165D01*
X100666544Y-114157140D01*
X100696968Y-114230590D01*
X100741137Y-114296694D01*
X100797354Y-114352911D01*
X100807788Y-114359883D01*
X100752191Y-114348824D01*
X100672689Y-114348824D01*
X100594714Y-114364334D01*
X100521264Y-114394758D01*
X100455160Y-114438927D01*
X100398943Y-114495144D01*
X100354774Y-114561248D01*
X100324350Y-114634698D01*
X100315470Y-114679340D01*
X100239114Y-114694528D01*
X100165664Y-114724952D01*
X100099560Y-114769121D01*
X100043343Y-114825338D01*
X99999174Y-114891442D01*
X99968750Y-114964892D01*
X99953240Y-115042867D01*
X99827439Y-115042867D01*
X99866541Y-114995223D01*
X99899561Y-114933447D01*
X99919894Y-114866417D01*
X99925040Y-114814170D01*
X99925040Y-114814162D01*
X99926759Y-114796707D01*
X99925040Y-114779252D01*
X99925040Y-114743488D01*
X99927106Y-114740396D01*
X99957530Y-114666946D01*
X99973040Y-114588971D01*
X99973040Y-114509469D01*
X99957530Y-114431494D01*
X99927106Y-114358044D01*
X99925040Y-114354952D01*
X99925040Y-114319185D01*
X99926759Y-114301732D01*
X99925040Y-114284279D01*
X99925040Y-114284270D01*
X99919894Y-114232023D01*
X99899561Y-114164993D01*
X99866541Y-114103217D01*
X99861284Y-114096811D01*
X99833235Y-114062633D01*
X99833230Y-114062628D01*
X99822103Y-114049070D01*
X99808545Y-114037943D01*
X98695870Y-112925269D01*
X100141240Y-112925269D01*
X100141240Y-113004771D01*
X100156750Y-113082746D01*
X100187174Y-113156196D01*
X100231343Y-113222300D01*
X100287560Y-113278517D01*
X100353664Y-113322686D01*
X100427114Y-113353110D01*
X100505089Y-113368620D01*
X100584591Y-113368620D01*
X100662566Y-113353110D01*
X100736016Y-113322686D01*
X100802120Y-113278517D01*
X100858337Y-113222300D01*
X100902506Y-113156196D01*
X100932930Y-113082746D01*
X100948440Y-113004771D01*
X100948440Y-112976069D01*
X101589040Y-112976069D01*
X101589040Y-113055571D01*
X101604550Y-113133546D01*
X101634974Y-113206996D01*
X101679143Y-113273100D01*
X101735360Y-113329317D01*
X101801464Y-113373486D01*
X101874914Y-113403910D01*
X101952889Y-113419420D01*
X102032391Y-113419420D01*
X102110366Y-113403910D01*
X102183816Y-113373486D01*
X102249920Y-113329317D01*
X102263568Y-113315669D01*
X104674850Y-113315669D01*
X104674850Y-113395171D01*
X104690360Y-113473146D01*
X104720784Y-113546596D01*
X104764953Y-113612700D01*
X104821170Y-113668917D01*
X104887274Y-113713086D01*
X104960724Y-113743510D01*
X105038699Y-113759020D01*
X105118201Y-113759020D01*
X105196176Y-113743510D01*
X105269626Y-113713086D01*
X105335730Y-113668917D01*
X105391947Y-113612700D01*
X105436116Y-113546596D01*
X105466540Y-113473146D01*
X105482050Y-113395171D01*
X105482050Y-113315669D01*
X105466540Y-113237694D01*
X105436116Y-113164244D01*
X105391947Y-113098140D01*
X105335730Y-113041923D01*
X105269626Y-112997754D01*
X105196176Y-112967330D01*
X105118201Y-112951820D01*
X105038699Y-112951820D01*
X104960724Y-112967330D01*
X104887274Y-112997754D01*
X104821170Y-113041923D01*
X104764953Y-113098140D01*
X104720784Y-113164244D01*
X104690360Y-113237694D01*
X104674850Y-113315669D01*
X102263568Y-113315669D01*
X102306137Y-113273100D01*
X102350306Y-113206996D01*
X102380730Y-113133546D01*
X102396240Y-113055571D01*
X102396240Y-112976069D01*
X102380730Y-112898094D01*
X102350306Y-112824644D01*
X102306137Y-112758540D01*
X102249920Y-112702323D01*
X102183816Y-112658154D01*
X102110366Y-112627730D01*
X102032391Y-112612220D01*
X101952889Y-112612220D01*
X101874914Y-112627730D01*
X101801464Y-112658154D01*
X101735360Y-112702323D01*
X101679143Y-112758540D01*
X101634974Y-112824644D01*
X101604550Y-112898094D01*
X101589040Y-112976069D01*
X100948440Y-112976069D01*
X100948440Y-112925269D01*
X100932930Y-112847294D01*
X100902506Y-112773844D01*
X100858337Y-112707740D01*
X100802120Y-112651523D01*
X100736016Y-112607354D01*
X100662566Y-112576930D01*
X100584591Y-112561420D01*
X100505089Y-112561420D01*
X100427114Y-112576930D01*
X100353664Y-112607354D01*
X100287560Y-112651523D01*
X100231343Y-112707740D01*
X100187174Y-112773844D01*
X100156750Y-112847294D01*
X100141240Y-112925269D01*
X98695870Y-112925269D01*
X98285040Y-112514440D01*
X98285040Y-112426669D01*
X99038840Y-112426669D01*
X99038840Y-112506171D01*
X99054350Y-112584146D01*
X99084774Y-112657596D01*
X99128943Y-112723700D01*
X99185160Y-112779917D01*
X99251264Y-112824086D01*
X99324714Y-112854510D01*
X99402689Y-112870020D01*
X99482191Y-112870020D01*
X99560166Y-112854510D01*
X99633616Y-112824086D01*
X99699720Y-112779917D01*
X99755937Y-112723700D01*
X99800106Y-112657596D01*
X99830530Y-112584146D01*
X99846040Y-112506171D01*
X99846040Y-112426669D01*
X99830530Y-112348694D01*
X99827361Y-112341044D01*
X99887616Y-112316086D01*
X99953720Y-112271917D01*
X100009937Y-112215700D01*
X100054106Y-112149596D01*
X100084530Y-112076146D01*
X100100040Y-111998171D01*
X100100040Y-111918669D01*
X100084530Y-111840694D01*
X100054106Y-111767244D01*
X100009937Y-111701140D01*
X99989466Y-111680669D01*
X101309640Y-111680669D01*
X101309640Y-111760171D01*
X101325150Y-111838146D01*
X101355574Y-111911596D01*
X101399743Y-111977700D01*
X101455960Y-112033917D01*
X101522064Y-112078086D01*
X101595514Y-112108510D01*
X101673489Y-112124020D01*
X101752991Y-112124020D01*
X101830966Y-112108510D01*
X101904416Y-112078086D01*
X101970520Y-112033917D01*
X101986368Y-112018069D01*
X106253040Y-112018069D01*
X106253040Y-112097571D01*
X106268550Y-112175546D01*
X106298974Y-112248996D01*
X106343143Y-112315100D01*
X106399360Y-112371317D01*
X106465464Y-112415486D01*
X106538914Y-112445910D01*
X106616889Y-112461420D01*
X106696391Y-112461420D01*
X106774366Y-112445910D01*
X106847816Y-112415486D01*
X106913920Y-112371317D01*
X106970137Y-112315100D01*
X107014306Y-112248996D01*
X107044730Y-112175546D01*
X107060240Y-112097571D01*
X107060240Y-112018069D01*
X107044730Y-111940094D01*
X107014306Y-111866644D01*
X106970137Y-111800540D01*
X106913920Y-111744323D01*
X106847816Y-111700154D01*
X106774366Y-111669730D01*
X106696391Y-111654220D01*
X106616889Y-111654220D01*
X106538914Y-111669730D01*
X106465464Y-111700154D01*
X106399360Y-111744323D01*
X106343143Y-111800540D01*
X106298974Y-111866644D01*
X106268550Y-111940094D01*
X106253040Y-112018069D01*
X101986368Y-112018069D01*
X102026737Y-111977700D01*
X102070906Y-111911596D01*
X102101330Y-111838146D01*
X102116840Y-111760171D01*
X102116840Y-111680669D01*
X102101330Y-111602694D01*
X102070906Y-111529244D01*
X102036312Y-111477469D01*
X102681240Y-111477469D01*
X102681240Y-111556971D01*
X102696750Y-111634946D01*
X102727174Y-111708396D01*
X102771343Y-111774500D01*
X102827560Y-111830717D01*
X102893664Y-111874886D01*
X102967114Y-111905310D01*
X103045089Y-111920820D01*
X103124591Y-111920820D01*
X103202566Y-111905310D01*
X103276016Y-111874886D01*
X103342120Y-111830717D01*
X103398337Y-111774500D01*
X103442506Y-111708396D01*
X103472930Y-111634946D01*
X103488440Y-111556971D01*
X103488440Y-111477469D01*
X103472930Y-111399494D01*
X103442506Y-111326044D01*
X103398337Y-111259940D01*
X103342120Y-111203723D01*
X103276016Y-111159554D01*
X103202566Y-111129130D01*
X103124591Y-111113620D01*
X103045089Y-111113620D01*
X102967114Y-111129130D01*
X102893664Y-111159554D01*
X102827560Y-111203723D01*
X102771343Y-111259940D01*
X102727174Y-111326044D01*
X102696750Y-111399494D01*
X102681240Y-111477469D01*
X102036312Y-111477469D01*
X102026737Y-111463140D01*
X101970520Y-111406923D01*
X101904416Y-111362754D01*
X101830966Y-111332330D01*
X101752991Y-111316820D01*
X101673489Y-111316820D01*
X101595514Y-111332330D01*
X101522064Y-111362754D01*
X101455960Y-111406923D01*
X101399743Y-111463140D01*
X101355574Y-111529244D01*
X101325150Y-111602694D01*
X101309640Y-111680669D01*
X99989466Y-111680669D01*
X99953720Y-111644923D01*
X99887616Y-111600754D01*
X99814166Y-111570330D01*
X99736191Y-111554820D01*
X99656689Y-111554820D01*
X99578714Y-111570330D01*
X99505264Y-111600754D01*
X99439160Y-111644923D01*
X99382943Y-111701140D01*
X99338774Y-111767244D01*
X99308350Y-111840694D01*
X99292840Y-111918669D01*
X99292840Y-111998171D01*
X99308350Y-112076146D01*
X99311519Y-112083796D01*
X99251264Y-112108754D01*
X99185160Y-112152923D01*
X99128943Y-112209140D01*
X99084774Y-112275244D01*
X99054350Y-112348694D01*
X99038840Y-112426669D01*
X98285040Y-112426669D01*
X98285040Y-110420069D01*
X98911840Y-110420069D01*
X98911840Y-110499571D01*
X98927350Y-110577546D01*
X98957774Y-110650996D01*
X99001943Y-110717100D01*
X99058160Y-110773317D01*
X99097042Y-110799297D01*
X99081552Y-110836694D01*
X99066042Y-110914669D01*
X99066042Y-110994171D01*
X99081552Y-111072146D01*
X99111976Y-111145596D01*
X99156145Y-111211700D01*
X99212362Y-111267917D01*
X99278466Y-111312086D01*
X99351916Y-111342510D01*
X99429891Y-111358020D01*
X99509393Y-111358020D01*
X99587368Y-111342510D01*
X99660818Y-111312086D01*
X99726922Y-111267917D01*
X99783139Y-111211700D01*
X99827308Y-111145596D01*
X99857732Y-111072146D01*
X99873242Y-110994171D01*
X99873242Y-110914669D01*
X99857732Y-110836694D01*
X99827308Y-110763244D01*
X99783139Y-110697140D01*
X99726922Y-110640923D01*
X99688040Y-110614943D01*
X99703530Y-110577546D01*
X99719040Y-110499571D01*
X99719040Y-110420069D01*
X99703530Y-110342094D01*
X99700372Y-110334469D01*
X102732040Y-110334469D01*
X102732040Y-110413971D01*
X102747550Y-110491946D01*
X102777974Y-110565396D01*
X102822143Y-110631500D01*
X102878360Y-110687717D01*
X102944464Y-110731886D01*
X103017914Y-110762310D01*
X103095889Y-110777820D01*
X103175391Y-110777820D01*
X103253366Y-110762310D01*
X103326816Y-110731886D01*
X103392920Y-110687717D01*
X103449137Y-110631500D01*
X103493306Y-110565396D01*
X103523730Y-110491946D01*
X103539240Y-110413971D01*
X103539240Y-110334469D01*
X103523730Y-110256494D01*
X103493306Y-110183044D01*
X103449137Y-110116940D01*
X103392920Y-110060723D01*
X103326816Y-110016554D01*
X103253366Y-109986130D01*
X103175391Y-109970620D01*
X103095889Y-109970620D01*
X103017914Y-109986130D01*
X102944464Y-110016554D01*
X102878360Y-110060723D01*
X102822143Y-110116940D01*
X102777974Y-110183044D01*
X102747550Y-110256494D01*
X102732040Y-110334469D01*
X99700372Y-110334469D01*
X99673106Y-110268644D01*
X99628937Y-110202540D01*
X99572720Y-110146323D01*
X99506616Y-110102154D01*
X99433166Y-110071730D01*
X99355191Y-110056220D01*
X99275689Y-110056220D01*
X99197714Y-110071730D01*
X99124264Y-110102154D01*
X99058160Y-110146323D01*
X99001943Y-110202540D01*
X98957774Y-110268644D01*
X98927350Y-110342094D01*
X98911840Y-110420069D01*
X98285040Y-110420069D01*
X98285040Y-109626134D01*
X98361889Y-109641420D01*
X98441391Y-109641420D01*
X98519366Y-109625910D01*
X98592816Y-109595486D01*
X98658920Y-109551317D01*
X98715137Y-109495100D01*
X98759306Y-109428996D01*
X98789730Y-109355546D01*
X98795235Y-109327869D01*
X99143240Y-109327869D01*
X99143240Y-109407371D01*
X99158750Y-109485346D01*
X99189174Y-109558796D01*
X99233343Y-109624900D01*
X99289560Y-109681117D01*
X99355664Y-109725286D01*
X99429114Y-109755710D01*
X99507089Y-109771220D01*
X99586591Y-109771220D01*
X99664566Y-109755710D01*
X99738016Y-109725286D01*
X99804120Y-109681117D01*
X99860337Y-109624900D01*
X99904506Y-109558796D01*
X99934930Y-109485346D01*
X99950440Y-109407371D01*
X99950440Y-109327869D01*
X99934930Y-109249894D01*
X99904506Y-109176444D01*
X99860337Y-109110340D01*
X99804120Y-109054123D01*
X99738016Y-109009954D01*
X99664566Y-108979530D01*
X99586591Y-108964020D01*
X99507089Y-108964020D01*
X99429114Y-108979530D01*
X99355664Y-109009954D01*
X99289560Y-109054123D01*
X99233343Y-109110340D01*
X99189174Y-109176444D01*
X99158750Y-109249894D01*
X99143240Y-109327869D01*
X98795235Y-109327869D01*
X98805240Y-109277571D01*
X98805240Y-109198069D01*
X98789730Y-109120094D01*
X98759306Y-109046644D01*
X98715137Y-108980540D01*
X98658920Y-108924323D01*
X98592816Y-108880154D01*
X98565934Y-108869019D01*
X98767839Y-108667114D01*
X98778974Y-108693996D01*
X98823143Y-108760100D01*
X98879360Y-108816317D01*
X98945464Y-108860486D01*
X99018914Y-108890910D01*
X99096889Y-108906420D01*
X99176391Y-108906420D01*
X99254366Y-108890910D01*
X99327816Y-108860486D01*
X99393920Y-108816317D01*
X99450137Y-108760100D01*
X99486640Y-108705469D01*
X99523143Y-108760100D01*
X99579360Y-108816317D01*
X99645464Y-108860486D01*
X99718914Y-108890910D01*
X99796889Y-108906420D01*
X99876391Y-108906420D01*
X99954366Y-108890910D01*
X100027816Y-108860486D01*
X100093920Y-108816317D01*
X100150137Y-108760100D01*
X100186640Y-108705469D01*
X100223143Y-108760100D01*
X100279360Y-108816317D01*
X100345464Y-108860486D01*
X100418914Y-108890910D01*
X100496889Y-108906420D01*
X100576391Y-108906420D01*
X100654366Y-108890910D01*
X100727816Y-108860486D01*
X100793920Y-108816317D01*
X100850137Y-108760100D01*
X100878139Y-108718192D01*
X100906943Y-108761300D01*
X100963160Y-108817517D01*
X101029264Y-108861686D01*
X101102714Y-108892110D01*
X101180689Y-108907620D01*
X101260191Y-108907620D01*
X101338166Y-108892110D01*
X101411616Y-108861686D01*
X101477720Y-108817517D01*
X101533937Y-108761300D01*
X101556071Y-108728174D01*
X101573974Y-108771396D01*
X101618143Y-108837500D01*
X101674360Y-108893717D01*
X101740464Y-108937886D01*
X101813914Y-108968310D01*
X101891889Y-108983820D01*
X101930917Y-108983820D01*
X101863464Y-109011760D01*
X101804643Y-109051063D01*
X101745816Y-109011756D01*
X101672366Y-108981332D01*
X101594391Y-108965822D01*
X101514889Y-108965822D01*
X101436914Y-108981332D01*
X101363464Y-109011756D01*
X101304640Y-109051061D01*
X101245816Y-109011756D01*
X101172366Y-108981332D01*
X101094391Y-108965822D01*
X101014889Y-108965822D01*
X100936914Y-108981332D01*
X100863464Y-109011756D01*
X100804652Y-109051053D01*
X100745816Y-109011740D01*
X100672366Y-108981316D01*
X100594391Y-108965806D01*
X100514889Y-108965806D01*
X100436914Y-108981316D01*
X100363464Y-109011740D01*
X100297360Y-109055909D01*
X100241143Y-109112126D01*
X100196974Y-109178230D01*
X100166550Y-109251680D01*
X100151040Y-109329655D01*
X100151040Y-109409157D01*
X100166550Y-109487132D01*
X100196974Y-109560582D01*
X100241143Y-109626686D01*
X100297360Y-109682903D01*
X100363464Y-109727072D01*
X100436914Y-109757496D01*
X100514889Y-109773006D01*
X100594391Y-109773006D01*
X100672366Y-109757496D01*
X100745816Y-109727072D01*
X100804628Y-109687775D01*
X100863464Y-109727088D01*
X100936914Y-109757512D01*
X101014889Y-109773022D01*
X101094391Y-109773022D01*
X101172366Y-109757512D01*
X101245816Y-109727088D01*
X101304640Y-109687783D01*
X101363464Y-109727088D01*
X101436914Y-109757512D01*
X101514889Y-109773022D01*
X101594391Y-109773022D01*
X101672366Y-109757512D01*
X101745816Y-109727088D01*
X101804637Y-109687785D01*
X101863464Y-109727092D01*
X101936914Y-109757516D01*
X102014889Y-109773026D01*
X102094391Y-109773026D01*
X102172366Y-109757516D01*
X102245816Y-109727092D01*
X102304643Y-109687785D01*
X102363464Y-109727088D01*
X102436914Y-109757512D01*
X102514889Y-109773022D01*
X102594391Y-109773022D01*
X102672366Y-109757512D01*
X102745816Y-109727088D01*
X102811920Y-109682919D01*
X102836770Y-109658069D01*
X105973040Y-109658069D01*
X105973040Y-109737571D01*
X105988550Y-109815546D01*
X106018974Y-109888996D01*
X106063143Y-109955100D01*
X106119360Y-110011317D01*
X106185464Y-110055486D01*
X106258914Y-110085910D01*
X106336889Y-110101420D01*
X106416391Y-110101420D01*
X106494366Y-110085910D01*
X106567816Y-110055486D01*
X106633920Y-110011317D01*
X106690137Y-109955100D01*
X106734306Y-109888996D01*
X106764730Y-109815546D01*
X106780240Y-109737571D01*
X106780240Y-109658069D01*
X106764730Y-109580094D01*
X106734306Y-109506644D01*
X106690137Y-109440540D01*
X106633920Y-109384323D01*
X106567816Y-109340154D01*
X106494366Y-109309730D01*
X106416391Y-109294220D01*
X106336889Y-109294220D01*
X106258914Y-109309730D01*
X106185464Y-109340154D01*
X106119360Y-109384323D01*
X106063143Y-109440540D01*
X106018974Y-109506644D01*
X105988550Y-109580094D01*
X105973040Y-109658069D01*
X102836770Y-109658069D01*
X102868137Y-109626702D01*
X102912306Y-109560598D01*
X102942730Y-109487148D01*
X102958240Y-109409173D01*
X102958240Y-109329671D01*
X102942730Y-109251696D01*
X102912306Y-109178246D01*
X102868137Y-109112142D01*
X102811920Y-109055925D01*
X102745816Y-109011756D01*
X102672366Y-108981332D01*
X102594391Y-108965822D01*
X102514889Y-108965822D01*
X102436914Y-108981332D01*
X102363464Y-109011756D01*
X102304637Y-109051063D01*
X102245816Y-109011760D01*
X102172366Y-108981336D01*
X102094391Y-108965826D01*
X102055363Y-108965826D01*
X102122816Y-108937886D01*
X102188920Y-108893717D01*
X102245137Y-108837500D01*
X102289306Y-108771396D01*
X102319730Y-108697946D01*
X102320456Y-108694298D01*
X102593533Y-108421221D01*
X103644803Y-108421221D01*
X103636240Y-108464269D01*
X103636240Y-108543771D01*
X103651750Y-108621746D01*
X103682174Y-108695196D01*
X103726343Y-108761300D01*
X103782560Y-108817517D01*
X103848664Y-108861686D01*
X103922114Y-108892110D01*
X104000089Y-108907620D01*
X104079591Y-108907620D01*
X104157566Y-108892110D01*
X104231016Y-108861686D01*
X104297120Y-108817517D01*
X104353337Y-108761300D01*
X104382740Y-108717295D01*
X104412143Y-108761300D01*
X104468360Y-108817517D01*
X104534464Y-108861686D01*
X104607914Y-108892110D01*
X104685889Y-108907620D01*
X104765391Y-108907620D01*
X104843366Y-108892110D01*
X104916816Y-108861686D01*
X104982920Y-108817517D01*
X105039137Y-108761300D01*
X105083306Y-108695196D01*
X105113730Y-108621746D01*
X105129240Y-108543771D01*
X105129240Y-108464269D01*
X105120677Y-108421221D01*
X106602680Y-108421221D01*
X106562574Y-108481244D01*
X106532150Y-108554694D01*
X106516640Y-108632669D01*
X106516640Y-108712171D01*
X106532150Y-108790146D01*
X106562574Y-108863596D01*
X106606743Y-108929700D01*
X106662960Y-108985917D01*
X106729064Y-109030086D01*
X106802514Y-109060510D01*
X106880489Y-109076020D01*
X106959991Y-109076020D01*
X107037966Y-109060510D01*
X107111416Y-109030086D01*
X107177520Y-108985917D01*
X107233737Y-108929700D01*
X107277906Y-108863596D01*
X107308330Y-108790146D01*
X107323840Y-108712171D01*
X107323840Y-108632669D01*
X107308330Y-108554694D01*
X107277906Y-108481244D01*
X107237800Y-108421221D01*
X107487744Y-108421221D01*
X107522824Y-108456302D01*
X107523550Y-108459950D01*
X107553974Y-108533400D01*
X107598143Y-108599504D01*
X107654360Y-108655721D01*
X107720464Y-108699890D01*
X107793914Y-108730314D01*
X107871889Y-108745824D01*
X107951391Y-108745824D01*
X108029366Y-108730314D01*
X108102816Y-108699890D01*
X108168920Y-108655721D01*
X108225137Y-108599504D01*
X108269306Y-108533400D01*
X108299730Y-108459950D01*
X108315240Y-108381975D01*
X108315240Y-108302473D01*
X108299730Y-108224498D01*
X108269306Y-108151048D01*
X108225137Y-108084944D01*
X108168920Y-108028727D01*
X108102816Y-107984558D01*
X108029366Y-107954134D01*
X108025718Y-107953408D01*
X107906509Y-107834200D01*
X108799800Y-107834200D01*
X108799800Y-109569020D01*
G04 #@! TA.AperFunction,Conductor*
D15*
G36*
X108799800Y-109569020D02*
G01*
X108274992Y-109569020D01*
X108258779Y-109567423D01*
X108242566Y-109569020D01*
X108242565Y-109569020D01*
X108194050Y-109573798D01*
X108131807Y-109592680D01*
X108105103Y-109606953D01*
X108074442Y-109623341D01*
X108052414Y-109641420D01*
X108024164Y-109664604D01*
X108013825Y-109677202D01*
X107575908Y-110115120D01*
X104376262Y-110115120D01*
X104335156Y-110087654D01*
X104261706Y-110057230D01*
X104183731Y-110041720D01*
X104104229Y-110041720D01*
X104026254Y-110057230D01*
X103952804Y-110087654D01*
X103886700Y-110131823D01*
X103830483Y-110188040D01*
X103786314Y-110254144D01*
X103755890Y-110327594D01*
X103740380Y-110405569D01*
X103740380Y-110485071D01*
X103755890Y-110563046D01*
X103786314Y-110636496D01*
X103830483Y-110702600D01*
X103886700Y-110758817D01*
X103952804Y-110802986D01*
X104026254Y-110833410D01*
X104104229Y-110848920D01*
X104183731Y-110848920D01*
X104261706Y-110833410D01*
X104335156Y-110802986D01*
X104376262Y-110775520D01*
X107696467Y-110775520D01*
X107712680Y-110777117D01*
X107728893Y-110775520D01*
X107728895Y-110775520D01*
X107777410Y-110770742D01*
X107839653Y-110751860D01*
X107897017Y-110721199D01*
X107947296Y-110679936D01*
X107957639Y-110667333D01*
X108395553Y-110229420D01*
X108474941Y-110229420D01*
X108430824Y-110247694D01*
X108364720Y-110291863D01*
X108308503Y-110348080D01*
X108264334Y-110414184D01*
X108233910Y-110487634D01*
X108218400Y-110565609D01*
X108218400Y-110645111D01*
X108233910Y-110723086D01*
X108264334Y-110796536D01*
X108308503Y-110862640D01*
X108364720Y-110918857D01*
X108430824Y-110963026D01*
X108504274Y-110993450D01*
X108582249Y-111008960D01*
X108661751Y-111008960D01*
X108739726Y-110993450D01*
X108799800Y-110968567D01*
X108799800Y-114199497D01*
X108777616Y-114184674D01*
X108704166Y-114154250D01*
X108626191Y-114138740D01*
X108546689Y-114138740D01*
X108468714Y-114154250D01*
X108395264Y-114184674D01*
X108329160Y-114228843D01*
X108272943Y-114285060D01*
X108228774Y-114351164D01*
X108198350Y-114424614D01*
X108182840Y-114502589D01*
X108182840Y-114582091D01*
X108198350Y-114660066D01*
X108228774Y-114733516D01*
X108272943Y-114799620D01*
X108329160Y-114855837D01*
X108395264Y-114900006D01*
X108468714Y-114930430D01*
X108546689Y-114945940D01*
X108626191Y-114945940D01*
X108704166Y-114930430D01*
X108777616Y-114900006D01*
X108799800Y-114885183D01*
X108799800Y-115729443D01*
X108764916Y-115706134D01*
X108691466Y-115675710D01*
X108613491Y-115660200D01*
X108533989Y-115660200D01*
X108456014Y-115675710D01*
X108382564Y-115706134D01*
X108316460Y-115750303D01*
X108260243Y-115806520D01*
X108216074Y-115872624D01*
X108185650Y-115946074D01*
X108170140Y-116024049D01*
X108170140Y-116103551D01*
X108185650Y-116181526D01*
X108216074Y-116254976D01*
X108260243Y-116321080D01*
X108316460Y-116377297D01*
X108382564Y-116421466D01*
X108456014Y-116451890D01*
X108533989Y-116467400D01*
X108613491Y-116467400D01*
X108691466Y-116451890D01*
X108764916Y-116421466D01*
X108799800Y-116398157D01*
X108799800Y-118349800D01*
X106938591Y-118349800D01*
X106963102Y-118329684D01*
X106974238Y-118316115D01*
X107372696Y-117917658D01*
X107387950Y-117994346D01*
X107418374Y-118067796D01*
X107462543Y-118133900D01*
X107518760Y-118190117D01*
X107584864Y-118234286D01*
X107658314Y-118264710D01*
X107736289Y-118280220D01*
X107815791Y-118280220D01*
X107893766Y-118264710D01*
X107967216Y-118234286D01*
X108033320Y-118190117D01*
X108089537Y-118133900D01*
X108133706Y-118067796D01*
X108164130Y-117994346D01*
X108179640Y-117916371D01*
X108179640Y-117836869D01*
X108164130Y-117758894D01*
X108133706Y-117685444D01*
X108089537Y-117619340D01*
X108033320Y-117563123D01*
X107967216Y-117518954D01*
X107893766Y-117488530D01*
X107815791Y-117473020D01*
X107803393Y-117473020D01*
X107828761Y-117425560D01*
X107849094Y-117358530D01*
X107854240Y-117306283D01*
X107854240Y-117306275D01*
X107855959Y-117288820D01*
X107854240Y-117271365D01*
X107854240Y-115872272D01*
X107855959Y-115854819D01*
X107854240Y-115837366D01*
X107854240Y-112940088D01*
X107856306Y-112936996D01*
X107886730Y-112863546D01*
X107902240Y-112785571D01*
X107902240Y-112706069D01*
X107886730Y-112628094D01*
X107856306Y-112554644D01*
X107812137Y-112488540D01*
X107755920Y-112432323D01*
X107689816Y-112388154D01*
X107616366Y-112357730D01*
X107538391Y-112342220D01*
X107458889Y-112342220D01*
X107380914Y-112357730D01*
X107307464Y-112388154D01*
X107241360Y-112432323D01*
X107185143Y-112488540D01*
X107140974Y-112554644D01*
X107110550Y-112628094D01*
X107095040Y-112706069D01*
X107095040Y-112785571D01*
X107110550Y-112863546D01*
X107140974Y-112936996D01*
X107143040Y-112940088D01*
X107143040Y-113407058D01*
X107132137Y-113390740D01*
X107075920Y-113334523D01*
X107009816Y-113290354D01*
X106936366Y-113259930D01*
X106858391Y-113244420D01*
X106778889Y-113244420D01*
X106700914Y-113259930D01*
X106627464Y-113290354D01*
X106561360Y-113334523D01*
X106505143Y-113390740D01*
X106460974Y-113456844D01*
X106430550Y-113530294D01*
X106415040Y-113608269D01*
X106415040Y-113687771D01*
X106430550Y-113765746D01*
X106460974Y-113839196D01*
X106505143Y-113905300D01*
X106561360Y-113961517D01*
X106627464Y-114005686D01*
X106700914Y-114036110D01*
X106778889Y-114051620D01*
X106858391Y-114051620D01*
X106936366Y-114036110D01*
X107009816Y-114005686D01*
X107075920Y-113961517D01*
X107132137Y-113905300D01*
X107143040Y-113888982D01*
X107143041Y-115144844D01*
X107101308Y-115103111D01*
X107035204Y-115058942D01*
X106961754Y-115028518D01*
X106883779Y-115013008D01*
X106804277Y-115013008D01*
X106726302Y-115028518D01*
X106652852Y-115058942D01*
X106586748Y-115103111D01*
X106530531Y-115159328D01*
X106486362Y-115225432D01*
X106455938Y-115298882D01*
X106440428Y-115376857D01*
X106440428Y-115456359D01*
X106441872Y-115463620D01*
X106393108Y-115463620D01*
X106390016Y-115461554D01*
X106316566Y-115431130D01*
X106238591Y-115415620D01*
X106159089Y-115415620D01*
X106081114Y-115431130D01*
X106007664Y-115461554D01*
X105941560Y-115505723D01*
X105885343Y-115561940D01*
X105841174Y-115628044D01*
X105810750Y-115701494D01*
X105795240Y-115779469D01*
X105795240Y-115858971D01*
X105810750Y-115936946D01*
X105841174Y-116010396D01*
X105885343Y-116076500D01*
X105941560Y-116132717D01*
X106007664Y-116176886D01*
X106081114Y-116207310D01*
X106159089Y-116222820D01*
X106238591Y-116222820D01*
X106316566Y-116207310D01*
X106390016Y-116176886D01*
X106393108Y-116174820D01*
X106622795Y-116174820D01*
X106632836Y-116175809D01*
X106632844Y-116175809D01*
X106650299Y-116177528D01*
X106667754Y-116175809D01*
X107143040Y-116175809D01*
X107143041Y-116748675D01*
X107107537Y-116695540D01*
X107051320Y-116639323D01*
X106985216Y-116595154D01*
X106911766Y-116564730D01*
X106833791Y-116549220D01*
X106754289Y-116549220D01*
X106676314Y-116564730D01*
X106602864Y-116595154D01*
X106536760Y-116639323D01*
X106480543Y-116695540D01*
X106436374Y-116761644D01*
X106405950Y-116835094D01*
X106390440Y-116913069D01*
X106390440Y-116992571D01*
X106405950Y-117070546D01*
X106436374Y-117143996D01*
X106480543Y-117210100D01*
X106536760Y-117266317D01*
X106602864Y-117310486D01*
X106676314Y-117340910D01*
X106754289Y-117356420D01*
X106833791Y-117356420D01*
X106911766Y-117340910D01*
X106966206Y-117318360D01*
X106563146Y-117721421D01*
X106549999Y-117721421D01*
X106551640Y-117713171D01*
X106551640Y-117633669D01*
X106536130Y-117555694D01*
X106505706Y-117482244D01*
X106461537Y-117416140D01*
X106405320Y-117359923D01*
X106339216Y-117315754D01*
X106265766Y-117285330D01*
X106187791Y-117269820D01*
X106108289Y-117269820D01*
X106030314Y-117285330D01*
X105956864Y-117315754D01*
X105890760Y-117359923D01*
X105834543Y-117416140D01*
X105790374Y-117482244D01*
X105759950Y-117555694D01*
X105744440Y-117633669D01*
X105744440Y-117713171D01*
X105746081Y-117721421D01*
X105138480Y-117721421D01*
X105140240Y-117712571D01*
X105140240Y-117633069D01*
X105124730Y-117555094D01*
X105094306Y-117481644D01*
X105050137Y-117415540D01*
X104993920Y-117359323D01*
X104927816Y-117315154D01*
X104854366Y-117284730D01*
X104776391Y-117269220D01*
X104696889Y-117269220D01*
X104618914Y-117284730D01*
X104545464Y-117315154D01*
X104479360Y-117359323D01*
X104423143Y-117415540D01*
X104378974Y-117481644D01*
X104348550Y-117555094D01*
X104333040Y-117633069D01*
X104333040Y-117712571D01*
X104334800Y-117721421D01*
X102316485Y-117721421D01*
X102320000Y-117703751D01*
X102320000Y-117624249D01*
X102304490Y-117546274D01*
X102274066Y-117472824D01*
X102229897Y-117406720D01*
X102173680Y-117350503D01*
X102107576Y-117306334D01*
X102034126Y-117275910D01*
X101956151Y-117260400D01*
X101876649Y-117260400D01*
X101798674Y-117275910D01*
X101725224Y-117306334D01*
X101659120Y-117350503D01*
X101602903Y-117406720D01*
X101558734Y-117472824D01*
X101528310Y-117546274D01*
X101512800Y-117624249D01*
X101512800Y-117703751D01*
X101516315Y-117721421D01*
X99936735Y-117721421D01*
X99800839Y-117585525D01*
X99800839Y-115068201D01*
X99808539Y-115060501D01*
X99822102Y-115049370D01*
X99827439Y-115042867D01*
X99953240Y-115042867D01*
X99953240Y-115122369D01*
X99968750Y-115200344D01*
X99999174Y-115273794D01*
X100043343Y-115339898D01*
X100099560Y-115396115D01*
X100165664Y-115440284D01*
X100239114Y-115470708D01*
X100317089Y-115486218D01*
X100396591Y-115486218D01*
X100474566Y-115470708D01*
X100548016Y-115440284D01*
X100614120Y-115396115D01*
X100670337Y-115339898D01*
X100714506Y-115273794D01*
X100744930Y-115200344D01*
X100753810Y-115155702D01*
X100830166Y-115140514D01*
X100903616Y-115110090D01*
X100969720Y-115065921D01*
X101025937Y-115009704D01*
X101070106Y-114943600D01*
X101100530Y-114870150D01*
X101116040Y-114792175D01*
X101116040Y-114712673D01*
X101100530Y-114634698D01*
X101070106Y-114561248D01*
X101025937Y-114495144D01*
X100969720Y-114438927D01*
X100959286Y-114431955D01*
X101014883Y-114443014D01*
X101094385Y-114443014D01*
X101172360Y-114427504D01*
X101245810Y-114397080D01*
X101256841Y-114389710D01*
X101256840Y-115518443D01*
X101248143Y-115527140D01*
X101203974Y-115593244D01*
X101173550Y-115666694D01*
X101158040Y-115744669D01*
X101158040Y-115824171D01*
X101173550Y-115902146D01*
X101203974Y-115975596D01*
X101248143Y-116041700D01*
X101304360Y-116097917D01*
X101370464Y-116142086D01*
X101443914Y-116172510D01*
X101521889Y-116188020D01*
X101601391Y-116188020D01*
X101679366Y-116172510D01*
X101749841Y-116143318D01*
X101749841Y-116269182D01*
X101729903Y-116289120D01*
X101685734Y-116355224D01*
X101655310Y-116428674D01*
X101639800Y-116506649D01*
X101639800Y-116586151D01*
X101655310Y-116664126D01*
X101685734Y-116737576D01*
X101729903Y-116803680D01*
X101786120Y-116859897D01*
X101852224Y-116904066D01*
X101925674Y-116934490D01*
X102003649Y-116950000D01*
X102083151Y-116950000D01*
X102161126Y-116934490D01*
X102234576Y-116904066D01*
X102300680Y-116859897D01*
X102356897Y-116803680D01*
X102401066Y-116737576D01*
X102431490Y-116664126D01*
X102447000Y-116586151D01*
X102447000Y-116506649D01*
X102431490Y-116428674D01*
X102401066Y-116355224D01*
X102359440Y-116292926D01*
X102359440Y-116030598D01*
X102384689Y-116035620D01*
X102464191Y-116035620D01*
X102542166Y-116020110D01*
X102615616Y-115989686D01*
X102681720Y-115945517D01*
X102737937Y-115889300D01*
X102782106Y-115823196D01*
X102812530Y-115749746D01*
X102828040Y-115671771D01*
X102828040Y-115592269D01*
X102812530Y-115514294D01*
X102782106Y-115440844D01*
X102737937Y-115374740D01*
X102681720Y-115318523D01*
X102615616Y-115274354D01*
X102542166Y-115243930D01*
X102464191Y-115228420D01*
X102384689Y-115228420D01*
X102359440Y-115233442D01*
X102359440Y-115119069D01*
X103073040Y-115119069D01*
X103073040Y-115198571D01*
X103088550Y-115276546D01*
X103118974Y-115349996D01*
X103163143Y-115416100D01*
X103219360Y-115472317D01*
X103285464Y-115516486D01*
X103358914Y-115546910D01*
X103436889Y-115562420D01*
X103516391Y-115562420D01*
X103594366Y-115546910D01*
X103667816Y-115516486D01*
X103733920Y-115472317D01*
X103790137Y-115416100D01*
X103834306Y-115349996D01*
X103864730Y-115276546D01*
X103880240Y-115198571D01*
X103880240Y-115119069D01*
X103864730Y-115041094D01*
X103834306Y-114967644D01*
X103790137Y-114901540D01*
X103733920Y-114845323D01*
X103667816Y-114801154D01*
X103594366Y-114770730D01*
X103516391Y-114755220D01*
X103436889Y-114755220D01*
X103358914Y-114770730D01*
X103285464Y-114801154D01*
X103219360Y-114845323D01*
X103163143Y-114901540D01*
X103118974Y-114967644D01*
X103088550Y-115041094D01*
X103073040Y-115119069D01*
X102359440Y-115119069D01*
X102359440Y-114305383D01*
X102368137Y-114296686D01*
X102412306Y-114230582D01*
X102442730Y-114157132D01*
X102458240Y-114079157D01*
X102458240Y-113999655D01*
X102442730Y-113921680D01*
X102412306Y-113848230D01*
X102368137Y-113782126D01*
X102311920Y-113725909D01*
X102245816Y-113681740D01*
X102172366Y-113651316D01*
X102094391Y-113635806D01*
X102014889Y-113635806D01*
X101936914Y-113651316D01*
X101863464Y-113681740D01*
X101804616Y-113721061D01*
X101745816Y-113681772D01*
X101672366Y-113651348D01*
X101594391Y-113635838D01*
X101514889Y-113635838D01*
X101436914Y-113651348D01*
X101363464Y-113681772D01*
X101304655Y-113721067D01*
X101245810Y-113681748D01*
X101172360Y-113651324D01*
X101094385Y-113635814D01*
X101014883Y-113635814D01*
X100936908Y-113651324D01*
X100863458Y-113681748D01*
X100797354Y-113725917D01*
X100741137Y-113782134D01*
X100696968Y-113848238D01*
X100666544Y-113921688D01*
X100651034Y-113999663D01*
X100651034Y-114079165D01*
X100666544Y-114157140D01*
X100696968Y-114230590D01*
X100741137Y-114296694D01*
X100797354Y-114352911D01*
X100807788Y-114359883D01*
X100752191Y-114348824D01*
X100672689Y-114348824D01*
X100594714Y-114364334D01*
X100521264Y-114394758D01*
X100455160Y-114438927D01*
X100398943Y-114495144D01*
X100354774Y-114561248D01*
X100324350Y-114634698D01*
X100315470Y-114679340D01*
X100239114Y-114694528D01*
X100165664Y-114724952D01*
X100099560Y-114769121D01*
X100043343Y-114825338D01*
X99999174Y-114891442D01*
X99968750Y-114964892D01*
X99953240Y-115042867D01*
X99827439Y-115042867D01*
X99866541Y-114995223D01*
X99899561Y-114933447D01*
X99919894Y-114866417D01*
X99925040Y-114814170D01*
X99925040Y-114814162D01*
X99926759Y-114796707D01*
X99925040Y-114779252D01*
X99925040Y-114743488D01*
X99927106Y-114740396D01*
X99957530Y-114666946D01*
X99973040Y-114588971D01*
X99973040Y-114509469D01*
X99957530Y-114431494D01*
X99927106Y-114358044D01*
X99925040Y-114354952D01*
X99925040Y-114319185D01*
X99926759Y-114301732D01*
X99925040Y-114284279D01*
X99925040Y-114284270D01*
X99919894Y-114232023D01*
X99899561Y-114164993D01*
X99866541Y-114103217D01*
X99861284Y-114096811D01*
X99833235Y-114062633D01*
X99833230Y-114062628D01*
X99822103Y-114049070D01*
X99808545Y-114037943D01*
X98695870Y-112925269D01*
X100141240Y-112925269D01*
X100141240Y-113004771D01*
X100156750Y-113082746D01*
X100187174Y-113156196D01*
X100231343Y-113222300D01*
X100287560Y-113278517D01*
X100353664Y-113322686D01*
X100427114Y-113353110D01*
X100505089Y-113368620D01*
X100584591Y-113368620D01*
X100662566Y-113353110D01*
X100736016Y-113322686D01*
X100802120Y-113278517D01*
X100858337Y-113222300D01*
X100902506Y-113156196D01*
X100932930Y-113082746D01*
X100948440Y-113004771D01*
X100948440Y-112976069D01*
X101589040Y-112976069D01*
X101589040Y-113055571D01*
X101604550Y-113133546D01*
X101634974Y-113206996D01*
X101679143Y-113273100D01*
X101735360Y-113329317D01*
X101801464Y-113373486D01*
X101874914Y-113403910D01*
X101952889Y-113419420D01*
X102032391Y-113419420D01*
X102110366Y-113403910D01*
X102183816Y-113373486D01*
X102249920Y-113329317D01*
X102263568Y-113315669D01*
X104674850Y-113315669D01*
X104674850Y-113395171D01*
X104690360Y-113473146D01*
X104720784Y-113546596D01*
X104764953Y-113612700D01*
X104821170Y-113668917D01*
X104887274Y-113713086D01*
X104960724Y-113743510D01*
X105038699Y-113759020D01*
X105118201Y-113759020D01*
X105196176Y-113743510D01*
X105269626Y-113713086D01*
X105335730Y-113668917D01*
X105391947Y-113612700D01*
X105436116Y-113546596D01*
X105466540Y-113473146D01*
X105482050Y-113395171D01*
X105482050Y-113315669D01*
X105466540Y-113237694D01*
X105436116Y-113164244D01*
X105391947Y-113098140D01*
X105335730Y-113041923D01*
X105269626Y-112997754D01*
X105196176Y-112967330D01*
X105118201Y-112951820D01*
X105038699Y-112951820D01*
X104960724Y-112967330D01*
X104887274Y-112997754D01*
X104821170Y-113041923D01*
X104764953Y-113098140D01*
X104720784Y-113164244D01*
X104690360Y-113237694D01*
X104674850Y-113315669D01*
X102263568Y-113315669D01*
X102306137Y-113273100D01*
X102350306Y-113206996D01*
X102380730Y-113133546D01*
X102396240Y-113055571D01*
X102396240Y-112976069D01*
X102380730Y-112898094D01*
X102350306Y-112824644D01*
X102306137Y-112758540D01*
X102249920Y-112702323D01*
X102183816Y-112658154D01*
X102110366Y-112627730D01*
X102032391Y-112612220D01*
X101952889Y-112612220D01*
X101874914Y-112627730D01*
X101801464Y-112658154D01*
X101735360Y-112702323D01*
X101679143Y-112758540D01*
X101634974Y-112824644D01*
X101604550Y-112898094D01*
X101589040Y-112976069D01*
X100948440Y-112976069D01*
X100948440Y-112925269D01*
X100932930Y-112847294D01*
X100902506Y-112773844D01*
X100858337Y-112707740D01*
X100802120Y-112651523D01*
X100736016Y-112607354D01*
X100662566Y-112576930D01*
X100584591Y-112561420D01*
X100505089Y-112561420D01*
X100427114Y-112576930D01*
X100353664Y-112607354D01*
X100287560Y-112651523D01*
X100231343Y-112707740D01*
X100187174Y-112773844D01*
X100156750Y-112847294D01*
X100141240Y-112925269D01*
X98695870Y-112925269D01*
X98285040Y-112514440D01*
X98285040Y-112426669D01*
X99038840Y-112426669D01*
X99038840Y-112506171D01*
X99054350Y-112584146D01*
X99084774Y-112657596D01*
X99128943Y-112723700D01*
X99185160Y-112779917D01*
X99251264Y-112824086D01*
X99324714Y-112854510D01*
X99402689Y-112870020D01*
X99482191Y-112870020D01*
X99560166Y-112854510D01*
X99633616Y-112824086D01*
X99699720Y-112779917D01*
X99755937Y-112723700D01*
X99800106Y-112657596D01*
X99830530Y-112584146D01*
X99846040Y-112506171D01*
X99846040Y-112426669D01*
X99830530Y-112348694D01*
X99827361Y-112341044D01*
X99887616Y-112316086D01*
X99953720Y-112271917D01*
X100009937Y-112215700D01*
X100054106Y-112149596D01*
X100084530Y-112076146D01*
X100100040Y-111998171D01*
X100100040Y-111918669D01*
X100084530Y-111840694D01*
X100054106Y-111767244D01*
X100009937Y-111701140D01*
X99989466Y-111680669D01*
X101309640Y-111680669D01*
X101309640Y-111760171D01*
X101325150Y-111838146D01*
X101355574Y-111911596D01*
X101399743Y-111977700D01*
X101455960Y-112033917D01*
X101522064Y-112078086D01*
X101595514Y-112108510D01*
X101673489Y-112124020D01*
X101752991Y-112124020D01*
X101830966Y-112108510D01*
X101904416Y-112078086D01*
X101970520Y-112033917D01*
X101986368Y-112018069D01*
X106253040Y-112018069D01*
X106253040Y-112097571D01*
X106268550Y-112175546D01*
X106298974Y-112248996D01*
X106343143Y-112315100D01*
X106399360Y-112371317D01*
X106465464Y-112415486D01*
X106538914Y-112445910D01*
X106616889Y-112461420D01*
X106696391Y-112461420D01*
X106774366Y-112445910D01*
X106847816Y-112415486D01*
X106913920Y-112371317D01*
X106970137Y-112315100D01*
X107014306Y-112248996D01*
X107044730Y-112175546D01*
X107060240Y-112097571D01*
X107060240Y-112018069D01*
X107044730Y-111940094D01*
X107014306Y-111866644D01*
X106970137Y-111800540D01*
X106913920Y-111744323D01*
X106847816Y-111700154D01*
X106774366Y-111669730D01*
X106696391Y-111654220D01*
X106616889Y-111654220D01*
X106538914Y-111669730D01*
X106465464Y-111700154D01*
X106399360Y-111744323D01*
X106343143Y-111800540D01*
X106298974Y-111866644D01*
X106268550Y-111940094D01*
X106253040Y-112018069D01*
X101986368Y-112018069D01*
X102026737Y-111977700D01*
X102070906Y-111911596D01*
X102101330Y-111838146D01*
X102116840Y-111760171D01*
X102116840Y-111680669D01*
X102101330Y-111602694D01*
X102070906Y-111529244D01*
X102036312Y-111477469D01*
X102681240Y-111477469D01*
X102681240Y-111556971D01*
X102696750Y-111634946D01*
X102727174Y-111708396D01*
X102771343Y-111774500D01*
X102827560Y-111830717D01*
X102893664Y-111874886D01*
X102967114Y-111905310D01*
X103045089Y-111920820D01*
X103124591Y-111920820D01*
X103202566Y-111905310D01*
X103276016Y-111874886D01*
X103342120Y-111830717D01*
X103398337Y-111774500D01*
X103442506Y-111708396D01*
X103472930Y-111634946D01*
X103488440Y-111556971D01*
X103488440Y-111477469D01*
X103472930Y-111399494D01*
X103442506Y-111326044D01*
X103398337Y-111259940D01*
X103342120Y-111203723D01*
X103276016Y-111159554D01*
X103202566Y-111129130D01*
X103124591Y-111113620D01*
X103045089Y-111113620D01*
X102967114Y-111129130D01*
X102893664Y-111159554D01*
X102827560Y-111203723D01*
X102771343Y-111259940D01*
X102727174Y-111326044D01*
X102696750Y-111399494D01*
X102681240Y-111477469D01*
X102036312Y-111477469D01*
X102026737Y-111463140D01*
X101970520Y-111406923D01*
X101904416Y-111362754D01*
X101830966Y-111332330D01*
X101752991Y-111316820D01*
X101673489Y-111316820D01*
X101595514Y-111332330D01*
X101522064Y-111362754D01*
X101455960Y-111406923D01*
X101399743Y-111463140D01*
X101355574Y-111529244D01*
X101325150Y-111602694D01*
X101309640Y-111680669D01*
X99989466Y-111680669D01*
X99953720Y-111644923D01*
X99887616Y-111600754D01*
X99814166Y-111570330D01*
X99736191Y-111554820D01*
X99656689Y-111554820D01*
X99578714Y-111570330D01*
X99505264Y-111600754D01*
X99439160Y-111644923D01*
X99382943Y-111701140D01*
X99338774Y-111767244D01*
X99308350Y-111840694D01*
X99292840Y-111918669D01*
X99292840Y-111998171D01*
X99308350Y-112076146D01*
X99311519Y-112083796D01*
X99251264Y-112108754D01*
X99185160Y-112152923D01*
X99128943Y-112209140D01*
X99084774Y-112275244D01*
X99054350Y-112348694D01*
X99038840Y-112426669D01*
X98285040Y-112426669D01*
X98285040Y-110420069D01*
X98911840Y-110420069D01*
X98911840Y-110499571D01*
X98927350Y-110577546D01*
X98957774Y-110650996D01*
X99001943Y-110717100D01*
X99058160Y-110773317D01*
X99097042Y-110799297D01*
X99081552Y-110836694D01*
X99066042Y-110914669D01*
X99066042Y-110994171D01*
X99081552Y-111072146D01*
X99111976Y-111145596D01*
X99156145Y-111211700D01*
X99212362Y-111267917D01*
X99278466Y-111312086D01*
X99351916Y-111342510D01*
X99429891Y-111358020D01*
X99509393Y-111358020D01*
X99587368Y-111342510D01*
X99660818Y-111312086D01*
X99726922Y-111267917D01*
X99783139Y-111211700D01*
X99827308Y-111145596D01*
X99857732Y-111072146D01*
X99873242Y-110994171D01*
X99873242Y-110914669D01*
X99857732Y-110836694D01*
X99827308Y-110763244D01*
X99783139Y-110697140D01*
X99726922Y-110640923D01*
X99688040Y-110614943D01*
X99703530Y-110577546D01*
X99719040Y-110499571D01*
X99719040Y-110420069D01*
X99703530Y-110342094D01*
X99700372Y-110334469D01*
X102732040Y-110334469D01*
X102732040Y-110413971D01*
X102747550Y-110491946D01*
X102777974Y-110565396D01*
X102822143Y-110631500D01*
X102878360Y-110687717D01*
X102944464Y-110731886D01*
X103017914Y-110762310D01*
X103095889Y-110777820D01*
X103175391Y-110777820D01*
X103253366Y-110762310D01*
X103326816Y-110731886D01*
X103392920Y-110687717D01*
X103449137Y-110631500D01*
X103493306Y-110565396D01*
X103523730Y-110491946D01*
X103539240Y-110413971D01*
X103539240Y-110334469D01*
X103523730Y-110256494D01*
X103493306Y-110183044D01*
X103449137Y-110116940D01*
X103392920Y-110060723D01*
X103326816Y-110016554D01*
X103253366Y-109986130D01*
X103175391Y-109970620D01*
X103095889Y-109970620D01*
X103017914Y-109986130D01*
X102944464Y-110016554D01*
X102878360Y-110060723D01*
X102822143Y-110116940D01*
X102777974Y-110183044D01*
X102747550Y-110256494D01*
X102732040Y-110334469D01*
X99700372Y-110334469D01*
X99673106Y-110268644D01*
X99628937Y-110202540D01*
X99572720Y-110146323D01*
X99506616Y-110102154D01*
X99433166Y-110071730D01*
X99355191Y-110056220D01*
X99275689Y-110056220D01*
X99197714Y-110071730D01*
X99124264Y-110102154D01*
X99058160Y-110146323D01*
X99001943Y-110202540D01*
X98957774Y-110268644D01*
X98927350Y-110342094D01*
X98911840Y-110420069D01*
X98285040Y-110420069D01*
X98285040Y-109626134D01*
X98361889Y-109641420D01*
X98441391Y-109641420D01*
X98519366Y-109625910D01*
X98592816Y-109595486D01*
X98658920Y-109551317D01*
X98715137Y-109495100D01*
X98759306Y-109428996D01*
X98789730Y-109355546D01*
X98795235Y-109327869D01*
X99143240Y-109327869D01*
X99143240Y-109407371D01*
X99158750Y-109485346D01*
X99189174Y-109558796D01*
X99233343Y-109624900D01*
X99289560Y-109681117D01*
X99355664Y-109725286D01*
X99429114Y-109755710D01*
X99507089Y-109771220D01*
X99586591Y-109771220D01*
X99664566Y-109755710D01*
X99738016Y-109725286D01*
X99804120Y-109681117D01*
X99860337Y-109624900D01*
X99904506Y-109558796D01*
X99934930Y-109485346D01*
X99950440Y-109407371D01*
X99950440Y-109327869D01*
X99934930Y-109249894D01*
X99904506Y-109176444D01*
X99860337Y-109110340D01*
X99804120Y-109054123D01*
X99738016Y-109009954D01*
X99664566Y-108979530D01*
X99586591Y-108964020D01*
X99507089Y-108964020D01*
X99429114Y-108979530D01*
X99355664Y-109009954D01*
X99289560Y-109054123D01*
X99233343Y-109110340D01*
X99189174Y-109176444D01*
X99158750Y-109249894D01*
X99143240Y-109327869D01*
X98795235Y-109327869D01*
X98805240Y-109277571D01*
X98805240Y-109198069D01*
X98789730Y-109120094D01*
X98759306Y-109046644D01*
X98715137Y-108980540D01*
X98658920Y-108924323D01*
X98592816Y-108880154D01*
X98565934Y-108869019D01*
X98767839Y-108667114D01*
X98778974Y-108693996D01*
X98823143Y-108760100D01*
X98879360Y-108816317D01*
X98945464Y-108860486D01*
X99018914Y-108890910D01*
X99096889Y-108906420D01*
X99176391Y-108906420D01*
X99254366Y-108890910D01*
X99327816Y-108860486D01*
X99393920Y-108816317D01*
X99450137Y-108760100D01*
X99486640Y-108705469D01*
X99523143Y-108760100D01*
X99579360Y-108816317D01*
X99645464Y-108860486D01*
X99718914Y-108890910D01*
X99796889Y-108906420D01*
X99876391Y-108906420D01*
X99954366Y-108890910D01*
X100027816Y-108860486D01*
X100093920Y-108816317D01*
X100150137Y-108760100D01*
X100186640Y-108705469D01*
X100223143Y-108760100D01*
X100279360Y-108816317D01*
X100345464Y-108860486D01*
X100418914Y-108890910D01*
X100496889Y-108906420D01*
X100576391Y-108906420D01*
X100654366Y-108890910D01*
X100727816Y-108860486D01*
X100793920Y-108816317D01*
X100850137Y-108760100D01*
X100878139Y-108718192D01*
X100906943Y-108761300D01*
X100963160Y-108817517D01*
X101029264Y-108861686D01*
X101102714Y-108892110D01*
X101180689Y-108907620D01*
X101260191Y-108907620D01*
X101338166Y-108892110D01*
X101411616Y-108861686D01*
X101477720Y-108817517D01*
X101533937Y-108761300D01*
X101556071Y-108728174D01*
X101573974Y-108771396D01*
X101618143Y-108837500D01*
X101674360Y-108893717D01*
X101740464Y-108937886D01*
X101813914Y-108968310D01*
X101891889Y-108983820D01*
X101930917Y-108983820D01*
X101863464Y-109011760D01*
X101804643Y-109051063D01*
X101745816Y-109011756D01*
X101672366Y-108981332D01*
X101594391Y-108965822D01*
X101514889Y-108965822D01*
X101436914Y-108981332D01*
X101363464Y-109011756D01*
X101304640Y-109051061D01*
X101245816Y-109011756D01*
X101172366Y-108981332D01*
X101094391Y-108965822D01*
X101014889Y-108965822D01*
X100936914Y-108981332D01*
X100863464Y-109011756D01*
X100804652Y-109051053D01*
X100745816Y-109011740D01*
X100672366Y-108981316D01*
X100594391Y-108965806D01*
X100514889Y-108965806D01*
X100436914Y-108981316D01*
X100363464Y-109011740D01*
X100297360Y-109055909D01*
X100241143Y-109112126D01*
X100196974Y-109178230D01*
X100166550Y-109251680D01*
X100151040Y-109329655D01*
X100151040Y-109409157D01*
X100166550Y-109487132D01*
X100196974Y-109560582D01*
X100241143Y-109626686D01*
X100297360Y-109682903D01*
X100363464Y-109727072D01*
X100436914Y-109757496D01*
X100514889Y-109773006D01*
X100594391Y-109773006D01*
X100672366Y-109757496D01*
X100745816Y-109727072D01*
X100804628Y-109687775D01*
X100863464Y-109727088D01*
X100936914Y-109757512D01*
X101014889Y-109773022D01*
X101094391Y-109773022D01*
X101172366Y-109757512D01*
X101245816Y-109727088D01*
X101304640Y-109687783D01*
X101363464Y-109727088D01*
X101436914Y-109757512D01*
X101514889Y-109773022D01*
X101594391Y-109773022D01*
X101672366Y-109757512D01*
X101745816Y-109727088D01*
X101804637Y-109687785D01*
X101863464Y-109727092D01*
X101936914Y-109757516D01*
X102014889Y-109773026D01*
X102094391Y-109773026D01*
X102172366Y-109757516D01*
X102245816Y-109727092D01*
X102304643Y-109687785D01*
X102363464Y-109727088D01*
X102436914Y-109757512D01*
X102514889Y-109773022D01*
X102594391Y-109773022D01*
X102672366Y-109757512D01*
X102745816Y-109727088D01*
X102811920Y-109682919D01*
X102836770Y-109658069D01*
X105973040Y-109658069D01*
X105973040Y-109737571D01*
X105988550Y-109815546D01*
X106018974Y-109888996D01*
X106063143Y-109955100D01*
X106119360Y-110011317D01*
X106185464Y-110055486D01*
X106258914Y-110085910D01*
X106336889Y-110101420D01*
X106416391Y-110101420D01*
X106494366Y-110085910D01*
X106567816Y-110055486D01*
X106633920Y-110011317D01*
X106690137Y-109955100D01*
X106734306Y-109888996D01*
X106764730Y-109815546D01*
X106780240Y-109737571D01*
X106780240Y-109658069D01*
X106764730Y-109580094D01*
X106734306Y-109506644D01*
X106690137Y-109440540D01*
X106633920Y-109384323D01*
X106567816Y-109340154D01*
X106494366Y-109309730D01*
X106416391Y-109294220D01*
X106336889Y-109294220D01*
X106258914Y-109309730D01*
X106185464Y-109340154D01*
X106119360Y-109384323D01*
X106063143Y-109440540D01*
X106018974Y-109506644D01*
X105988550Y-109580094D01*
X105973040Y-109658069D01*
X102836770Y-109658069D01*
X102868137Y-109626702D01*
X102912306Y-109560598D01*
X102942730Y-109487148D01*
X102958240Y-109409173D01*
X102958240Y-109329671D01*
X102942730Y-109251696D01*
X102912306Y-109178246D01*
X102868137Y-109112142D01*
X102811920Y-109055925D01*
X102745816Y-109011756D01*
X102672366Y-108981332D01*
X102594391Y-108965822D01*
X102514889Y-108965822D01*
X102436914Y-108981332D01*
X102363464Y-109011756D01*
X102304637Y-109051063D01*
X102245816Y-109011760D01*
X102172366Y-108981336D01*
X102094391Y-108965826D01*
X102055363Y-108965826D01*
X102122816Y-108937886D01*
X102188920Y-108893717D01*
X102245137Y-108837500D01*
X102289306Y-108771396D01*
X102319730Y-108697946D01*
X102320456Y-108694298D01*
X102593533Y-108421221D01*
X103644803Y-108421221D01*
X103636240Y-108464269D01*
X103636240Y-108543771D01*
X103651750Y-108621746D01*
X103682174Y-108695196D01*
X103726343Y-108761300D01*
X103782560Y-108817517D01*
X103848664Y-108861686D01*
X103922114Y-108892110D01*
X104000089Y-108907620D01*
X104079591Y-108907620D01*
X104157566Y-108892110D01*
X104231016Y-108861686D01*
X104297120Y-108817517D01*
X104353337Y-108761300D01*
X104382740Y-108717295D01*
X104412143Y-108761300D01*
X104468360Y-108817517D01*
X104534464Y-108861686D01*
X104607914Y-108892110D01*
X104685889Y-108907620D01*
X104765391Y-108907620D01*
X104843366Y-108892110D01*
X104916816Y-108861686D01*
X104982920Y-108817517D01*
X105039137Y-108761300D01*
X105083306Y-108695196D01*
X105113730Y-108621746D01*
X105129240Y-108543771D01*
X105129240Y-108464269D01*
X105120677Y-108421221D01*
X106602680Y-108421221D01*
X106562574Y-108481244D01*
X106532150Y-108554694D01*
X106516640Y-108632669D01*
X106516640Y-108712171D01*
X106532150Y-108790146D01*
X106562574Y-108863596D01*
X106606743Y-108929700D01*
X106662960Y-108985917D01*
X106729064Y-109030086D01*
X106802514Y-109060510D01*
X106880489Y-109076020D01*
X106959991Y-109076020D01*
X107037966Y-109060510D01*
X107111416Y-109030086D01*
X107177520Y-108985917D01*
X107233737Y-108929700D01*
X107277906Y-108863596D01*
X107308330Y-108790146D01*
X107323840Y-108712171D01*
X107323840Y-108632669D01*
X107308330Y-108554694D01*
X107277906Y-108481244D01*
X107237800Y-108421221D01*
X107487744Y-108421221D01*
X107522824Y-108456302D01*
X107523550Y-108459950D01*
X107553974Y-108533400D01*
X107598143Y-108599504D01*
X107654360Y-108655721D01*
X107720464Y-108699890D01*
X107793914Y-108730314D01*
X107871889Y-108745824D01*
X107951391Y-108745824D01*
X108029366Y-108730314D01*
X108102816Y-108699890D01*
X108168920Y-108655721D01*
X108225137Y-108599504D01*
X108269306Y-108533400D01*
X108299730Y-108459950D01*
X108315240Y-108381975D01*
X108315240Y-108302473D01*
X108299730Y-108224498D01*
X108269306Y-108151048D01*
X108225137Y-108084944D01*
X108168920Y-108028727D01*
X108102816Y-107984558D01*
X108029366Y-107954134D01*
X108025718Y-107953408D01*
X107906509Y-107834200D01*
X108799800Y-107834200D01*
X108799800Y-109569020D01*
G37*
G04 #@! TD.AperFunction*
D13*
X126833800Y-109825866D02*
X126727176Y-109719242D01*
X126726450Y-109715594D01*
X126696026Y-109642144D01*
X126651857Y-109576040D01*
X126595640Y-109519823D01*
X126529536Y-109475654D01*
X126456086Y-109445230D01*
X126378111Y-109429720D01*
X126298609Y-109429720D01*
X126220634Y-109445230D01*
X126147184Y-109475654D01*
X126081080Y-109519823D01*
X126024863Y-109576040D01*
X125980694Y-109642144D01*
X125950270Y-109715594D01*
X125934760Y-109793569D01*
X125934760Y-109873071D01*
X125950270Y-109951046D01*
X125980694Y-110024496D01*
X126024863Y-110090600D01*
X126081080Y-110146817D01*
X126130130Y-110179591D01*
X126091380Y-110205483D01*
X126035163Y-110261700D01*
X125990994Y-110327804D01*
X125960570Y-110401254D01*
X125945060Y-110479229D01*
X125945060Y-110558731D01*
X125960570Y-110636706D01*
X125990994Y-110710156D01*
X126032535Y-110772328D01*
X126027543Y-110777320D01*
X125983374Y-110843424D01*
X125952950Y-110916874D01*
X125937440Y-110994849D01*
X125937440Y-111074351D01*
X125952950Y-111152326D01*
X125983374Y-111225776D01*
X126027543Y-111291880D01*
X126083760Y-111348097D01*
X126149864Y-111392266D01*
X126223314Y-111422690D01*
X126301289Y-111438200D01*
X126380791Y-111438200D01*
X126458766Y-111422690D01*
X126532216Y-111392266D01*
X126598320Y-111348097D01*
X126654537Y-111291880D01*
X126698706Y-111225776D01*
X126729130Y-111152326D01*
X126744640Y-111074351D01*
X126744640Y-111047013D01*
X126833800Y-111136173D01*
X126833800Y-112977700D01*
X125971992Y-112977700D01*
X124568120Y-111573829D01*
X124568120Y-111467289D01*
X125193220Y-111467289D01*
X125193220Y-111546791D01*
X125208730Y-111624766D01*
X125239154Y-111698216D01*
X125283323Y-111764320D01*
X125339540Y-111820537D01*
X125405644Y-111864706D01*
X125479094Y-111895130D01*
X125557069Y-111910640D01*
X125636571Y-111910640D01*
X125678881Y-111902224D01*
X125673550Y-111915094D01*
X125658040Y-111993069D01*
X125658040Y-112072571D01*
X125673550Y-112150546D01*
X125703974Y-112223996D01*
X125748143Y-112290100D01*
X125804360Y-112346317D01*
X125870464Y-112390486D01*
X125943914Y-112420910D01*
X126021889Y-112436420D01*
X126101391Y-112436420D01*
X126179366Y-112420910D01*
X126252816Y-112390486D01*
X126318920Y-112346317D01*
X126375137Y-112290100D01*
X126419306Y-112223996D01*
X126449730Y-112150546D01*
X126465240Y-112072571D01*
X126465240Y-111993069D01*
X126449730Y-111915094D01*
X126419306Y-111841644D01*
X126375137Y-111775540D01*
X126318920Y-111719323D01*
X126252816Y-111675154D01*
X126179366Y-111644730D01*
X126101391Y-111629220D01*
X126021889Y-111629220D01*
X125979579Y-111637636D01*
X125984910Y-111624766D01*
X126000420Y-111546791D01*
X126000420Y-111467289D01*
X125984910Y-111389314D01*
X125954486Y-111315864D01*
X125910317Y-111249760D01*
X125854100Y-111193543D01*
X125787996Y-111149374D01*
X125714546Y-111118950D01*
X125636571Y-111103440D01*
X125557069Y-111103440D01*
X125479094Y-111118950D01*
X125405644Y-111149374D01*
X125339540Y-111193543D01*
X125283323Y-111249760D01*
X125239154Y-111315864D01*
X125208730Y-111389314D01*
X125193220Y-111467289D01*
X124568120Y-111467289D01*
X124568120Y-110444597D01*
X124576817Y-110435900D01*
X124620986Y-110369796D01*
X124651410Y-110296346D01*
X124666920Y-110218371D01*
X124666920Y-110176657D01*
X124713789Y-110185980D01*
X124793291Y-110185980D01*
X124871266Y-110170470D01*
X124944716Y-110140046D01*
X125010820Y-110095877D01*
X125067037Y-110039660D01*
X125111206Y-109973556D01*
X125141630Y-109900106D01*
X125157140Y-109822131D01*
X125157140Y-109742629D01*
X125141630Y-109664654D01*
X125111206Y-109591204D01*
X125067037Y-109525100D01*
X125010820Y-109468883D01*
X124944716Y-109424714D01*
X124871266Y-109394290D01*
X124843062Y-109388680D01*
X125537172Y-109388680D01*
X125540264Y-109390746D01*
X125613714Y-109421170D01*
X125691689Y-109436680D01*
X125771191Y-109436680D01*
X125849166Y-109421170D01*
X125922616Y-109390746D01*
X125988720Y-109346577D01*
X126044937Y-109290360D01*
X126089106Y-109224256D01*
X126119530Y-109150806D01*
X126135040Y-109072831D01*
X126135040Y-108993329D01*
X126119530Y-108915354D01*
X126089106Y-108841904D01*
X126044937Y-108775800D01*
X125988720Y-108719583D01*
X125922616Y-108675414D01*
X125849166Y-108644990D01*
X125771191Y-108629480D01*
X125691689Y-108629480D01*
X125613714Y-108644990D01*
X125540264Y-108675414D01*
X125537172Y-108677480D01*
X124402063Y-108677480D01*
X124440646Y-108619736D01*
X124471070Y-108546286D01*
X124486580Y-108468311D01*
X124486580Y-108388809D01*
X124471070Y-108310834D01*
X124440646Y-108237384D01*
X124396477Y-108171280D01*
X124340260Y-108115063D01*
X124274156Y-108070894D01*
X124200706Y-108040470D01*
X124122731Y-108024960D01*
X124043229Y-108024960D01*
X123965254Y-108040470D01*
X123891804Y-108070894D01*
X123825700Y-108115063D01*
X123769483Y-108171280D01*
X123725314Y-108237384D01*
X123694890Y-108310834D01*
X123679380Y-108388809D01*
X123679380Y-108468311D01*
X123694890Y-108546286D01*
X123725314Y-108619736D01*
X123763897Y-108677480D01*
X122963137Y-108677480D01*
X122965697Y-108674920D01*
X123009866Y-108608816D01*
X123040290Y-108535366D01*
X123055800Y-108457391D01*
X123055800Y-108377889D01*
X123040290Y-108299914D01*
X123009866Y-108226464D01*
X122965697Y-108160360D01*
X122909480Y-108104143D01*
X122843376Y-108059974D01*
X122769926Y-108029550D01*
X122691951Y-108014040D01*
X122612449Y-108014040D01*
X122534474Y-108029550D01*
X122461024Y-108059974D01*
X122394920Y-108104143D01*
X122338703Y-108160360D01*
X122294534Y-108226464D01*
X122264110Y-108299914D01*
X122248600Y-108377889D01*
X122248600Y-108457391D01*
X122264110Y-108535366D01*
X122294534Y-108608816D01*
X122338703Y-108674920D01*
X122341263Y-108677480D01*
X119876415Y-108677480D01*
X119858960Y-108675761D01*
X119841505Y-108677480D01*
X119841497Y-108677480D01*
X119789250Y-108682626D01*
X119722220Y-108702959D01*
X119660444Y-108735979D01*
X119606297Y-108780417D01*
X119595165Y-108793981D01*
X119256641Y-109132506D01*
X119243078Y-109143637D01*
X119198640Y-109197784D01*
X119184490Y-109224256D01*
X119165620Y-109259559D01*
X119145286Y-109326590D01*
X119138421Y-109396300D01*
X119140141Y-109413765D01*
X119140140Y-109971652D01*
X119138074Y-109974744D01*
X119107650Y-110048194D01*
X119092140Y-110126169D01*
X119092140Y-110205671D01*
X119107650Y-110283646D01*
X119138074Y-110357096D01*
X119182243Y-110423200D01*
X119238460Y-110479417D01*
X119304564Y-110523586D01*
X119378014Y-110554010D01*
X119455989Y-110569520D01*
X119535491Y-110569520D01*
X119613466Y-110554010D01*
X119686916Y-110523586D01*
X119753020Y-110479417D01*
X119809237Y-110423200D01*
X119853406Y-110357096D01*
X119883830Y-110283646D01*
X119899340Y-110205671D01*
X119899340Y-110126169D01*
X119883830Y-110048194D01*
X119881409Y-110042349D01*
X121911540Y-110042349D01*
X121911540Y-110121851D01*
X121927050Y-110199826D01*
X121957474Y-110273276D01*
X122001643Y-110339380D01*
X122057860Y-110395597D01*
X122123964Y-110439766D01*
X122197414Y-110470190D01*
X122275389Y-110485700D01*
X122354891Y-110485700D01*
X122432866Y-110470190D01*
X122506316Y-110439766D01*
X122508077Y-110438589D01*
X122897060Y-110438589D01*
X122897060Y-110518091D01*
X122912570Y-110596066D01*
X122942994Y-110669516D01*
X122987163Y-110735620D01*
X123043380Y-110791837D01*
X123109484Y-110836006D01*
X123182934Y-110866430D01*
X123260909Y-110881940D01*
X123340411Y-110881940D01*
X123418386Y-110866430D01*
X123491836Y-110836006D01*
X123557940Y-110791837D01*
X123614157Y-110735620D01*
X123658326Y-110669516D01*
X123688750Y-110596066D01*
X123704260Y-110518091D01*
X123704260Y-110438589D01*
X123688750Y-110360614D01*
X123658326Y-110287164D01*
X123614157Y-110221060D01*
X123557940Y-110164843D01*
X123491836Y-110120674D01*
X123418386Y-110090250D01*
X123340411Y-110074740D01*
X123260909Y-110074740D01*
X123182934Y-110090250D01*
X123109484Y-110120674D01*
X123043380Y-110164843D01*
X122987163Y-110221060D01*
X122942994Y-110287164D01*
X122912570Y-110360614D01*
X122897060Y-110438589D01*
X122508077Y-110438589D01*
X122572420Y-110395597D01*
X122628637Y-110339380D01*
X122672806Y-110273276D01*
X122703230Y-110199826D01*
X122718740Y-110121851D01*
X122718740Y-110042349D01*
X122703230Y-109964374D01*
X122672806Y-109890924D01*
X122628637Y-109824820D01*
X122572420Y-109768603D01*
X122506316Y-109724434D01*
X122432866Y-109694010D01*
X122354891Y-109678500D01*
X122275389Y-109678500D01*
X122197414Y-109694010D01*
X122123964Y-109724434D01*
X122057860Y-109768603D01*
X122001643Y-109824820D01*
X121957474Y-109890924D01*
X121927050Y-109964374D01*
X121911540Y-110042349D01*
X119881409Y-110042349D01*
X119853406Y-109974744D01*
X119851340Y-109971652D01*
X119851340Y-109543593D01*
X120006254Y-109388680D01*
X124664018Y-109388680D01*
X124635814Y-109394290D01*
X124562364Y-109424714D01*
X124496260Y-109468883D01*
X124440043Y-109525100D01*
X124395874Y-109591204D01*
X124365450Y-109664654D01*
X124349940Y-109742629D01*
X124349940Y-109784343D01*
X124303071Y-109775020D01*
X124223569Y-109775020D01*
X124145594Y-109790530D01*
X124072144Y-109820954D01*
X124006040Y-109865123D01*
X123949823Y-109921340D01*
X123905654Y-109987444D01*
X123875230Y-110060894D01*
X123859720Y-110138869D01*
X123859720Y-110218371D01*
X123875230Y-110296346D01*
X123905654Y-110369796D01*
X123949823Y-110435900D01*
X123958520Y-110444597D01*
X123958521Y-111685112D01*
X123957047Y-111700080D01*
X123962931Y-111759831D01*
X123980360Y-111817285D01*
X123987965Y-111831512D01*
X124008663Y-111870237D01*
X124046753Y-111916648D01*
X124058377Y-111926188D01*
X125550827Y-113418639D01*
X125566419Y-113470040D01*
X125569359Y-113475540D01*
X124976800Y-113475540D01*
X124976800Y-113448489D01*
X124961290Y-113370514D01*
X124930866Y-113297064D01*
X124886697Y-113230960D01*
X124830480Y-113174743D01*
X124764376Y-113130574D01*
X124690926Y-113100150D01*
X124612951Y-113084640D01*
X124607710Y-113084640D01*
X124610826Y-113079976D01*
X124641250Y-113006526D01*
X124656760Y-112928551D01*
X124656760Y-112849049D01*
X124641250Y-112771074D01*
X124610826Y-112697624D01*
X124566657Y-112631520D01*
X124510440Y-112575303D01*
X124444336Y-112531134D01*
X124370886Y-112500710D01*
X124292911Y-112485200D01*
X124213409Y-112485200D01*
X124135434Y-112500710D01*
X124061984Y-112531134D01*
X123995880Y-112575303D01*
X123939663Y-112631520D01*
X123895494Y-112697624D01*
X123865070Y-112771074D01*
X123849560Y-112849049D01*
X123849560Y-112928551D01*
X123865070Y-113006526D01*
X123895494Y-113079976D01*
X123939663Y-113146080D01*
X123995880Y-113202297D01*
X124061984Y-113246466D01*
X124135434Y-113276890D01*
X124213409Y-113292400D01*
X124218650Y-113292400D01*
X124215534Y-113297064D01*
X124185110Y-113370514D01*
X124169600Y-113448489D01*
X124169600Y-113527991D01*
X124185110Y-113605966D01*
X124215534Y-113679416D01*
X124259703Y-113745520D01*
X124314068Y-113799885D01*
X124318543Y-113808257D01*
X124330340Y-113822631D01*
X124344670Y-113840091D01*
X124356633Y-113854668D01*
X124368257Y-113864208D01*
X124489328Y-113985279D01*
X124498872Y-113996908D01*
X124545283Y-114034998D01*
X124583454Y-114055400D01*
X124598234Y-114063300D01*
X124655688Y-114080729D01*
X124660843Y-114081237D01*
X124700474Y-114085140D01*
X124700482Y-114085140D01*
X124715440Y-114086613D01*
X124730398Y-114085140D01*
X126392100Y-114085140D01*
X126392100Y-114152831D01*
X126407610Y-114230806D01*
X126438034Y-114304256D01*
X126482203Y-114370360D01*
X126538420Y-114426577D01*
X126604524Y-114470746D01*
X126677974Y-114501170D01*
X126755949Y-114516680D01*
X126833800Y-114516680D01*
X126833800Y-116438009D01*
X126807926Y-116375544D01*
X126763757Y-116309440D01*
X126707540Y-116253223D01*
X126641436Y-116209054D01*
X126567986Y-116178630D01*
X126490011Y-116163120D01*
X126410509Y-116163120D01*
X126332534Y-116178630D01*
X126259084Y-116209054D01*
X126192980Y-116253223D01*
X126136763Y-116309440D01*
X126092594Y-116375544D01*
X126062170Y-116448994D01*
X126046660Y-116526969D01*
X126046660Y-116606471D01*
X126062170Y-116684446D01*
X126092594Y-116757896D01*
X126136763Y-116824000D01*
X126192980Y-116880217D01*
X126259084Y-116924386D01*
X126332534Y-116954810D01*
X126410509Y-116970320D01*
X126490011Y-116970320D01*
X126567986Y-116954810D01*
X126641436Y-116924386D01*
X126707540Y-116880217D01*
X126763757Y-116824000D01*
X126807926Y-116757896D01*
X126833800Y-116695431D01*
X126833800Y-118349800D01*
X122112678Y-118349800D01*
X122152413Y-118317189D01*
X122161957Y-118305560D01*
X122321651Y-118145866D01*
X122386386Y-118132990D01*
X122459836Y-118102566D01*
X122525940Y-118058397D01*
X122582157Y-118002180D01*
X122626326Y-117936076D01*
X122656750Y-117862626D01*
X122672260Y-117784651D01*
X122672260Y-117705149D01*
X122656750Y-117627174D01*
X122632393Y-117568369D01*
X123173920Y-117568369D01*
X123173920Y-117647871D01*
X123189430Y-117725846D01*
X123219854Y-117799296D01*
X123264023Y-117865400D01*
X123320240Y-117921617D01*
X123386344Y-117965786D01*
X123459794Y-117996210D01*
X123537769Y-118011720D01*
X123617271Y-118011720D01*
X123695246Y-117996210D01*
X123768696Y-117965786D01*
X123834800Y-117921617D01*
X123891017Y-117865400D01*
X123935186Y-117799296D01*
X123965610Y-117725846D01*
X123981120Y-117647871D01*
X123981120Y-117568369D01*
X123965610Y-117490394D01*
X123935186Y-117416944D01*
X123891017Y-117350840D01*
X123834800Y-117294623D01*
X123768696Y-117250454D01*
X123695246Y-117220030D01*
X123617271Y-117204520D01*
X123537769Y-117204520D01*
X123459794Y-117220030D01*
X123386344Y-117250454D01*
X123320240Y-117294623D01*
X123264023Y-117350840D01*
X123219854Y-117416944D01*
X123189430Y-117490394D01*
X123173920Y-117568369D01*
X122632393Y-117568369D01*
X122626326Y-117553724D01*
X122587401Y-117495469D01*
X122627086Y-117436076D01*
X122657510Y-117362626D01*
X122673020Y-117284651D01*
X122673020Y-117205149D01*
X122657510Y-117127174D01*
X122627086Y-117053724D01*
X122582917Y-116987620D01*
X122526700Y-116931403D01*
X122460596Y-116887234D01*
X122387146Y-116856810D01*
X122309171Y-116841300D01*
X122296872Y-116841300D01*
X122251781Y-116796209D01*
X122688782Y-116796209D01*
X122688782Y-116875711D01*
X122704292Y-116953686D01*
X122734716Y-117027136D01*
X122778885Y-117093240D01*
X122835102Y-117149457D01*
X122901206Y-117193626D01*
X122974656Y-117224050D01*
X123052631Y-117239560D01*
X123132133Y-117239560D01*
X123210108Y-117224050D01*
X123283558Y-117193626D01*
X123349662Y-117149457D01*
X123405879Y-117093240D01*
X123450048Y-117027136D01*
X123480472Y-116953686D01*
X123495982Y-116875711D01*
X123495982Y-116796209D01*
X123480472Y-116718234D01*
X123450048Y-116644784D01*
X123405879Y-116578680D01*
X123349662Y-116522463D01*
X123283558Y-116478294D01*
X123210108Y-116447870D01*
X123132133Y-116432360D01*
X123052631Y-116432360D01*
X122974656Y-116447870D01*
X122901206Y-116478294D01*
X122835102Y-116522463D01*
X122778885Y-116578680D01*
X122734716Y-116644784D01*
X122704292Y-116718234D01*
X122688782Y-116796209D01*
X122251781Y-116796209D01*
X121644632Y-116189061D01*
X121635088Y-116177432D01*
X121588677Y-116139342D01*
X121535726Y-116111040D01*
X121478271Y-116093611D01*
X121433486Y-116089200D01*
X121433478Y-116089200D01*
X121418520Y-116087727D01*
X121403562Y-116089200D01*
X120998697Y-116089200D01*
X121005577Y-116082320D01*
X121049746Y-116016216D01*
X121080170Y-115942766D01*
X121095680Y-115864791D01*
X121095680Y-115785289D01*
X121080170Y-115707314D01*
X121074825Y-115694409D01*
X123640720Y-115694409D01*
X123640720Y-115773911D01*
X123656230Y-115851886D01*
X123686654Y-115925336D01*
X123730823Y-115991440D01*
X123787040Y-116047657D01*
X123853144Y-116091826D01*
X123926594Y-116122250D01*
X124004569Y-116137760D01*
X124084071Y-116137760D01*
X124162046Y-116122250D01*
X124235496Y-116091826D01*
X124301600Y-116047657D01*
X124357817Y-115991440D01*
X124401986Y-115925336D01*
X124432410Y-115851886D01*
X124434171Y-115843029D01*
X125353240Y-115843029D01*
X125353240Y-115922531D01*
X125368750Y-116000506D01*
X125399174Y-116073956D01*
X125443343Y-116140060D01*
X125499560Y-116196277D01*
X125565664Y-116240446D01*
X125639114Y-116270870D01*
X125717089Y-116286380D01*
X125796591Y-116286380D01*
X125874566Y-116270870D01*
X125948016Y-116240446D01*
X126014120Y-116196277D01*
X126070337Y-116140060D01*
X126114506Y-116073956D01*
X126144930Y-116000506D01*
X126160440Y-115922531D01*
X126160440Y-115843029D01*
X126144930Y-115765054D01*
X126114506Y-115691604D01*
X126070337Y-115625500D01*
X126014120Y-115569283D01*
X125948016Y-115525114D01*
X125874566Y-115494690D01*
X125796591Y-115479180D01*
X125717089Y-115479180D01*
X125639114Y-115494690D01*
X125565664Y-115525114D01*
X125499560Y-115569283D01*
X125443343Y-115625500D01*
X125399174Y-115691604D01*
X125368750Y-115765054D01*
X125353240Y-115843029D01*
X124434171Y-115843029D01*
X124447920Y-115773911D01*
X124447920Y-115694409D01*
X124432410Y-115616434D01*
X124401986Y-115542984D01*
X124357817Y-115476880D01*
X124301600Y-115420663D01*
X124235496Y-115376494D01*
X124162046Y-115346070D01*
X124084071Y-115330560D01*
X124004569Y-115330560D01*
X123926594Y-115346070D01*
X123853144Y-115376494D01*
X123787040Y-115420663D01*
X123730823Y-115476880D01*
X123686654Y-115542984D01*
X123656230Y-115616434D01*
X123640720Y-115694409D01*
X121074825Y-115694409D01*
X121049746Y-115633864D01*
X121005577Y-115567760D01*
X120949360Y-115511543D01*
X120883256Y-115467374D01*
X120809806Y-115436950D01*
X120731831Y-115421440D01*
X120652329Y-115421440D01*
X120574354Y-115436950D01*
X120500904Y-115467374D01*
X120434800Y-115511543D01*
X120378583Y-115567760D01*
X120334414Y-115633864D01*
X120303990Y-115707314D01*
X120288480Y-115785289D01*
X120288480Y-115864791D01*
X120303990Y-115942766D01*
X120334414Y-116016216D01*
X120378583Y-116082320D01*
X120385463Y-116089200D01*
X119573732Y-116089200D01*
X119477700Y-115993168D01*
X119477700Y-115980869D01*
X119462190Y-115902894D01*
X119431766Y-115829444D01*
X119387597Y-115763340D01*
X119331380Y-115707123D01*
X119265276Y-115662954D01*
X119191826Y-115632530D01*
X119113851Y-115617020D01*
X119034349Y-115617020D01*
X118956374Y-115632530D01*
X118882924Y-115662954D01*
X118816820Y-115707123D01*
X118760603Y-115763340D01*
X118716434Y-115829444D01*
X118686010Y-115902894D01*
X118670500Y-115980869D01*
X118670500Y-116060371D01*
X118686010Y-116138346D01*
X118716434Y-116211796D01*
X118760603Y-116277900D01*
X118816820Y-116334117D01*
X118882924Y-116378286D01*
X118956374Y-116408710D01*
X119034349Y-116424220D01*
X119046648Y-116424220D01*
X119221371Y-116598943D01*
X119230912Y-116610568D01*
X119277323Y-116648658D01*
X119330274Y-116676960D01*
X119387728Y-116694389D01*
X119393369Y-116694945D01*
X119432514Y-116698800D01*
X119432521Y-116698800D01*
X119447479Y-116700273D01*
X119462437Y-116698800D01*
X121292269Y-116698800D01*
X121865820Y-117272352D01*
X121865820Y-117284651D01*
X121880611Y-117359011D01*
X121806251Y-117344220D01*
X121726749Y-117344220D01*
X121648774Y-117359730D01*
X121575324Y-117390154D01*
X121509220Y-117434323D01*
X121453003Y-117490540D01*
X121408834Y-117556644D01*
X121378410Y-117630094D01*
X121362900Y-117708069D01*
X121362900Y-117787571D01*
X121364541Y-117795821D01*
X121172274Y-117795821D01*
X121174420Y-117785031D01*
X121174420Y-117705529D01*
X121158910Y-117627554D01*
X121128486Y-117554104D01*
X121084317Y-117488000D01*
X121028100Y-117431783D01*
X120961996Y-117387614D01*
X120888546Y-117357190D01*
X120810571Y-117341680D01*
X120731069Y-117341680D01*
X120657235Y-117356366D01*
X120671500Y-117284651D01*
X120671500Y-117205149D01*
X120655990Y-117127174D01*
X120625566Y-117053724D01*
X120581397Y-116987620D01*
X120525180Y-116931403D01*
X120459076Y-116887234D01*
X120385626Y-116856810D01*
X120307651Y-116841300D01*
X120228149Y-116841300D01*
X120150174Y-116856810D01*
X120076724Y-116887234D01*
X120010620Y-116931403D01*
X119954403Y-116987620D01*
X119910234Y-117053724D01*
X119879810Y-117127174D01*
X119864300Y-117205149D01*
X119864300Y-117284651D01*
X119879810Y-117362626D01*
X119910234Y-117436076D01*
X119952251Y-117498959D01*
X118373060Y-115919769D01*
X118373060Y-114048857D01*
X118381757Y-114040160D01*
X118425926Y-113974056D01*
X118456350Y-113900606D01*
X118471860Y-113822631D01*
X118471860Y-113750749D01*
X118543500Y-113750749D01*
X118543500Y-113830251D01*
X118559010Y-113908226D01*
X118589434Y-113981676D01*
X118633603Y-114047780D01*
X118689820Y-114103997D01*
X118755924Y-114148166D01*
X118829374Y-114178590D01*
X118907349Y-114194100D01*
X118986851Y-114194100D01*
X119064826Y-114178590D01*
X119138276Y-114148166D01*
X119204380Y-114103997D01*
X119260597Y-114047780D01*
X119304766Y-113981676D01*
X119335190Y-113908226D01*
X119350700Y-113830251D01*
X119350700Y-113758369D01*
X119567120Y-113758369D01*
X119567120Y-113837871D01*
X119582630Y-113915846D01*
X119613054Y-113989296D01*
X119657223Y-114055400D01*
X119713440Y-114111617D01*
X119779544Y-114155786D01*
X119852994Y-114186210D01*
X119930969Y-114201720D01*
X120010471Y-114201720D01*
X120088446Y-114186210D01*
X120161896Y-114155786D01*
X120228000Y-114111617D01*
X120284217Y-114055400D01*
X120328386Y-113989296D01*
X120358810Y-113915846D01*
X120374320Y-113837871D01*
X120374320Y-113758369D01*
X120358810Y-113680394D01*
X120328386Y-113606944D01*
X120284217Y-113540840D01*
X120228000Y-113484623D01*
X120161896Y-113440454D01*
X120088446Y-113410030D01*
X120010471Y-113394520D01*
X119930969Y-113394520D01*
X119852994Y-113410030D01*
X119779544Y-113440454D01*
X119713440Y-113484623D01*
X119657223Y-113540840D01*
X119613054Y-113606944D01*
X119582630Y-113680394D01*
X119567120Y-113758369D01*
X119350700Y-113758369D01*
X119350700Y-113750749D01*
X119335190Y-113672774D01*
X119304766Y-113599324D01*
X119260597Y-113533220D01*
X119204380Y-113477003D01*
X119138276Y-113432834D01*
X119064826Y-113402410D01*
X118986851Y-113386900D01*
X118907349Y-113386900D01*
X118829374Y-113402410D01*
X118755924Y-113432834D01*
X118689820Y-113477003D01*
X118633603Y-113533220D01*
X118589434Y-113599324D01*
X118559010Y-113672774D01*
X118543500Y-113750749D01*
X118471860Y-113750749D01*
X118471860Y-113743129D01*
X118456350Y-113665154D01*
X118425926Y-113591704D01*
X118381757Y-113525600D01*
X118325540Y-113469383D01*
X118259436Y-113425214D01*
X118185986Y-113394790D01*
X118108011Y-113379280D01*
X118028509Y-113379280D01*
X117950534Y-113394790D01*
X117877084Y-113425214D01*
X117810980Y-113469383D01*
X117754763Y-113525600D01*
X117710594Y-113591704D01*
X117680170Y-113665154D01*
X117664660Y-113743129D01*
X117664660Y-113822631D01*
X117680170Y-113900606D01*
X117710594Y-113974056D01*
X117754763Y-114040160D01*
X117763460Y-114048857D01*
X117763461Y-116031052D01*
X117761987Y-116046020D01*
X117767871Y-116105771D01*
X117785300Y-116163225D01*
X117785301Y-116163226D01*
X117813603Y-116216177D01*
X117851693Y-116262588D01*
X117863317Y-116272128D01*
X119896753Y-118305565D01*
X119906293Y-118317189D01*
X119946028Y-118349800D01*
X112508200Y-118349800D01*
X112508200Y-117065389D01*
X113153260Y-117065389D01*
X113153260Y-117144891D01*
X113168770Y-117222866D01*
X113199194Y-117296316D01*
X113243363Y-117362420D01*
X113299580Y-117418637D01*
X113365684Y-117462806D01*
X113439134Y-117493230D01*
X113517109Y-117508740D01*
X113596611Y-117508740D01*
X113674586Y-117493230D01*
X113748036Y-117462806D01*
X113814140Y-117418637D01*
X113870357Y-117362420D01*
X113914526Y-117296316D01*
X113944950Y-117222866D01*
X113960460Y-117144891D01*
X113960460Y-117065389D01*
X113944950Y-116987414D01*
X113914526Y-116913964D01*
X113870357Y-116847860D01*
X113814140Y-116791643D01*
X113748036Y-116747474D01*
X113674586Y-116717050D01*
X113596611Y-116701540D01*
X113517109Y-116701540D01*
X113439134Y-116717050D01*
X113365684Y-116747474D01*
X113299580Y-116791643D01*
X113243363Y-116847860D01*
X113199194Y-116913964D01*
X113168770Y-116987414D01*
X113153260Y-117065389D01*
X112508200Y-117065389D01*
X112508200Y-116267889D01*
X114837640Y-116267889D01*
X114837640Y-116347391D01*
X114853150Y-116425366D01*
X114883574Y-116498816D01*
X114927743Y-116564920D01*
X114983960Y-116621137D01*
X115050064Y-116665306D01*
X115123514Y-116695730D01*
X115201489Y-116711240D01*
X115280991Y-116711240D01*
X115358966Y-116695730D01*
X115432416Y-116665306D01*
X115498520Y-116621137D01*
X115554737Y-116564920D01*
X115598906Y-116498816D01*
X115629330Y-116425366D01*
X115644840Y-116347391D01*
X115644840Y-116267889D01*
X115629330Y-116189914D01*
X115598906Y-116116464D01*
X115554737Y-116050360D01*
X115498520Y-115994143D01*
X115432416Y-115949974D01*
X115358966Y-115919550D01*
X115280991Y-115904040D01*
X115201489Y-115904040D01*
X115123514Y-115919550D01*
X115050064Y-115949974D01*
X114983960Y-115994143D01*
X114927743Y-116050360D01*
X114883574Y-116116464D01*
X114853150Y-116189914D01*
X114837640Y-116267889D01*
X112508200Y-116267889D01*
X112508200Y-115658289D01*
X112912320Y-115658289D01*
X112912320Y-115737791D01*
X112927830Y-115815766D01*
X112958254Y-115889216D01*
X113002423Y-115955320D01*
X113058640Y-116011537D01*
X113124744Y-116055706D01*
X113198194Y-116086130D01*
X113276169Y-116101640D01*
X113355671Y-116101640D01*
X113433646Y-116086130D01*
X113507096Y-116055706D01*
X113573200Y-116011537D01*
X113629417Y-115955320D01*
X113673586Y-115889216D01*
X113682065Y-115868746D01*
X113721243Y-115927380D01*
X113777460Y-115983597D01*
X113843564Y-116027766D01*
X113917014Y-116058190D01*
X113994989Y-116073700D01*
X114074491Y-116073700D01*
X114152466Y-116058190D01*
X114225916Y-116027766D01*
X114292020Y-115983597D01*
X114348237Y-115927380D01*
X114392406Y-115861276D01*
X114422830Y-115787826D01*
X114438340Y-115709851D01*
X114438340Y-115630349D01*
X114422830Y-115552374D01*
X114392406Y-115478924D01*
X114348237Y-115412820D01*
X114292020Y-115356603D01*
X114225916Y-115312434D01*
X114152466Y-115282010D01*
X114074491Y-115266500D01*
X113994989Y-115266500D01*
X113917014Y-115282010D01*
X113843564Y-115312434D01*
X113777460Y-115356603D01*
X113721243Y-115412820D01*
X113677074Y-115478924D01*
X113668595Y-115499394D01*
X113629417Y-115440760D01*
X113573200Y-115384543D01*
X113507096Y-115340374D01*
X113433646Y-115309950D01*
X113355671Y-115294440D01*
X113276169Y-115294440D01*
X113198194Y-115309950D01*
X113124744Y-115340374D01*
X113058640Y-115384543D01*
X113002423Y-115440760D01*
X112958254Y-115506864D01*
X112927830Y-115580314D01*
X112912320Y-115658289D01*
X112508200Y-115658289D01*
X112508200Y-114616889D01*
X112922480Y-114616889D01*
X112922480Y-114696391D01*
X112937990Y-114774366D01*
X112968414Y-114847816D01*
X113012583Y-114913920D01*
X113068800Y-114970137D01*
X113134904Y-115014306D01*
X113208354Y-115044730D01*
X113286329Y-115060240D01*
X113365831Y-115060240D01*
X113443806Y-115044730D01*
X113517256Y-115014306D01*
X113519376Y-115012889D01*
X114178260Y-115012889D01*
X114178260Y-115092391D01*
X114193770Y-115170366D01*
X114224194Y-115243816D01*
X114268363Y-115309920D01*
X114324580Y-115366137D01*
X114390684Y-115410306D01*
X114464134Y-115440730D01*
X114542109Y-115456240D01*
X114621611Y-115456240D01*
X114699586Y-115440730D01*
X114773036Y-115410306D01*
X114829992Y-115372249D01*
X115808060Y-115372249D01*
X115808060Y-115451751D01*
X115823570Y-115529726D01*
X115853994Y-115603176D01*
X115898163Y-115669280D01*
X115954380Y-115725497D01*
X116020484Y-115769666D01*
X116093934Y-115800090D01*
X116171909Y-115815600D01*
X116251411Y-115815600D01*
X116329386Y-115800090D01*
X116402836Y-115769666D01*
X116468940Y-115725497D01*
X116525157Y-115669280D01*
X116569326Y-115603176D01*
X116599750Y-115529726D01*
X116615260Y-115451751D01*
X116615260Y-115372249D01*
X116599750Y-115294274D01*
X116569326Y-115220824D01*
X116525157Y-115154720D01*
X116468940Y-115098503D01*
X116402836Y-115054334D01*
X116329386Y-115023910D01*
X116251411Y-115008400D01*
X116171909Y-115008400D01*
X116093934Y-115023910D01*
X116020484Y-115054334D01*
X115954380Y-115098503D01*
X115898163Y-115154720D01*
X115853994Y-115220824D01*
X115823570Y-115294274D01*
X115808060Y-115372249D01*
X114829992Y-115372249D01*
X114839140Y-115366137D01*
X114895357Y-115309920D01*
X114939526Y-115243816D01*
X114969950Y-115170366D01*
X114974616Y-115146907D01*
X115018163Y-115212080D01*
X115074380Y-115268297D01*
X115140484Y-115312466D01*
X115213934Y-115342890D01*
X115291909Y-115358400D01*
X115371411Y-115358400D01*
X115449386Y-115342890D01*
X115522836Y-115312466D01*
X115588940Y-115268297D01*
X115645157Y-115212080D01*
X115689326Y-115145976D01*
X115719750Y-115072526D01*
X115735260Y-114994551D01*
X115735260Y-114915049D01*
X116671760Y-114915049D01*
X116671760Y-114994551D01*
X116687270Y-115072526D01*
X116717694Y-115145976D01*
X116761863Y-115212080D01*
X116818080Y-115268297D01*
X116884184Y-115312466D01*
X116957634Y-115342890D01*
X117035609Y-115358400D01*
X117115111Y-115358400D01*
X117193086Y-115342890D01*
X117266536Y-115312466D01*
X117332640Y-115268297D01*
X117388857Y-115212080D01*
X117433026Y-115145976D01*
X117463450Y-115072526D01*
X117478960Y-114994551D01*
X117478960Y-114915049D01*
X117463450Y-114837074D01*
X117433026Y-114763624D01*
X117388857Y-114697520D01*
X117332640Y-114641303D01*
X117266536Y-114597134D01*
X117193086Y-114566710D01*
X117115111Y-114551200D01*
X117035609Y-114551200D01*
X116957634Y-114566710D01*
X116884184Y-114597134D01*
X116818080Y-114641303D01*
X116761863Y-114697520D01*
X116717694Y-114763624D01*
X116687270Y-114837074D01*
X116671760Y-114915049D01*
X115735260Y-114915049D01*
X115719750Y-114837074D01*
X115689326Y-114763624D01*
X115660042Y-114719797D01*
X115702414Y-114668166D01*
X115741331Y-114595358D01*
X115765295Y-114516358D01*
X115771360Y-114454780D01*
X115773387Y-114434200D01*
X115771360Y-114413620D01*
X115771360Y-114381649D01*
X115808060Y-114381649D01*
X115808060Y-114461151D01*
X115823570Y-114539126D01*
X115853994Y-114612576D01*
X115898163Y-114678680D01*
X115954380Y-114734897D01*
X116020484Y-114779066D01*
X116093934Y-114809490D01*
X116171909Y-114825000D01*
X116251411Y-114825000D01*
X116329386Y-114809490D01*
X116402836Y-114779066D01*
X116468940Y-114734897D01*
X116525157Y-114678680D01*
X116569326Y-114612576D01*
X116599750Y-114539126D01*
X116615260Y-114461151D01*
X116615260Y-114381649D01*
X116599750Y-114303674D01*
X116569326Y-114230224D01*
X116525157Y-114164120D01*
X116468940Y-114107903D01*
X116402836Y-114063734D01*
X116329386Y-114033310D01*
X116251411Y-114017800D01*
X116171909Y-114017800D01*
X116093934Y-114033310D01*
X116020484Y-114063734D01*
X115954380Y-114107903D01*
X115898163Y-114164120D01*
X115853994Y-114230224D01*
X115823570Y-114303674D01*
X115808060Y-114381649D01*
X115771360Y-114381649D01*
X115771360Y-111688269D01*
X116013660Y-111688269D01*
X116013660Y-111767771D01*
X116029170Y-111845746D01*
X116059594Y-111919196D01*
X116103763Y-111985300D01*
X116159980Y-112041517D01*
X116226084Y-112085686D01*
X116299534Y-112116110D01*
X116377509Y-112131620D01*
X116457011Y-112131620D01*
X116534986Y-112116110D01*
X116608436Y-112085686D01*
X116674540Y-112041517D01*
X116730757Y-111985300D01*
X116774926Y-111919196D01*
X116805350Y-111845746D01*
X116820860Y-111767771D01*
X116820860Y-111695889D01*
X117479240Y-111695889D01*
X117479240Y-111775391D01*
X117494750Y-111853366D01*
X117525174Y-111926816D01*
X117569343Y-111992920D01*
X117625560Y-112049137D01*
X117691664Y-112093306D01*
X117765114Y-112123730D01*
X117843089Y-112139240D01*
X117922591Y-112139240D01*
X118000566Y-112123730D01*
X118074016Y-112093306D01*
X118140120Y-112049137D01*
X118196337Y-111992920D01*
X118240506Y-111926816D01*
X118270930Y-111853366D01*
X118286440Y-111775391D01*
X118286440Y-111695889D01*
X118270930Y-111617914D01*
X118251201Y-111570282D01*
X120570360Y-111570282D01*
X120570361Y-114595199D01*
X120571619Y-114607974D01*
X120571619Y-114614467D01*
X120571989Y-114617988D01*
X120582866Y-114714963D01*
X120587651Y-114737473D01*
X120592110Y-114759994D01*
X120593157Y-114763377D01*
X120622663Y-114856392D01*
X120631716Y-114877515D01*
X120640476Y-114898768D01*
X120642160Y-114901883D01*
X120689171Y-114987396D01*
X120702177Y-115006390D01*
X120714878Y-115025507D01*
X120717135Y-115028236D01*
X120779860Y-115102988D01*
X120796295Y-115119083D01*
X120812477Y-115135378D01*
X120815221Y-115137616D01*
X120891271Y-115198762D01*
X120910520Y-115211358D01*
X120929560Y-115224201D01*
X120932686Y-115225863D01*
X121019166Y-115271074D01*
X121040497Y-115279692D01*
X121061664Y-115288590D01*
X121065054Y-115289614D01*
X121158666Y-115317166D01*
X121181238Y-115321472D01*
X121203761Y-115326095D01*
X121207281Y-115326440D01*
X121207285Y-115326440D01*
X121304468Y-115335284D01*
X121327485Y-115335124D01*
X121350435Y-115335284D01*
X121353959Y-115334939D01*
X121353963Y-115334939D01*
X121451007Y-115324739D01*
X121473531Y-115320115D01*
X121496100Y-115315810D01*
X121499490Y-115314787D01*
X121592709Y-115285931D01*
X121613945Y-115277004D01*
X121635211Y-115268412D01*
X121638332Y-115266753D01*
X121638336Y-115266751D01*
X121638339Y-115266749D01*
X121724175Y-115220337D01*
X121743198Y-115207506D01*
X121762463Y-115194899D01*
X121765207Y-115192661D01*
X121840396Y-115130459D01*
X121856613Y-115114128D01*
X121873012Y-115098069D01*
X121875270Y-115095341D01*
X121936946Y-115019720D01*
X121949664Y-115000577D01*
X121962653Y-114981608D01*
X121964337Y-114978493D01*
X121997240Y-114916609D01*
X124083240Y-114916609D01*
X124083240Y-114996111D01*
X124098750Y-115074086D01*
X124129174Y-115147536D01*
X124173343Y-115213640D01*
X124229560Y-115269857D01*
X124295664Y-115314026D01*
X124369114Y-115344450D01*
X124447089Y-115359960D01*
X124526591Y-115359960D01*
X124604566Y-115344450D01*
X124678016Y-115314026D01*
X124744120Y-115269857D01*
X124800337Y-115213640D01*
X124844506Y-115147536D01*
X124874930Y-115074086D01*
X124890440Y-114996111D01*
X124890440Y-114916609D01*
X124874930Y-114838634D01*
X124844506Y-114765184D01*
X124800337Y-114699080D01*
X124746086Y-114644829D01*
X124951920Y-114644829D01*
X124951920Y-114724331D01*
X124967430Y-114802306D01*
X124997854Y-114875756D01*
X125042023Y-114941860D01*
X125098240Y-114998077D01*
X125164344Y-115042246D01*
X125237794Y-115072670D01*
X125315769Y-115088180D01*
X125395271Y-115088180D01*
X125464830Y-115074344D01*
X125467810Y-115089326D01*
X125498234Y-115162776D01*
X125542403Y-115228880D01*
X125598620Y-115285097D01*
X125664724Y-115329266D01*
X125738174Y-115359690D01*
X125816149Y-115375200D01*
X125895651Y-115375200D01*
X125973626Y-115359690D01*
X126047076Y-115329266D01*
X126113180Y-115285097D01*
X126169397Y-115228880D01*
X126213566Y-115162776D01*
X126243990Y-115089326D01*
X126259500Y-115011351D01*
X126259500Y-114931849D01*
X126243990Y-114853874D01*
X126213566Y-114780424D01*
X126169397Y-114714320D01*
X126113180Y-114658103D01*
X126047076Y-114613934D01*
X125973626Y-114583510D01*
X125895651Y-114568000D01*
X125816149Y-114568000D01*
X125746590Y-114581836D01*
X125743610Y-114566854D01*
X125713186Y-114493404D01*
X125669017Y-114427300D01*
X125612800Y-114371083D01*
X125546696Y-114326914D01*
X125473246Y-114296490D01*
X125395271Y-114280980D01*
X125315769Y-114280980D01*
X125237794Y-114296490D01*
X125164344Y-114326914D01*
X125098240Y-114371083D01*
X125042023Y-114427300D01*
X124997854Y-114493404D01*
X124967430Y-114566854D01*
X124951920Y-114644829D01*
X124746086Y-114644829D01*
X124744120Y-114642863D01*
X124678016Y-114598694D01*
X124604566Y-114568270D01*
X124526591Y-114552760D01*
X124447089Y-114552760D01*
X124369114Y-114568270D01*
X124295664Y-114598694D01*
X124229560Y-114642863D01*
X124173343Y-114699080D01*
X124129174Y-114765184D01*
X124098750Y-114838634D01*
X124083240Y-114916609D01*
X121997240Y-114916609D01*
X122010149Y-114892332D01*
X122018911Y-114871072D01*
X122027961Y-114849957D01*
X122029009Y-114846575D01*
X122057214Y-114753157D01*
X122061683Y-114730585D01*
X122066457Y-114708125D01*
X122066828Y-114704603D01*
X122076350Y-114607486D01*
X122076350Y-114607485D01*
X122077560Y-114595199D01*
X122077560Y-113933629D01*
X122312860Y-113933629D01*
X122312860Y-114013131D01*
X122328370Y-114091106D01*
X122358794Y-114164556D01*
X122402963Y-114230660D01*
X122459180Y-114286877D01*
X122525284Y-114331046D01*
X122598734Y-114361470D01*
X122676709Y-114376980D01*
X122756211Y-114376980D01*
X122834186Y-114361470D01*
X122907636Y-114331046D01*
X122973740Y-114286877D01*
X123029957Y-114230660D01*
X123074126Y-114164556D01*
X123104550Y-114091106D01*
X123120060Y-114013131D01*
X123120060Y-113933629D01*
X123104550Y-113855654D01*
X123074126Y-113782204D01*
X123029957Y-113716100D01*
X122973740Y-113659883D01*
X122907636Y-113615714D01*
X122834186Y-113585290D01*
X122756211Y-113569780D01*
X122676709Y-113569780D01*
X122598734Y-113585290D01*
X122525284Y-113615714D01*
X122459180Y-113659883D01*
X122402963Y-113716100D01*
X122358794Y-113782204D01*
X122328370Y-113855654D01*
X122312860Y-113933629D01*
X122077560Y-113933629D01*
X122077560Y-111981069D01*
X122154680Y-111981069D01*
X122154680Y-112060571D01*
X122170190Y-112138546D01*
X122200614Y-112211996D01*
X122244783Y-112278100D01*
X122301000Y-112334317D01*
X122367104Y-112378486D01*
X122440554Y-112408910D01*
X122518529Y-112424420D01*
X122598031Y-112424420D01*
X122676006Y-112408910D01*
X122749456Y-112378486D01*
X122815560Y-112334317D01*
X122871777Y-112278100D01*
X122915946Y-112211996D01*
X122946370Y-112138546D01*
X122961880Y-112060571D01*
X122961880Y-111981069D01*
X122946370Y-111903094D01*
X122915946Y-111829644D01*
X122871777Y-111763540D01*
X122815560Y-111707323D01*
X122749456Y-111663154D01*
X122676006Y-111632730D01*
X122598031Y-111617220D01*
X122518529Y-111617220D01*
X122440554Y-111632730D01*
X122367104Y-111663154D01*
X122301000Y-111707323D01*
X122244783Y-111763540D01*
X122200614Y-111829644D01*
X122170190Y-111903094D01*
X122154680Y-111981069D01*
X122077560Y-111981069D01*
X122077560Y-111570281D01*
X122076301Y-111557496D01*
X122076301Y-111551013D01*
X122075931Y-111547492D01*
X122065054Y-111450517D01*
X122060269Y-111428007D01*
X122055810Y-111405486D01*
X122054763Y-111402103D01*
X122025257Y-111309088D01*
X122016200Y-111287958D01*
X122007443Y-111266711D01*
X122005759Y-111263596D01*
X121958749Y-111178084D01*
X121945732Y-111159074D01*
X121933042Y-111139973D01*
X121930785Y-111137244D01*
X121868060Y-111062492D01*
X121851641Y-111046414D01*
X121835443Y-111030102D01*
X121832699Y-111027864D01*
X121756649Y-110966718D01*
X121737400Y-110954122D01*
X121718360Y-110941279D01*
X121715234Y-110939617D01*
X121628755Y-110894407D01*
X121607429Y-110885791D01*
X121586255Y-110876890D01*
X121582866Y-110875866D01*
X121489254Y-110848314D01*
X121466651Y-110844002D01*
X121444159Y-110839386D01*
X121440637Y-110839040D01*
X121440635Y-110839040D01*
X121343453Y-110830196D01*
X121320469Y-110830357D01*
X121297486Y-110830196D01*
X121293961Y-110830541D01*
X121196913Y-110840741D01*
X121174402Y-110845362D01*
X121151820Y-110849670D01*
X121148430Y-110850693D01*
X121055211Y-110879549D01*
X121033987Y-110888471D01*
X121012709Y-110897068D01*
X121009582Y-110898730D01*
X120923745Y-110945143D01*
X120904698Y-110957990D01*
X120885457Y-110970581D01*
X120882713Y-110972819D01*
X120807524Y-111035021D01*
X120791307Y-111051352D01*
X120774908Y-111067411D01*
X120772650Y-111070139D01*
X120710974Y-111145760D01*
X120698244Y-111164921D01*
X120685267Y-111183873D01*
X120683583Y-111186987D01*
X120637771Y-111273148D01*
X120629010Y-111294404D01*
X120619958Y-111315523D01*
X120618911Y-111318905D01*
X120590706Y-111412323D01*
X120586237Y-111434895D01*
X120581463Y-111457355D01*
X120581092Y-111460877D01*
X120571585Y-111557844D01*
X120570360Y-111570282D01*
X118251201Y-111570282D01*
X118240506Y-111544464D01*
X118196337Y-111478360D01*
X118140120Y-111422143D01*
X118074016Y-111377974D01*
X118000566Y-111347550D01*
X117922591Y-111332040D01*
X117843089Y-111332040D01*
X117765114Y-111347550D01*
X117691664Y-111377974D01*
X117625560Y-111422143D01*
X117569343Y-111478360D01*
X117525174Y-111544464D01*
X117494750Y-111617914D01*
X117479240Y-111695889D01*
X116820860Y-111695889D01*
X116820860Y-111688269D01*
X116805350Y-111610294D01*
X116774926Y-111536844D01*
X116730757Y-111470740D01*
X116674540Y-111414523D01*
X116608436Y-111370354D01*
X116534986Y-111339930D01*
X116457011Y-111324420D01*
X116377509Y-111324420D01*
X116299534Y-111339930D01*
X116226084Y-111370354D01*
X116159980Y-111414523D01*
X116103763Y-111470740D01*
X116059594Y-111536844D01*
X116029170Y-111610294D01*
X116013660Y-111688269D01*
X115771360Y-111688269D01*
X115771360Y-110085529D01*
X118144720Y-110085529D01*
X118144720Y-110165031D01*
X118160230Y-110243006D01*
X118190654Y-110316456D01*
X118234823Y-110382560D01*
X118291040Y-110438777D01*
X118357144Y-110482946D01*
X118430594Y-110513370D01*
X118508569Y-110528880D01*
X118588071Y-110528880D01*
X118666046Y-110513370D01*
X118739496Y-110482946D01*
X118805600Y-110438777D01*
X118861817Y-110382560D01*
X118905986Y-110316456D01*
X118936410Y-110243006D01*
X118951920Y-110165031D01*
X118951920Y-110085529D01*
X118936410Y-110007554D01*
X118905986Y-109934104D01*
X118861817Y-109868000D01*
X118805600Y-109811783D01*
X118739496Y-109767614D01*
X118666046Y-109737190D01*
X118588071Y-109721680D01*
X118508569Y-109721680D01*
X118430594Y-109737190D01*
X118357144Y-109767614D01*
X118291040Y-109811783D01*
X118234823Y-109868000D01*
X118190654Y-109934104D01*
X118160230Y-110007554D01*
X118144720Y-110085529D01*
X115771360Y-110085529D01*
X115771360Y-108876489D01*
X117055060Y-108876489D01*
X117055060Y-108955991D01*
X117070570Y-109033966D01*
X117100994Y-109107416D01*
X117145163Y-109173520D01*
X117201380Y-109229737D01*
X117267484Y-109273906D01*
X117340934Y-109304330D01*
X117418909Y-109319840D01*
X117498411Y-109319840D01*
X117576386Y-109304330D01*
X117649836Y-109273906D01*
X117715940Y-109229737D01*
X117772157Y-109173520D01*
X117816326Y-109107416D01*
X117846750Y-109033966D01*
X117862260Y-108955991D01*
X117862260Y-108876489D01*
X117846750Y-108798514D01*
X117816326Y-108725064D01*
X117772157Y-108658960D01*
X117715940Y-108602743D01*
X117649836Y-108558574D01*
X117576386Y-108528150D01*
X117498411Y-108512640D01*
X117418909Y-108512640D01*
X117340934Y-108528150D01*
X117267484Y-108558574D01*
X117201380Y-108602743D01*
X117145163Y-108658960D01*
X117100994Y-108725064D01*
X117070570Y-108798514D01*
X117055060Y-108876489D01*
X115771360Y-108876489D01*
X115771360Y-108397380D01*
X115765295Y-108335802D01*
X115741331Y-108256802D01*
X115702414Y-108183994D01*
X115650042Y-108120178D01*
X115586225Y-108067806D01*
X115513417Y-108028889D01*
X115434417Y-108004925D01*
X115352260Y-107996833D01*
X115270102Y-108004925D01*
X115191102Y-108028889D01*
X115118294Y-108067806D01*
X115054478Y-108120178D01*
X115002106Y-108183995D01*
X114963189Y-108256803D01*
X114939225Y-108335803D01*
X114933160Y-108397381D01*
X114933161Y-114324725D01*
X114918625Y-114372643D01*
X114910533Y-114454800D01*
X114918625Y-114536957D01*
X114942590Y-114615958D01*
X114981506Y-114688765D01*
X115004937Y-114717315D01*
X114973994Y-114763624D01*
X114943570Y-114837074D01*
X114938904Y-114860533D01*
X114895357Y-114795360D01*
X114839140Y-114739143D01*
X114773036Y-114694974D01*
X114699586Y-114664550D01*
X114621611Y-114649040D01*
X114542109Y-114649040D01*
X114464134Y-114664550D01*
X114390684Y-114694974D01*
X114324580Y-114739143D01*
X114268363Y-114795360D01*
X114224194Y-114861464D01*
X114193770Y-114934914D01*
X114178260Y-115012889D01*
X113519376Y-115012889D01*
X113583360Y-114970137D01*
X113639577Y-114913920D01*
X113683746Y-114847816D01*
X113714170Y-114774366D01*
X113729680Y-114696391D01*
X113729680Y-114616889D01*
X113714170Y-114538914D01*
X113683746Y-114465464D01*
X113639577Y-114399360D01*
X113583360Y-114343143D01*
X113517256Y-114298974D01*
X113443806Y-114268550D01*
X113365831Y-114253040D01*
X113286329Y-114253040D01*
X113208354Y-114268550D01*
X113134904Y-114298974D01*
X113068800Y-114343143D01*
X113012583Y-114399360D01*
X112968414Y-114465464D01*
X112937990Y-114538914D01*
X112922480Y-114616889D01*
X112508200Y-114616889D01*
X112508200Y-113902554D01*
X112542441Y-113953800D01*
X112598658Y-114010017D01*
X112664762Y-114054186D01*
X112738212Y-114084610D01*
X112816187Y-114100120D01*
X112895689Y-114100120D01*
X112973664Y-114084610D01*
X113047114Y-114054186D01*
X113113218Y-114010017D01*
X113169435Y-113953800D01*
X113213604Y-113887696D01*
X113244028Y-113814246D01*
X113259538Y-113736271D01*
X113259538Y-113656769D01*
X113244028Y-113578794D01*
X113213604Y-113505344D01*
X113169435Y-113439240D01*
X113129656Y-113399461D01*
X113151897Y-113377220D01*
X113196066Y-113311116D01*
X113226490Y-113237666D01*
X113242000Y-113159691D01*
X113242000Y-113080189D01*
X113226490Y-113002214D01*
X113196066Y-112928764D01*
X113151897Y-112862660D01*
X113095680Y-112806443D01*
X113029576Y-112762274D01*
X112956126Y-112731850D01*
X112884888Y-112717680D01*
X112918111Y-112717680D01*
X112996086Y-112702170D01*
X113069536Y-112671746D01*
X113135640Y-112627577D01*
X113191857Y-112571360D01*
X113236026Y-112505256D01*
X113266450Y-112431806D01*
X113281960Y-112353831D01*
X113281960Y-112274329D01*
X113266450Y-112196354D01*
X113236026Y-112122904D01*
X113191857Y-112056800D01*
X113164747Y-112029690D01*
X113188137Y-112006300D01*
X113232306Y-111940196D01*
X113262730Y-111866746D01*
X113278240Y-111788771D01*
X113278240Y-111709269D01*
X113262730Y-111631294D01*
X113232306Y-111557844D01*
X113221376Y-111541487D01*
X113244124Y-111556686D01*
X113317574Y-111587110D01*
X113395549Y-111602620D01*
X113475051Y-111602620D01*
X113553026Y-111587110D01*
X113626476Y-111556686D01*
X113692580Y-111512517D01*
X113748797Y-111456300D01*
X113792966Y-111390196D01*
X113823390Y-111316746D01*
X113838900Y-111238771D01*
X113838900Y-111159269D01*
X113823390Y-111081294D01*
X113792966Y-111007844D01*
X113748797Y-110941740D01*
X113692580Y-110885523D01*
X113626476Y-110841354D01*
X113553026Y-110810930D01*
X113475051Y-110795420D01*
X113395549Y-110795420D01*
X113317574Y-110810930D01*
X113244124Y-110841354D01*
X113178020Y-110885523D01*
X113121803Y-110941740D01*
X113077634Y-111007844D01*
X113047210Y-111081294D01*
X113031700Y-111159269D01*
X113031700Y-111238771D01*
X113047210Y-111316746D01*
X113077634Y-111390196D01*
X113088564Y-111406553D01*
X113065816Y-111391354D01*
X112992366Y-111360930D01*
X112914391Y-111345420D01*
X112834889Y-111345420D01*
X112756914Y-111360930D01*
X112683464Y-111391354D01*
X112617360Y-111435523D01*
X112561143Y-111491740D01*
X112516974Y-111557844D01*
X112508200Y-111579026D01*
X112508200Y-110233577D01*
X112543084Y-110256886D01*
X112616534Y-110287310D01*
X112694509Y-110302820D01*
X112774011Y-110302820D01*
X112851986Y-110287310D01*
X112925436Y-110256886D01*
X112991540Y-110212717D01*
X113047757Y-110156500D01*
X113091926Y-110090396D01*
X113122350Y-110016946D01*
X113137860Y-109938971D01*
X113137860Y-109859469D01*
X113122350Y-109781494D01*
X113091926Y-109708044D01*
X113047757Y-109641940D01*
X112991540Y-109585723D01*
X112925436Y-109541554D01*
X112851986Y-109511130D01*
X112774011Y-109495620D01*
X112694509Y-109495620D01*
X112616534Y-109511130D01*
X112543084Y-109541554D01*
X112508200Y-109564863D01*
X112508200Y-109268209D01*
X114082260Y-109268209D01*
X114082260Y-109347711D01*
X114097770Y-109425686D01*
X114128194Y-109499136D01*
X114172363Y-109565240D01*
X114228580Y-109621457D01*
X114294684Y-109665626D01*
X114368134Y-109696050D01*
X114446109Y-109711560D01*
X114525611Y-109711560D01*
X114603586Y-109696050D01*
X114677036Y-109665626D01*
X114743140Y-109621457D01*
X114799357Y-109565240D01*
X114843526Y-109499136D01*
X114873950Y-109425686D01*
X114889460Y-109347711D01*
X114889460Y-109268209D01*
X114873950Y-109190234D01*
X114843526Y-109116784D01*
X114799357Y-109050680D01*
X114743140Y-108994463D01*
X114677036Y-108950294D01*
X114603586Y-108919870D01*
X114525611Y-108904360D01*
X114446109Y-108904360D01*
X114368134Y-108919870D01*
X114294684Y-108950294D01*
X114228580Y-108994463D01*
X114172363Y-109050680D01*
X114128194Y-109116784D01*
X114097770Y-109190234D01*
X114082260Y-109268209D01*
X112508200Y-109268209D01*
X112508200Y-107834200D01*
X126833800Y-107834200D01*
X126833800Y-109825866D01*
G04 #@! TA.AperFunction,Conductor*
D15*
G36*
X126833800Y-109825866D02*
G01*
X126727176Y-109719242D01*
X126726450Y-109715594D01*
X126696026Y-109642144D01*
X126651857Y-109576040D01*
X126595640Y-109519823D01*
X126529536Y-109475654D01*
X126456086Y-109445230D01*
X126378111Y-109429720D01*
X126298609Y-109429720D01*
X126220634Y-109445230D01*
X126147184Y-109475654D01*
X126081080Y-109519823D01*
X126024863Y-109576040D01*
X125980694Y-109642144D01*
X125950270Y-109715594D01*
X125934760Y-109793569D01*
X125934760Y-109873071D01*
X125950270Y-109951046D01*
X125980694Y-110024496D01*
X126024863Y-110090600D01*
X126081080Y-110146817D01*
X126130130Y-110179591D01*
X126091380Y-110205483D01*
X126035163Y-110261700D01*
X125990994Y-110327804D01*
X125960570Y-110401254D01*
X125945060Y-110479229D01*
X125945060Y-110558731D01*
X125960570Y-110636706D01*
X125990994Y-110710156D01*
X126032535Y-110772328D01*
X126027543Y-110777320D01*
X125983374Y-110843424D01*
X125952950Y-110916874D01*
X125937440Y-110994849D01*
X125937440Y-111074351D01*
X125952950Y-111152326D01*
X125983374Y-111225776D01*
X126027543Y-111291880D01*
X126083760Y-111348097D01*
X126149864Y-111392266D01*
X126223314Y-111422690D01*
X126301289Y-111438200D01*
X126380791Y-111438200D01*
X126458766Y-111422690D01*
X126532216Y-111392266D01*
X126598320Y-111348097D01*
X126654537Y-111291880D01*
X126698706Y-111225776D01*
X126729130Y-111152326D01*
X126744640Y-111074351D01*
X126744640Y-111047013D01*
X126833800Y-111136173D01*
X126833800Y-112977700D01*
X125971992Y-112977700D01*
X124568120Y-111573829D01*
X124568120Y-111467289D01*
X125193220Y-111467289D01*
X125193220Y-111546791D01*
X125208730Y-111624766D01*
X125239154Y-111698216D01*
X125283323Y-111764320D01*
X125339540Y-111820537D01*
X125405644Y-111864706D01*
X125479094Y-111895130D01*
X125557069Y-111910640D01*
X125636571Y-111910640D01*
X125678881Y-111902224D01*
X125673550Y-111915094D01*
X125658040Y-111993069D01*
X125658040Y-112072571D01*
X125673550Y-112150546D01*
X125703974Y-112223996D01*
X125748143Y-112290100D01*
X125804360Y-112346317D01*
X125870464Y-112390486D01*
X125943914Y-112420910D01*
X126021889Y-112436420D01*
X126101391Y-112436420D01*
X126179366Y-112420910D01*
X126252816Y-112390486D01*
X126318920Y-112346317D01*
X126375137Y-112290100D01*
X126419306Y-112223996D01*
X126449730Y-112150546D01*
X126465240Y-112072571D01*
X126465240Y-111993069D01*
X126449730Y-111915094D01*
X126419306Y-111841644D01*
X126375137Y-111775540D01*
X126318920Y-111719323D01*
X126252816Y-111675154D01*
X126179366Y-111644730D01*
X126101391Y-111629220D01*
X126021889Y-111629220D01*
X125979579Y-111637636D01*
X125984910Y-111624766D01*
X126000420Y-111546791D01*
X126000420Y-111467289D01*
X125984910Y-111389314D01*
X125954486Y-111315864D01*
X125910317Y-111249760D01*
X125854100Y-111193543D01*
X125787996Y-111149374D01*
X125714546Y-111118950D01*
X125636571Y-111103440D01*
X125557069Y-111103440D01*
X125479094Y-111118950D01*
X125405644Y-111149374D01*
X125339540Y-111193543D01*
X125283323Y-111249760D01*
X125239154Y-111315864D01*
X125208730Y-111389314D01*
X125193220Y-111467289D01*
X124568120Y-111467289D01*
X124568120Y-110444597D01*
X124576817Y-110435900D01*
X124620986Y-110369796D01*
X124651410Y-110296346D01*
X124666920Y-110218371D01*
X124666920Y-110176657D01*
X124713789Y-110185980D01*
X124793291Y-110185980D01*
X124871266Y-110170470D01*
X124944716Y-110140046D01*
X125010820Y-110095877D01*
X125067037Y-110039660D01*
X125111206Y-109973556D01*
X125141630Y-109900106D01*
X125157140Y-109822131D01*
X125157140Y-109742629D01*
X125141630Y-109664654D01*
X125111206Y-109591204D01*
X125067037Y-109525100D01*
X125010820Y-109468883D01*
X124944716Y-109424714D01*
X124871266Y-109394290D01*
X124843062Y-109388680D01*
X125537172Y-109388680D01*
X125540264Y-109390746D01*
X125613714Y-109421170D01*
X125691689Y-109436680D01*
X125771191Y-109436680D01*
X125849166Y-109421170D01*
X125922616Y-109390746D01*
X125988720Y-109346577D01*
X126044937Y-109290360D01*
X126089106Y-109224256D01*
X126119530Y-109150806D01*
X126135040Y-109072831D01*
X126135040Y-108993329D01*
X126119530Y-108915354D01*
X126089106Y-108841904D01*
X126044937Y-108775800D01*
X125988720Y-108719583D01*
X125922616Y-108675414D01*
X125849166Y-108644990D01*
X125771191Y-108629480D01*
X125691689Y-108629480D01*
X125613714Y-108644990D01*
X125540264Y-108675414D01*
X125537172Y-108677480D01*
X124402063Y-108677480D01*
X124440646Y-108619736D01*
X124471070Y-108546286D01*
X124486580Y-108468311D01*
X124486580Y-108388809D01*
X124471070Y-108310834D01*
X124440646Y-108237384D01*
X124396477Y-108171280D01*
X124340260Y-108115063D01*
X124274156Y-108070894D01*
X124200706Y-108040470D01*
X124122731Y-108024960D01*
X124043229Y-108024960D01*
X123965254Y-108040470D01*
X123891804Y-108070894D01*
X123825700Y-108115063D01*
X123769483Y-108171280D01*
X123725314Y-108237384D01*
X123694890Y-108310834D01*
X123679380Y-108388809D01*
X123679380Y-108468311D01*
X123694890Y-108546286D01*
X123725314Y-108619736D01*
X123763897Y-108677480D01*
X122963137Y-108677480D01*
X122965697Y-108674920D01*
X123009866Y-108608816D01*
X123040290Y-108535366D01*
X123055800Y-108457391D01*
X123055800Y-108377889D01*
X123040290Y-108299914D01*
X123009866Y-108226464D01*
X122965697Y-108160360D01*
X122909480Y-108104143D01*
X122843376Y-108059974D01*
X122769926Y-108029550D01*
X122691951Y-108014040D01*
X122612449Y-108014040D01*
X122534474Y-108029550D01*
X122461024Y-108059974D01*
X122394920Y-108104143D01*
X122338703Y-108160360D01*
X122294534Y-108226464D01*
X122264110Y-108299914D01*
X122248600Y-108377889D01*
X122248600Y-108457391D01*
X122264110Y-108535366D01*
X122294534Y-108608816D01*
X122338703Y-108674920D01*
X122341263Y-108677480D01*
X119876415Y-108677480D01*
X119858960Y-108675761D01*
X119841505Y-108677480D01*
X119841497Y-108677480D01*
X119789250Y-108682626D01*
X119722220Y-108702959D01*
X119660444Y-108735979D01*
X119606297Y-108780417D01*
X119595165Y-108793981D01*
X119256641Y-109132506D01*
X119243078Y-109143637D01*
X119198640Y-109197784D01*
X119184490Y-109224256D01*
X119165620Y-109259559D01*
X119145286Y-109326590D01*
X119138421Y-109396300D01*
X119140141Y-109413765D01*
X119140140Y-109971652D01*
X119138074Y-109974744D01*
X119107650Y-110048194D01*
X119092140Y-110126169D01*
X119092140Y-110205671D01*
X119107650Y-110283646D01*
X119138074Y-110357096D01*
X119182243Y-110423200D01*
X119238460Y-110479417D01*
X119304564Y-110523586D01*
X119378014Y-110554010D01*
X119455989Y-110569520D01*
X119535491Y-110569520D01*
X119613466Y-110554010D01*
X119686916Y-110523586D01*
X119753020Y-110479417D01*
X119809237Y-110423200D01*
X119853406Y-110357096D01*
X119883830Y-110283646D01*
X119899340Y-110205671D01*
X119899340Y-110126169D01*
X119883830Y-110048194D01*
X119881409Y-110042349D01*
X121911540Y-110042349D01*
X121911540Y-110121851D01*
X121927050Y-110199826D01*
X121957474Y-110273276D01*
X122001643Y-110339380D01*
X122057860Y-110395597D01*
X122123964Y-110439766D01*
X122197414Y-110470190D01*
X122275389Y-110485700D01*
X122354891Y-110485700D01*
X122432866Y-110470190D01*
X122506316Y-110439766D01*
X122508077Y-110438589D01*
X122897060Y-110438589D01*
X122897060Y-110518091D01*
X122912570Y-110596066D01*
X122942994Y-110669516D01*
X122987163Y-110735620D01*
X123043380Y-110791837D01*
X123109484Y-110836006D01*
X123182934Y-110866430D01*
X123260909Y-110881940D01*
X123340411Y-110881940D01*
X123418386Y-110866430D01*
X123491836Y-110836006D01*
X123557940Y-110791837D01*
X123614157Y-110735620D01*
X123658326Y-110669516D01*
X123688750Y-110596066D01*
X123704260Y-110518091D01*
X123704260Y-110438589D01*
X123688750Y-110360614D01*
X123658326Y-110287164D01*
X123614157Y-110221060D01*
X123557940Y-110164843D01*
X123491836Y-110120674D01*
X123418386Y-110090250D01*
X123340411Y-110074740D01*
X123260909Y-110074740D01*
X123182934Y-110090250D01*
X123109484Y-110120674D01*
X123043380Y-110164843D01*
X122987163Y-110221060D01*
X122942994Y-110287164D01*
X122912570Y-110360614D01*
X122897060Y-110438589D01*
X122508077Y-110438589D01*
X122572420Y-110395597D01*
X122628637Y-110339380D01*
X122672806Y-110273276D01*
X122703230Y-110199826D01*
X122718740Y-110121851D01*
X122718740Y-110042349D01*
X122703230Y-109964374D01*
X122672806Y-109890924D01*
X122628637Y-109824820D01*
X122572420Y-109768603D01*
X122506316Y-109724434D01*
X122432866Y-109694010D01*
X122354891Y-109678500D01*
X122275389Y-109678500D01*
X122197414Y-109694010D01*
X122123964Y-109724434D01*
X122057860Y-109768603D01*
X122001643Y-109824820D01*
X121957474Y-109890924D01*
X121927050Y-109964374D01*
X121911540Y-110042349D01*
X119881409Y-110042349D01*
X119853406Y-109974744D01*
X119851340Y-109971652D01*
X119851340Y-109543593D01*
X120006254Y-109388680D01*
X124664018Y-109388680D01*
X124635814Y-109394290D01*
X124562364Y-109424714D01*
X124496260Y-109468883D01*
X124440043Y-109525100D01*
X124395874Y-109591204D01*
X124365450Y-109664654D01*
X124349940Y-109742629D01*
X124349940Y-109784343D01*
X124303071Y-109775020D01*
X124223569Y-109775020D01*
X124145594Y-109790530D01*
X124072144Y-109820954D01*
X124006040Y-109865123D01*
X123949823Y-109921340D01*
X123905654Y-109987444D01*
X123875230Y-110060894D01*
X123859720Y-110138869D01*
X123859720Y-110218371D01*
X123875230Y-110296346D01*
X123905654Y-110369796D01*
X123949823Y-110435900D01*
X123958520Y-110444597D01*
X123958521Y-111685112D01*
X123957047Y-111700080D01*
X123962931Y-111759831D01*
X123980360Y-111817285D01*
X123987965Y-111831512D01*
X124008663Y-111870237D01*
X124046753Y-111916648D01*
X124058377Y-111926188D01*
X125550827Y-113418639D01*
X125566419Y-113470040D01*
X125569359Y-113475540D01*
X124976800Y-113475540D01*
X124976800Y-113448489D01*
X124961290Y-113370514D01*
X124930866Y-113297064D01*
X124886697Y-113230960D01*
X124830480Y-113174743D01*
X124764376Y-113130574D01*
X124690926Y-113100150D01*
X124612951Y-113084640D01*
X124607710Y-113084640D01*
X124610826Y-113079976D01*
X124641250Y-113006526D01*
X124656760Y-112928551D01*
X124656760Y-112849049D01*
X124641250Y-112771074D01*
X124610826Y-112697624D01*
X124566657Y-112631520D01*
X124510440Y-112575303D01*
X124444336Y-112531134D01*
X124370886Y-112500710D01*
X124292911Y-112485200D01*
X124213409Y-112485200D01*
X124135434Y-112500710D01*
X124061984Y-112531134D01*
X123995880Y-112575303D01*
X123939663Y-112631520D01*
X123895494Y-112697624D01*
X123865070Y-112771074D01*
X123849560Y-112849049D01*
X123849560Y-112928551D01*
X123865070Y-113006526D01*
X123895494Y-113079976D01*
X123939663Y-113146080D01*
X123995880Y-113202297D01*
X124061984Y-113246466D01*
X124135434Y-113276890D01*
X124213409Y-113292400D01*
X124218650Y-113292400D01*
X124215534Y-113297064D01*
X124185110Y-113370514D01*
X124169600Y-113448489D01*
X124169600Y-113527991D01*
X124185110Y-113605966D01*
X124215534Y-113679416D01*
X124259703Y-113745520D01*
X124314068Y-113799885D01*
X124318543Y-113808257D01*
X124330340Y-113822631D01*
X124344670Y-113840091D01*
X124356633Y-113854668D01*
X124368257Y-113864208D01*
X124489328Y-113985279D01*
X124498872Y-113996908D01*
X124545283Y-114034998D01*
X124583454Y-114055400D01*
X124598234Y-114063300D01*
X124655688Y-114080729D01*
X124660843Y-114081237D01*
X124700474Y-114085140D01*
X124700482Y-114085140D01*
X124715440Y-114086613D01*
X124730398Y-114085140D01*
X126392100Y-114085140D01*
X126392100Y-114152831D01*
X126407610Y-114230806D01*
X126438034Y-114304256D01*
X126482203Y-114370360D01*
X126538420Y-114426577D01*
X126604524Y-114470746D01*
X126677974Y-114501170D01*
X126755949Y-114516680D01*
X126833800Y-114516680D01*
X126833800Y-116438009D01*
X126807926Y-116375544D01*
X126763757Y-116309440D01*
X126707540Y-116253223D01*
X126641436Y-116209054D01*
X126567986Y-116178630D01*
X126490011Y-116163120D01*
X126410509Y-116163120D01*
X126332534Y-116178630D01*
X126259084Y-116209054D01*
X126192980Y-116253223D01*
X126136763Y-116309440D01*
X126092594Y-116375544D01*
X126062170Y-116448994D01*
X126046660Y-116526969D01*
X126046660Y-116606471D01*
X126062170Y-116684446D01*
X126092594Y-116757896D01*
X126136763Y-116824000D01*
X126192980Y-116880217D01*
X126259084Y-116924386D01*
X126332534Y-116954810D01*
X126410509Y-116970320D01*
X126490011Y-116970320D01*
X126567986Y-116954810D01*
X126641436Y-116924386D01*
X126707540Y-116880217D01*
X126763757Y-116824000D01*
X126807926Y-116757896D01*
X126833800Y-116695431D01*
X126833800Y-118349800D01*
X122112678Y-118349800D01*
X122152413Y-118317189D01*
X122161957Y-118305560D01*
X122321651Y-118145866D01*
X122386386Y-118132990D01*
X122459836Y-118102566D01*
X122525940Y-118058397D01*
X122582157Y-118002180D01*
X122626326Y-117936076D01*
X122656750Y-117862626D01*
X122672260Y-117784651D01*
X122672260Y-117705149D01*
X122656750Y-117627174D01*
X122632393Y-117568369D01*
X123173920Y-117568369D01*
X123173920Y-117647871D01*
X123189430Y-117725846D01*
X123219854Y-117799296D01*
X123264023Y-117865400D01*
X123320240Y-117921617D01*
X123386344Y-117965786D01*
X123459794Y-117996210D01*
X123537769Y-118011720D01*
X123617271Y-118011720D01*
X123695246Y-117996210D01*
X123768696Y-117965786D01*
X123834800Y-117921617D01*
X123891017Y-117865400D01*
X123935186Y-117799296D01*
X123965610Y-117725846D01*
X123981120Y-117647871D01*
X123981120Y-117568369D01*
X123965610Y-117490394D01*
X123935186Y-117416944D01*
X123891017Y-117350840D01*
X123834800Y-117294623D01*
X123768696Y-117250454D01*
X123695246Y-117220030D01*
X123617271Y-117204520D01*
X123537769Y-117204520D01*
X123459794Y-117220030D01*
X123386344Y-117250454D01*
X123320240Y-117294623D01*
X123264023Y-117350840D01*
X123219854Y-117416944D01*
X123189430Y-117490394D01*
X123173920Y-117568369D01*
X122632393Y-117568369D01*
X122626326Y-117553724D01*
X122587401Y-117495469D01*
X122627086Y-117436076D01*
X122657510Y-117362626D01*
X122673020Y-117284651D01*
X122673020Y-117205149D01*
X122657510Y-117127174D01*
X122627086Y-117053724D01*
X122582917Y-116987620D01*
X122526700Y-116931403D01*
X122460596Y-116887234D01*
X122387146Y-116856810D01*
X122309171Y-116841300D01*
X122296872Y-116841300D01*
X122251781Y-116796209D01*
X122688782Y-116796209D01*
X122688782Y-116875711D01*
X122704292Y-116953686D01*
X122734716Y-117027136D01*
X122778885Y-117093240D01*
X122835102Y-117149457D01*
X122901206Y-117193626D01*
X122974656Y-117224050D01*
X123052631Y-117239560D01*
X123132133Y-117239560D01*
X123210108Y-117224050D01*
X123283558Y-117193626D01*
X123349662Y-117149457D01*
X123405879Y-117093240D01*
X123450048Y-117027136D01*
X123480472Y-116953686D01*
X123495982Y-116875711D01*
X123495982Y-116796209D01*
X123480472Y-116718234D01*
X123450048Y-116644784D01*
X123405879Y-116578680D01*
X123349662Y-116522463D01*
X123283558Y-116478294D01*
X123210108Y-116447870D01*
X123132133Y-116432360D01*
X123052631Y-116432360D01*
X122974656Y-116447870D01*
X122901206Y-116478294D01*
X122835102Y-116522463D01*
X122778885Y-116578680D01*
X122734716Y-116644784D01*
X122704292Y-116718234D01*
X122688782Y-116796209D01*
X122251781Y-116796209D01*
X121644632Y-116189061D01*
X121635088Y-116177432D01*
X121588677Y-116139342D01*
X121535726Y-116111040D01*
X121478271Y-116093611D01*
X121433486Y-116089200D01*
X121433478Y-116089200D01*
X121418520Y-116087727D01*
X121403562Y-116089200D01*
X120998697Y-116089200D01*
X121005577Y-116082320D01*
X121049746Y-116016216D01*
X121080170Y-115942766D01*
X121095680Y-115864791D01*
X121095680Y-115785289D01*
X121080170Y-115707314D01*
X121074825Y-115694409D01*
X123640720Y-115694409D01*
X123640720Y-115773911D01*
X123656230Y-115851886D01*
X123686654Y-115925336D01*
X123730823Y-115991440D01*
X123787040Y-116047657D01*
X123853144Y-116091826D01*
X123926594Y-116122250D01*
X124004569Y-116137760D01*
X124084071Y-116137760D01*
X124162046Y-116122250D01*
X124235496Y-116091826D01*
X124301600Y-116047657D01*
X124357817Y-115991440D01*
X124401986Y-115925336D01*
X124432410Y-115851886D01*
X124434171Y-115843029D01*
X125353240Y-115843029D01*
X125353240Y-115922531D01*
X125368750Y-116000506D01*
X125399174Y-116073956D01*
X125443343Y-116140060D01*
X125499560Y-116196277D01*
X125565664Y-116240446D01*
X125639114Y-116270870D01*
X125717089Y-116286380D01*
X125796591Y-116286380D01*
X125874566Y-116270870D01*
X125948016Y-116240446D01*
X126014120Y-116196277D01*
X126070337Y-116140060D01*
X126114506Y-116073956D01*
X126144930Y-116000506D01*
X126160440Y-115922531D01*
X126160440Y-115843029D01*
X126144930Y-115765054D01*
X126114506Y-115691604D01*
X126070337Y-115625500D01*
X126014120Y-115569283D01*
X125948016Y-115525114D01*
X125874566Y-115494690D01*
X125796591Y-115479180D01*
X125717089Y-115479180D01*
X125639114Y-115494690D01*
X125565664Y-115525114D01*
X125499560Y-115569283D01*
X125443343Y-115625500D01*
X125399174Y-115691604D01*
X125368750Y-115765054D01*
X125353240Y-115843029D01*
X124434171Y-115843029D01*
X124447920Y-115773911D01*
X124447920Y-115694409D01*
X124432410Y-115616434D01*
X124401986Y-115542984D01*
X124357817Y-115476880D01*
X124301600Y-115420663D01*
X124235496Y-115376494D01*
X124162046Y-115346070D01*
X124084071Y-115330560D01*
X124004569Y-115330560D01*
X123926594Y-115346070D01*
X123853144Y-115376494D01*
X123787040Y-115420663D01*
X123730823Y-115476880D01*
X123686654Y-115542984D01*
X123656230Y-115616434D01*
X123640720Y-115694409D01*
X121074825Y-115694409D01*
X121049746Y-115633864D01*
X121005577Y-115567760D01*
X120949360Y-115511543D01*
X120883256Y-115467374D01*
X120809806Y-115436950D01*
X120731831Y-115421440D01*
X120652329Y-115421440D01*
X120574354Y-115436950D01*
X120500904Y-115467374D01*
X120434800Y-115511543D01*
X120378583Y-115567760D01*
X120334414Y-115633864D01*
X120303990Y-115707314D01*
X120288480Y-115785289D01*
X120288480Y-115864791D01*
X120303990Y-115942766D01*
X120334414Y-116016216D01*
X120378583Y-116082320D01*
X120385463Y-116089200D01*
X119573732Y-116089200D01*
X119477700Y-115993168D01*
X119477700Y-115980869D01*
X119462190Y-115902894D01*
X119431766Y-115829444D01*
X119387597Y-115763340D01*
X119331380Y-115707123D01*
X119265276Y-115662954D01*
X119191826Y-115632530D01*
X119113851Y-115617020D01*
X119034349Y-115617020D01*
X118956374Y-115632530D01*
X118882924Y-115662954D01*
X118816820Y-115707123D01*
X118760603Y-115763340D01*
X118716434Y-115829444D01*
X118686010Y-115902894D01*
X118670500Y-115980869D01*
X118670500Y-116060371D01*
X118686010Y-116138346D01*
X118716434Y-116211796D01*
X118760603Y-116277900D01*
X118816820Y-116334117D01*
X118882924Y-116378286D01*
X118956374Y-116408710D01*
X119034349Y-116424220D01*
X119046648Y-116424220D01*
X119221371Y-116598943D01*
X119230912Y-116610568D01*
X119277323Y-116648658D01*
X119330274Y-116676960D01*
X119387728Y-116694389D01*
X119393369Y-116694945D01*
X119432514Y-116698800D01*
X119432521Y-116698800D01*
X119447479Y-116700273D01*
X119462437Y-116698800D01*
X121292269Y-116698800D01*
X121865820Y-117272352D01*
X121865820Y-117284651D01*
X121880611Y-117359011D01*
X121806251Y-117344220D01*
X121726749Y-117344220D01*
X121648774Y-117359730D01*
X121575324Y-117390154D01*
X121509220Y-117434323D01*
X121453003Y-117490540D01*
X121408834Y-117556644D01*
X121378410Y-117630094D01*
X121362900Y-117708069D01*
X121362900Y-117787571D01*
X121364541Y-117795821D01*
X121172274Y-117795821D01*
X121174420Y-117785031D01*
X121174420Y-117705529D01*
X121158910Y-117627554D01*
X121128486Y-117554104D01*
X121084317Y-117488000D01*
X121028100Y-117431783D01*
X120961996Y-117387614D01*
X120888546Y-117357190D01*
X120810571Y-117341680D01*
X120731069Y-117341680D01*
X120657235Y-117356366D01*
X120671500Y-117284651D01*
X120671500Y-117205149D01*
X120655990Y-117127174D01*
X120625566Y-117053724D01*
X120581397Y-116987620D01*
X120525180Y-116931403D01*
X120459076Y-116887234D01*
X120385626Y-116856810D01*
X120307651Y-116841300D01*
X120228149Y-116841300D01*
X120150174Y-116856810D01*
X120076724Y-116887234D01*
X120010620Y-116931403D01*
X119954403Y-116987620D01*
X119910234Y-117053724D01*
X119879810Y-117127174D01*
X119864300Y-117205149D01*
X119864300Y-117284651D01*
X119879810Y-117362626D01*
X119910234Y-117436076D01*
X119952251Y-117498959D01*
X118373060Y-115919769D01*
X118373060Y-114048857D01*
X118381757Y-114040160D01*
X118425926Y-113974056D01*
X118456350Y-113900606D01*
X118471860Y-113822631D01*
X118471860Y-113750749D01*
X118543500Y-113750749D01*
X118543500Y-113830251D01*
X118559010Y-113908226D01*
X118589434Y-113981676D01*
X118633603Y-114047780D01*
X118689820Y-114103997D01*
X118755924Y-114148166D01*
X118829374Y-114178590D01*
X118907349Y-114194100D01*
X118986851Y-114194100D01*
X119064826Y-114178590D01*
X119138276Y-114148166D01*
X119204380Y-114103997D01*
X119260597Y-114047780D01*
X119304766Y-113981676D01*
X119335190Y-113908226D01*
X119350700Y-113830251D01*
X119350700Y-113758369D01*
X119567120Y-113758369D01*
X119567120Y-113837871D01*
X119582630Y-113915846D01*
X119613054Y-113989296D01*
X119657223Y-114055400D01*
X119713440Y-114111617D01*
X119779544Y-114155786D01*
X119852994Y-114186210D01*
X119930969Y-114201720D01*
X120010471Y-114201720D01*
X120088446Y-114186210D01*
X120161896Y-114155786D01*
X120228000Y-114111617D01*
X120284217Y-114055400D01*
X120328386Y-113989296D01*
X120358810Y-113915846D01*
X120374320Y-113837871D01*
X120374320Y-113758369D01*
X120358810Y-113680394D01*
X120328386Y-113606944D01*
X120284217Y-113540840D01*
X120228000Y-113484623D01*
X120161896Y-113440454D01*
X120088446Y-113410030D01*
X120010471Y-113394520D01*
X119930969Y-113394520D01*
X119852994Y-113410030D01*
X119779544Y-113440454D01*
X119713440Y-113484623D01*
X119657223Y-113540840D01*
X119613054Y-113606944D01*
X119582630Y-113680394D01*
X119567120Y-113758369D01*
X119350700Y-113758369D01*
X119350700Y-113750749D01*
X119335190Y-113672774D01*
X119304766Y-113599324D01*
X119260597Y-113533220D01*
X119204380Y-113477003D01*
X119138276Y-113432834D01*
X119064826Y-113402410D01*
X118986851Y-113386900D01*
X118907349Y-113386900D01*
X118829374Y-113402410D01*
X118755924Y-113432834D01*
X118689820Y-113477003D01*
X118633603Y-113533220D01*
X118589434Y-113599324D01*
X118559010Y-113672774D01*
X118543500Y-113750749D01*
X118471860Y-113750749D01*
X118471860Y-113743129D01*
X118456350Y-113665154D01*
X118425926Y-113591704D01*
X118381757Y-113525600D01*
X118325540Y-113469383D01*
X118259436Y-113425214D01*
X118185986Y-113394790D01*
X118108011Y-113379280D01*
X118028509Y-113379280D01*
X117950534Y-113394790D01*
X117877084Y-113425214D01*
X117810980Y-113469383D01*
X117754763Y-113525600D01*
X117710594Y-113591704D01*
X117680170Y-113665154D01*
X117664660Y-113743129D01*
X117664660Y-113822631D01*
X117680170Y-113900606D01*
X117710594Y-113974056D01*
X117754763Y-114040160D01*
X117763460Y-114048857D01*
X117763461Y-116031052D01*
X117761987Y-116046020D01*
X117767871Y-116105771D01*
X117785300Y-116163225D01*
X117785301Y-116163226D01*
X117813603Y-116216177D01*
X117851693Y-116262588D01*
X117863317Y-116272128D01*
X119896753Y-118305565D01*
X119906293Y-118317189D01*
X119946028Y-118349800D01*
X112508200Y-118349800D01*
X112508200Y-117065389D01*
X113153260Y-117065389D01*
X113153260Y-117144891D01*
X113168770Y-117222866D01*
X113199194Y-117296316D01*
X113243363Y-117362420D01*
X113299580Y-117418637D01*
X113365684Y-117462806D01*
X113439134Y-117493230D01*
X113517109Y-117508740D01*
X113596611Y-117508740D01*
X113674586Y-117493230D01*
X113748036Y-117462806D01*
X113814140Y-117418637D01*
X113870357Y-117362420D01*
X113914526Y-117296316D01*
X113944950Y-117222866D01*
X113960460Y-117144891D01*
X113960460Y-117065389D01*
X113944950Y-116987414D01*
X113914526Y-116913964D01*
X113870357Y-116847860D01*
X113814140Y-116791643D01*
X113748036Y-116747474D01*
X113674586Y-116717050D01*
X113596611Y-116701540D01*
X113517109Y-116701540D01*
X113439134Y-116717050D01*
X113365684Y-116747474D01*
X113299580Y-116791643D01*
X113243363Y-116847860D01*
X113199194Y-116913964D01*
X113168770Y-116987414D01*
X113153260Y-117065389D01*
X112508200Y-117065389D01*
X112508200Y-116267889D01*
X114837640Y-116267889D01*
X114837640Y-116347391D01*
X114853150Y-116425366D01*
X114883574Y-116498816D01*
X114927743Y-116564920D01*
X114983960Y-116621137D01*
X115050064Y-116665306D01*
X115123514Y-116695730D01*
X115201489Y-116711240D01*
X115280991Y-116711240D01*
X115358966Y-116695730D01*
X115432416Y-116665306D01*
X115498520Y-116621137D01*
X115554737Y-116564920D01*
X115598906Y-116498816D01*
X115629330Y-116425366D01*
X115644840Y-116347391D01*
X115644840Y-116267889D01*
X115629330Y-116189914D01*
X115598906Y-116116464D01*
X115554737Y-116050360D01*
X115498520Y-115994143D01*
X115432416Y-115949974D01*
X115358966Y-115919550D01*
X115280991Y-115904040D01*
X115201489Y-115904040D01*
X115123514Y-115919550D01*
X115050064Y-115949974D01*
X114983960Y-115994143D01*
X114927743Y-116050360D01*
X114883574Y-116116464D01*
X114853150Y-116189914D01*
X114837640Y-116267889D01*
X112508200Y-116267889D01*
X112508200Y-115658289D01*
X112912320Y-115658289D01*
X112912320Y-115737791D01*
X112927830Y-115815766D01*
X112958254Y-115889216D01*
X113002423Y-115955320D01*
X113058640Y-116011537D01*
X113124744Y-116055706D01*
X113198194Y-116086130D01*
X113276169Y-116101640D01*
X113355671Y-116101640D01*
X113433646Y-116086130D01*
X113507096Y-116055706D01*
X113573200Y-116011537D01*
X113629417Y-115955320D01*
X113673586Y-115889216D01*
X113682065Y-115868746D01*
X113721243Y-115927380D01*
X113777460Y-115983597D01*
X113843564Y-116027766D01*
X113917014Y-116058190D01*
X113994989Y-116073700D01*
X114074491Y-116073700D01*
X114152466Y-116058190D01*
X114225916Y-116027766D01*
X114292020Y-115983597D01*
X114348237Y-115927380D01*
X114392406Y-115861276D01*
X114422830Y-115787826D01*
X114438340Y-115709851D01*
X114438340Y-115630349D01*
X114422830Y-115552374D01*
X114392406Y-115478924D01*
X114348237Y-115412820D01*
X114292020Y-115356603D01*
X114225916Y-115312434D01*
X114152466Y-115282010D01*
X114074491Y-115266500D01*
X113994989Y-115266500D01*
X113917014Y-115282010D01*
X113843564Y-115312434D01*
X113777460Y-115356603D01*
X113721243Y-115412820D01*
X113677074Y-115478924D01*
X113668595Y-115499394D01*
X113629417Y-115440760D01*
X113573200Y-115384543D01*
X113507096Y-115340374D01*
X113433646Y-115309950D01*
X113355671Y-115294440D01*
X113276169Y-115294440D01*
X113198194Y-115309950D01*
X113124744Y-115340374D01*
X113058640Y-115384543D01*
X113002423Y-115440760D01*
X112958254Y-115506864D01*
X112927830Y-115580314D01*
X112912320Y-115658289D01*
X112508200Y-115658289D01*
X112508200Y-114616889D01*
X112922480Y-114616889D01*
X112922480Y-114696391D01*
X112937990Y-114774366D01*
X112968414Y-114847816D01*
X113012583Y-114913920D01*
X113068800Y-114970137D01*
X113134904Y-115014306D01*
X113208354Y-115044730D01*
X113286329Y-115060240D01*
X113365831Y-115060240D01*
X113443806Y-115044730D01*
X113517256Y-115014306D01*
X113519376Y-115012889D01*
X114178260Y-115012889D01*
X114178260Y-115092391D01*
X114193770Y-115170366D01*
X114224194Y-115243816D01*
X114268363Y-115309920D01*
X114324580Y-115366137D01*
X114390684Y-115410306D01*
X114464134Y-115440730D01*
X114542109Y-115456240D01*
X114621611Y-115456240D01*
X114699586Y-115440730D01*
X114773036Y-115410306D01*
X114829992Y-115372249D01*
X115808060Y-115372249D01*
X115808060Y-115451751D01*
X115823570Y-115529726D01*
X115853994Y-115603176D01*
X115898163Y-115669280D01*
X115954380Y-115725497D01*
X116020484Y-115769666D01*
X116093934Y-115800090D01*
X116171909Y-115815600D01*
X116251411Y-115815600D01*
X116329386Y-115800090D01*
X116402836Y-115769666D01*
X116468940Y-115725497D01*
X116525157Y-115669280D01*
X116569326Y-115603176D01*
X116599750Y-115529726D01*
X116615260Y-115451751D01*
X116615260Y-115372249D01*
X116599750Y-115294274D01*
X116569326Y-115220824D01*
X116525157Y-115154720D01*
X116468940Y-115098503D01*
X116402836Y-115054334D01*
X116329386Y-115023910D01*
X116251411Y-115008400D01*
X116171909Y-115008400D01*
X116093934Y-115023910D01*
X116020484Y-115054334D01*
X115954380Y-115098503D01*
X115898163Y-115154720D01*
X115853994Y-115220824D01*
X115823570Y-115294274D01*
X115808060Y-115372249D01*
X114829992Y-115372249D01*
X114839140Y-115366137D01*
X114895357Y-115309920D01*
X114939526Y-115243816D01*
X114969950Y-115170366D01*
X114974616Y-115146907D01*
X115018163Y-115212080D01*
X115074380Y-115268297D01*
X115140484Y-115312466D01*
X115213934Y-115342890D01*
X115291909Y-115358400D01*
X115371411Y-115358400D01*
X115449386Y-115342890D01*
X115522836Y-115312466D01*
X115588940Y-115268297D01*
X115645157Y-115212080D01*
X115689326Y-115145976D01*
X115719750Y-115072526D01*
X115735260Y-114994551D01*
X115735260Y-114915049D01*
X116671760Y-114915049D01*
X116671760Y-114994551D01*
X116687270Y-115072526D01*
X116717694Y-115145976D01*
X116761863Y-115212080D01*
X116818080Y-115268297D01*
X116884184Y-115312466D01*
X116957634Y-115342890D01*
X117035609Y-115358400D01*
X117115111Y-115358400D01*
X117193086Y-115342890D01*
X117266536Y-115312466D01*
X117332640Y-115268297D01*
X117388857Y-115212080D01*
X117433026Y-115145976D01*
X117463450Y-115072526D01*
X117478960Y-114994551D01*
X117478960Y-114915049D01*
X117463450Y-114837074D01*
X117433026Y-114763624D01*
X117388857Y-114697520D01*
X117332640Y-114641303D01*
X117266536Y-114597134D01*
X117193086Y-114566710D01*
X117115111Y-114551200D01*
X117035609Y-114551200D01*
X116957634Y-114566710D01*
X116884184Y-114597134D01*
X116818080Y-114641303D01*
X116761863Y-114697520D01*
X116717694Y-114763624D01*
X116687270Y-114837074D01*
X116671760Y-114915049D01*
X115735260Y-114915049D01*
X115719750Y-114837074D01*
X115689326Y-114763624D01*
X115660042Y-114719797D01*
X115702414Y-114668166D01*
X115741331Y-114595358D01*
X115765295Y-114516358D01*
X115771360Y-114454780D01*
X115773387Y-114434200D01*
X115771360Y-114413620D01*
X115771360Y-114381649D01*
X115808060Y-114381649D01*
X115808060Y-114461151D01*
X115823570Y-114539126D01*
X115853994Y-114612576D01*
X115898163Y-114678680D01*
X115954380Y-114734897D01*
X116020484Y-114779066D01*
X116093934Y-114809490D01*
X116171909Y-114825000D01*
X116251411Y-114825000D01*
X116329386Y-114809490D01*
X116402836Y-114779066D01*
X116468940Y-114734897D01*
X116525157Y-114678680D01*
X116569326Y-114612576D01*
X116599750Y-114539126D01*
X116615260Y-114461151D01*
X116615260Y-114381649D01*
X116599750Y-114303674D01*
X116569326Y-114230224D01*
X116525157Y-114164120D01*
X116468940Y-114107903D01*
X116402836Y-114063734D01*
X116329386Y-114033310D01*
X116251411Y-114017800D01*
X116171909Y-114017800D01*
X116093934Y-114033310D01*
X116020484Y-114063734D01*
X115954380Y-114107903D01*
X115898163Y-114164120D01*
X115853994Y-114230224D01*
X115823570Y-114303674D01*
X115808060Y-114381649D01*
X115771360Y-114381649D01*
X115771360Y-111688269D01*
X116013660Y-111688269D01*
X116013660Y-111767771D01*
X116029170Y-111845746D01*
X116059594Y-111919196D01*
X116103763Y-111985300D01*
X116159980Y-112041517D01*
X116226084Y-112085686D01*
X116299534Y-112116110D01*
X116377509Y-112131620D01*
X116457011Y-112131620D01*
X116534986Y-112116110D01*
X116608436Y-112085686D01*
X116674540Y-112041517D01*
X116730757Y-111985300D01*
X116774926Y-111919196D01*
X116805350Y-111845746D01*
X116820860Y-111767771D01*
X116820860Y-111695889D01*
X117479240Y-111695889D01*
X117479240Y-111775391D01*
X117494750Y-111853366D01*
X117525174Y-111926816D01*
X117569343Y-111992920D01*
X117625560Y-112049137D01*
X117691664Y-112093306D01*
X117765114Y-112123730D01*
X117843089Y-112139240D01*
X117922591Y-112139240D01*
X118000566Y-112123730D01*
X118074016Y-112093306D01*
X118140120Y-112049137D01*
X118196337Y-111992920D01*
X118240506Y-111926816D01*
X118270930Y-111853366D01*
X118286440Y-111775391D01*
X118286440Y-111695889D01*
X118270930Y-111617914D01*
X118251201Y-111570282D01*
X120570360Y-111570282D01*
X120570361Y-114595199D01*
X120571619Y-114607974D01*
X120571619Y-114614467D01*
X120571989Y-114617988D01*
X120582866Y-114714963D01*
X120587651Y-114737473D01*
X120592110Y-114759994D01*
X120593157Y-114763377D01*
X120622663Y-114856392D01*
X120631716Y-114877515D01*
X120640476Y-114898768D01*
X120642160Y-114901883D01*
X120689171Y-114987396D01*
X120702177Y-115006390D01*
X120714878Y-115025507D01*
X120717135Y-115028236D01*
X120779860Y-115102988D01*
X120796295Y-115119083D01*
X120812477Y-115135378D01*
X120815221Y-115137616D01*
X120891271Y-115198762D01*
X120910520Y-115211358D01*
X120929560Y-115224201D01*
X120932686Y-115225863D01*
X121019166Y-115271074D01*
X121040497Y-115279692D01*
X121061664Y-115288590D01*
X121065054Y-115289614D01*
X121158666Y-115317166D01*
X121181238Y-115321472D01*
X121203761Y-115326095D01*
X121207281Y-115326440D01*
X121207285Y-115326440D01*
X121304468Y-115335284D01*
X121327485Y-115335124D01*
X121350435Y-115335284D01*
X121353959Y-115334939D01*
X121353963Y-115334939D01*
X121451007Y-115324739D01*
X121473531Y-115320115D01*
X121496100Y-115315810D01*
X121499490Y-115314787D01*
X121592709Y-115285931D01*
X121613945Y-115277004D01*
X121635211Y-115268412D01*
X121638332Y-115266753D01*
X121638336Y-115266751D01*
X121638339Y-115266749D01*
X121724175Y-115220337D01*
X121743198Y-115207506D01*
X121762463Y-115194899D01*
X121765207Y-115192661D01*
X121840396Y-115130459D01*
X121856613Y-115114128D01*
X121873012Y-115098069D01*
X121875270Y-115095341D01*
X121936946Y-115019720D01*
X121949664Y-115000577D01*
X121962653Y-114981608D01*
X121964337Y-114978493D01*
X121997240Y-114916609D01*
X124083240Y-114916609D01*
X124083240Y-114996111D01*
X124098750Y-115074086D01*
X124129174Y-115147536D01*
X124173343Y-115213640D01*
X124229560Y-115269857D01*
X124295664Y-115314026D01*
X124369114Y-115344450D01*
X124447089Y-115359960D01*
X124526591Y-115359960D01*
X124604566Y-115344450D01*
X124678016Y-115314026D01*
X124744120Y-115269857D01*
X124800337Y-115213640D01*
X124844506Y-115147536D01*
X124874930Y-115074086D01*
X124890440Y-114996111D01*
X124890440Y-114916609D01*
X124874930Y-114838634D01*
X124844506Y-114765184D01*
X124800337Y-114699080D01*
X124746086Y-114644829D01*
X124951920Y-114644829D01*
X124951920Y-114724331D01*
X124967430Y-114802306D01*
X124997854Y-114875756D01*
X125042023Y-114941860D01*
X125098240Y-114998077D01*
X125164344Y-115042246D01*
X125237794Y-115072670D01*
X125315769Y-115088180D01*
X125395271Y-115088180D01*
X125464830Y-115074344D01*
X125467810Y-115089326D01*
X125498234Y-115162776D01*
X125542403Y-115228880D01*
X125598620Y-115285097D01*
X125664724Y-115329266D01*
X125738174Y-115359690D01*
X125816149Y-115375200D01*
X125895651Y-115375200D01*
X125973626Y-115359690D01*
X126047076Y-115329266D01*
X126113180Y-115285097D01*
X126169397Y-115228880D01*
X126213566Y-115162776D01*
X126243990Y-115089326D01*
X126259500Y-115011351D01*
X126259500Y-114931849D01*
X126243990Y-114853874D01*
X126213566Y-114780424D01*
X126169397Y-114714320D01*
X126113180Y-114658103D01*
X126047076Y-114613934D01*
X125973626Y-114583510D01*
X125895651Y-114568000D01*
X125816149Y-114568000D01*
X125746590Y-114581836D01*
X125743610Y-114566854D01*
X125713186Y-114493404D01*
X125669017Y-114427300D01*
X125612800Y-114371083D01*
X125546696Y-114326914D01*
X125473246Y-114296490D01*
X125395271Y-114280980D01*
X125315769Y-114280980D01*
X125237794Y-114296490D01*
X125164344Y-114326914D01*
X125098240Y-114371083D01*
X125042023Y-114427300D01*
X124997854Y-114493404D01*
X124967430Y-114566854D01*
X124951920Y-114644829D01*
X124746086Y-114644829D01*
X124744120Y-114642863D01*
X124678016Y-114598694D01*
X124604566Y-114568270D01*
X124526591Y-114552760D01*
X124447089Y-114552760D01*
X124369114Y-114568270D01*
X124295664Y-114598694D01*
X124229560Y-114642863D01*
X124173343Y-114699080D01*
X124129174Y-114765184D01*
X124098750Y-114838634D01*
X124083240Y-114916609D01*
X121997240Y-114916609D01*
X122010149Y-114892332D01*
X122018911Y-114871072D01*
X122027961Y-114849957D01*
X122029009Y-114846575D01*
X122057214Y-114753157D01*
X122061683Y-114730585D01*
X122066457Y-114708125D01*
X122066828Y-114704603D01*
X122076350Y-114607486D01*
X122076350Y-114607485D01*
X122077560Y-114595199D01*
X122077560Y-113933629D01*
X122312860Y-113933629D01*
X122312860Y-114013131D01*
X122328370Y-114091106D01*
X122358794Y-114164556D01*
X122402963Y-114230660D01*
X122459180Y-114286877D01*
X122525284Y-114331046D01*
X122598734Y-114361470D01*
X122676709Y-114376980D01*
X122756211Y-114376980D01*
X122834186Y-114361470D01*
X122907636Y-114331046D01*
X122973740Y-114286877D01*
X123029957Y-114230660D01*
X123074126Y-114164556D01*
X123104550Y-114091106D01*
X123120060Y-114013131D01*
X123120060Y-113933629D01*
X123104550Y-113855654D01*
X123074126Y-113782204D01*
X123029957Y-113716100D01*
X122973740Y-113659883D01*
X122907636Y-113615714D01*
X122834186Y-113585290D01*
X122756211Y-113569780D01*
X122676709Y-113569780D01*
X122598734Y-113585290D01*
X122525284Y-113615714D01*
X122459180Y-113659883D01*
X122402963Y-113716100D01*
X122358794Y-113782204D01*
X122328370Y-113855654D01*
X122312860Y-113933629D01*
X122077560Y-113933629D01*
X122077560Y-111981069D01*
X122154680Y-111981069D01*
X122154680Y-112060571D01*
X122170190Y-112138546D01*
X122200614Y-112211996D01*
X122244783Y-112278100D01*
X122301000Y-112334317D01*
X122367104Y-112378486D01*
X122440554Y-112408910D01*
X122518529Y-112424420D01*
X122598031Y-112424420D01*
X122676006Y-112408910D01*
X122749456Y-112378486D01*
X122815560Y-112334317D01*
X122871777Y-112278100D01*
X122915946Y-112211996D01*
X122946370Y-112138546D01*
X122961880Y-112060571D01*
X122961880Y-111981069D01*
X122946370Y-111903094D01*
X122915946Y-111829644D01*
X122871777Y-111763540D01*
X122815560Y-111707323D01*
X122749456Y-111663154D01*
X122676006Y-111632730D01*
X122598031Y-111617220D01*
X122518529Y-111617220D01*
X122440554Y-111632730D01*
X122367104Y-111663154D01*
X122301000Y-111707323D01*
X122244783Y-111763540D01*
X122200614Y-111829644D01*
X122170190Y-111903094D01*
X122154680Y-111981069D01*
X122077560Y-111981069D01*
X122077560Y-111570281D01*
X122076301Y-111557496D01*
X122076301Y-111551013D01*
X122075931Y-111547492D01*
X122065054Y-111450517D01*
X122060269Y-111428007D01*
X122055810Y-111405486D01*
X122054763Y-111402103D01*
X122025257Y-111309088D01*
X122016200Y-111287958D01*
X122007443Y-111266711D01*
X122005759Y-111263596D01*
X121958749Y-111178084D01*
X121945732Y-111159074D01*
X121933042Y-111139973D01*
X121930785Y-111137244D01*
X121868060Y-111062492D01*
X121851641Y-111046414D01*
X121835443Y-111030102D01*
X121832699Y-111027864D01*
X121756649Y-110966718D01*
X121737400Y-110954122D01*
X121718360Y-110941279D01*
X121715234Y-110939617D01*
X121628755Y-110894407D01*
X121607429Y-110885791D01*
X121586255Y-110876890D01*
X121582866Y-110875866D01*
X121489254Y-110848314D01*
X121466651Y-110844002D01*
X121444159Y-110839386D01*
X121440637Y-110839040D01*
X121440635Y-110839040D01*
X121343453Y-110830196D01*
X121320469Y-110830357D01*
X121297486Y-110830196D01*
X121293961Y-110830541D01*
X121196913Y-110840741D01*
X121174402Y-110845362D01*
X121151820Y-110849670D01*
X121148430Y-110850693D01*
X121055211Y-110879549D01*
X121033987Y-110888471D01*
X121012709Y-110897068D01*
X121009582Y-110898730D01*
X120923745Y-110945143D01*
X120904698Y-110957990D01*
X120885457Y-110970581D01*
X120882713Y-110972819D01*
X120807524Y-111035021D01*
X120791307Y-111051352D01*
X120774908Y-111067411D01*
X120772650Y-111070139D01*
X120710974Y-111145760D01*
X120698244Y-111164921D01*
X120685267Y-111183873D01*
X120683583Y-111186987D01*
X120637771Y-111273148D01*
X120629010Y-111294404D01*
X120619958Y-111315523D01*
X120618911Y-111318905D01*
X120590706Y-111412323D01*
X120586237Y-111434895D01*
X120581463Y-111457355D01*
X120581092Y-111460877D01*
X120571585Y-111557844D01*
X120570360Y-111570282D01*
X118251201Y-111570282D01*
X118240506Y-111544464D01*
X118196337Y-111478360D01*
X118140120Y-111422143D01*
X118074016Y-111377974D01*
X118000566Y-111347550D01*
X117922591Y-111332040D01*
X117843089Y-111332040D01*
X117765114Y-111347550D01*
X117691664Y-111377974D01*
X117625560Y-111422143D01*
X117569343Y-111478360D01*
X117525174Y-111544464D01*
X117494750Y-111617914D01*
X117479240Y-111695889D01*
X116820860Y-111695889D01*
X116820860Y-111688269D01*
X116805350Y-111610294D01*
X116774926Y-111536844D01*
X116730757Y-111470740D01*
X116674540Y-111414523D01*
X116608436Y-111370354D01*
X116534986Y-111339930D01*
X116457011Y-111324420D01*
X116377509Y-111324420D01*
X116299534Y-111339930D01*
X116226084Y-111370354D01*
X116159980Y-111414523D01*
X116103763Y-111470740D01*
X116059594Y-111536844D01*
X116029170Y-111610294D01*
X116013660Y-111688269D01*
X115771360Y-111688269D01*
X115771360Y-110085529D01*
X118144720Y-110085529D01*
X118144720Y-110165031D01*
X118160230Y-110243006D01*
X118190654Y-110316456D01*
X118234823Y-110382560D01*
X118291040Y-110438777D01*
X118357144Y-110482946D01*
X118430594Y-110513370D01*
X118508569Y-110528880D01*
X118588071Y-110528880D01*
X118666046Y-110513370D01*
X118739496Y-110482946D01*
X118805600Y-110438777D01*
X118861817Y-110382560D01*
X118905986Y-110316456D01*
X118936410Y-110243006D01*
X118951920Y-110165031D01*
X118951920Y-110085529D01*
X118936410Y-110007554D01*
X118905986Y-109934104D01*
X118861817Y-109868000D01*
X118805600Y-109811783D01*
X118739496Y-109767614D01*
X118666046Y-109737190D01*
X118588071Y-109721680D01*
X118508569Y-109721680D01*
X118430594Y-109737190D01*
X118357144Y-109767614D01*
X118291040Y-109811783D01*
X118234823Y-109868000D01*
X118190654Y-109934104D01*
X118160230Y-110007554D01*
X118144720Y-110085529D01*
X115771360Y-110085529D01*
X115771360Y-108876489D01*
X117055060Y-108876489D01*
X117055060Y-108955991D01*
X117070570Y-109033966D01*
X117100994Y-109107416D01*
X117145163Y-109173520D01*
X117201380Y-109229737D01*
X117267484Y-109273906D01*
X117340934Y-109304330D01*
X117418909Y-109319840D01*
X117498411Y-109319840D01*
X117576386Y-109304330D01*
X117649836Y-109273906D01*
X117715940Y-109229737D01*
X117772157Y-109173520D01*
X117816326Y-109107416D01*
X117846750Y-109033966D01*
X117862260Y-108955991D01*
X117862260Y-108876489D01*
X117846750Y-108798514D01*
X117816326Y-108725064D01*
X117772157Y-108658960D01*
X117715940Y-108602743D01*
X117649836Y-108558574D01*
X117576386Y-108528150D01*
X117498411Y-108512640D01*
X117418909Y-108512640D01*
X117340934Y-108528150D01*
X117267484Y-108558574D01*
X117201380Y-108602743D01*
X117145163Y-108658960D01*
X117100994Y-108725064D01*
X117070570Y-108798514D01*
X117055060Y-108876489D01*
X115771360Y-108876489D01*
X115771360Y-108397380D01*
X115765295Y-108335802D01*
X115741331Y-108256802D01*
X115702414Y-108183994D01*
X115650042Y-108120178D01*
X115586225Y-108067806D01*
X115513417Y-108028889D01*
X115434417Y-108004925D01*
X115352260Y-107996833D01*
X115270102Y-108004925D01*
X115191102Y-108028889D01*
X115118294Y-108067806D01*
X115054478Y-108120178D01*
X115002106Y-108183995D01*
X114963189Y-108256803D01*
X114939225Y-108335803D01*
X114933160Y-108397381D01*
X114933161Y-114324725D01*
X114918625Y-114372643D01*
X114910533Y-114454800D01*
X114918625Y-114536957D01*
X114942590Y-114615958D01*
X114981506Y-114688765D01*
X115004937Y-114717315D01*
X114973994Y-114763624D01*
X114943570Y-114837074D01*
X114938904Y-114860533D01*
X114895357Y-114795360D01*
X114839140Y-114739143D01*
X114773036Y-114694974D01*
X114699586Y-114664550D01*
X114621611Y-114649040D01*
X114542109Y-114649040D01*
X114464134Y-114664550D01*
X114390684Y-114694974D01*
X114324580Y-114739143D01*
X114268363Y-114795360D01*
X114224194Y-114861464D01*
X114193770Y-114934914D01*
X114178260Y-115012889D01*
X113519376Y-115012889D01*
X113583360Y-114970137D01*
X113639577Y-114913920D01*
X113683746Y-114847816D01*
X113714170Y-114774366D01*
X113729680Y-114696391D01*
X113729680Y-114616889D01*
X113714170Y-114538914D01*
X113683746Y-114465464D01*
X113639577Y-114399360D01*
X113583360Y-114343143D01*
X113517256Y-114298974D01*
X113443806Y-114268550D01*
X113365831Y-114253040D01*
X113286329Y-114253040D01*
X113208354Y-114268550D01*
X113134904Y-114298974D01*
X113068800Y-114343143D01*
X113012583Y-114399360D01*
X112968414Y-114465464D01*
X112937990Y-114538914D01*
X112922480Y-114616889D01*
X112508200Y-114616889D01*
X112508200Y-113902554D01*
X112542441Y-113953800D01*
X112598658Y-114010017D01*
X112664762Y-114054186D01*
X112738212Y-114084610D01*
X112816187Y-114100120D01*
X112895689Y-114100120D01*
X112973664Y-114084610D01*
X113047114Y-114054186D01*
X113113218Y-114010017D01*
X113169435Y-113953800D01*
X113213604Y-113887696D01*
X113244028Y-113814246D01*
X113259538Y-113736271D01*
X113259538Y-113656769D01*
X113244028Y-113578794D01*
X113213604Y-113505344D01*
X113169435Y-113439240D01*
X113129656Y-113399461D01*
X113151897Y-113377220D01*
X113196066Y-113311116D01*
X113226490Y-113237666D01*
X113242000Y-113159691D01*
X113242000Y-113080189D01*
X113226490Y-113002214D01*
X113196066Y-112928764D01*
X113151897Y-112862660D01*
X113095680Y-112806443D01*
X113029576Y-112762274D01*
X112956126Y-112731850D01*
X112884888Y-112717680D01*
X112918111Y-112717680D01*
X112996086Y-112702170D01*
X113069536Y-112671746D01*
X113135640Y-112627577D01*
X113191857Y-112571360D01*
X113236026Y-112505256D01*
X113266450Y-112431806D01*
X113281960Y-112353831D01*
X113281960Y-112274329D01*
X113266450Y-112196354D01*
X113236026Y-112122904D01*
X113191857Y-112056800D01*
X113164747Y-112029690D01*
X113188137Y-112006300D01*
X113232306Y-111940196D01*
X113262730Y-111866746D01*
X113278240Y-111788771D01*
X113278240Y-111709269D01*
X113262730Y-111631294D01*
X113232306Y-111557844D01*
X113221376Y-111541487D01*
X113244124Y-111556686D01*
X113317574Y-111587110D01*
X113395549Y-111602620D01*
X113475051Y-111602620D01*
X113553026Y-111587110D01*
X113626476Y-111556686D01*
X113692580Y-111512517D01*
X113748797Y-111456300D01*
X113792966Y-111390196D01*
X113823390Y-111316746D01*
X113838900Y-111238771D01*
X113838900Y-111159269D01*
X113823390Y-111081294D01*
X113792966Y-111007844D01*
X113748797Y-110941740D01*
X113692580Y-110885523D01*
X113626476Y-110841354D01*
X113553026Y-110810930D01*
X113475051Y-110795420D01*
X113395549Y-110795420D01*
X113317574Y-110810930D01*
X113244124Y-110841354D01*
X113178020Y-110885523D01*
X113121803Y-110941740D01*
X113077634Y-111007844D01*
X113047210Y-111081294D01*
X113031700Y-111159269D01*
X113031700Y-111238771D01*
X113047210Y-111316746D01*
X113077634Y-111390196D01*
X113088564Y-111406553D01*
X113065816Y-111391354D01*
X112992366Y-111360930D01*
X112914391Y-111345420D01*
X112834889Y-111345420D01*
X112756914Y-111360930D01*
X112683464Y-111391354D01*
X112617360Y-111435523D01*
X112561143Y-111491740D01*
X112516974Y-111557844D01*
X112508200Y-111579026D01*
X112508200Y-110233577D01*
X112543084Y-110256886D01*
X112616534Y-110287310D01*
X112694509Y-110302820D01*
X112774011Y-110302820D01*
X112851986Y-110287310D01*
X112925436Y-110256886D01*
X112991540Y-110212717D01*
X113047757Y-110156500D01*
X113091926Y-110090396D01*
X113122350Y-110016946D01*
X113137860Y-109938971D01*
X113137860Y-109859469D01*
X113122350Y-109781494D01*
X113091926Y-109708044D01*
X113047757Y-109641940D01*
X112991540Y-109585723D01*
X112925436Y-109541554D01*
X112851986Y-109511130D01*
X112774011Y-109495620D01*
X112694509Y-109495620D01*
X112616534Y-109511130D01*
X112543084Y-109541554D01*
X112508200Y-109564863D01*
X112508200Y-109268209D01*
X114082260Y-109268209D01*
X114082260Y-109347711D01*
X114097770Y-109425686D01*
X114128194Y-109499136D01*
X114172363Y-109565240D01*
X114228580Y-109621457D01*
X114294684Y-109665626D01*
X114368134Y-109696050D01*
X114446109Y-109711560D01*
X114525611Y-109711560D01*
X114603586Y-109696050D01*
X114677036Y-109665626D01*
X114743140Y-109621457D01*
X114799357Y-109565240D01*
X114843526Y-109499136D01*
X114873950Y-109425686D01*
X114889460Y-109347711D01*
X114889460Y-109268209D01*
X114873950Y-109190234D01*
X114843526Y-109116784D01*
X114799357Y-109050680D01*
X114743140Y-108994463D01*
X114677036Y-108950294D01*
X114603586Y-108919870D01*
X114525611Y-108904360D01*
X114446109Y-108904360D01*
X114368134Y-108919870D01*
X114294684Y-108950294D01*
X114228580Y-108994463D01*
X114172363Y-109050680D01*
X114128194Y-109116784D01*
X114097770Y-109190234D01*
X114082260Y-109268209D01*
X112508200Y-109268209D01*
X112508200Y-107834200D01*
X126833800Y-107834200D01*
X126833800Y-109825866D01*
G37*
G04 #@! TD.AperFunction*
M02*
