G04 #@! TF.GenerationSoftware,KiCad,Pcbnew,(5.1.12)-1*
G04 #@! TF.CreationDate,2024-03-07T16:38:44+08:00*
G04 #@! TF.ProjectId,CM2_MesoScope,434d325f-4d65-4736-9f53-636f70652e6b,rev?*
G04 #@! TF.SameCoordinates,Original*
G04 #@! TF.FileFunction,Copper,L2,Inr*
G04 #@! TF.FilePolarity,Positive*
%FSLAX46Y46*%
G04 Gerber Fmt 4.6, Leading zero omitted, Abs format (unit mm)*
G04 Created by KiCad (PCBNEW (5.1.12)-1) date 2024-03-07 16:38:44*
%MOMM*%
%LPD*%
G01*
G04 APERTURE LIST*
G04 #@! TA.AperFunction,ViaPad*
%ADD10C,0.350000*%
G04 #@! TD*
G04 #@! TA.AperFunction,Conductor*
%ADD11C,0.304800*%
G04 #@! TD*
G04 #@! TA.AperFunction,Conductor*
%ADD12C,0.152400*%
G04 #@! TD*
G04 #@! TA.AperFunction,Conductor*
%ADD13C,0.203200*%
G04 #@! TD*
G04 #@! TA.AperFunction,Conductor*
%ADD14C,0.254000*%
G04 #@! TD*
G04 #@! TA.AperFunction,Conductor*
%ADD15C,0.100000*%
G04 #@! TD*
G04 APERTURE END LIST*
D10*
X126061640Y-112032820D03*
X125855900Y-114971600D03*
X126450260Y-116566720D03*
X121766500Y-117747820D03*
X120692080Y-115825040D03*
X116417260Y-111728020D03*
X117458660Y-108916240D03*
X117882840Y-111735640D03*
X113326080Y-114656640D03*
X103084840Y-111517220D03*
X101992640Y-113015820D03*
X100544840Y-112965020D03*
X101713240Y-111720420D03*
X116211660Y-115412000D03*
X116211660Y-114421400D03*
X106148040Y-117673420D03*
X101220440Y-108504020D03*
X104725640Y-108504020D03*
X104039840Y-108504020D03*
X99086840Y-114625420D03*
X98274040Y-117851220D03*
X101916400Y-117664000D03*
X103476640Y-115158820D03*
X106818640Y-113648020D03*
X105078450Y-113355420D03*
X106376640Y-109697820D03*
X107776040Y-117876620D03*
X106844028Y-115416608D03*
X106656640Y-112057820D03*
X104736640Y-117672820D03*
X106920240Y-108672420D03*
X103135640Y-110374220D03*
X97954840Y-108088220D03*
X102424440Y-115632020D03*
X117075360Y-114954800D03*
X114485860Y-109307960D03*
X114581860Y-115052640D03*
X113556860Y-117105140D03*
X113435300Y-111199020D03*
X123092382Y-116835960D03*
X124486840Y-114956360D03*
X122558280Y-112020820D03*
X124082980Y-108428560D03*
X125756840Y-115882780D03*
X115331660Y-114454800D03*
X115331660Y-114954800D03*
X115352260Y-108417960D03*
X122652200Y-108417640D03*
X122315140Y-110082100D03*
X106794040Y-116952820D03*
X98401640Y-116937820D03*
X120735260Y-110084640D03*
X119952940Y-112484940D03*
X114055060Y-113818440D03*
X113321000Y-115151940D03*
X117091660Y-116448580D03*
X121768660Y-117244900D03*
X114051040Y-116321820D03*
X123333680Y-116150160D03*
X126297860Y-112898960D03*
X122716460Y-113973380D03*
X123300660Y-110478340D03*
X114034740Y-115670100D03*
X101931640Y-108580220D03*
X99569440Y-114549220D03*
X107498640Y-112745820D03*
X106198840Y-115819220D03*
X107911640Y-108342224D03*
X112878360Y-112314080D03*
X108622000Y-110605360D03*
X118548320Y-110125280D03*
X101054634Y-114039414D03*
X100712440Y-114752424D03*
X100356840Y-115082618D03*
X118068260Y-113782880D03*
X102054640Y-114039406D03*
X102043400Y-116546400D03*
X108573740Y-116063800D03*
X112855938Y-113696520D03*
X122268660Y-117744900D03*
X122269420Y-117244900D03*
X118947100Y-113790500D03*
X101554640Y-114039438D03*
X101561640Y-115784420D03*
X108586440Y-114542340D03*
X112838400Y-113119940D03*
X119074100Y-116020620D03*
X102554640Y-109369422D03*
X102054640Y-109369426D03*
X101554640Y-109369422D03*
X101054640Y-109369422D03*
X100554640Y-109369406D03*
X99546840Y-109367620D03*
X98401640Y-109237820D03*
X99315440Y-110459820D03*
X99136640Y-108502820D03*
X99469642Y-110954420D03*
X99836640Y-108502820D03*
X99696440Y-111958420D03*
X100536640Y-108502820D03*
X99442440Y-112466420D03*
X104050040Y-117613220D03*
X99848840Y-116200220D03*
X103328640Y-108580220D03*
X102642840Y-108580220D03*
X98496640Y-111323420D03*
X105513040Y-115336620D03*
X102627640Y-117613220D03*
X103338840Y-117613220D03*
X107504440Y-112050620D03*
X107447038Y-108650991D03*
X106108240Y-116952820D03*
X112874640Y-111749020D03*
X113315920Y-115698040D03*
X115241240Y-116307640D03*
X125731440Y-109033080D03*
X119495740Y-110165920D03*
X124573200Y-113488240D03*
X126795700Y-114113080D03*
X119970720Y-113798120D03*
X120770820Y-117745280D03*
X120267900Y-117244900D03*
X123577520Y-117608120D03*
X125355520Y-114684580D03*
X124044320Y-115734160D03*
X124253160Y-112888800D03*
X104143980Y-110445320D03*
X124753540Y-109782380D03*
X112734260Y-109899220D03*
X124263320Y-110178620D03*
X128263820Y-113102160D03*
X126338360Y-109833320D03*
X128294300Y-112093780D03*
X126348660Y-110518980D03*
X126341040Y-111034600D03*
X125596820Y-111507040D03*
D11*
X112787600Y-109332800D02*
X108495000Y-109332800D01*
X112627580Y-117013760D02*
X108512780Y-117013760D01*
D12*
X123300660Y-113389180D02*
X122716460Y-113973380D01*
X123300660Y-110478340D02*
X123300660Y-113389180D01*
D11*
X107930380Y-112314080D02*
X107498640Y-112745820D01*
X112878360Y-112314080D02*
X107930380Y-112314080D01*
X108622000Y-110605360D02*
X118068240Y-110605360D01*
X118068240Y-110605360D02*
X118548320Y-110125280D01*
D13*
X108573740Y-116063800D02*
X110217120Y-114420420D01*
X110941020Y-113696520D02*
X110217120Y-114420420D01*
X112855938Y-113696520D02*
X110941020Y-113696520D01*
X110008840Y-113119940D02*
X108586440Y-114542340D01*
X112838400Y-113119940D02*
X110008840Y-113119940D01*
D12*
X99315440Y-110151620D02*
X98401640Y-109237820D01*
X99315440Y-110459820D02*
X99315440Y-110151620D01*
X99693639Y-110152219D02*
X99693639Y-110730423D01*
X99693639Y-110730423D02*
X99469642Y-110954420D01*
X99136640Y-109595220D02*
X99693639Y-110152219D01*
X99136640Y-108502820D02*
X99136640Y-109595220D01*
X99899640Y-109824820D02*
X99899640Y-108565820D01*
X99998443Y-109923623D02*
X99899640Y-109824820D01*
X99998443Y-111656417D02*
X99998443Y-109923623D01*
X99696440Y-111958420D02*
X99998443Y-111656417D01*
X100201839Y-108837621D02*
X100536640Y-108502820D01*
X100382240Y-109824820D02*
X100201839Y-109644419D01*
X100201839Y-109644419D02*
X100201839Y-108837621D01*
X100382240Y-111794766D02*
X100382240Y-109824820D01*
X99710586Y-112466420D02*
X100382240Y-111794766D01*
X99442440Y-112466420D02*
X99710586Y-112466420D01*
D11*
X107806040Y-111749020D02*
X107504440Y-112050620D01*
X112874640Y-111749020D02*
X107806040Y-111749020D01*
D12*
X120770820Y-117745280D02*
X121254446Y-117261654D01*
X121254446Y-117261654D02*
X121254446Y-115519214D01*
X121020278Y-115285046D02*
X121254446Y-115519214D01*
X120776926Y-115285046D02*
X121020278Y-115285046D01*
X120693106Y-115285046D02*
X120776926Y-115285046D01*
X119970720Y-114562660D02*
X120693106Y-115285046D01*
X119970720Y-113798120D02*
X119970720Y-114562660D01*
X124753540Y-109782380D02*
X124753540Y-109782380D01*
X124753540Y-112388420D02*
X124253160Y-112888800D01*
X124753540Y-109782380D02*
X124753540Y-112388420D01*
X124753540Y-109782380D02*
X123963600Y-108992440D01*
X123963600Y-108992440D02*
X118416240Y-108992440D01*
X118416240Y-108992440D02*
X117509460Y-109899220D01*
X117509460Y-109899220D02*
X112734260Y-109899220D01*
D14*
X128263820Y-113102160D02*
X129005500Y-113102160D01*
X128294300Y-112093780D02*
X129005500Y-112093780D01*
X126348660Y-110518980D02*
X126620440Y-110518980D01*
X126620440Y-110518980D02*
X127763440Y-111661980D01*
X127763440Y-111661980D02*
X127763440Y-112396040D01*
X127763440Y-112396040D02*
X127969180Y-112601780D01*
X127969180Y-112601780D02*
X129005500Y-112601780D01*
X127931080Y-113600000D02*
X129008040Y-113600000D01*
X127275760Y-112944680D02*
X127931080Y-113600000D01*
X127275760Y-111969320D02*
X127275760Y-112944680D01*
X126341040Y-111034600D02*
X127275760Y-111969320D01*
D12*
X125596820Y-111507040D02*
X125596820Y-113127560D01*
X125596820Y-113127560D02*
X126046400Y-113577140D01*
D14*
X126046400Y-113577140D02*
X126970960Y-113577140D01*
X126970960Y-113577140D02*
X127494200Y-114100380D01*
X127494200Y-114100380D02*
X129005500Y-114100380D01*
D12*
X108799800Y-110224360D02*
X108756843Y-110224360D01*
X108739726Y-110217270D01*
X108661751Y-110201760D01*
X108582249Y-110201760D01*
X108504274Y-110217270D01*
X108430824Y-110247694D01*
X108364720Y-110291863D01*
X108308503Y-110348080D01*
X108264334Y-110414184D01*
X108233910Y-110487634D01*
X108218400Y-110565609D01*
X108218400Y-110645111D01*
X108233910Y-110723086D01*
X108264334Y-110796536D01*
X108308503Y-110862640D01*
X108364720Y-110918857D01*
X108430824Y-110963026D01*
X108504274Y-110993450D01*
X108582249Y-111008960D01*
X108661751Y-111008960D01*
X108739726Y-110993450D01*
X108756843Y-110986360D01*
X108799800Y-110986360D01*
X108799800Y-111368020D01*
X107824750Y-111368020D01*
X107806040Y-111366177D01*
X107787330Y-111368020D01*
X107787327Y-111368020D01*
X107731351Y-111373533D01*
X107659532Y-111395319D01*
X107593343Y-111430698D01*
X107564012Y-111454770D01*
X107535329Y-111478309D01*
X107523398Y-111492847D01*
X107330382Y-111685863D01*
X107313264Y-111692954D01*
X107247160Y-111737123D01*
X107190943Y-111793340D01*
X107146774Y-111859444D01*
X107116350Y-111932894D01*
X107100840Y-112010869D01*
X107100840Y-112090371D01*
X107116350Y-112168346D01*
X107146774Y-112241796D01*
X107190943Y-112307900D01*
X107247160Y-112364117D01*
X107295299Y-112396282D01*
X107241360Y-112432323D01*
X107185143Y-112488540D01*
X107140974Y-112554644D01*
X107110550Y-112628094D01*
X107095040Y-112706069D01*
X107095040Y-112785571D01*
X107110550Y-112863546D01*
X107140974Y-112936996D01*
X107185143Y-113003100D01*
X107241360Y-113059317D01*
X107307464Y-113103486D01*
X107380914Y-113133910D01*
X107458889Y-113149420D01*
X107538391Y-113149420D01*
X107616366Y-113133910D01*
X107689816Y-113103486D01*
X107755920Y-113059317D01*
X107812137Y-113003100D01*
X107856306Y-112936996D01*
X107863397Y-112919878D01*
X108088195Y-112695080D01*
X108799800Y-112695080D01*
X108799800Y-113862008D01*
X108517203Y-114144605D01*
X108468714Y-114154250D01*
X108395264Y-114184674D01*
X108329160Y-114228843D01*
X108272943Y-114285060D01*
X108228774Y-114351164D01*
X108198350Y-114424614D01*
X108182840Y-114502589D01*
X108182840Y-114582091D01*
X108198350Y-114660066D01*
X108228774Y-114733516D01*
X108272943Y-114799620D01*
X108329160Y-114855837D01*
X108395264Y-114900006D01*
X108468714Y-114930430D01*
X108546689Y-114945940D01*
X108626191Y-114945940D01*
X108704166Y-114930430D01*
X108777616Y-114900006D01*
X108799800Y-114885183D01*
X108799800Y-115370768D01*
X108504503Y-115666065D01*
X108456014Y-115675710D01*
X108382564Y-115706134D01*
X108316460Y-115750303D01*
X108260243Y-115806520D01*
X108216074Y-115872624D01*
X108185650Y-115946074D01*
X108170140Y-116024049D01*
X108170140Y-116103551D01*
X108185650Y-116181526D01*
X108216074Y-116254976D01*
X108260243Y-116321080D01*
X108316460Y-116377297D01*
X108382564Y-116421466D01*
X108456014Y-116451890D01*
X108533989Y-116467400D01*
X108613491Y-116467400D01*
X108691466Y-116451890D01*
X108764916Y-116421466D01*
X108799800Y-116398157D01*
X108799800Y-118349800D01*
X97776291Y-118349800D01*
X97777215Y-117573469D01*
X102224040Y-117573469D01*
X102224040Y-117652971D01*
X102239550Y-117730946D01*
X102269974Y-117804396D01*
X102314143Y-117870500D01*
X102370360Y-117926717D01*
X102436464Y-117970886D01*
X102509914Y-118001310D01*
X102587889Y-118016820D01*
X102667391Y-118016820D01*
X102745366Y-118001310D01*
X102818816Y-117970886D01*
X102884920Y-117926717D01*
X102941137Y-117870500D01*
X102983240Y-117807488D01*
X103025343Y-117870500D01*
X103081560Y-117926717D01*
X103147664Y-117970886D01*
X103221114Y-118001310D01*
X103299089Y-118016820D01*
X103378591Y-118016820D01*
X103456566Y-118001310D01*
X103530016Y-117970886D01*
X103596120Y-117926717D01*
X103652337Y-117870500D01*
X103694440Y-117807488D01*
X103736543Y-117870500D01*
X103792760Y-117926717D01*
X103858864Y-117970886D01*
X103932314Y-118001310D01*
X104010289Y-118016820D01*
X104089791Y-118016820D01*
X104167766Y-118001310D01*
X104241216Y-117970886D01*
X104307320Y-117926717D01*
X104363537Y-117870500D01*
X104407706Y-117804396D01*
X104438130Y-117730946D01*
X104453640Y-117652971D01*
X104453640Y-117573469D01*
X104438130Y-117495494D01*
X104407706Y-117422044D01*
X104363537Y-117355940D01*
X104307320Y-117299723D01*
X104241216Y-117255554D01*
X104167766Y-117225130D01*
X104089791Y-117209620D01*
X104010289Y-117209620D01*
X103932314Y-117225130D01*
X103858864Y-117255554D01*
X103792760Y-117299723D01*
X103736543Y-117355940D01*
X103694440Y-117418952D01*
X103652337Y-117355940D01*
X103596120Y-117299723D01*
X103530016Y-117255554D01*
X103456566Y-117225130D01*
X103378591Y-117209620D01*
X103299089Y-117209620D01*
X103221114Y-117225130D01*
X103147664Y-117255554D01*
X103081560Y-117299723D01*
X103025343Y-117355940D01*
X102983240Y-117418952D01*
X102941137Y-117355940D01*
X102884920Y-117299723D01*
X102818816Y-117255554D01*
X102745366Y-117225130D01*
X102667391Y-117209620D01*
X102587889Y-117209620D01*
X102509914Y-117225130D01*
X102436464Y-117255554D01*
X102370360Y-117299723D01*
X102314143Y-117355940D01*
X102269974Y-117422044D01*
X102239550Y-117495494D01*
X102224040Y-117573469D01*
X97777215Y-117573469D01*
X97778019Y-116898069D01*
X97998040Y-116898069D01*
X97998040Y-116977571D01*
X98013550Y-117055546D01*
X98043974Y-117128996D01*
X98088143Y-117195100D01*
X98144360Y-117251317D01*
X98210464Y-117295486D01*
X98283914Y-117325910D01*
X98361889Y-117341420D01*
X98441391Y-117341420D01*
X98519366Y-117325910D01*
X98592816Y-117295486D01*
X98658920Y-117251317D01*
X98715137Y-117195100D01*
X98759306Y-117128996D01*
X98789730Y-117055546D01*
X98805240Y-116977571D01*
X98805240Y-116898069D01*
X98789730Y-116820094D01*
X98759306Y-116746644D01*
X98715137Y-116680540D01*
X98658920Y-116624323D01*
X98592816Y-116580154D01*
X98519366Y-116549730D01*
X98441391Y-116534220D01*
X98361889Y-116534220D01*
X98283914Y-116549730D01*
X98210464Y-116580154D01*
X98144360Y-116624323D01*
X98088143Y-116680540D01*
X98043974Y-116746644D01*
X98013550Y-116820094D01*
X97998040Y-116898069D01*
X97778019Y-116898069D01*
X97778896Y-116160469D01*
X99445240Y-116160469D01*
X99445240Y-116239971D01*
X99460750Y-116317946D01*
X99491174Y-116391396D01*
X99535343Y-116457500D01*
X99591560Y-116513717D01*
X99657664Y-116557886D01*
X99731114Y-116588310D01*
X99809089Y-116603820D01*
X99888591Y-116603820D01*
X99966566Y-116588310D01*
X100040016Y-116557886D01*
X100106120Y-116513717D01*
X100113188Y-116506649D01*
X101639800Y-116506649D01*
X101639800Y-116586151D01*
X101655310Y-116664126D01*
X101685734Y-116737576D01*
X101729903Y-116803680D01*
X101786120Y-116859897D01*
X101852224Y-116904066D01*
X101925674Y-116934490D01*
X102003649Y-116950000D01*
X102083151Y-116950000D01*
X102161126Y-116934490D01*
X102212840Y-116913069D01*
X105704640Y-116913069D01*
X105704640Y-116992571D01*
X105720150Y-117070546D01*
X105750574Y-117143996D01*
X105794743Y-117210100D01*
X105850960Y-117266317D01*
X105917064Y-117310486D01*
X105990514Y-117340910D01*
X106068489Y-117356420D01*
X106147991Y-117356420D01*
X106225966Y-117340910D01*
X106299416Y-117310486D01*
X106365520Y-117266317D01*
X106421737Y-117210100D01*
X106451140Y-117166095D01*
X106480543Y-117210100D01*
X106536760Y-117266317D01*
X106602864Y-117310486D01*
X106676314Y-117340910D01*
X106754289Y-117356420D01*
X106833791Y-117356420D01*
X106911766Y-117340910D01*
X106985216Y-117310486D01*
X107051320Y-117266317D01*
X107107537Y-117210100D01*
X107151706Y-117143996D01*
X107182130Y-117070546D01*
X107197640Y-116992571D01*
X107197640Y-116913069D01*
X107182130Y-116835094D01*
X107151706Y-116761644D01*
X107107537Y-116695540D01*
X107051320Y-116639323D01*
X106985216Y-116595154D01*
X106911766Y-116564730D01*
X106833791Y-116549220D01*
X106754289Y-116549220D01*
X106676314Y-116564730D01*
X106602864Y-116595154D01*
X106536760Y-116639323D01*
X106480543Y-116695540D01*
X106451140Y-116739545D01*
X106421737Y-116695540D01*
X106365520Y-116639323D01*
X106299416Y-116595154D01*
X106225966Y-116564730D01*
X106147991Y-116549220D01*
X106068489Y-116549220D01*
X105990514Y-116564730D01*
X105917064Y-116595154D01*
X105850960Y-116639323D01*
X105794743Y-116695540D01*
X105750574Y-116761644D01*
X105720150Y-116835094D01*
X105704640Y-116913069D01*
X102212840Y-116913069D01*
X102234576Y-116904066D01*
X102300680Y-116859897D01*
X102356897Y-116803680D01*
X102401066Y-116737576D01*
X102431490Y-116664126D01*
X102447000Y-116586151D01*
X102447000Y-116506649D01*
X102431490Y-116428674D01*
X102401066Y-116355224D01*
X102356897Y-116289120D01*
X102300680Y-116232903D01*
X102234576Y-116188734D01*
X102161126Y-116158310D01*
X102083151Y-116142800D01*
X102003649Y-116142800D01*
X101925674Y-116158310D01*
X101852224Y-116188734D01*
X101786120Y-116232903D01*
X101729903Y-116289120D01*
X101685734Y-116355224D01*
X101655310Y-116428674D01*
X101639800Y-116506649D01*
X100113188Y-116506649D01*
X100162337Y-116457500D01*
X100206506Y-116391396D01*
X100236930Y-116317946D01*
X100252440Y-116239971D01*
X100252440Y-116160469D01*
X100236930Y-116082494D01*
X100206506Y-116009044D01*
X100162337Y-115942940D01*
X100106120Y-115886723D01*
X100040016Y-115842554D01*
X99966566Y-115812130D01*
X99888591Y-115796620D01*
X99809089Y-115796620D01*
X99731114Y-115812130D01*
X99657664Y-115842554D01*
X99591560Y-115886723D01*
X99535343Y-115942940D01*
X99491174Y-116009044D01*
X99460750Y-116082494D01*
X99445240Y-116160469D01*
X97778896Y-116160469D01*
X97779390Y-115744669D01*
X101158040Y-115744669D01*
X101158040Y-115824171D01*
X101173550Y-115902146D01*
X101203974Y-115975596D01*
X101248143Y-116041700D01*
X101304360Y-116097917D01*
X101370464Y-116142086D01*
X101443914Y-116172510D01*
X101521889Y-116188020D01*
X101601391Y-116188020D01*
X101679366Y-116172510D01*
X101752816Y-116142086D01*
X101818920Y-116097917D01*
X101875137Y-116041700D01*
X101919306Y-115975596D01*
X101949730Y-115902146D01*
X101965240Y-115824171D01*
X101965240Y-115779469D01*
X105795240Y-115779469D01*
X105795240Y-115858971D01*
X105810750Y-115936946D01*
X105841174Y-116010396D01*
X105885343Y-116076500D01*
X105941560Y-116132717D01*
X106007664Y-116176886D01*
X106081114Y-116207310D01*
X106159089Y-116222820D01*
X106238591Y-116222820D01*
X106316566Y-116207310D01*
X106390016Y-116176886D01*
X106456120Y-116132717D01*
X106512337Y-116076500D01*
X106556506Y-116010396D01*
X106586930Y-115936946D01*
X106602440Y-115858971D01*
X106602440Y-115779469D01*
X106586930Y-115701494D01*
X106556506Y-115628044D01*
X106512337Y-115561940D01*
X106456120Y-115505723D01*
X106390016Y-115461554D01*
X106316566Y-115431130D01*
X106238591Y-115415620D01*
X106159089Y-115415620D01*
X106081114Y-115431130D01*
X106007664Y-115461554D01*
X105941560Y-115505723D01*
X105885343Y-115561940D01*
X105841174Y-115628044D01*
X105810750Y-115701494D01*
X105795240Y-115779469D01*
X101965240Y-115779469D01*
X101965240Y-115744669D01*
X101949730Y-115666694D01*
X101919306Y-115593244D01*
X101875137Y-115527140D01*
X101818920Y-115470923D01*
X101752816Y-115426754D01*
X101679366Y-115396330D01*
X101601391Y-115380820D01*
X101521889Y-115380820D01*
X101443914Y-115396330D01*
X101370464Y-115426754D01*
X101304360Y-115470923D01*
X101248143Y-115527140D01*
X101203974Y-115593244D01*
X101173550Y-115666694D01*
X101158040Y-115744669D01*
X97779390Y-115744669D01*
X97780226Y-115042867D01*
X99953240Y-115042867D01*
X99953240Y-115122369D01*
X99968750Y-115200344D01*
X99999174Y-115273794D01*
X100043343Y-115339898D01*
X100099560Y-115396115D01*
X100165664Y-115440284D01*
X100239114Y-115470708D01*
X100317089Y-115486218D01*
X100396591Y-115486218D01*
X100474566Y-115470708D01*
X100548016Y-115440284D01*
X100614120Y-115396115D01*
X100670337Y-115339898D01*
X100699087Y-115296869D01*
X105109440Y-115296869D01*
X105109440Y-115376371D01*
X105124950Y-115454346D01*
X105155374Y-115527796D01*
X105199543Y-115593900D01*
X105255760Y-115650117D01*
X105321864Y-115694286D01*
X105395314Y-115724710D01*
X105473289Y-115740220D01*
X105552791Y-115740220D01*
X105630766Y-115724710D01*
X105704216Y-115694286D01*
X105770320Y-115650117D01*
X105826537Y-115593900D01*
X105870706Y-115527796D01*
X105901130Y-115454346D01*
X105916640Y-115376371D01*
X105916640Y-115296869D01*
X105901130Y-115218894D01*
X105870706Y-115145444D01*
X105826537Y-115079340D01*
X105770320Y-115023123D01*
X105704216Y-114978954D01*
X105630766Y-114948530D01*
X105552791Y-114933020D01*
X105473289Y-114933020D01*
X105395314Y-114948530D01*
X105321864Y-114978954D01*
X105255760Y-115023123D01*
X105199543Y-115079340D01*
X105155374Y-115145444D01*
X105124950Y-115218894D01*
X105109440Y-115296869D01*
X100699087Y-115296869D01*
X100714506Y-115273794D01*
X100744930Y-115200344D01*
X100753810Y-115155702D01*
X100830166Y-115140514D01*
X100903616Y-115110090D01*
X100969720Y-115065921D01*
X101025937Y-115009704D01*
X101070106Y-114943600D01*
X101100530Y-114870150D01*
X101116040Y-114792175D01*
X101116040Y-114712673D01*
X101100530Y-114634698D01*
X101070106Y-114561248D01*
X101025937Y-114495144D01*
X100969720Y-114438927D01*
X100959286Y-114431955D01*
X101014883Y-114443014D01*
X101094385Y-114443014D01*
X101172360Y-114427504D01*
X101245810Y-114397080D01*
X101304619Y-114357785D01*
X101363464Y-114397104D01*
X101436914Y-114427528D01*
X101514889Y-114443038D01*
X101594391Y-114443038D01*
X101672366Y-114427528D01*
X101745816Y-114397104D01*
X101804664Y-114357783D01*
X101863464Y-114397072D01*
X101936914Y-114427496D01*
X102014889Y-114443006D01*
X102094391Y-114443006D01*
X102172366Y-114427496D01*
X102245816Y-114397072D01*
X102311920Y-114352903D01*
X102368137Y-114296686D01*
X102412306Y-114230582D01*
X102442730Y-114157132D01*
X102458240Y-114079157D01*
X102458240Y-113999655D01*
X102442730Y-113921680D01*
X102412306Y-113848230D01*
X102368137Y-113782126D01*
X102311920Y-113725909D01*
X102245816Y-113681740D01*
X102172366Y-113651316D01*
X102094391Y-113635806D01*
X102014889Y-113635806D01*
X101936914Y-113651316D01*
X101863464Y-113681740D01*
X101804616Y-113721061D01*
X101745816Y-113681772D01*
X101672366Y-113651348D01*
X101594391Y-113635838D01*
X101514889Y-113635838D01*
X101436914Y-113651348D01*
X101363464Y-113681772D01*
X101304655Y-113721067D01*
X101245810Y-113681748D01*
X101172360Y-113651324D01*
X101094385Y-113635814D01*
X101014883Y-113635814D01*
X100936908Y-113651324D01*
X100863458Y-113681748D01*
X100797354Y-113725917D01*
X100741137Y-113782134D01*
X100696968Y-113848238D01*
X100666544Y-113921688D01*
X100651034Y-113999663D01*
X100651034Y-114079165D01*
X100666544Y-114157140D01*
X100696968Y-114230590D01*
X100741137Y-114296694D01*
X100797354Y-114352911D01*
X100807788Y-114359883D01*
X100752191Y-114348824D01*
X100672689Y-114348824D01*
X100594714Y-114364334D01*
X100521264Y-114394758D01*
X100455160Y-114438927D01*
X100398943Y-114495144D01*
X100354774Y-114561248D01*
X100324350Y-114634698D01*
X100315470Y-114679340D01*
X100239114Y-114694528D01*
X100165664Y-114724952D01*
X100099560Y-114769121D01*
X100043343Y-114825338D01*
X99999174Y-114891442D01*
X99968750Y-114964892D01*
X99953240Y-115042867D01*
X97780226Y-115042867D01*
X97780862Y-114509469D01*
X99165840Y-114509469D01*
X99165840Y-114588971D01*
X99181350Y-114666946D01*
X99211774Y-114740396D01*
X99255943Y-114806500D01*
X99312160Y-114862717D01*
X99378264Y-114906886D01*
X99451714Y-114937310D01*
X99529689Y-114952820D01*
X99609191Y-114952820D01*
X99687166Y-114937310D01*
X99760616Y-114906886D01*
X99826720Y-114862717D01*
X99882937Y-114806500D01*
X99927106Y-114740396D01*
X99957530Y-114666946D01*
X99973040Y-114588971D01*
X99973040Y-114509469D01*
X99957530Y-114431494D01*
X99927106Y-114358044D01*
X99882937Y-114291940D01*
X99826720Y-114235723D01*
X99760616Y-114191554D01*
X99687166Y-114161130D01*
X99609191Y-114145620D01*
X99529689Y-114145620D01*
X99451714Y-114161130D01*
X99378264Y-114191554D01*
X99312160Y-114235723D01*
X99255943Y-114291940D01*
X99211774Y-114358044D01*
X99181350Y-114431494D01*
X99165840Y-114509469D01*
X97780862Y-114509469D01*
X97784702Y-111283669D01*
X98093040Y-111283669D01*
X98093040Y-111363171D01*
X98108550Y-111441146D01*
X98138974Y-111514596D01*
X98183143Y-111580700D01*
X98239360Y-111636917D01*
X98305464Y-111681086D01*
X98378914Y-111711510D01*
X98456889Y-111727020D01*
X98536391Y-111727020D01*
X98614366Y-111711510D01*
X98687816Y-111681086D01*
X98753920Y-111636917D01*
X98810137Y-111580700D01*
X98854306Y-111514596D01*
X98884730Y-111441146D01*
X98900240Y-111363171D01*
X98900240Y-111283669D01*
X98884730Y-111205694D01*
X98854306Y-111132244D01*
X98810137Y-111066140D01*
X98753920Y-111009923D01*
X98687816Y-110965754D01*
X98614366Y-110935330D01*
X98536391Y-110919820D01*
X98456889Y-110919820D01*
X98378914Y-110935330D01*
X98305464Y-110965754D01*
X98239360Y-111009923D01*
X98183143Y-111066140D01*
X98138974Y-111132244D01*
X98108550Y-111205694D01*
X98093040Y-111283669D01*
X97784702Y-111283669D01*
X97787185Y-109198069D01*
X97998040Y-109198069D01*
X97998040Y-109277571D01*
X98013550Y-109355546D01*
X98043974Y-109428996D01*
X98088143Y-109495100D01*
X98144360Y-109551317D01*
X98210464Y-109595486D01*
X98283914Y-109625910D01*
X98361889Y-109641420D01*
X98374189Y-109641420D01*
X98975253Y-110242485D01*
X98957774Y-110268644D01*
X98927350Y-110342094D01*
X98911840Y-110420069D01*
X98911840Y-110499571D01*
X98927350Y-110577546D01*
X98957774Y-110650996D01*
X99001943Y-110717100D01*
X99058160Y-110773317D01*
X99097042Y-110799297D01*
X99081552Y-110836694D01*
X99066042Y-110914669D01*
X99066042Y-110994171D01*
X99081552Y-111072146D01*
X99111976Y-111145596D01*
X99156145Y-111211700D01*
X99212362Y-111267917D01*
X99278466Y-111312086D01*
X99351916Y-111342510D01*
X99429891Y-111358020D01*
X99509393Y-111358020D01*
X99587368Y-111342510D01*
X99660818Y-111312086D01*
X99693643Y-111290153D01*
X99693643Y-111530165D01*
X99668988Y-111554820D01*
X99656689Y-111554820D01*
X99578714Y-111570330D01*
X99505264Y-111600754D01*
X99439160Y-111644923D01*
X99382943Y-111701140D01*
X99338774Y-111767244D01*
X99308350Y-111840694D01*
X99292840Y-111918669D01*
X99292840Y-111998171D01*
X99308350Y-112076146D01*
X99311519Y-112083796D01*
X99251264Y-112108754D01*
X99185160Y-112152923D01*
X99128943Y-112209140D01*
X99084774Y-112275244D01*
X99054350Y-112348694D01*
X99038840Y-112426669D01*
X99038840Y-112506171D01*
X99054350Y-112584146D01*
X99084774Y-112657596D01*
X99128943Y-112723700D01*
X99185160Y-112779917D01*
X99251264Y-112824086D01*
X99324714Y-112854510D01*
X99402689Y-112870020D01*
X99482191Y-112870020D01*
X99560166Y-112854510D01*
X99633616Y-112824086D01*
X99699720Y-112779917D01*
X99707270Y-112772367D01*
X99710586Y-112772693D01*
X99725544Y-112771220D01*
X99725552Y-112771220D01*
X99770337Y-112766809D01*
X99827792Y-112749380D01*
X99880743Y-112721078D01*
X99927154Y-112682988D01*
X99936698Y-112671359D01*
X100587185Y-112020873D01*
X100598808Y-112011334D01*
X100636898Y-111964923D01*
X100665200Y-111911972D01*
X100680553Y-111861361D01*
X100682629Y-111854518D01*
X100685663Y-111823709D01*
X100687040Y-111809732D01*
X100687040Y-111809725D01*
X100688513Y-111794767D01*
X100687040Y-111779809D01*
X100687040Y-110405569D01*
X103740380Y-110405569D01*
X103740380Y-110485071D01*
X103755890Y-110563046D01*
X103786314Y-110636496D01*
X103830483Y-110702600D01*
X103886700Y-110758817D01*
X103952804Y-110802986D01*
X104026254Y-110833410D01*
X104104229Y-110848920D01*
X104183731Y-110848920D01*
X104261706Y-110833410D01*
X104335156Y-110802986D01*
X104401260Y-110758817D01*
X104457477Y-110702600D01*
X104501646Y-110636496D01*
X104532070Y-110563046D01*
X104547580Y-110485071D01*
X104547580Y-110405569D01*
X104532070Y-110327594D01*
X104501646Y-110254144D01*
X104457477Y-110188040D01*
X104401260Y-110131823D01*
X104335156Y-110087654D01*
X104261706Y-110057230D01*
X104183731Y-110041720D01*
X104104229Y-110041720D01*
X104026254Y-110057230D01*
X103952804Y-110087654D01*
X103886700Y-110131823D01*
X103830483Y-110188040D01*
X103786314Y-110254144D01*
X103755890Y-110327594D01*
X103740380Y-110405569D01*
X100687040Y-110405569D01*
X100687040Y-109839778D01*
X100688513Y-109824820D01*
X100687040Y-109809862D01*
X100687040Y-109809854D01*
X100682629Y-109765069D01*
X100679443Y-109754565D01*
X100745816Y-109727072D01*
X100804628Y-109687775D01*
X100863464Y-109727088D01*
X100936914Y-109757512D01*
X101014889Y-109773022D01*
X101094391Y-109773022D01*
X101172366Y-109757512D01*
X101245816Y-109727088D01*
X101304640Y-109687783D01*
X101363464Y-109727088D01*
X101436914Y-109757512D01*
X101514889Y-109773022D01*
X101594391Y-109773022D01*
X101672366Y-109757512D01*
X101745816Y-109727088D01*
X101804637Y-109687785D01*
X101863464Y-109727092D01*
X101936914Y-109757516D01*
X102014889Y-109773026D01*
X102094391Y-109773026D01*
X102172366Y-109757516D01*
X102245816Y-109727092D01*
X102304643Y-109687785D01*
X102363464Y-109727088D01*
X102436914Y-109757512D01*
X102514889Y-109773022D01*
X102594391Y-109773022D01*
X102672366Y-109757512D01*
X102745816Y-109727088D01*
X102811920Y-109682919D01*
X102868137Y-109626702D01*
X102912306Y-109560598D01*
X102942730Y-109487148D01*
X102958240Y-109409173D01*
X102958240Y-109329671D01*
X102942730Y-109251696D01*
X102912306Y-109178246D01*
X102868137Y-109112142D01*
X102811920Y-109055925D01*
X102745816Y-109011756D01*
X102678373Y-108983820D01*
X102682591Y-108983820D01*
X102760566Y-108968310D01*
X102834016Y-108937886D01*
X102900120Y-108893717D01*
X102956337Y-108837500D01*
X102985740Y-108793495D01*
X103015143Y-108837500D01*
X103071360Y-108893717D01*
X103137464Y-108937886D01*
X103210914Y-108968310D01*
X103288889Y-108983820D01*
X103368391Y-108983820D01*
X103446366Y-108968310D01*
X103519816Y-108937886D01*
X103585920Y-108893717D01*
X103642137Y-108837500D01*
X103686306Y-108771396D01*
X103716730Y-108697946D01*
X103732240Y-108619971D01*
X103732240Y-108611240D01*
X107043438Y-108611240D01*
X107043438Y-108690742D01*
X107058948Y-108768717D01*
X107089372Y-108842167D01*
X107133541Y-108908271D01*
X107189758Y-108964488D01*
X107255862Y-109008657D01*
X107329312Y-109039081D01*
X107407287Y-109054591D01*
X107486789Y-109054591D01*
X107564764Y-109039081D01*
X107638214Y-109008657D01*
X107704318Y-108964488D01*
X107760535Y-108908271D01*
X107804704Y-108842167D01*
X107835128Y-108768717D01*
X107840907Y-108739661D01*
X107871889Y-108745824D01*
X107951391Y-108745824D01*
X108029366Y-108730314D01*
X108102816Y-108699890D01*
X108168920Y-108655721D01*
X108225137Y-108599504D01*
X108269306Y-108533400D01*
X108299730Y-108459950D01*
X108315240Y-108381975D01*
X108315240Y-108302473D01*
X108299730Y-108224498D01*
X108269306Y-108151048D01*
X108225137Y-108084944D01*
X108168920Y-108028727D01*
X108102816Y-107984558D01*
X108029366Y-107954134D01*
X107951391Y-107938624D01*
X107871889Y-107938624D01*
X107793914Y-107954134D01*
X107720464Y-107984558D01*
X107654360Y-108028727D01*
X107598143Y-108084944D01*
X107553974Y-108151048D01*
X107523550Y-108224498D01*
X107517771Y-108253554D01*
X107486789Y-108247391D01*
X107407287Y-108247391D01*
X107329312Y-108262901D01*
X107255862Y-108293325D01*
X107189758Y-108337494D01*
X107133541Y-108393711D01*
X107089372Y-108459815D01*
X107058948Y-108533265D01*
X107043438Y-108611240D01*
X103732240Y-108611240D01*
X103732240Y-108540469D01*
X103716730Y-108462494D01*
X103686306Y-108389044D01*
X103642137Y-108322940D01*
X103585920Y-108266723D01*
X103519816Y-108222554D01*
X103446366Y-108192130D01*
X103368391Y-108176620D01*
X103288889Y-108176620D01*
X103210914Y-108192130D01*
X103137464Y-108222554D01*
X103071360Y-108266723D01*
X103015143Y-108322940D01*
X102985740Y-108366945D01*
X102956337Y-108322940D01*
X102900120Y-108266723D01*
X102834016Y-108222554D01*
X102760566Y-108192130D01*
X102682591Y-108176620D01*
X102603089Y-108176620D01*
X102525114Y-108192130D01*
X102451664Y-108222554D01*
X102385560Y-108266723D01*
X102329343Y-108322940D01*
X102287240Y-108385952D01*
X102245137Y-108322940D01*
X102188920Y-108266723D01*
X102122816Y-108222554D01*
X102049366Y-108192130D01*
X101971391Y-108176620D01*
X101891889Y-108176620D01*
X101813914Y-108192130D01*
X101740464Y-108222554D01*
X101674360Y-108266723D01*
X101618143Y-108322940D01*
X101573974Y-108389044D01*
X101543550Y-108462494D01*
X101528040Y-108540469D01*
X101528040Y-108619971D01*
X101543550Y-108697946D01*
X101573974Y-108771396D01*
X101618143Y-108837500D01*
X101674360Y-108893717D01*
X101740464Y-108937886D01*
X101813914Y-108968310D01*
X101891889Y-108983820D01*
X101930917Y-108983820D01*
X101863464Y-109011760D01*
X101804643Y-109051063D01*
X101745816Y-109011756D01*
X101672366Y-108981332D01*
X101594391Y-108965822D01*
X101514889Y-108965822D01*
X101436914Y-108981332D01*
X101363464Y-109011756D01*
X101304640Y-109051061D01*
X101245816Y-109011756D01*
X101172366Y-108981332D01*
X101094391Y-108965822D01*
X101014889Y-108965822D01*
X100936914Y-108981332D01*
X100863464Y-109011756D01*
X100804652Y-109051053D01*
X100745816Y-109011740D01*
X100672366Y-108981316D01*
X100594391Y-108965806D01*
X100514889Y-108965806D01*
X100506639Y-108967447D01*
X100506639Y-108963872D01*
X100564091Y-108906420D01*
X100576391Y-108906420D01*
X100654366Y-108890910D01*
X100727816Y-108860486D01*
X100793920Y-108816317D01*
X100850137Y-108760100D01*
X100894306Y-108693996D01*
X100924730Y-108620546D01*
X100940240Y-108542571D01*
X100940240Y-108463069D01*
X100924730Y-108385094D01*
X100894306Y-108311644D01*
X100850137Y-108245540D01*
X100793920Y-108189323D01*
X100727816Y-108145154D01*
X100654366Y-108114730D01*
X100576391Y-108099220D01*
X100496889Y-108099220D01*
X100418914Y-108114730D01*
X100345464Y-108145154D01*
X100279360Y-108189323D01*
X100223143Y-108245540D01*
X100186640Y-108300171D01*
X100150137Y-108245540D01*
X100093920Y-108189323D01*
X100027816Y-108145154D01*
X99954366Y-108114730D01*
X99876391Y-108099220D01*
X99796889Y-108099220D01*
X99718914Y-108114730D01*
X99645464Y-108145154D01*
X99579360Y-108189323D01*
X99523143Y-108245540D01*
X99486640Y-108300171D01*
X99450137Y-108245540D01*
X99393920Y-108189323D01*
X99327816Y-108145154D01*
X99254366Y-108114730D01*
X99176391Y-108099220D01*
X99096889Y-108099220D01*
X99018914Y-108114730D01*
X98945464Y-108145154D01*
X98879360Y-108189323D01*
X98823143Y-108245540D01*
X98778974Y-108311644D01*
X98748550Y-108385094D01*
X98733040Y-108463069D01*
X98733040Y-108542571D01*
X98748550Y-108620546D01*
X98778974Y-108693996D01*
X98823143Y-108760100D01*
X98831840Y-108768797D01*
X98831841Y-109236969D01*
X98805240Y-109210369D01*
X98805240Y-109198069D01*
X98789730Y-109120094D01*
X98759306Y-109046644D01*
X98715137Y-108980540D01*
X98658920Y-108924323D01*
X98592816Y-108880154D01*
X98519366Y-108849730D01*
X98441391Y-108834220D01*
X98361889Y-108834220D01*
X98283914Y-108849730D01*
X98210464Y-108880154D01*
X98144360Y-108924323D01*
X98088143Y-108980540D01*
X98043974Y-109046644D01*
X98013550Y-109120094D01*
X97998040Y-109198069D01*
X97787185Y-109198069D01*
X97788809Y-107834200D01*
X108799800Y-107834200D01*
X108799800Y-110224360D01*
G04 #@! TA.AperFunction,Conductor*
D15*
G36*
X108799800Y-110224360D02*
G01*
X108756843Y-110224360D01*
X108739726Y-110217270D01*
X108661751Y-110201760D01*
X108582249Y-110201760D01*
X108504274Y-110217270D01*
X108430824Y-110247694D01*
X108364720Y-110291863D01*
X108308503Y-110348080D01*
X108264334Y-110414184D01*
X108233910Y-110487634D01*
X108218400Y-110565609D01*
X108218400Y-110645111D01*
X108233910Y-110723086D01*
X108264334Y-110796536D01*
X108308503Y-110862640D01*
X108364720Y-110918857D01*
X108430824Y-110963026D01*
X108504274Y-110993450D01*
X108582249Y-111008960D01*
X108661751Y-111008960D01*
X108739726Y-110993450D01*
X108756843Y-110986360D01*
X108799800Y-110986360D01*
X108799800Y-111368020D01*
X107824750Y-111368020D01*
X107806040Y-111366177D01*
X107787330Y-111368020D01*
X107787327Y-111368020D01*
X107731351Y-111373533D01*
X107659532Y-111395319D01*
X107593343Y-111430698D01*
X107564012Y-111454770D01*
X107535329Y-111478309D01*
X107523398Y-111492847D01*
X107330382Y-111685863D01*
X107313264Y-111692954D01*
X107247160Y-111737123D01*
X107190943Y-111793340D01*
X107146774Y-111859444D01*
X107116350Y-111932894D01*
X107100840Y-112010869D01*
X107100840Y-112090371D01*
X107116350Y-112168346D01*
X107146774Y-112241796D01*
X107190943Y-112307900D01*
X107247160Y-112364117D01*
X107295299Y-112396282D01*
X107241360Y-112432323D01*
X107185143Y-112488540D01*
X107140974Y-112554644D01*
X107110550Y-112628094D01*
X107095040Y-112706069D01*
X107095040Y-112785571D01*
X107110550Y-112863546D01*
X107140974Y-112936996D01*
X107185143Y-113003100D01*
X107241360Y-113059317D01*
X107307464Y-113103486D01*
X107380914Y-113133910D01*
X107458889Y-113149420D01*
X107538391Y-113149420D01*
X107616366Y-113133910D01*
X107689816Y-113103486D01*
X107755920Y-113059317D01*
X107812137Y-113003100D01*
X107856306Y-112936996D01*
X107863397Y-112919878D01*
X108088195Y-112695080D01*
X108799800Y-112695080D01*
X108799800Y-113862008D01*
X108517203Y-114144605D01*
X108468714Y-114154250D01*
X108395264Y-114184674D01*
X108329160Y-114228843D01*
X108272943Y-114285060D01*
X108228774Y-114351164D01*
X108198350Y-114424614D01*
X108182840Y-114502589D01*
X108182840Y-114582091D01*
X108198350Y-114660066D01*
X108228774Y-114733516D01*
X108272943Y-114799620D01*
X108329160Y-114855837D01*
X108395264Y-114900006D01*
X108468714Y-114930430D01*
X108546689Y-114945940D01*
X108626191Y-114945940D01*
X108704166Y-114930430D01*
X108777616Y-114900006D01*
X108799800Y-114885183D01*
X108799800Y-115370768D01*
X108504503Y-115666065D01*
X108456014Y-115675710D01*
X108382564Y-115706134D01*
X108316460Y-115750303D01*
X108260243Y-115806520D01*
X108216074Y-115872624D01*
X108185650Y-115946074D01*
X108170140Y-116024049D01*
X108170140Y-116103551D01*
X108185650Y-116181526D01*
X108216074Y-116254976D01*
X108260243Y-116321080D01*
X108316460Y-116377297D01*
X108382564Y-116421466D01*
X108456014Y-116451890D01*
X108533989Y-116467400D01*
X108613491Y-116467400D01*
X108691466Y-116451890D01*
X108764916Y-116421466D01*
X108799800Y-116398157D01*
X108799800Y-118349800D01*
X97776291Y-118349800D01*
X97777215Y-117573469D01*
X102224040Y-117573469D01*
X102224040Y-117652971D01*
X102239550Y-117730946D01*
X102269974Y-117804396D01*
X102314143Y-117870500D01*
X102370360Y-117926717D01*
X102436464Y-117970886D01*
X102509914Y-118001310D01*
X102587889Y-118016820D01*
X102667391Y-118016820D01*
X102745366Y-118001310D01*
X102818816Y-117970886D01*
X102884920Y-117926717D01*
X102941137Y-117870500D01*
X102983240Y-117807488D01*
X103025343Y-117870500D01*
X103081560Y-117926717D01*
X103147664Y-117970886D01*
X103221114Y-118001310D01*
X103299089Y-118016820D01*
X103378591Y-118016820D01*
X103456566Y-118001310D01*
X103530016Y-117970886D01*
X103596120Y-117926717D01*
X103652337Y-117870500D01*
X103694440Y-117807488D01*
X103736543Y-117870500D01*
X103792760Y-117926717D01*
X103858864Y-117970886D01*
X103932314Y-118001310D01*
X104010289Y-118016820D01*
X104089791Y-118016820D01*
X104167766Y-118001310D01*
X104241216Y-117970886D01*
X104307320Y-117926717D01*
X104363537Y-117870500D01*
X104407706Y-117804396D01*
X104438130Y-117730946D01*
X104453640Y-117652971D01*
X104453640Y-117573469D01*
X104438130Y-117495494D01*
X104407706Y-117422044D01*
X104363537Y-117355940D01*
X104307320Y-117299723D01*
X104241216Y-117255554D01*
X104167766Y-117225130D01*
X104089791Y-117209620D01*
X104010289Y-117209620D01*
X103932314Y-117225130D01*
X103858864Y-117255554D01*
X103792760Y-117299723D01*
X103736543Y-117355940D01*
X103694440Y-117418952D01*
X103652337Y-117355940D01*
X103596120Y-117299723D01*
X103530016Y-117255554D01*
X103456566Y-117225130D01*
X103378591Y-117209620D01*
X103299089Y-117209620D01*
X103221114Y-117225130D01*
X103147664Y-117255554D01*
X103081560Y-117299723D01*
X103025343Y-117355940D01*
X102983240Y-117418952D01*
X102941137Y-117355940D01*
X102884920Y-117299723D01*
X102818816Y-117255554D01*
X102745366Y-117225130D01*
X102667391Y-117209620D01*
X102587889Y-117209620D01*
X102509914Y-117225130D01*
X102436464Y-117255554D01*
X102370360Y-117299723D01*
X102314143Y-117355940D01*
X102269974Y-117422044D01*
X102239550Y-117495494D01*
X102224040Y-117573469D01*
X97777215Y-117573469D01*
X97778019Y-116898069D01*
X97998040Y-116898069D01*
X97998040Y-116977571D01*
X98013550Y-117055546D01*
X98043974Y-117128996D01*
X98088143Y-117195100D01*
X98144360Y-117251317D01*
X98210464Y-117295486D01*
X98283914Y-117325910D01*
X98361889Y-117341420D01*
X98441391Y-117341420D01*
X98519366Y-117325910D01*
X98592816Y-117295486D01*
X98658920Y-117251317D01*
X98715137Y-117195100D01*
X98759306Y-117128996D01*
X98789730Y-117055546D01*
X98805240Y-116977571D01*
X98805240Y-116898069D01*
X98789730Y-116820094D01*
X98759306Y-116746644D01*
X98715137Y-116680540D01*
X98658920Y-116624323D01*
X98592816Y-116580154D01*
X98519366Y-116549730D01*
X98441391Y-116534220D01*
X98361889Y-116534220D01*
X98283914Y-116549730D01*
X98210464Y-116580154D01*
X98144360Y-116624323D01*
X98088143Y-116680540D01*
X98043974Y-116746644D01*
X98013550Y-116820094D01*
X97998040Y-116898069D01*
X97778019Y-116898069D01*
X97778896Y-116160469D01*
X99445240Y-116160469D01*
X99445240Y-116239971D01*
X99460750Y-116317946D01*
X99491174Y-116391396D01*
X99535343Y-116457500D01*
X99591560Y-116513717D01*
X99657664Y-116557886D01*
X99731114Y-116588310D01*
X99809089Y-116603820D01*
X99888591Y-116603820D01*
X99966566Y-116588310D01*
X100040016Y-116557886D01*
X100106120Y-116513717D01*
X100113188Y-116506649D01*
X101639800Y-116506649D01*
X101639800Y-116586151D01*
X101655310Y-116664126D01*
X101685734Y-116737576D01*
X101729903Y-116803680D01*
X101786120Y-116859897D01*
X101852224Y-116904066D01*
X101925674Y-116934490D01*
X102003649Y-116950000D01*
X102083151Y-116950000D01*
X102161126Y-116934490D01*
X102212840Y-116913069D01*
X105704640Y-116913069D01*
X105704640Y-116992571D01*
X105720150Y-117070546D01*
X105750574Y-117143996D01*
X105794743Y-117210100D01*
X105850960Y-117266317D01*
X105917064Y-117310486D01*
X105990514Y-117340910D01*
X106068489Y-117356420D01*
X106147991Y-117356420D01*
X106225966Y-117340910D01*
X106299416Y-117310486D01*
X106365520Y-117266317D01*
X106421737Y-117210100D01*
X106451140Y-117166095D01*
X106480543Y-117210100D01*
X106536760Y-117266317D01*
X106602864Y-117310486D01*
X106676314Y-117340910D01*
X106754289Y-117356420D01*
X106833791Y-117356420D01*
X106911766Y-117340910D01*
X106985216Y-117310486D01*
X107051320Y-117266317D01*
X107107537Y-117210100D01*
X107151706Y-117143996D01*
X107182130Y-117070546D01*
X107197640Y-116992571D01*
X107197640Y-116913069D01*
X107182130Y-116835094D01*
X107151706Y-116761644D01*
X107107537Y-116695540D01*
X107051320Y-116639323D01*
X106985216Y-116595154D01*
X106911766Y-116564730D01*
X106833791Y-116549220D01*
X106754289Y-116549220D01*
X106676314Y-116564730D01*
X106602864Y-116595154D01*
X106536760Y-116639323D01*
X106480543Y-116695540D01*
X106451140Y-116739545D01*
X106421737Y-116695540D01*
X106365520Y-116639323D01*
X106299416Y-116595154D01*
X106225966Y-116564730D01*
X106147991Y-116549220D01*
X106068489Y-116549220D01*
X105990514Y-116564730D01*
X105917064Y-116595154D01*
X105850960Y-116639323D01*
X105794743Y-116695540D01*
X105750574Y-116761644D01*
X105720150Y-116835094D01*
X105704640Y-116913069D01*
X102212840Y-116913069D01*
X102234576Y-116904066D01*
X102300680Y-116859897D01*
X102356897Y-116803680D01*
X102401066Y-116737576D01*
X102431490Y-116664126D01*
X102447000Y-116586151D01*
X102447000Y-116506649D01*
X102431490Y-116428674D01*
X102401066Y-116355224D01*
X102356897Y-116289120D01*
X102300680Y-116232903D01*
X102234576Y-116188734D01*
X102161126Y-116158310D01*
X102083151Y-116142800D01*
X102003649Y-116142800D01*
X101925674Y-116158310D01*
X101852224Y-116188734D01*
X101786120Y-116232903D01*
X101729903Y-116289120D01*
X101685734Y-116355224D01*
X101655310Y-116428674D01*
X101639800Y-116506649D01*
X100113188Y-116506649D01*
X100162337Y-116457500D01*
X100206506Y-116391396D01*
X100236930Y-116317946D01*
X100252440Y-116239971D01*
X100252440Y-116160469D01*
X100236930Y-116082494D01*
X100206506Y-116009044D01*
X100162337Y-115942940D01*
X100106120Y-115886723D01*
X100040016Y-115842554D01*
X99966566Y-115812130D01*
X99888591Y-115796620D01*
X99809089Y-115796620D01*
X99731114Y-115812130D01*
X99657664Y-115842554D01*
X99591560Y-115886723D01*
X99535343Y-115942940D01*
X99491174Y-116009044D01*
X99460750Y-116082494D01*
X99445240Y-116160469D01*
X97778896Y-116160469D01*
X97779390Y-115744669D01*
X101158040Y-115744669D01*
X101158040Y-115824171D01*
X101173550Y-115902146D01*
X101203974Y-115975596D01*
X101248143Y-116041700D01*
X101304360Y-116097917D01*
X101370464Y-116142086D01*
X101443914Y-116172510D01*
X101521889Y-116188020D01*
X101601391Y-116188020D01*
X101679366Y-116172510D01*
X101752816Y-116142086D01*
X101818920Y-116097917D01*
X101875137Y-116041700D01*
X101919306Y-115975596D01*
X101949730Y-115902146D01*
X101965240Y-115824171D01*
X101965240Y-115779469D01*
X105795240Y-115779469D01*
X105795240Y-115858971D01*
X105810750Y-115936946D01*
X105841174Y-116010396D01*
X105885343Y-116076500D01*
X105941560Y-116132717D01*
X106007664Y-116176886D01*
X106081114Y-116207310D01*
X106159089Y-116222820D01*
X106238591Y-116222820D01*
X106316566Y-116207310D01*
X106390016Y-116176886D01*
X106456120Y-116132717D01*
X106512337Y-116076500D01*
X106556506Y-116010396D01*
X106586930Y-115936946D01*
X106602440Y-115858971D01*
X106602440Y-115779469D01*
X106586930Y-115701494D01*
X106556506Y-115628044D01*
X106512337Y-115561940D01*
X106456120Y-115505723D01*
X106390016Y-115461554D01*
X106316566Y-115431130D01*
X106238591Y-115415620D01*
X106159089Y-115415620D01*
X106081114Y-115431130D01*
X106007664Y-115461554D01*
X105941560Y-115505723D01*
X105885343Y-115561940D01*
X105841174Y-115628044D01*
X105810750Y-115701494D01*
X105795240Y-115779469D01*
X101965240Y-115779469D01*
X101965240Y-115744669D01*
X101949730Y-115666694D01*
X101919306Y-115593244D01*
X101875137Y-115527140D01*
X101818920Y-115470923D01*
X101752816Y-115426754D01*
X101679366Y-115396330D01*
X101601391Y-115380820D01*
X101521889Y-115380820D01*
X101443914Y-115396330D01*
X101370464Y-115426754D01*
X101304360Y-115470923D01*
X101248143Y-115527140D01*
X101203974Y-115593244D01*
X101173550Y-115666694D01*
X101158040Y-115744669D01*
X97779390Y-115744669D01*
X97780226Y-115042867D01*
X99953240Y-115042867D01*
X99953240Y-115122369D01*
X99968750Y-115200344D01*
X99999174Y-115273794D01*
X100043343Y-115339898D01*
X100099560Y-115396115D01*
X100165664Y-115440284D01*
X100239114Y-115470708D01*
X100317089Y-115486218D01*
X100396591Y-115486218D01*
X100474566Y-115470708D01*
X100548016Y-115440284D01*
X100614120Y-115396115D01*
X100670337Y-115339898D01*
X100699087Y-115296869D01*
X105109440Y-115296869D01*
X105109440Y-115376371D01*
X105124950Y-115454346D01*
X105155374Y-115527796D01*
X105199543Y-115593900D01*
X105255760Y-115650117D01*
X105321864Y-115694286D01*
X105395314Y-115724710D01*
X105473289Y-115740220D01*
X105552791Y-115740220D01*
X105630766Y-115724710D01*
X105704216Y-115694286D01*
X105770320Y-115650117D01*
X105826537Y-115593900D01*
X105870706Y-115527796D01*
X105901130Y-115454346D01*
X105916640Y-115376371D01*
X105916640Y-115296869D01*
X105901130Y-115218894D01*
X105870706Y-115145444D01*
X105826537Y-115079340D01*
X105770320Y-115023123D01*
X105704216Y-114978954D01*
X105630766Y-114948530D01*
X105552791Y-114933020D01*
X105473289Y-114933020D01*
X105395314Y-114948530D01*
X105321864Y-114978954D01*
X105255760Y-115023123D01*
X105199543Y-115079340D01*
X105155374Y-115145444D01*
X105124950Y-115218894D01*
X105109440Y-115296869D01*
X100699087Y-115296869D01*
X100714506Y-115273794D01*
X100744930Y-115200344D01*
X100753810Y-115155702D01*
X100830166Y-115140514D01*
X100903616Y-115110090D01*
X100969720Y-115065921D01*
X101025937Y-115009704D01*
X101070106Y-114943600D01*
X101100530Y-114870150D01*
X101116040Y-114792175D01*
X101116040Y-114712673D01*
X101100530Y-114634698D01*
X101070106Y-114561248D01*
X101025937Y-114495144D01*
X100969720Y-114438927D01*
X100959286Y-114431955D01*
X101014883Y-114443014D01*
X101094385Y-114443014D01*
X101172360Y-114427504D01*
X101245810Y-114397080D01*
X101304619Y-114357785D01*
X101363464Y-114397104D01*
X101436914Y-114427528D01*
X101514889Y-114443038D01*
X101594391Y-114443038D01*
X101672366Y-114427528D01*
X101745816Y-114397104D01*
X101804664Y-114357783D01*
X101863464Y-114397072D01*
X101936914Y-114427496D01*
X102014889Y-114443006D01*
X102094391Y-114443006D01*
X102172366Y-114427496D01*
X102245816Y-114397072D01*
X102311920Y-114352903D01*
X102368137Y-114296686D01*
X102412306Y-114230582D01*
X102442730Y-114157132D01*
X102458240Y-114079157D01*
X102458240Y-113999655D01*
X102442730Y-113921680D01*
X102412306Y-113848230D01*
X102368137Y-113782126D01*
X102311920Y-113725909D01*
X102245816Y-113681740D01*
X102172366Y-113651316D01*
X102094391Y-113635806D01*
X102014889Y-113635806D01*
X101936914Y-113651316D01*
X101863464Y-113681740D01*
X101804616Y-113721061D01*
X101745816Y-113681772D01*
X101672366Y-113651348D01*
X101594391Y-113635838D01*
X101514889Y-113635838D01*
X101436914Y-113651348D01*
X101363464Y-113681772D01*
X101304655Y-113721067D01*
X101245810Y-113681748D01*
X101172360Y-113651324D01*
X101094385Y-113635814D01*
X101014883Y-113635814D01*
X100936908Y-113651324D01*
X100863458Y-113681748D01*
X100797354Y-113725917D01*
X100741137Y-113782134D01*
X100696968Y-113848238D01*
X100666544Y-113921688D01*
X100651034Y-113999663D01*
X100651034Y-114079165D01*
X100666544Y-114157140D01*
X100696968Y-114230590D01*
X100741137Y-114296694D01*
X100797354Y-114352911D01*
X100807788Y-114359883D01*
X100752191Y-114348824D01*
X100672689Y-114348824D01*
X100594714Y-114364334D01*
X100521264Y-114394758D01*
X100455160Y-114438927D01*
X100398943Y-114495144D01*
X100354774Y-114561248D01*
X100324350Y-114634698D01*
X100315470Y-114679340D01*
X100239114Y-114694528D01*
X100165664Y-114724952D01*
X100099560Y-114769121D01*
X100043343Y-114825338D01*
X99999174Y-114891442D01*
X99968750Y-114964892D01*
X99953240Y-115042867D01*
X97780226Y-115042867D01*
X97780862Y-114509469D01*
X99165840Y-114509469D01*
X99165840Y-114588971D01*
X99181350Y-114666946D01*
X99211774Y-114740396D01*
X99255943Y-114806500D01*
X99312160Y-114862717D01*
X99378264Y-114906886D01*
X99451714Y-114937310D01*
X99529689Y-114952820D01*
X99609191Y-114952820D01*
X99687166Y-114937310D01*
X99760616Y-114906886D01*
X99826720Y-114862717D01*
X99882937Y-114806500D01*
X99927106Y-114740396D01*
X99957530Y-114666946D01*
X99973040Y-114588971D01*
X99973040Y-114509469D01*
X99957530Y-114431494D01*
X99927106Y-114358044D01*
X99882937Y-114291940D01*
X99826720Y-114235723D01*
X99760616Y-114191554D01*
X99687166Y-114161130D01*
X99609191Y-114145620D01*
X99529689Y-114145620D01*
X99451714Y-114161130D01*
X99378264Y-114191554D01*
X99312160Y-114235723D01*
X99255943Y-114291940D01*
X99211774Y-114358044D01*
X99181350Y-114431494D01*
X99165840Y-114509469D01*
X97780862Y-114509469D01*
X97784702Y-111283669D01*
X98093040Y-111283669D01*
X98093040Y-111363171D01*
X98108550Y-111441146D01*
X98138974Y-111514596D01*
X98183143Y-111580700D01*
X98239360Y-111636917D01*
X98305464Y-111681086D01*
X98378914Y-111711510D01*
X98456889Y-111727020D01*
X98536391Y-111727020D01*
X98614366Y-111711510D01*
X98687816Y-111681086D01*
X98753920Y-111636917D01*
X98810137Y-111580700D01*
X98854306Y-111514596D01*
X98884730Y-111441146D01*
X98900240Y-111363171D01*
X98900240Y-111283669D01*
X98884730Y-111205694D01*
X98854306Y-111132244D01*
X98810137Y-111066140D01*
X98753920Y-111009923D01*
X98687816Y-110965754D01*
X98614366Y-110935330D01*
X98536391Y-110919820D01*
X98456889Y-110919820D01*
X98378914Y-110935330D01*
X98305464Y-110965754D01*
X98239360Y-111009923D01*
X98183143Y-111066140D01*
X98138974Y-111132244D01*
X98108550Y-111205694D01*
X98093040Y-111283669D01*
X97784702Y-111283669D01*
X97787185Y-109198069D01*
X97998040Y-109198069D01*
X97998040Y-109277571D01*
X98013550Y-109355546D01*
X98043974Y-109428996D01*
X98088143Y-109495100D01*
X98144360Y-109551317D01*
X98210464Y-109595486D01*
X98283914Y-109625910D01*
X98361889Y-109641420D01*
X98374189Y-109641420D01*
X98975253Y-110242485D01*
X98957774Y-110268644D01*
X98927350Y-110342094D01*
X98911840Y-110420069D01*
X98911840Y-110499571D01*
X98927350Y-110577546D01*
X98957774Y-110650996D01*
X99001943Y-110717100D01*
X99058160Y-110773317D01*
X99097042Y-110799297D01*
X99081552Y-110836694D01*
X99066042Y-110914669D01*
X99066042Y-110994171D01*
X99081552Y-111072146D01*
X99111976Y-111145596D01*
X99156145Y-111211700D01*
X99212362Y-111267917D01*
X99278466Y-111312086D01*
X99351916Y-111342510D01*
X99429891Y-111358020D01*
X99509393Y-111358020D01*
X99587368Y-111342510D01*
X99660818Y-111312086D01*
X99693643Y-111290153D01*
X99693643Y-111530165D01*
X99668988Y-111554820D01*
X99656689Y-111554820D01*
X99578714Y-111570330D01*
X99505264Y-111600754D01*
X99439160Y-111644923D01*
X99382943Y-111701140D01*
X99338774Y-111767244D01*
X99308350Y-111840694D01*
X99292840Y-111918669D01*
X99292840Y-111998171D01*
X99308350Y-112076146D01*
X99311519Y-112083796D01*
X99251264Y-112108754D01*
X99185160Y-112152923D01*
X99128943Y-112209140D01*
X99084774Y-112275244D01*
X99054350Y-112348694D01*
X99038840Y-112426669D01*
X99038840Y-112506171D01*
X99054350Y-112584146D01*
X99084774Y-112657596D01*
X99128943Y-112723700D01*
X99185160Y-112779917D01*
X99251264Y-112824086D01*
X99324714Y-112854510D01*
X99402689Y-112870020D01*
X99482191Y-112870020D01*
X99560166Y-112854510D01*
X99633616Y-112824086D01*
X99699720Y-112779917D01*
X99707270Y-112772367D01*
X99710586Y-112772693D01*
X99725544Y-112771220D01*
X99725552Y-112771220D01*
X99770337Y-112766809D01*
X99827792Y-112749380D01*
X99880743Y-112721078D01*
X99927154Y-112682988D01*
X99936698Y-112671359D01*
X100587185Y-112020873D01*
X100598808Y-112011334D01*
X100636898Y-111964923D01*
X100665200Y-111911972D01*
X100680553Y-111861361D01*
X100682629Y-111854518D01*
X100685663Y-111823709D01*
X100687040Y-111809732D01*
X100687040Y-111809725D01*
X100688513Y-111794767D01*
X100687040Y-111779809D01*
X100687040Y-110405569D01*
X103740380Y-110405569D01*
X103740380Y-110485071D01*
X103755890Y-110563046D01*
X103786314Y-110636496D01*
X103830483Y-110702600D01*
X103886700Y-110758817D01*
X103952804Y-110802986D01*
X104026254Y-110833410D01*
X104104229Y-110848920D01*
X104183731Y-110848920D01*
X104261706Y-110833410D01*
X104335156Y-110802986D01*
X104401260Y-110758817D01*
X104457477Y-110702600D01*
X104501646Y-110636496D01*
X104532070Y-110563046D01*
X104547580Y-110485071D01*
X104547580Y-110405569D01*
X104532070Y-110327594D01*
X104501646Y-110254144D01*
X104457477Y-110188040D01*
X104401260Y-110131823D01*
X104335156Y-110087654D01*
X104261706Y-110057230D01*
X104183731Y-110041720D01*
X104104229Y-110041720D01*
X104026254Y-110057230D01*
X103952804Y-110087654D01*
X103886700Y-110131823D01*
X103830483Y-110188040D01*
X103786314Y-110254144D01*
X103755890Y-110327594D01*
X103740380Y-110405569D01*
X100687040Y-110405569D01*
X100687040Y-109839778D01*
X100688513Y-109824820D01*
X100687040Y-109809862D01*
X100687040Y-109809854D01*
X100682629Y-109765069D01*
X100679443Y-109754565D01*
X100745816Y-109727072D01*
X100804628Y-109687775D01*
X100863464Y-109727088D01*
X100936914Y-109757512D01*
X101014889Y-109773022D01*
X101094391Y-109773022D01*
X101172366Y-109757512D01*
X101245816Y-109727088D01*
X101304640Y-109687783D01*
X101363464Y-109727088D01*
X101436914Y-109757512D01*
X101514889Y-109773022D01*
X101594391Y-109773022D01*
X101672366Y-109757512D01*
X101745816Y-109727088D01*
X101804637Y-109687785D01*
X101863464Y-109727092D01*
X101936914Y-109757516D01*
X102014889Y-109773026D01*
X102094391Y-109773026D01*
X102172366Y-109757516D01*
X102245816Y-109727092D01*
X102304643Y-109687785D01*
X102363464Y-109727088D01*
X102436914Y-109757512D01*
X102514889Y-109773022D01*
X102594391Y-109773022D01*
X102672366Y-109757512D01*
X102745816Y-109727088D01*
X102811920Y-109682919D01*
X102868137Y-109626702D01*
X102912306Y-109560598D01*
X102942730Y-109487148D01*
X102958240Y-109409173D01*
X102958240Y-109329671D01*
X102942730Y-109251696D01*
X102912306Y-109178246D01*
X102868137Y-109112142D01*
X102811920Y-109055925D01*
X102745816Y-109011756D01*
X102678373Y-108983820D01*
X102682591Y-108983820D01*
X102760566Y-108968310D01*
X102834016Y-108937886D01*
X102900120Y-108893717D01*
X102956337Y-108837500D01*
X102985740Y-108793495D01*
X103015143Y-108837500D01*
X103071360Y-108893717D01*
X103137464Y-108937886D01*
X103210914Y-108968310D01*
X103288889Y-108983820D01*
X103368391Y-108983820D01*
X103446366Y-108968310D01*
X103519816Y-108937886D01*
X103585920Y-108893717D01*
X103642137Y-108837500D01*
X103686306Y-108771396D01*
X103716730Y-108697946D01*
X103732240Y-108619971D01*
X103732240Y-108611240D01*
X107043438Y-108611240D01*
X107043438Y-108690742D01*
X107058948Y-108768717D01*
X107089372Y-108842167D01*
X107133541Y-108908271D01*
X107189758Y-108964488D01*
X107255862Y-109008657D01*
X107329312Y-109039081D01*
X107407287Y-109054591D01*
X107486789Y-109054591D01*
X107564764Y-109039081D01*
X107638214Y-109008657D01*
X107704318Y-108964488D01*
X107760535Y-108908271D01*
X107804704Y-108842167D01*
X107835128Y-108768717D01*
X107840907Y-108739661D01*
X107871889Y-108745824D01*
X107951391Y-108745824D01*
X108029366Y-108730314D01*
X108102816Y-108699890D01*
X108168920Y-108655721D01*
X108225137Y-108599504D01*
X108269306Y-108533400D01*
X108299730Y-108459950D01*
X108315240Y-108381975D01*
X108315240Y-108302473D01*
X108299730Y-108224498D01*
X108269306Y-108151048D01*
X108225137Y-108084944D01*
X108168920Y-108028727D01*
X108102816Y-107984558D01*
X108029366Y-107954134D01*
X107951391Y-107938624D01*
X107871889Y-107938624D01*
X107793914Y-107954134D01*
X107720464Y-107984558D01*
X107654360Y-108028727D01*
X107598143Y-108084944D01*
X107553974Y-108151048D01*
X107523550Y-108224498D01*
X107517771Y-108253554D01*
X107486789Y-108247391D01*
X107407287Y-108247391D01*
X107329312Y-108262901D01*
X107255862Y-108293325D01*
X107189758Y-108337494D01*
X107133541Y-108393711D01*
X107089372Y-108459815D01*
X107058948Y-108533265D01*
X107043438Y-108611240D01*
X103732240Y-108611240D01*
X103732240Y-108540469D01*
X103716730Y-108462494D01*
X103686306Y-108389044D01*
X103642137Y-108322940D01*
X103585920Y-108266723D01*
X103519816Y-108222554D01*
X103446366Y-108192130D01*
X103368391Y-108176620D01*
X103288889Y-108176620D01*
X103210914Y-108192130D01*
X103137464Y-108222554D01*
X103071360Y-108266723D01*
X103015143Y-108322940D01*
X102985740Y-108366945D01*
X102956337Y-108322940D01*
X102900120Y-108266723D01*
X102834016Y-108222554D01*
X102760566Y-108192130D01*
X102682591Y-108176620D01*
X102603089Y-108176620D01*
X102525114Y-108192130D01*
X102451664Y-108222554D01*
X102385560Y-108266723D01*
X102329343Y-108322940D01*
X102287240Y-108385952D01*
X102245137Y-108322940D01*
X102188920Y-108266723D01*
X102122816Y-108222554D01*
X102049366Y-108192130D01*
X101971391Y-108176620D01*
X101891889Y-108176620D01*
X101813914Y-108192130D01*
X101740464Y-108222554D01*
X101674360Y-108266723D01*
X101618143Y-108322940D01*
X101573974Y-108389044D01*
X101543550Y-108462494D01*
X101528040Y-108540469D01*
X101528040Y-108619971D01*
X101543550Y-108697946D01*
X101573974Y-108771396D01*
X101618143Y-108837500D01*
X101674360Y-108893717D01*
X101740464Y-108937886D01*
X101813914Y-108968310D01*
X101891889Y-108983820D01*
X101930917Y-108983820D01*
X101863464Y-109011760D01*
X101804643Y-109051063D01*
X101745816Y-109011756D01*
X101672366Y-108981332D01*
X101594391Y-108965822D01*
X101514889Y-108965822D01*
X101436914Y-108981332D01*
X101363464Y-109011756D01*
X101304640Y-109051061D01*
X101245816Y-109011756D01*
X101172366Y-108981332D01*
X101094391Y-108965822D01*
X101014889Y-108965822D01*
X100936914Y-108981332D01*
X100863464Y-109011756D01*
X100804652Y-109051053D01*
X100745816Y-109011740D01*
X100672366Y-108981316D01*
X100594391Y-108965806D01*
X100514889Y-108965806D01*
X100506639Y-108967447D01*
X100506639Y-108963872D01*
X100564091Y-108906420D01*
X100576391Y-108906420D01*
X100654366Y-108890910D01*
X100727816Y-108860486D01*
X100793920Y-108816317D01*
X100850137Y-108760100D01*
X100894306Y-108693996D01*
X100924730Y-108620546D01*
X100940240Y-108542571D01*
X100940240Y-108463069D01*
X100924730Y-108385094D01*
X100894306Y-108311644D01*
X100850137Y-108245540D01*
X100793920Y-108189323D01*
X100727816Y-108145154D01*
X100654366Y-108114730D01*
X100576391Y-108099220D01*
X100496889Y-108099220D01*
X100418914Y-108114730D01*
X100345464Y-108145154D01*
X100279360Y-108189323D01*
X100223143Y-108245540D01*
X100186640Y-108300171D01*
X100150137Y-108245540D01*
X100093920Y-108189323D01*
X100027816Y-108145154D01*
X99954366Y-108114730D01*
X99876391Y-108099220D01*
X99796889Y-108099220D01*
X99718914Y-108114730D01*
X99645464Y-108145154D01*
X99579360Y-108189323D01*
X99523143Y-108245540D01*
X99486640Y-108300171D01*
X99450137Y-108245540D01*
X99393920Y-108189323D01*
X99327816Y-108145154D01*
X99254366Y-108114730D01*
X99176391Y-108099220D01*
X99096889Y-108099220D01*
X99018914Y-108114730D01*
X98945464Y-108145154D01*
X98879360Y-108189323D01*
X98823143Y-108245540D01*
X98778974Y-108311644D01*
X98748550Y-108385094D01*
X98733040Y-108463069D01*
X98733040Y-108542571D01*
X98748550Y-108620546D01*
X98778974Y-108693996D01*
X98823143Y-108760100D01*
X98831840Y-108768797D01*
X98831841Y-109236969D01*
X98805240Y-109210369D01*
X98805240Y-109198069D01*
X98789730Y-109120094D01*
X98759306Y-109046644D01*
X98715137Y-108980540D01*
X98658920Y-108924323D01*
X98592816Y-108880154D01*
X98519366Y-108849730D01*
X98441391Y-108834220D01*
X98361889Y-108834220D01*
X98283914Y-108849730D01*
X98210464Y-108880154D01*
X98144360Y-108924323D01*
X98088143Y-108980540D01*
X98043974Y-109046644D01*
X98013550Y-109120094D01*
X97998040Y-109198069D01*
X97787185Y-109198069D01*
X97788809Y-107834200D01*
X108799800Y-107834200D01*
X108799800Y-110224360D01*
G37*
G04 #@! TD.AperFunction*
D12*
X126833800Y-110234061D02*
X126818956Y-110221879D01*
X126757180Y-110188859D01*
X126690150Y-110168526D01*
X126637903Y-110163380D01*
X126637895Y-110163380D01*
X126620440Y-110161661D01*
X126602985Y-110163380D01*
X126570852Y-110163380D01*
X126595640Y-110146817D01*
X126651857Y-110090600D01*
X126696026Y-110024496D01*
X126726450Y-109951046D01*
X126741960Y-109873071D01*
X126741960Y-109793569D01*
X126726450Y-109715594D01*
X126696026Y-109642144D01*
X126651857Y-109576040D01*
X126595640Y-109519823D01*
X126529536Y-109475654D01*
X126456086Y-109445230D01*
X126378111Y-109429720D01*
X126298609Y-109429720D01*
X126220634Y-109445230D01*
X126147184Y-109475654D01*
X126081080Y-109519823D01*
X126024863Y-109576040D01*
X125980694Y-109642144D01*
X125950270Y-109715594D01*
X125934760Y-109793569D01*
X125934760Y-109873071D01*
X125950270Y-109951046D01*
X125980694Y-110024496D01*
X126024863Y-110090600D01*
X126081080Y-110146817D01*
X126130130Y-110179591D01*
X126091380Y-110205483D01*
X126035163Y-110261700D01*
X125990994Y-110327804D01*
X125960570Y-110401254D01*
X125945060Y-110479229D01*
X125945060Y-110558731D01*
X125960570Y-110636706D01*
X125990994Y-110710156D01*
X126032535Y-110772328D01*
X126027543Y-110777320D01*
X125983374Y-110843424D01*
X125952950Y-110916874D01*
X125937440Y-110994849D01*
X125937440Y-111074351D01*
X125952950Y-111152326D01*
X125983374Y-111225776D01*
X126027543Y-111291880D01*
X126083760Y-111348097D01*
X126149864Y-111392266D01*
X126223314Y-111422690D01*
X126226963Y-111423416D01*
X126833800Y-112030254D01*
X126833800Y-113221540D01*
X126541546Y-113221540D01*
X126555140Y-113212457D01*
X126611357Y-113156240D01*
X126655526Y-113090136D01*
X126685950Y-113016686D01*
X126701460Y-112938711D01*
X126701460Y-112859209D01*
X126685950Y-112781234D01*
X126655526Y-112707784D01*
X126611357Y-112641680D01*
X126555140Y-112585463D01*
X126489036Y-112541294D01*
X126415586Y-112510870D01*
X126337611Y-112495360D01*
X126258109Y-112495360D01*
X126180134Y-112510870D01*
X126106684Y-112541294D01*
X126040580Y-112585463D01*
X125984363Y-112641680D01*
X125940194Y-112707784D01*
X125909770Y-112781234D01*
X125901620Y-112822207D01*
X125901620Y-111773017D01*
X125910317Y-111764320D01*
X125954486Y-111698216D01*
X125984910Y-111624766D01*
X126000420Y-111546791D01*
X126000420Y-111467289D01*
X125984910Y-111389314D01*
X125954486Y-111315864D01*
X125910317Y-111249760D01*
X125854100Y-111193543D01*
X125787996Y-111149374D01*
X125714546Y-111118950D01*
X125636571Y-111103440D01*
X125557069Y-111103440D01*
X125479094Y-111118950D01*
X125405644Y-111149374D01*
X125339540Y-111193543D01*
X125283323Y-111249760D01*
X125239154Y-111315864D01*
X125208730Y-111389314D01*
X125193220Y-111467289D01*
X125193220Y-111546791D01*
X125208730Y-111624766D01*
X125239154Y-111698216D01*
X125283323Y-111764320D01*
X125292020Y-111773017D01*
X125292021Y-113112592D01*
X125290547Y-113127560D01*
X125296431Y-113187311D01*
X125313860Y-113244765D01*
X125320200Y-113256626D01*
X125342163Y-113297717D01*
X125380253Y-113344128D01*
X125391876Y-113353667D01*
X125700687Y-113662478D01*
X125716279Y-113713880D01*
X125749299Y-113775656D01*
X125793737Y-113829803D01*
X125847884Y-113874241D01*
X125909660Y-113907261D01*
X125976690Y-113927594D01*
X126028937Y-113932740D01*
X126433546Y-113932740D01*
X126407610Y-113995354D01*
X126392100Y-114073329D01*
X126392100Y-114152831D01*
X126407610Y-114230806D01*
X126438034Y-114304256D01*
X126482203Y-114370360D01*
X126538420Y-114426577D01*
X126604524Y-114470746D01*
X126677974Y-114501170D01*
X126755949Y-114516680D01*
X126833800Y-114516680D01*
X126833800Y-118349800D01*
X112508200Y-118349800D01*
X112508200Y-115658289D01*
X112912320Y-115658289D01*
X112912320Y-115737791D01*
X112927830Y-115815766D01*
X112958254Y-115889216D01*
X113002423Y-115955320D01*
X113058640Y-116011537D01*
X113124744Y-116055706D01*
X113198194Y-116086130D01*
X113276169Y-116101640D01*
X113355671Y-116101640D01*
X113433646Y-116086130D01*
X113507096Y-116055706D01*
X113573200Y-116011537D01*
X113629417Y-115955320D01*
X113673586Y-115889216D01*
X113682065Y-115868746D01*
X113721243Y-115927380D01*
X113777460Y-115983597D01*
X113804113Y-116001406D01*
X113793760Y-116008323D01*
X113737543Y-116064540D01*
X113693374Y-116130644D01*
X113662950Y-116204094D01*
X113647440Y-116282069D01*
X113647440Y-116361571D01*
X113662950Y-116439546D01*
X113693374Y-116512996D01*
X113737543Y-116579100D01*
X113793760Y-116635317D01*
X113859864Y-116679486D01*
X113933314Y-116709910D01*
X114011289Y-116725420D01*
X114090791Y-116725420D01*
X114168766Y-116709910D01*
X114242216Y-116679486D01*
X114308320Y-116635317D01*
X114364537Y-116579100D01*
X114408706Y-116512996D01*
X114439130Y-116439546D01*
X114454640Y-116361571D01*
X114454640Y-116282069D01*
X114451820Y-116267889D01*
X114837640Y-116267889D01*
X114837640Y-116347391D01*
X114853150Y-116425366D01*
X114883574Y-116498816D01*
X114927743Y-116564920D01*
X114983960Y-116621137D01*
X115050064Y-116665306D01*
X115123514Y-116695730D01*
X115201489Y-116711240D01*
X115280991Y-116711240D01*
X115358966Y-116695730D01*
X115432416Y-116665306D01*
X115498520Y-116621137D01*
X115554737Y-116564920D01*
X115598906Y-116498816D01*
X115629330Y-116425366D01*
X115632619Y-116408829D01*
X116688060Y-116408829D01*
X116688060Y-116488331D01*
X116703570Y-116566306D01*
X116733994Y-116639756D01*
X116778163Y-116705860D01*
X116834380Y-116762077D01*
X116900484Y-116806246D01*
X116973934Y-116836670D01*
X117051909Y-116852180D01*
X117131411Y-116852180D01*
X117209386Y-116836670D01*
X117282836Y-116806246D01*
X117348940Y-116762077D01*
X117405157Y-116705860D01*
X117449326Y-116639756D01*
X117479750Y-116566306D01*
X117495260Y-116488331D01*
X117495260Y-116408829D01*
X117479750Y-116330854D01*
X117449326Y-116257404D01*
X117405157Y-116191300D01*
X117348940Y-116135083D01*
X117282836Y-116090914D01*
X117209386Y-116060490D01*
X117131411Y-116044980D01*
X117051909Y-116044980D01*
X116973934Y-116060490D01*
X116900484Y-116090914D01*
X116834380Y-116135083D01*
X116778163Y-116191300D01*
X116733994Y-116257404D01*
X116703570Y-116330854D01*
X116688060Y-116408829D01*
X115632619Y-116408829D01*
X115644840Y-116347391D01*
X115644840Y-116267889D01*
X115629330Y-116189914D01*
X115598906Y-116116464D01*
X115554737Y-116050360D01*
X115498520Y-115994143D01*
X115478654Y-115980869D01*
X118670500Y-115980869D01*
X118670500Y-116060371D01*
X118686010Y-116138346D01*
X118716434Y-116211796D01*
X118760603Y-116277900D01*
X118816820Y-116334117D01*
X118882924Y-116378286D01*
X118956374Y-116408710D01*
X119034349Y-116424220D01*
X119113851Y-116424220D01*
X119191826Y-116408710D01*
X119265276Y-116378286D01*
X119331380Y-116334117D01*
X119387597Y-116277900D01*
X119431766Y-116211796D01*
X119462190Y-116138346D01*
X119477700Y-116060371D01*
X119477700Y-115980869D01*
X119462190Y-115902894D01*
X119431766Y-115829444D01*
X119387597Y-115763340D01*
X119331380Y-115707123D01*
X119265276Y-115662954D01*
X119191826Y-115632530D01*
X119113851Y-115617020D01*
X119034349Y-115617020D01*
X118956374Y-115632530D01*
X118882924Y-115662954D01*
X118816820Y-115707123D01*
X118760603Y-115763340D01*
X118716434Y-115829444D01*
X118686010Y-115902894D01*
X118670500Y-115980869D01*
X115478654Y-115980869D01*
X115432416Y-115949974D01*
X115358966Y-115919550D01*
X115280991Y-115904040D01*
X115201489Y-115904040D01*
X115123514Y-115919550D01*
X115050064Y-115949974D01*
X114983960Y-115994143D01*
X114927743Y-116050360D01*
X114883574Y-116116464D01*
X114853150Y-116189914D01*
X114837640Y-116267889D01*
X114451820Y-116267889D01*
X114439130Y-116204094D01*
X114408706Y-116130644D01*
X114364537Y-116064540D01*
X114308320Y-116008323D01*
X114281667Y-115990514D01*
X114292020Y-115983597D01*
X114348237Y-115927380D01*
X114392406Y-115861276D01*
X114422830Y-115787826D01*
X114438340Y-115709851D01*
X114438340Y-115630349D01*
X114422830Y-115552374D01*
X114392406Y-115478924D01*
X114348237Y-115412820D01*
X114292020Y-115356603D01*
X114225916Y-115312434D01*
X114152466Y-115282010D01*
X114074491Y-115266500D01*
X113994989Y-115266500D01*
X113917014Y-115282010D01*
X113843564Y-115312434D01*
X113777460Y-115356603D01*
X113721243Y-115412820D01*
X113677074Y-115478924D01*
X113668595Y-115499394D01*
X113629417Y-115440760D01*
X113616187Y-115427530D01*
X113634497Y-115409220D01*
X113678666Y-115343116D01*
X113709090Y-115269666D01*
X113724600Y-115191691D01*
X113724600Y-115112189D01*
X113709090Y-115034214D01*
X113678666Y-114960764D01*
X113634497Y-114894660D01*
X113578280Y-114838443D01*
X113512176Y-114794274D01*
X113438726Y-114763850D01*
X113360751Y-114748340D01*
X113281249Y-114748340D01*
X113203274Y-114763850D01*
X113129824Y-114794274D01*
X113063720Y-114838443D01*
X113007503Y-114894660D01*
X112963334Y-114960764D01*
X112932910Y-115034214D01*
X112917400Y-115112189D01*
X112917400Y-115191691D01*
X112932910Y-115269666D01*
X112963334Y-115343116D01*
X113007503Y-115409220D01*
X113020733Y-115422450D01*
X113002423Y-115440760D01*
X112958254Y-115506864D01*
X112927830Y-115580314D01*
X112912320Y-115658289D01*
X112508200Y-115658289D01*
X112508200Y-114415049D01*
X114928060Y-114415049D01*
X114928060Y-114494551D01*
X114943570Y-114572526D01*
X114973994Y-114645976D01*
X115013299Y-114704800D01*
X114973994Y-114763624D01*
X114943570Y-114837074D01*
X114928060Y-114915049D01*
X114928060Y-114994551D01*
X114943570Y-115072526D01*
X114973994Y-115145976D01*
X115018163Y-115212080D01*
X115074380Y-115268297D01*
X115140484Y-115312466D01*
X115213934Y-115342890D01*
X115291909Y-115358400D01*
X115371411Y-115358400D01*
X115449386Y-115342890D01*
X115522836Y-115312466D01*
X115588940Y-115268297D01*
X115645157Y-115212080D01*
X115689326Y-115145976D01*
X115719750Y-115072526D01*
X115735260Y-114994551D01*
X115735260Y-114915049D01*
X115719750Y-114837074D01*
X115689326Y-114763624D01*
X115650021Y-114704800D01*
X115689326Y-114645976D01*
X115719750Y-114572526D01*
X115735260Y-114494551D01*
X115735260Y-114415049D01*
X115719750Y-114337074D01*
X115689326Y-114263624D01*
X115645157Y-114197520D01*
X115588940Y-114141303D01*
X115522836Y-114097134D01*
X115449386Y-114066710D01*
X115371411Y-114051200D01*
X115291909Y-114051200D01*
X115213934Y-114066710D01*
X115140484Y-114097134D01*
X115074380Y-114141303D01*
X115018163Y-114197520D01*
X114973994Y-114263624D01*
X114943570Y-114337074D01*
X114928060Y-114415049D01*
X112508200Y-114415049D01*
X112508200Y-114026720D01*
X112623656Y-114026720D01*
X112664762Y-114054186D01*
X112738212Y-114084610D01*
X112816187Y-114100120D01*
X112895689Y-114100120D01*
X112973664Y-114084610D01*
X113047114Y-114054186D01*
X113113218Y-114010017D01*
X113169435Y-113953800D01*
X113213604Y-113887696D01*
X113244028Y-113814246D01*
X113251100Y-113778689D01*
X113651460Y-113778689D01*
X113651460Y-113858191D01*
X113666970Y-113936166D01*
X113697394Y-114009616D01*
X113741563Y-114075720D01*
X113797780Y-114131937D01*
X113863884Y-114176106D01*
X113937334Y-114206530D01*
X114015309Y-114222040D01*
X114094811Y-114222040D01*
X114172786Y-114206530D01*
X114246236Y-114176106D01*
X114312340Y-114131937D01*
X114368557Y-114075720D01*
X114412726Y-114009616D01*
X114443150Y-113936166D01*
X114458660Y-113858191D01*
X114458660Y-113778689D01*
X114451587Y-113743129D01*
X117664660Y-113743129D01*
X117664660Y-113822631D01*
X117680170Y-113900606D01*
X117710594Y-113974056D01*
X117754763Y-114040160D01*
X117810980Y-114096377D01*
X117877084Y-114140546D01*
X117950534Y-114170970D01*
X118028509Y-114186480D01*
X118108011Y-114186480D01*
X118185986Y-114170970D01*
X118259436Y-114140546D01*
X118325540Y-114096377D01*
X118381757Y-114040160D01*
X118425926Y-113974056D01*
X118456350Y-113900606D01*
X118471860Y-113822631D01*
X118471860Y-113750749D01*
X118543500Y-113750749D01*
X118543500Y-113830251D01*
X118559010Y-113908226D01*
X118589434Y-113981676D01*
X118633603Y-114047780D01*
X118689820Y-114103997D01*
X118755924Y-114148166D01*
X118829374Y-114178590D01*
X118907349Y-114194100D01*
X118986851Y-114194100D01*
X119064826Y-114178590D01*
X119138276Y-114148166D01*
X119204380Y-114103997D01*
X119260597Y-114047780D01*
X119304766Y-113981676D01*
X119335190Y-113908226D01*
X119350700Y-113830251D01*
X119350700Y-113758369D01*
X119567120Y-113758369D01*
X119567120Y-113837871D01*
X119582630Y-113915846D01*
X119613054Y-113989296D01*
X119657223Y-114055400D01*
X119665920Y-114064097D01*
X119665921Y-114547692D01*
X119664447Y-114562660D01*
X119670331Y-114622411D01*
X119687760Y-114679865D01*
X119696611Y-114696424D01*
X119716063Y-114732817D01*
X119754153Y-114779228D01*
X119765777Y-114788768D01*
X120466997Y-115489989D01*
X120476538Y-115501614D01*
X120522949Y-115539704D01*
X120575900Y-115568006D01*
X120633354Y-115585435D01*
X120638995Y-115585991D01*
X120678140Y-115589846D01*
X120678147Y-115589846D01*
X120693105Y-115591319D01*
X120708063Y-115589846D01*
X120894026Y-115589846D01*
X120949647Y-115645467D01*
X120949646Y-117135402D01*
X120743369Y-117341680D01*
X120731069Y-117341680D01*
X120657235Y-117356366D01*
X120671500Y-117284651D01*
X120671500Y-117205149D01*
X120655990Y-117127174D01*
X120625566Y-117053724D01*
X120581397Y-116987620D01*
X120525180Y-116931403D01*
X120459076Y-116887234D01*
X120385626Y-116856810D01*
X120307651Y-116841300D01*
X120228149Y-116841300D01*
X120150174Y-116856810D01*
X120076724Y-116887234D01*
X120010620Y-116931403D01*
X119954403Y-116987620D01*
X119910234Y-117053724D01*
X119879810Y-117127174D01*
X119864300Y-117205149D01*
X119864300Y-117284651D01*
X119879810Y-117362626D01*
X119910234Y-117436076D01*
X119954403Y-117502180D01*
X120010620Y-117558397D01*
X120076724Y-117602566D01*
X120150174Y-117632990D01*
X120228149Y-117648500D01*
X120307651Y-117648500D01*
X120381485Y-117633814D01*
X120367220Y-117705529D01*
X120367220Y-117785031D01*
X120382730Y-117863006D01*
X120413154Y-117936456D01*
X120457323Y-118002560D01*
X120513540Y-118058777D01*
X120579644Y-118102946D01*
X120653094Y-118133370D01*
X120731069Y-118148880D01*
X120810571Y-118148880D01*
X120888546Y-118133370D01*
X120961996Y-118102946D01*
X121028100Y-118058777D01*
X121084317Y-118002560D01*
X121128486Y-117936456D01*
X121158910Y-117863006D01*
X121174420Y-117785031D01*
X121174420Y-117772731D01*
X121451081Y-117496071D01*
X121455163Y-117502180D01*
X121511380Y-117558397D01*
X121577484Y-117602566D01*
X121650934Y-117632990D01*
X121728909Y-117648500D01*
X121808411Y-117648500D01*
X121879126Y-117634434D01*
X121865060Y-117705149D01*
X121865060Y-117784651D01*
X121880570Y-117862626D01*
X121910994Y-117936076D01*
X121955163Y-118002180D01*
X122011380Y-118058397D01*
X122077484Y-118102566D01*
X122150934Y-118132990D01*
X122228909Y-118148500D01*
X122308411Y-118148500D01*
X122386386Y-118132990D01*
X122459836Y-118102566D01*
X122525940Y-118058397D01*
X122582157Y-118002180D01*
X122626326Y-117936076D01*
X122656750Y-117862626D01*
X122672260Y-117784651D01*
X122672260Y-117705149D01*
X122656750Y-117627174D01*
X122632393Y-117568369D01*
X123173920Y-117568369D01*
X123173920Y-117647871D01*
X123189430Y-117725846D01*
X123219854Y-117799296D01*
X123264023Y-117865400D01*
X123320240Y-117921617D01*
X123386344Y-117965786D01*
X123459794Y-117996210D01*
X123537769Y-118011720D01*
X123617271Y-118011720D01*
X123695246Y-117996210D01*
X123768696Y-117965786D01*
X123834800Y-117921617D01*
X123891017Y-117865400D01*
X123935186Y-117799296D01*
X123965610Y-117725846D01*
X123981120Y-117647871D01*
X123981120Y-117568369D01*
X123965610Y-117490394D01*
X123935186Y-117416944D01*
X123891017Y-117350840D01*
X123834800Y-117294623D01*
X123768696Y-117250454D01*
X123695246Y-117220030D01*
X123617271Y-117204520D01*
X123537769Y-117204520D01*
X123459794Y-117220030D01*
X123386344Y-117250454D01*
X123320240Y-117294623D01*
X123264023Y-117350840D01*
X123219854Y-117416944D01*
X123189430Y-117490394D01*
X123173920Y-117568369D01*
X122632393Y-117568369D01*
X122626326Y-117553724D01*
X122587401Y-117495469D01*
X122627086Y-117436076D01*
X122657510Y-117362626D01*
X122673020Y-117284651D01*
X122673020Y-117205149D01*
X122657510Y-117127174D01*
X122627086Y-117053724D01*
X122582917Y-116987620D01*
X122526700Y-116931403D01*
X122460596Y-116887234D01*
X122387146Y-116856810D01*
X122309171Y-116841300D01*
X122229669Y-116841300D01*
X122151694Y-116856810D01*
X122078244Y-116887234D01*
X122019040Y-116926793D01*
X121959836Y-116887234D01*
X121886386Y-116856810D01*
X121808411Y-116841300D01*
X121728909Y-116841300D01*
X121650934Y-116856810D01*
X121577484Y-116887234D01*
X121559246Y-116899420D01*
X121559246Y-116110409D01*
X122930080Y-116110409D01*
X122930080Y-116189911D01*
X122945590Y-116267886D01*
X122976014Y-116341336D01*
X123020183Y-116407440D01*
X123076400Y-116463657D01*
X123142504Y-116507826D01*
X123215954Y-116538250D01*
X123293929Y-116553760D01*
X123373431Y-116553760D01*
X123451406Y-116538250D01*
X123524856Y-116507826D01*
X123590960Y-116463657D01*
X123647177Y-116407440D01*
X123691346Y-116341336D01*
X123721770Y-116267886D01*
X123737280Y-116189911D01*
X123737280Y-116110409D01*
X123721770Y-116032434D01*
X123691346Y-115958984D01*
X123647177Y-115892880D01*
X123590960Y-115836663D01*
X123524856Y-115792494D01*
X123451406Y-115762070D01*
X123373431Y-115746560D01*
X123293929Y-115746560D01*
X123215954Y-115762070D01*
X123142504Y-115792494D01*
X123076400Y-115836663D01*
X123020183Y-115892880D01*
X122976014Y-115958984D01*
X122945590Y-116032434D01*
X122930080Y-116110409D01*
X121559246Y-116110409D01*
X121559246Y-115694409D01*
X123640720Y-115694409D01*
X123640720Y-115773911D01*
X123656230Y-115851886D01*
X123686654Y-115925336D01*
X123730823Y-115991440D01*
X123787040Y-116047657D01*
X123853144Y-116091826D01*
X123926594Y-116122250D01*
X124004569Y-116137760D01*
X124084071Y-116137760D01*
X124162046Y-116122250D01*
X124235496Y-116091826D01*
X124301600Y-116047657D01*
X124357817Y-115991440D01*
X124401986Y-115925336D01*
X124432410Y-115851886D01*
X124447920Y-115773911D01*
X124447920Y-115694409D01*
X124432410Y-115616434D01*
X124401986Y-115542984D01*
X124357817Y-115476880D01*
X124301600Y-115420663D01*
X124235496Y-115376494D01*
X124162046Y-115346070D01*
X124084071Y-115330560D01*
X124004569Y-115330560D01*
X123926594Y-115346070D01*
X123853144Y-115376494D01*
X123787040Y-115420663D01*
X123730823Y-115476880D01*
X123686654Y-115542984D01*
X123656230Y-115616434D01*
X123640720Y-115694409D01*
X121559246Y-115694409D01*
X121559246Y-115534172D01*
X121560719Y-115519214D01*
X121559246Y-115504256D01*
X121559246Y-115504248D01*
X121554835Y-115459463D01*
X121537406Y-115402008D01*
X121509104Y-115349057D01*
X121490259Y-115326095D01*
X121483752Y-115318165D01*
X121496100Y-115315810D01*
X121499490Y-115314787D01*
X121592709Y-115285931D01*
X121613945Y-115277004D01*
X121635211Y-115268412D01*
X121638332Y-115266753D01*
X121638336Y-115266751D01*
X121638339Y-115266749D01*
X121724175Y-115220337D01*
X121743198Y-115207506D01*
X121762463Y-115194899D01*
X121765207Y-115192661D01*
X121840396Y-115130459D01*
X121856613Y-115114128D01*
X121873012Y-115098069D01*
X121875270Y-115095341D01*
X121936946Y-115019720D01*
X121949664Y-115000577D01*
X121962653Y-114981608D01*
X121964337Y-114978493D01*
X122010149Y-114892332D01*
X122018911Y-114871072D01*
X122027961Y-114849957D01*
X122029009Y-114846575D01*
X122057214Y-114753157D01*
X122061683Y-114730585D01*
X122066457Y-114708125D01*
X122066828Y-114704603D01*
X122072688Y-114644829D01*
X124951920Y-114644829D01*
X124951920Y-114724331D01*
X124967430Y-114802306D01*
X124997854Y-114875756D01*
X125042023Y-114941860D01*
X125098240Y-114998077D01*
X125164344Y-115042246D01*
X125237794Y-115072670D01*
X125315769Y-115088180D01*
X125395271Y-115088180D01*
X125473246Y-115072670D01*
X125546696Y-115042246D01*
X125612800Y-114998077D01*
X125669017Y-114941860D01*
X125713186Y-114875756D01*
X125743610Y-114802306D01*
X125759120Y-114724331D01*
X125759120Y-114644829D01*
X125743610Y-114566854D01*
X125713186Y-114493404D01*
X125669017Y-114427300D01*
X125612800Y-114371083D01*
X125546696Y-114326914D01*
X125473246Y-114296490D01*
X125395271Y-114280980D01*
X125315769Y-114280980D01*
X125237794Y-114296490D01*
X125164344Y-114326914D01*
X125098240Y-114371083D01*
X125042023Y-114427300D01*
X124997854Y-114493404D01*
X124967430Y-114566854D01*
X124951920Y-114644829D01*
X122072688Y-114644829D01*
X122076350Y-114607486D01*
X122076350Y-114607485D01*
X122077560Y-114595199D01*
X122077560Y-113933629D01*
X122312860Y-113933629D01*
X122312860Y-114013131D01*
X122328370Y-114091106D01*
X122358794Y-114164556D01*
X122402963Y-114230660D01*
X122459180Y-114286877D01*
X122525284Y-114331046D01*
X122598734Y-114361470D01*
X122676709Y-114376980D01*
X122756211Y-114376980D01*
X122834186Y-114361470D01*
X122907636Y-114331046D01*
X122973740Y-114286877D01*
X123029957Y-114230660D01*
X123074126Y-114164556D01*
X123104550Y-114091106D01*
X123120060Y-114013131D01*
X123120060Y-114000832D01*
X123505610Y-113615283D01*
X123517228Y-113605748D01*
X123526763Y-113594130D01*
X123526769Y-113594124D01*
X123546747Y-113569780D01*
X123555318Y-113559337D01*
X123583620Y-113506386D01*
X123601049Y-113448931D01*
X123605460Y-113404146D01*
X123605460Y-113404138D01*
X123606933Y-113389180D01*
X123605460Y-113374222D01*
X123605460Y-110744317D01*
X123614157Y-110735620D01*
X123658326Y-110669516D01*
X123688750Y-110596066D01*
X123704260Y-110518091D01*
X123704260Y-110438589D01*
X123688750Y-110360614D01*
X123658326Y-110287164D01*
X123614157Y-110221060D01*
X123557940Y-110164843D01*
X123491836Y-110120674D01*
X123418386Y-110090250D01*
X123340411Y-110074740D01*
X123260909Y-110074740D01*
X123182934Y-110090250D01*
X123109484Y-110120674D01*
X123043380Y-110164843D01*
X122987163Y-110221060D01*
X122942994Y-110287164D01*
X122912570Y-110360614D01*
X122897060Y-110438589D01*
X122897060Y-110518091D01*
X122912570Y-110596066D01*
X122942994Y-110669516D01*
X122987163Y-110735620D01*
X122995860Y-110744317D01*
X122995861Y-113262926D01*
X122689008Y-113569780D01*
X122676709Y-113569780D01*
X122598734Y-113585290D01*
X122525284Y-113615714D01*
X122459180Y-113659883D01*
X122402963Y-113716100D01*
X122358794Y-113782204D01*
X122328370Y-113855654D01*
X122312860Y-113933629D01*
X122077560Y-113933629D01*
X122077560Y-111570281D01*
X122076301Y-111557496D01*
X122076301Y-111551013D01*
X122075931Y-111547492D01*
X122065054Y-111450517D01*
X122060269Y-111428007D01*
X122055810Y-111405486D01*
X122054763Y-111402103D01*
X122025257Y-111309088D01*
X122016200Y-111287958D01*
X122007443Y-111266711D01*
X122005759Y-111263596D01*
X121958749Y-111178084D01*
X121945732Y-111159074D01*
X121933042Y-111139973D01*
X121930785Y-111137244D01*
X121868060Y-111062492D01*
X121851641Y-111046414D01*
X121835443Y-111030102D01*
X121832699Y-111027864D01*
X121756649Y-110966718D01*
X121737400Y-110954122D01*
X121718360Y-110941279D01*
X121715234Y-110939617D01*
X121628755Y-110894407D01*
X121607429Y-110885791D01*
X121586255Y-110876890D01*
X121582866Y-110875866D01*
X121489254Y-110848314D01*
X121466651Y-110844002D01*
X121444159Y-110839386D01*
X121440637Y-110839040D01*
X121440635Y-110839040D01*
X121343453Y-110830196D01*
X121320469Y-110830357D01*
X121297486Y-110830196D01*
X121293961Y-110830541D01*
X121196913Y-110840741D01*
X121174402Y-110845362D01*
X121151820Y-110849670D01*
X121148430Y-110850693D01*
X121055211Y-110879549D01*
X121033987Y-110888471D01*
X121012709Y-110897068D01*
X121009582Y-110898730D01*
X120923745Y-110945143D01*
X120904698Y-110957990D01*
X120885457Y-110970581D01*
X120882713Y-110972819D01*
X120807524Y-111035021D01*
X120791307Y-111051352D01*
X120774908Y-111067411D01*
X120772650Y-111070139D01*
X120710974Y-111145760D01*
X120698244Y-111164921D01*
X120685267Y-111183873D01*
X120683583Y-111186987D01*
X120637771Y-111273148D01*
X120629010Y-111294404D01*
X120619958Y-111315523D01*
X120618911Y-111318905D01*
X120590706Y-111412323D01*
X120586237Y-111434895D01*
X120581463Y-111457355D01*
X120581092Y-111460877D01*
X120571585Y-111557844D01*
X120570360Y-111570282D01*
X120570361Y-114595199D01*
X120571619Y-114607974D01*
X120571619Y-114614467D01*
X120571989Y-114617988D01*
X120582866Y-114714963D01*
X120587651Y-114737473D01*
X120590383Y-114751271D01*
X120275520Y-114436409D01*
X120275520Y-114064097D01*
X120284217Y-114055400D01*
X120328386Y-113989296D01*
X120358810Y-113915846D01*
X120374320Y-113837871D01*
X120374320Y-113758369D01*
X120358810Y-113680394D01*
X120328386Y-113606944D01*
X120284217Y-113540840D01*
X120228000Y-113484623D01*
X120161896Y-113440454D01*
X120088446Y-113410030D01*
X120010471Y-113394520D01*
X119930969Y-113394520D01*
X119852994Y-113410030D01*
X119779544Y-113440454D01*
X119713440Y-113484623D01*
X119657223Y-113540840D01*
X119613054Y-113606944D01*
X119582630Y-113680394D01*
X119567120Y-113758369D01*
X119350700Y-113758369D01*
X119350700Y-113750749D01*
X119335190Y-113672774D01*
X119304766Y-113599324D01*
X119260597Y-113533220D01*
X119204380Y-113477003D01*
X119138276Y-113432834D01*
X119064826Y-113402410D01*
X118986851Y-113386900D01*
X118907349Y-113386900D01*
X118829374Y-113402410D01*
X118755924Y-113432834D01*
X118689820Y-113477003D01*
X118633603Y-113533220D01*
X118589434Y-113599324D01*
X118559010Y-113672774D01*
X118543500Y-113750749D01*
X118471860Y-113750749D01*
X118471860Y-113743129D01*
X118456350Y-113665154D01*
X118425926Y-113591704D01*
X118381757Y-113525600D01*
X118325540Y-113469383D01*
X118259436Y-113425214D01*
X118185986Y-113394790D01*
X118108011Y-113379280D01*
X118028509Y-113379280D01*
X117950534Y-113394790D01*
X117877084Y-113425214D01*
X117810980Y-113469383D01*
X117754763Y-113525600D01*
X117710594Y-113591704D01*
X117680170Y-113665154D01*
X117664660Y-113743129D01*
X114451587Y-113743129D01*
X114443150Y-113700714D01*
X114412726Y-113627264D01*
X114368557Y-113561160D01*
X114312340Y-113504943D01*
X114246236Y-113460774D01*
X114172786Y-113430350D01*
X114094811Y-113414840D01*
X114015309Y-113414840D01*
X113937334Y-113430350D01*
X113863884Y-113460774D01*
X113797780Y-113504943D01*
X113741563Y-113561160D01*
X113697394Y-113627264D01*
X113666970Y-113700714D01*
X113651460Y-113778689D01*
X113251100Y-113778689D01*
X113259538Y-113736271D01*
X113259538Y-113656769D01*
X113244028Y-113578794D01*
X113213604Y-113505344D01*
X113169435Y-113439240D01*
X113129656Y-113399461D01*
X113151897Y-113377220D01*
X113196066Y-113311116D01*
X113226490Y-113237666D01*
X113242000Y-113159691D01*
X113242000Y-113080189D01*
X113226490Y-113002214D01*
X113196066Y-112928764D01*
X113151897Y-112862660D01*
X113095680Y-112806443D01*
X113029576Y-112762274D01*
X112956126Y-112731850D01*
X112884888Y-112717680D01*
X112918111Y-112717680D01*
X112996086Y-112702170D01*
X113069536Y-112671746D01*
X113135640Y-112627577D01*
X113191857Y-112571360D01*
X113236026Y-112505256D01*
X113260906Y-112445189D01*
X119549340Y-112445189D01*
X119549340Y-112524691D01*
X119564850Y-112602666D01*
X119595274Y-112676116D01*
X119639443Y-112742220D01*
X119695660Y-112798437D01*
X119761764Y-112842606D01*
X119835214Y-112873030D01*
X119913189Y-112888540D01*
X119992691Y-112888540D01*
X120070666Y-112873030D01*
X120144116Y-112842606D01*
X120210220Y-112798437D01*
X120266437Y-112742220D01*
X120310606Y-112676116D01*
X120341030Y-112602666D01*
X120356540Y-112524691D01*
X120356540Y-112445189D01*
X120341030Y-112367214D01*
X120310606Y-112293764D01*
X120266437Y-112227660D01*
X120210220Y-112171443D01*
X120144116Y-112127274D01*
X120070666Y-112096850D01*
X119992691Y-112081340D01*
X119913189Y-112081340D01*
X119835214Y-112096850D01*
X119761764Y-112127274D01*
X119695660Y-112171443D01*
X119639443Y-112227660D01*
X119595274Y-112293764D01*
X119564850Y-112367214D01*
X119549340Y-112445189D01*
X113260906Y-112445189D01*
X113266450Y-112431806D01*
X113281960Y-112353831D01*
X113281960Y-112274329D01*
X113266450Y-112196354D01*
X113236026Y-112122904D01*
X113191857Y-112056800D01*
X113164747Y-112029690D01*
X113188137Y-112006300D01*
X113232306Y-111940196D01*
X113262730Y-111866746D01*
X113278240Y-111788771D01*
X113278240Y-111709269D01*
X113262730Y-111631294D01*
X113232306Y-111557844D01*
X113188137Y-111491740D01*
X113131920Y-111435523D01*
X113065816Y-111391354D01*
X112992366Y-111360930D01*
X112914391Y-111345420D01*
X112834889Y-111345420D01*
X112756914Y-111360930D01*
X112739797Y-111368020D01*
X112508200Y-111368020D01*
X112508200Y-110986360D01*
X118049530Y-110986360D01*
X118068240Y-110988203D01*
X118086950Y-110986360D01*
X118086953Y-110986360D01*
X118142929Y-110980847D01*
X118214748Y-110959061D01*
X118280936Y-110923682D01*
X118338951Y-110876071D01*
X118350885Y-110861529D01*
X118722380Y-110490036D01*
X118739496Y-110482946D01*
X118805600Y-110438777D01*
X118861817Y-110382560D01*
X118905986Y-110316456D01*
X118936410Y-110243006D01*
X118951920Y-110165031D01*
X118951920Y-110126169D01*
X119092140Y-110126169D01*
X119092140Y-110205671D01*
X119107650Y-110283646D01*
X119138074Y-110357096D01*
X119182243Y-110423200D01*
X119238460Y-110479417D01*
X119304564Y-110523586D01*
X119378014Y-110554010D01*
X119455989Y-110569520D01*
X119535491Y-110569520D01*
X119613466Y-110554010D01*
X119686916Y-110523586D01*
X119753020Y-110479417D01*
X119809237Y-110423200D01*
X119853406Y-110357096D01*
X119883830Y-110283646D01*
X119899340Y-110205671D01*
X119899340Y-110126169D01*
X119883830Y-110048194D01*
X119882462Y-110044889D01*
X120331660Y-110044889D01*
X120331660Y-110124391D01*
X120347170Y-110202366D01*
X120377594Y-110275816D01*
X120421763Y-110341920D01*
X120477980Y-110398137D01*
X120544084Y-110442306D01*
X120617534Y-110472730D01*
X120695509Y-110488240D01*
X120775011Y-110488240D01*
X120852986Y-110472730D01*
X120926436Y-110442306D01*
X120992540Y-110398137D01*
X121048757Y-110341920D01*
X121092926Y-110275816D01*
X121123350Y-110202366D01*
X121138860Y-110124391D01*
X121138860Y-110044889D01*
X121138355Y-110042349D01*
X121911540Y-110042349D01*
X121911540Y-110121851D01*
X121927050Y-110199826D01*
X121957474Y-110273276D01*
X122001643Y-110339380D01*
X122057860Y-110395597D01*
X122123964Y-110439766D01*
X122197414Y-110470190D01*
X122275389Y-110485700D01*
X122354891Y-110485700D01*
X122432866Y-110470190D01*
X122506316Y-110439766D01*
X122572420Y-110395597D01*
X122628637Y-110339380D01*
X122672806Y-110273276D01*
X122703230Y-110199826D01*
X122718740Y-110121851D01*
X122718740Y-110042349D01*
X122703230Y-109964374D01*
X122672806Y-109890924D01*
X122628637Y-109824820D01*
X122572420Y-109768603D01*
X122506316Y-109724434D01*
X122432866Y-109694010D01*
X122354891Y-109678500D01*
X122275389Y-109678500D01*
X122197414Y-109694010D01*
X122123964Y-109724434D01*
X122057860Y-109768603D01*
X122001643Y-109824820D01*
X121957474Y-109890924D01*
X121927050Y-109964374D01*
X121911540Y-110042349D01*
X121138355Y-110042349D01*
X121123350Y-109966914D01*
X121092926Y-109893464D01*
X121048757Y-109827360D01*
X120992540Y-109771143D01*
X120926436Y-109726974D01*
X120852986Y-109696550D01*
X120775011Y-109681040D01*
X120695509Y-109681040D01*
X120617534Y-109696550D01*
X120544084Y-109726974D01*
X120477980Y-109771143D01*
X120421763Y-109827360D01*
X120377594Y-109893464D01*
X120347170Y-109966914D01*
X120331660Y-110044889D01*
X119882462Y-110044889D01*
X119853406Y-109974744D01*
X119809237Y-109908640D01*
X119753020Y-109852423D01*
X119686916Y-109808254D01*
X119613466Y-109777830D01*
X119535491Y-109762320D01*
X119455989Y-109762320D01*
X119378014Y-109777830D01*
X119304564Y-109808254D01*
X119238460Y-109852423D01*
X119182243Y-109908640D01*
X119138074Y-109974744D01*
X119107650Y-110048194D01*
X119092140Y-110126169D01*
X118951920Y-110126169D01*
X118951920Y-110085529D01*
X118936410Y-110007554D01*
X118905986Y-109934104D01*
X118861817Y-109868000D01*
X118805600Y-109811783D01*
X118739496Y-109767614D01*
X118666046Y-109737190D01*
X118588071Y-109721680D01*
X118508569Y-109721680D01*
X118430594Y-109737190D01*
X118357144Y-109767614D01*
X118291040Y-109811783D01*
X118234823Y-109868000D01*
X118190654Y-109934104D01*
X118183564Y-109951220D01*
X117910426Y-110224360D01*
X112974115Y-110224360D01*
X112991540Y-110212717D01*
X113000237Y-110204020D01*
X117494502Y-110204020D01*
X117509460Y-110205493D01*
X117524418Y-110204020D01*
X117524426Y-110204020D01*
X117569211Y-110199609D01*
X117626666Y-110182180D01*
X117679617Y-110153878D01*
X117726028Y-110115788D01*
X117735572Y-110104159D01*
X118542493Y-109297240D01*
X123837349Y-109297240D01*
X124318122Y-109778014D01*
X124303071Y-109775020D01*
X124223569Y-109775020D01*
X124145594Y-109790530D01*
X124072144Y-109820954D01*
X124006040Y-109865123D01*
X123949823Y-109921340D01*
X123905654Y-109987444D01*
X123875230Y-110060894D01*
X123859720Y-110138869D01*
X123859720Y-110218371D01*
X123875230Y-110296346D01*
X123905654Y-110369796D01*
X123949823Y-110435900D01*
X124006040Y-110492117D01*
X124072144Y-110536286D01*
X124145594Y-110566710D01*
X124223569Y-110582220D01*
X124303071Y-110582220D01*
X124381046Y-110566710D01*
X124448740Y-110538670D01*
X124448741Y-112262167D01*
X124225709Y-112485200D01*
X124213409Y-112485200D01*
X124135434Y-112500710D01*
X124061984Y-112531134D01*
X123995880Y-112575303D01*
X123939663Y-112631520D01*
X123895494Y-112697624D01*
X123865070Y-112771074D01*
X123849560Y-112849049D01*
X123849560Y-112928551D01*
X123865070Y-113006526D01*
X123895494Y-113079976D01*
X123939663Y-113146080D01*
X123995880Y-113202297D01*
X124061984Y-113246466D01*
X124135434Y-113276890D01*
X124213409Y-113292400D01*
X124218650Y-113292400D01*
X124215534Y-113297064D01*
X124185110Y-113370514D01*
X124169600Y-113448489D01*
X124169600Y-113527991D01*
X124185110Y-113605966D01*
X124215534Y-113679416D01*
X124259703Y-113745520D01*
X124315920Y-113801737D01*
X124382024Y-113845906D01*
X124455474Y-113876330D01*
X124533449Y-113891840D01*
X124612951Y-113891840D01*
X124690926Y-113876330D01*
X124764376Y-113845906D01*
X124830480Y-113801737D01*
X124886697Y-113745520D01*
X124930866Y-113679416D01*
X124961290Y-113605966D01*
X124976800Y-113527991D01*
X124976800Y-113448489D01*
X124961290Y-113370514D01*
X124930866Y-113297064D01*
X124886697Y-113230960D01*
X124830480Y-113174743D01*
X124764376Y-113130574D01*
X124690926Y-113100150D01*
X124612951Y-113084640D01*
X124607710Y-113084640D01*
X124610826Y-113079976D01*
X124641250Y-113006526D01*
X124656760Y-112928551D01*
X124656760Y-112916251D01*
X124958484Y-112614528D01*
X124970108Y-112604988D01*
X125008198Y-112558577D01*
X125036500Y-112505626D01*
X125053929Y-112448171D01*
X125058340Y-112403386D01*
X125058340Y-112403379D01*
X125059813Y-112388421D01*
X125058340Y-112373463D01*
X125058340Y-110048357D01*
X125067037Y-110039660D01*
X125111206Y-109973556D01*
X125141630Y-109900106D01*
X125157140Y-109822131D01*
X125157140Y-109742629D01*
X125141630Y-109664654D01*
X125111206Y-109591204D01*
X125067037Y-109525100D01*
X125010820Y-109468883D01*
X124944716Y-109424714D01*
X124871266Y-109394290D01*
X124793291Y-109378780D01*
X124780992Y-109378780D01*
X124395541Y-108993329D01*
X125327840Y-108993329D01*
X125327840Y-109072831D01*
X125343350Y-109150806D01*
X125373774Y-109224256D01*
X125417943Y-109290360D01*
X125474160Y-109346577D01*
X125540264Y-109390746D01*
X125613714Y-109421170D01*
X125691689Y-109436680D01*
X125771191Y-109436680D01*
X125849166Y-109421170D01*
X125922616Y-109390746D01*
X125988720Y-109346577D01*
X126044937Y-109290360D01*
X126089106Y-109224256D01*
X126119530Y-109150806D01*
X126135040Y-109072831D01*
X126135040Y-108993329D01*
X126119530Y-108915354D01*
X126089106Y-108841904D01*
X126044937Y-108775800D01*
X125988720Y-108719583D01*
X125922616Y-108675414D01*
X125849166Y-108644990D01*
X125771191Y-108629480D01*
X125691689Y-108629480D01*
X125613714Y-108644990D01*
X125540264Y-108675414D01*
X125474160Y-108719583D01*
X125417943Y-108775800D01*
X125373774Y-108841904D01*
X125343350Y-108915354D01*
X125327840Y-108993329D01*
X124395541Y-108993329D01*
X124189712Y-108787501D01*
X124180168Y-108775872D01*
X124133757Y-108737782D01*
X124080806Y-108709480D01*
X124023351Y-108692051D01*
X123978566Y-108687640D01*
X123978558Y-108687640D01*
X123963600Y-108686167D01*
X123948642Y-108687640D01*
X122952977Y-108687640D01*
X122965697Y-108674920D01*
X123009866Y-108608816D01*
X123040290Y-108535366D01*
X123055800Y-108457391D01*
X123055800Y-108377889D01*
X123040290Y-108299914D01*
X123009866Y-108226464D01*
X122965697Y-108160360D01*
X122909480Y-108104143D01*
X122843376Y-108059974D01*
X122769926Y-108029550D01*
X122691951Y-108014040D01*
X122612449Y-108014040D01*
X122534474Y-108029550D01*
X122461024Y-108059974D01*
X122394920Y-108104143D01*
X122338703Y-108160360D01*
X122294534Y-108226464D01*
X122264110Y-108299914D01*
X122248600Y-108377889D01*
X122248600Y-108457391D01*
X122264110Y-108535366D01*
X122294534Y-108608816D01*
X122338703Y-108674920D01*
X122351423Y-108687640D01*
X118431198Y-108687640D01*
X118416240Y-108686167D01*
X118401282Y-108687640D01*
X118401274Y-108687640D01*
X118356489Y-108692051D01*
X118299034Y-108709480D01*
X118246083Y-108737782D01*
X118229195Y-108751642D01*
X118211296Y-108766331D01*
X118211290Y-108766337D01*
X118199672Y-108775872D01*
X118190137Y-108787490D01*
X117383209Y-109594420D01*
X113000237Y-109594420D01*
X112991540Y-109585723D01*
X112925436Y-109541554D01*
X112851986Y-109511130D01*
X112774011Y-109495620D01*
X112694509Y-109495620D01*
X112616534Y-109511130D01*
X112543084Y-109541554D01*
X112508200Y-109564863D01*
X112508200Y-108378209D01*
X114948660Y-108378209D01*
X114948660Y-108457711D01*
X114964170Y-108535686D01*
X114994594Y-108609136D01*
X115038763Y-108675240D01*
X115094980Y-108731457D01*
X115161084Y-108775626D01*
X115234534Y-108806050D01*
X115312509Y-108821560D01*
X115392011Y-108821560D01*
X115469986Y-108806050D01*
X115543436Y-108775626D01*
X115609540Y-108731457D01*
X115665757Y-108675240D01*
X115709926Y-108609136D01*
X115740350Y-108535686D01*
X115755860Y-108457711D01*
X115755860Y-108378209D01*
X115740350Y-108300234D01*
X115709926Y-108226784D01*
X115665757Y-108160680D01*
X115609540Y-108104463D01*
X115543436Y-108060294D01*
X115469986Y-108029870D01*
X115392011Y-108014360D01*
X115312509Y-108014360D01*
X115234534Y-108029870D01*
X115161084Y-108060294D01*
X115094980Y-108104463D01*
X115038763Y-108160680D01*
X114994594Y-108226784D01*
X114964170Y-108300234D01*
X114948660Y-108378209D01*
X112508200Y-108378209D01*
X112508200Y-107834200D01*
X126833800Y-107834200D01*
X126833800Y-110234061D01*
G04 #@! TA.AperFunction,Conductor*
D15*
G36*
X126833800Y-110234061D02*
G01*
X126818956Y-110221879D01*
X126757180Y-110188859D01*
X126690150Y-110168526D01*
X126637903Y-110163380D01*
X126637895Y-110163380D01*
X126620440Y-110161661D01*
X126602985Y-110163380D01*
X126570852Y-110163380D01*
X126595640Y-110146817D01*
X126651857Y-110090600D01*
X126696026Y-110024496D01*
X126726450Y-109951046D01*
X126741960Y-109873071D01*
X126741960Y-109793569D01*
X126726450Y-109715594D01*
X126696026Y-109642144D01*
X126651857Y-109576040D01*
X126595640Y-109519823D01*
X126529536Y-109475654D01*
X126456086Y-109445230D01*
X126378111Y-109429720D01*
X126298609Y-109429720D01*
X126220634Y-109445230D01*
X126147184Y-109475654D01*
X126081080Y-109519823D01*
X126024863Y-109576040D01*
X125980694Y-109642144D01*
X125950270Y-109715594D01*
X125934760Y-109793569D01*
X125934760Y-109873071D01*
X125950270Y-109951046D01*
X125980694Y-110024496D01*
X126024863Y-110090600D01*
X126081080Y-110146817D01*
X126130130Y-110179591D01*
X126091380Y-110205483D01*
X126035163Y-110261700D01*
X125990994Y-110327804D01*
X125960570Y-110401254D01*
X125945060Y-110479229D01*
X125945060Y-110558731D01*
X125960570Y-110636706D01*
X125990994Y-110710156D01*
X126032535Y-110772328D01*
X126027543Y-110777320D01*
X125983374Y-110843424D01*
X125952950Y-110916874D01*
X125937440Y-110994849D01*
X125937440Y-111074351D01*
X125952950Y-111152326D01*
X125983374Y-111225776D01*
X126027543Y-111291880D01*
X126083760Y-111348097D01*
X126149864Y-111392266D01*
X126223314Y-111422690D01*
X126226963Y-111423416D01*
X126833800Y-112030254D01*
X126833800Y-113221540D01*
X126541546Y-113221540D01*
X126555140Y-113212457D01*
X126611357Y-113156240D01*
X126655526Y-113090136D01*
X126685950Y-113016686D01*
X126701460Y-112938711D01*
X126701460Y-112859209D01*
X126685950Y-112781234D01*
X126655526Y-112707784D01*
X126611357Y-112641680D01*
X126555140Y-112585463D01*
X126489036Y-112541294D01*
X126415586Y-112510870D01*
X126337611Y-112495360D01*
X126258109Y-112495360D01*
X126180134Y-112510870D01*
X126106684Y-112541294D01*
X126040580Y-112585463D01*
X125984363Y-112641680D01*
X125940194Y-112707784D01*
X125909770Y-112781234D01*
X125901620Y-112822207D01*
X125901620Y-111773017D01*
X125910317Y-111764320D01*
X125954486Y-111698216D01*
X125984910Y-111624766D01*
X126000420Y-111546791D01*
X126000420Y-111467289D01*
X125984910Y-111389314D01*
X125954486Y-111315864D01*
X125910317Y-111249760D01*
X125854100Y-111193543D01*
X125787996Y-111149374D01*
X125714546Y-111118950D01*
X125636571Y-111103440D01*
X125557069Y-111103440D01*
X125479094Y-111118950D01*
X125405644Y-111149374D01*
X125339540Y-111193543D01*
X125283323Y-111249760D01*
X125239154Y-111315864D01*
X125208730Y-111389314D01*
X125193220Y-111467289D01*
X125193220Y-111546791D01*
X125208730Y-111624766D01*
X125239154Y-111698216D01*
X125283323Y-111764320D01*
X125292020Y-111773017D01*
X125292021Y-113112592D01*
X125290547Y-113127560D01*
X125296431Y-113187311D01*
X125313860Y-113244765D01*
X125320200Y-113256626D01*
X125342163Y-113297717D01*
X125380253Y-113344128D01*
X125391876Y-113353667D01*
X125700687Y-113662478D01*
X125716279Y-113713880D01*
X125749299Y-113775656D01*
X125793737Y-113829803D01*
X125847884Y-113874241D01*
X125909660Y-113907261D01*
X125976690Y-113927594D01*
X126028937Y-113932740D01*
X126433546Y-113932740D01*
X126407610Y-113995354D01*
X126392100Y-114073329D01*
X126392100Y-114152831D01*
X126407610Y-114230806D01*
X126438034Y-114304256D01*
X126482203Y-114370360D01*
X126538420Y-114426577D01*
X126604524Y-114470746D01*
X126677974Y-114501170D01*
X126755949Y-114516680D01*
X126833800Y-114516680D01*
X126833800Y-118349800D01*
X112508200Y-118349800D01*
X112508200Y-115658289D01*
X112912320Y-115658289D01*
X112912320Y-115737791D01*
X112927830Y-115815766D01*
X112958254Y-115889216D01*
X113002423Y-115955320D01*
X113058640Y-116011537D01*
X113124744Y-116055706D01*
X113198194Y-116086130D01*
X113276169Y-116101640D01*
X113355671Y-116101640D01*
X113433646Y-116086130D01*
X113507096Y-116055706D01*
X113573200Y-116011537D01*
X113629417Y-115955320D01*
X113673586Y-115889216D01*
X113682065Y-115868746D01*
X113721243Y-115927380D01*
X113777460Y-115983597D01*
X113804113Y-116001406D01*
X113793760Y-116008323D01*
X113737543Y-116064540D01*
X113693374Y-116130644D01*
X113662950Y-116204094D01*
X113647440Y-116282069D01*
X113647440Y-116361571D01*
X113662950Y-116439546D01*
X113693374Y-116512996D01*
X113737543Y-116579100D01*
X113793760Y-116635317D01*
X113859864Y-116679486D01*
X113933314Y-116709910D01*
X114011289Y-116725420D01*
X114090791Y-116725420D01*
X114168766Y-116709910D01*
X114242216Y-116679486D01*
X114308320Y-116635317D01*
X114364537Y-116579100D01*
X114408706Y-116512996D01*
X114439130Y-116439546D01*
X114454640Y-116361571D01*
X114454640Y-116282069D01*
X114451820Y-116267889D01*
X114837640Y-116267889D01*
X114837640Y-116347391D01*
X114853150Y-116425366D01*
X114883574Y-116498816D01*
X114927743Y-116564920D01*
X114983960Y-116621137D01*
X115050064Y-116665306D01*
X115123514Y-116695730D01*
X115201489Y-116711240D01*
X115280991Y-116711240D01*
X115358966Y-116695730D01*
X115432416Y-116665306D01*
X115498520Y-116621137D01*
X115554737Y-116564920D01*
X115598906Y-116498816D01*
X115629330Y-116425366D01*
X115632619Y-116408829D01*
X116688060Y-116408829D01*
X116688060Y-116488331D01*
X116703570Y-116566306D01*
X116733994Y-116639756D01*
X116778163Y-116705860D01*
X116834380Y-116762077D01*
X116900484Y-116806246D01*
X116973934Y-116836670D01*
X117051909Y-116852180D01*
X117131411Y-116852180D01*
X117209386Y-116836670D01*
X117282836Y-116806246D01*
X117348940Y-116762077D01*
X117405157Y-116705860D01*
X117449326Y-116639756D01*
X117479750Y-116566306D01*
X117495260Y-116488331D01*
X117495260Y-116408829D01*
X117479750Y-116330854D01*
X117449326Y-116257404D01*
X117405157Y-116191300D01*
X117348940Y-116135083D01*
X117282836Y-116090914D01*
X117209386Y-116060490D01*
X117131411Y-116044980D01*
X117051909Y-116044980D01*
X116973934Y-116060490D01*
X116900484Y-116090914D01*
X116834380Y-116135083D01*
X116778163Y-116191300D01*
X116733994Y-116257404D01*
X116703570Y-116330854D01*
X116688060Y-116408829D01*
X115632619Y-116408829D01*
X115644840Y-116347391D01*
X115644840Y-116267889D01*
X115629330Y-116189914D01*
X115598906Y-116116464D01*
X115554737Y-116050360D01*
X115498520Y-115994143D01*
X115478654Y-115980869D01*
X118670500Y-115980869D01*
X118670500Y-116060371D01*
X118686010Y-116138346D01*
X118716434Y-116211796D01*
X118760603Y-116277900D01*
X118816820Y-116334117D01*
X118882924Y-116378286D01*
X118956374Y-116408710D01*
X119034349Y-116424220D01*
X119113851Y-116424220D01*
X119191826Y-116408710D01*
X119265276Y-116378286D01*
X119331380Y-116334117D01*
X119387597Y-116277900D01*
X119431766Y-116211796D01*
X119462190Y-116138346D01*
X119477700Y-116060371D01*
X119477700Y-115980869D01*
X119462190Y-115902894D01*
X119431766Y-115829444D01*
X119387597Y-115763340D01*
X119331380Y-115707123D01*
X119265276Y-115662954D01*
X119191826Y-115632530D01*
X119113851Y-115617020D01*
X119034349Y-115617020D01*
X118956374Y-115632530D01*
X118882924Y-115662954D01*
X118816820Y-115707123D01*
X118760603Y-115763340D01*
X118716434Y-115829444D01*
X118686010Y-115902894D01*
X118670500Y-115980869D01*
X115478654Y-115980869D01*
X115432416Y-115949974D01*
X115358966Y-115919550D01*
X115280991Y-115904040D01*
X115201489Y-115904040D01*
X115123514Y-115919550D01*
X115050064Y-115949974D01*
X114983960Y-115994143D01*
X114927743Y-116050360D01*
X114883574Y-116116464D01*
X114853150Y-116189914D01*
X114837640Y-116267889D01*
X114451820Y-116267889D01*
X114439130Y-116204094D01*
X114408706Y-116130644D01*
X114364537Y-116064540D01*
X114308320Y-116008323D01*
X114281667Y-115990514D01*
X114292020Y-115983597D01*
X114348237Y-115927380D01*
X114392406Y-115861276D01*
X114422830Y-115787826D01*
X114438340Y-115709851D01*
X114438340Y-115630349D01*
X114422830Y-115552374D01*
X114392406Y-115478924D01*
X114348237Y-115412820D01*
X114292020Y-115356603D01*
X114225916Y-115312434D01*
X114152466Y-115282010D01*
X114074491Y-115266500D01*
X113994989Y-115266500D01*
X113917014Y-115282010D01*
X113843564Y-115312434D01*
X113777460Y-115356603D01*
X113721243Y-115412820D01*
X113677074Y-115478924D01*
X113668595Y-115499394D01*
X113629417Y-115440760D01*
X113616187Y-115427530D01*
X113634497Y-115409220D01*
X113678666Y-115343116D01*
X113709090Y-115269666D01*
X113724600Y-115191691D01*
X113724600Y-115112189D01*
X113709090Y-115034214D01*
X113678666Y-114960764D01*
X113634497Y-114894660D01*
X113578280Y-114838443D01*
X113512176Y-114794274D01*
X113438726Y-114763850D01*
X113360751Y-114748340D01*
X113281249Y-114748340D01*
X113203274Y-114763850D01*
X113129824Y-114794274D01*
X113063720Y-114838443D01*
X113007503Y-114894660D01*
X112963334Y-114960764D01*
X112932910Y-115034214D01*
X112917400Y-115112189D01*
X112917400Y-115191691D01*
X112932910Y-115269666D01*
X112963334Y-115343116D01*
X113007503Y-115409220D01*
X113020733Y-115422450D01*
X113002423Y-115440760D01*
X112958254Y-115506864D01*
X112927830Y-115580314D01*
X112912320Y-115658289D01*
X112508200Y-115658289D01*
X112508200Y-114415049D01*
X114928060Y-114415049D01*
X114928060Y-114494551D01*
X114943570Y-114572526D01*
X114973994Y-114645976D01*
X115013299Y-114704800D01*
X114973994Y-114763624D01*
X114943570Y-114837074D01*
X114928060Y-114915049D01*
X114928060Y-114994551D01*
X114943570Y-115072526D01*
X114973994Y-115145976D01*
X115018163Y-115212080D01*
X115074380Y-115268297D01*
X115140484Y-115312466D01*
X115213934Y-115342890D01*
X115291909Y-115358400D01*
X115371411Y-115358400D01*
X115449386Y-115342890D01*
X115522836Y-115312466D01*
X115588940Y-115268297D01*
X115645157Y-115212080D01*
X115689326Y-115145976D01*
X115719750Y-115072526D01*
X115735260Y-114994551D01*
X115735260Y-114915049D01*
X115719750Y-114837074D01*
X115689326Y-114763624D01*
X115650021Y-114704800D01*
X115689326Y-114645976D01*
X115719750Y-114572526D01*
X115735260Y-114494551D01*
X115735260Y-114415049D01*
X115719750Y-114337074D01*
X115689326Y-114263624D01*
X115645157Y-114197520D01*
X115588940Y-114141303D01*
X115522836Y-114097134D01*
X115449386Y-114066710D01*
X115371411Y-114051200D01*
X115291909Y-114051200D01*
X115213934Y-114066710D01*
X115140484Y-114097134D01*
X115074380Y-114141303D01*
X115018163Y-114197520D01*
X114973994Y-114263624D01*
X114943570Y-114337074D01*
X114928060Y-114415049D01*
X112508200Y-114415049D01*
X112508200Y-114026720D01*
X112623656Y-114026720D01*
X112664762Y-114054186D01*
X112738212Y-114084610D01*
X112816187Y-114100120D01*
X112895689Y-114100120D01*
X112973664Y-114084610D01*
X113047114Y-114054186D01*
X113113218Y-114010017D01*
X113169435Y-113953800D01*
X113213604Y-113887696D01*
X113244028Y-113814246D01*
X113251100Y-113778689D01*
X113651460Y-113778689D01*
X113651460Y-113858191D01*
X113666970Y-113936166D01*
X113697394Y-114009616D01*
X113741563Y-114075720D01*
X113797780Y-114131937D01*
X113863884Y-114176106D01*
X113937334Y-114206530D01*
X114015309Y-114222040D01*
X114094811Y-114222040D01*
X114172786Y-114206530D01*
X114246236Y-114176106D01*
X114312340Y-114131937D01*
X114368557Y-114075720D01*
X114412726Y-114009616D01*
X114443150Y-113936166D01*
X114458660Y-113858191D01*
X114458660Y-113778689D01*
X114451587Y-113743129D01*
X117664660Y-113743129D01*
X117664660Y-113822631D01*
X117680170Y-113900606D01*
X117710594Y-113974056D01*
X117754763Y-114040160D01*
X117810980Y-114096377D01*
X117877084Y-114140546D01*
X117950534Y-114170970D01*
X118028509Y-114186480D01*
X118108011Y-114186480D01*
X118185986Y-114170970D01*
X118259436Y-114140546D01*
X118325540Y-114096377D01*
X118381757Y-114040160D01*
X118425926Y-113974056D01*
X118456350Y-113900606D01*
X118471860Y-113822631D01*
X118471860Y-113750749D01*
X118543500Y-113750749D01*
X118543500Y-113830251D01*
X118559010Y-113908226D01*
X118589434Y-113981676D01*
X118633603Y-114047780D01*
X118689820Y-114103997D01*
X118755924Y-114148166D01*
X118829374Y-114178590D01*
X118907349Y-114194100D01*
X118986851Y-114194100D01*
X119064826Y-114178590D01*
X119138276Y-114148166D01*
X119204380Y-114103997D01*
X119260597Y-114047780D01*
X119304766Y-113981676D01*
X119335190Y-113908226D01*
X119350700Y-113830251D01*
X119350700Y-113758369D01*
X119567120Y-113758369D01*
X119567120Y-113837871D01*
X119582630Y-113915846D01*
X119613054Y-113989296D01*
X119657223Y-114055400D01*
X119665920Y-114064097D01*
X119665921Y-114547692D01*
X119664447Y-114562660D01*
X119670331Y-114622411D01*
X119687760Y-114679865D01*
X119696611Y-114696424D01*
X119716063Y-114732817D01*
X119754153Y-114779228D01*
X119765777Y-114788768D01*
X120466997Y-115489989D01*
X120476538Y-115501614D01*
X120522949Y-115539704D01*
X120575900Y-115568006D01*
X120633354Y-115585435D01*
X120638995Y-115585991D01*
X120678140Y-115589846D01*
X120678147Y-115589846D01*
X120693105Y-115591319D01*
X120708063Y-115589846D01*
X120894026Y-115589846D01*
X120949647Y-115645467D01*
X120949646Y-117135402D01*
X120743369Y-117341680D01*
X120731069Y-117341680D01*
X120657235Y-117356366D01*
X120671500Y-117284651D01*
X120671500Y-117205149D01*
X120655990Y-117127174D01*
X120625566Y-117053724D01*
X120581397Y-116987620D01*
X120525180Y-116931403D01*
X120459076Y-116887234D01*
X120385626Y-116856810D01*
X120307651Y-116841300D01*
X120228149Y-116841300D01*
X120150174Y-116856810D01*
X120076724Y-116887234D01*
X120010620Y-116931403D01*
X119954403Y-116987620D01*
X119910234Y-117053724D01*
X119879810Y-117127174D01*
X119864300Y-117205149D01*
X119864300Y-117284651D01*
X119879810Y-117362626D01*
X119910234Y-117436076D01*
X119954403Y-117502180D01*
X120010620Y-117558397D01*
X120076724Y-117602566D01*
X120150174Y-117632990D01*
X120228149Y-117648500D01*
X120307651Y-117648500D01*
X120381485Y-117633814D01*
X120367220Y-117705529D01*
X120367220Y-117785031D01*
X120382730Y-117863006D01*
X120413154Y-117936456D01*
X120457323Y-118002560D01*
X120513540Y-118058777D01*
X120579644Y-118102946D01*
X120653094Y-118133370D01*
X120731069Y-118148880D01*
X120810571Y-118148880D01*
X120888546Y-118133370D01*
X120961996Y-118102946D01*
X121028100Y-118058777D01*
X121084317Y-118002560D01*
X121128486Y-117936456D01*
X121158910Y-117863006D01*
X121174420Y-117785031D01*
X121174420Y-117772731D01*
X121451081Y-117496071D01*
X121455163Y-117502180D01*
X121511380Y-117558397D01*
X121577484Y-117602566D01*
X121650934Y-117632990D01*
X121728909Y-117648500D01*
X121808411Y-117648500D01*
X121879126Y-117634434D01*
X121865060Y-117705149D01*
X121865060Y-117784651D01*
X121880570Y-117862626D01*
X121910994Y-117936076D01*
X121955163Y-118002180D01*
X122011380Y-118058397D01*
X122077484Y-118102566D01*
X122150934Y-118132990D01*
X122228909Y-118148500D01*
X122308411Y-118148500D01*
X122386386Y-118132990D01*
X122459836Y-118102566D01*
X122525940Y-118058397D01*
X122582157Y-118002180D01*
X122626326Y-117936076D01*
X122656750Y-117862626D01*
X122672260Y-117784651D01*
X122672260Y-117705149D01*
X122656750Y-117627174D01*
X122632393Y-117568369D01*
X123173920Y-117568369D01*
X123173920Y-117647871D01*
X123189430Y-117725846D01*
X123219854Y-117799296D01*
X123264023Y-117865400D01*
X123320240Y-117921617D01*
X123386344Y-117965786D01*
X123459794Y-117996210D01*
X123537769Y-118011720D01*
X123617271Y-118011720D01*
X123695246Y-117996210D01*
X123768696Y-117965786D01*
X123834800Y-117921617D01*
X123891017Y-117865400D01*
X123935186Y-117799296D01*
X123965610Y-117725846D01*
X123981120Y-117647871D01*
X123981120Y-117568369D01*
X123965610Y-117490394D01*
X123935186Y-117416944D01*
X123891017Y-117350840D01*
X123834800Y-117294623D01*
X123768696Y-117250454D01*
X123695246Y-117220030D01*
X123617271Y-117204520D01*
X123537769Y-117204520D01*
X123459794Y-117220030D01*
X123386344Y-117250454D01*
X123320240Y-117294623D01*
X123264023Y-117350840D01*
X123219854Y-117416944D01*
X123189430Y-117490394D01*
X123173920Y-117568369D01*
X122632393Y-117568369D01*
X122626326Y-117553724D01*
X122587401Y-117495469D01*
X122627086Y-117436076D01*
X122657510Y-117362626D01*
X122673020Y-117284651D01*
X122673020Y-117205149D01*
X122657510Y-117127174D01*
X122627086Y-117053724D01*
X122582917Y-116987620D01*
X122526700Y-116931403D01*
X122460596Y-116887234D01*
X122387146Y-116856810D01*
X122309171Y-116841300D01*
X122229669Y-116841300D01*
X122151694Y-116856810D01*
X122078244Y-116887234D01*
X122019040Y-116926793D01*
X121959836Y-116887234D01*
X121886386Y-116856810D01*
X121808411Y-116841300D01*
X121728909Y-116841300D01*
X121650934Y-116856810D01*
X121577484Y-116887234D01*
X121559246Y-116899420D01*
X121559246Y-116110409D01*
X122930080Y-116110409D01*
X122930080Y-116189911D01*
X122945590Y-116267886D01*
X122976014Y-116341336D01*
X123020183Y-116407440D01*
X123076400Y-116463657D01*
X123142504Y-116507826D01*
X123215954Y-116538250D01*
X123293929Y-116553760D01*
X123373431Y-116553760D01*
X123451406Y-116538250D01*
X123524856Y-116507826D01*
X123590960Y-116463657D01*
X123647177Y-116407440D01*
X123691346Y-116341336D01*
X123721770Y-116267886D01*
X123737280Y-116189911D01*
X123737280Y-116110409D01*
X123721770Y-116032434D01*
X123691346Y-115958984D01*
X123647177Y-115892880D01*
X123590960Y-115836663D01*
X123524856Y-115792494D01*
X123451406Y-115762070D01*
X123373431Y-115746560D01*
X123293929Y-115746560D01*
X123215954Y-115762070D01*
X123142504Y-115792494D01*
X123076400Y-115836663D01*
X123020183Y-115892880D01*
X122976014Y-115958984D01*
X122945590Y-116032434D01*
X122930080Y-116110409D01*
X121559246Y-116110409D01*
X121559246Y-115694409D01*
X123640720Y-115694409D01*
X123640720Y-115773911D01*
X123656230Y-115851886D01*
X123686654Y-115925336D01*
X123730823Y-115991440D01*
X123787040Y-116047657D01*
X123853144Y-116091826D01*
X123926594Y-116122250D01*
X124004569Y-116137760D01*
X124084071Y-116137760D01*
X124162046Y-116122250D01*
X124235496Y-116091826D01*
X124301600Y-116047657D01*
X124357817Y-115991440D01*
X124401986Y-115925336D01*
X124432410Y-115851886D01*
X124447920Y-115773911D01*
X124447920Y-115694409D01*
X124432410Y-115616434D01*
X124401986Y-115542984D01*
X124357817Y-115476880D01*
X124301600Y-115420663D01*
X124235496Y-115376494D01*
X124162046Y-115346070D01*
X124084071Y-115330560D01*
X124004569Y-115330560D01*
X123926594Y-115346070D01*
X123853144Y-115376494D01*
X123787040Y-115420663D01*
X123730823Y-115476880D01*
X123686654Y-115542984D01*
X123656230Y-115616434D01*
X123640720Y-115694409D01*
X121559246Y-115694409D01*
X121559246Y-115534172D01*
X121560719Y-115519214D01*
X121559246Y-115504256D01*
X121559246Y-115504248D01*
X121554835Y-115459463D01*
X121537406Y-115402008D01*
X121509104Y-115349057D01*
X121490259Y-115326095D01*
X121483752Y-115318165D01*
X121496100Y-115315810D01*
X121499490Y-115314787D01*
X121592709Y-115285931D01*
X121613945Y-115277004D01*
X121635211Y-115268412D01*
X121638332Y-115266753D01*
X121638336Y-115266751D01*
X121638339Y-115266749D01*
X121724175Y-115220337D01*
X121743198Y-115207506D01*
X121762463Y-115194899D01*
X121765207Y-115192661D01*
X121840396Y-115130459D01*
X121856613Y-115114128D01*
X121873012Y-115098069D01*
X121875270Y-115095341D01*
X121936946Y-115019720D01*
X121949664Y-115000577D01*
X121962653Y-114981608D01*
X121964337Y-114978493D01*
X122010149Y-114892332D01*
X122018911Y-114871072D01*
X122027961Y-114849957D01*
X122029009Y-114846575D01*
X122057214Y-114753157D01*
X122061683Y-114730585D01*
X122066457Y-114708125D01*
X122066828Y-114704603D01*
X122072688Y-114644829D01*
X124951920Y-114644829D01*
X124951920Y-114724331D01*
X124967430Y-114802306D01*
X124997854Y-114875756D01*
X125042023Y-114941860D01*
X125098240Y-114998077D01*
X125164344Y-115042246D01*
X125237794Y-115072670D01*
X125315769Y-115088180D01*
X125395271Y-115088180D01*
X125473246Y-115072670D01*
X125546696Y-115042246D01*
X125612800Y-114998077D01*
X125669017Y-114941860D01*
X125713186Y-114875756D01*
X125743610Y-114802306D01*
X125759120Y-114724331D01*
X125759120Y-114644829D01*
X125743610Y-114566854D01*
X125713186Y-114493404D01*
X125669017Y-114427300D01*
X125612800Y-114371083D01*
X125546696Y-114326914D01*
X125473246Y-114296490D01*
X125395271Y-114280980D01*
X125315769Y-114280980D01*
X125237794Y-114296490D01*
X125164344Y-114326914D01*
X125098240Y-114371083D01*
X125042023Y-114427300D01*
X124997854Y-114493404D01*
X124967430Y-114566854D01*
X124951920Y-114644829D01*
X122072688Y-114644829D01*
X122076350Y-114607486D01*
X122076350Y-114607485D01*
X122077560Y-114595199D01*
X122077560Y-113933629D01*
X122312860Y-113933629D01*
X122312860Y-114013131D01*
X122328370Y-114091106D01*
X122358794Y-114164556D01*
X122402963Y-114230660D01*
X122459180Y-114286877D01*
X122525284Y-114331046D01*
X122598734Y-114361470D01*
X122676709Y-114376980D01*
X122756211Y-114376980D01*
X122834186Y-114361470D01*
X122907636Y-114331046D01*
X122973740Y-114286877D01*
X123029957Y-114230660D01*
X123074126Y-114164556D01*
X123104550Y-114091106D01*
X123120060Y-114013131D01*
X123120060Y-114000832D01*
X123505610Y-113615283D01*
X123517228Y-113605748D01*
X123526763Y-113594130D01*
X123526769Y-113594124D01*
X123546747Y-113569780D01*
X123555318Y-113559337D01*
X123583620Y-113506386D01*
X123601049Y-113448931D01*
X123605460Y-113404146D01*
X123605460Y-113404138D01*
X123606933Y-113389180D01*
X123605460Y-113374222D01*
X123605460Y-110744317D01*
X123614157Y-110735620D01*
X123658326Y-110669516D01*
X123688750Y-110596066D01*
X123704260Y-110518091D01*
X123704260Y-110438589D01*
X123688750Y-110360614D01*
X123658326Y-110287164D01*
X123614157Y-110221060D01*
X123557940Y-110164843D01*
X123491836Y-110120674D01*
X123418386Y-110090250D01*
X123340411Y-110074740D01*
X123260909Y-110074740D01*
X123182934Y-110090250D01*
X123109484Y-110120674D01*
X123043380Y-110164843D01*
X122987163Y-110221060D01*
X122942994Y-110287164D01*
X122912570Y-110360614D01*
X122897060Y-110438589D01*
X122897060Y-110518091D01*
X122912570Y-110596066D01*
X122942994Y-110669516D01*
X122987163Y-110735620D01*
X122995860Y-110744317D01*
X122995861Y-113262926D01*
X122689008Y-113569780D01*
X122676709Y-113569780D01*
X122598734Y-113585290D01*
X122525284Y-113615714D01*
X122459180Y-113659883D01*
X122402963Y-113716100D01*
X122358794Y-113782204D01*
X122328370Y-113855654D01*
X122312860Y-113933629D01*
X122077560Y-113933629D01*
X122077560Y-111570281D01*
X122076301Y-111557496D01*
X122076301Y-111551013D01*
X122075931Y-111547492D01*
X122065054Y-111450517D01*
X122060269Y-111428007D01*
X122055810Y-111405486D01*
X122054763Y-111402103D01*
X122025257Y-111309088D01*
X122016200Y-111287958D01*
X122007443Y-111266711D01*
X122005759Y-111263596D01*
X121958749Y-111178084D01*
X121945732Y-111159074D01*
X121933042Y-111139973D01*
X121930785Y-111137244D01*
X121868060Y-111062492D01*
X121851641Y-111046414D01*
X121835443Y-111030102D01*
X121832699Y-111027864D01*
X121756649Y-110966718D01*
X121737400Y-110954122D01*
X121718360Y-110941279D01*
X121715234Y-110939617D01*
X121628755Y-110894407D01*
X121607429Y-110885791D01*
X121586255Y-110876890D01*
X121582866Y-110875866D01*
X121489254Y-110848314D01*
X121466651Y-110844002D01*
X121444159Y-110839386D01*
X121440637Y-110839040D01*
X121440635Y-110839040D01*
X121343453Y-110830196D01*
X121320469Y-110830357D01*
X121297486Y-110830196D01*
X121293961Y-110830541D01*
X121196913Y-110840741D01*
X121174402Y-110845362D01*
X121151820Y-110849670D01*
X121148430Y-110850693D01*
X121055211Y-110879549D01*
X121033987Y-110888471D01*
X121012709Y-110897068D01*
X121009582Y-110898730D01*
X120923745Y-110945143D01*
X120904698Y-110957990D01*
X120885457Y-110970581D01*
X120882713Y-110972819D01*
X120807524Y-111035021D01*
X120791307Y-111051352D01*
X120774908Y-111067411D01*
X120772650Y-111070139D01*
X120710974Y-111145760D01*
X120698244Y-111164921D01*
X120685267Y-111183873D01*
X120683583Y-111186987D01*
X120637771Y-111273148D01*
X120629010Y-111294404D01*
X120619958Y-111315523D01*
X120618911Y-111318905D01*
X120590706Y-111412323D01*
X120586237Y-111434895D01*
X120581463Y-111457355D01*
X120581092Y-111460877D01*
X120571585Y-111557844D01*
X120570360Y-111570282D01*
X120570361Y-114595199D01*
X120571619Y-114607974D01*
X120571619Y-114614467D01*
X120571989Y-114617988D01*
X120582866Y-114714963D01*
X120587651Y-114737473D01*
X120590383Y-114751271D01*
X120275520Y-114436409D01*
X120275520Y-114064097D01*
X120284217Y-114055400D01*
X120328386Y-113989296D01*
X120358810Y-113915846D01*
X120374320Y-113837871D01*
X120374320Y-113758369D01*
X120358810Y-113680394D01*
X120328386Y-113606944D01*
X120284217Y-113540840D01*
X120228000Y-113484623D01*
X120161896Y-113440454D01*
X120088446Y-113410030D01*
X120010471Y-113394520D01*
X119930969Y-113394520D01*
X119852994Y-113410030D01*
X119779544Y-113440454D01*
X119713440Y-113484623D01*
X119657223Y-113540840D01*
X119613054Y-113606944D01*
X119582630Y-113680394D01*
X119567120Y-113758369D01*
X119350700Y-113758369D01*
X119350700Y-113750749D01*
X119335190Y-113672774D01*
X119304766Y-113599324D01*
X119260597Y-113533220D01*
X119204380Y-113477003D01*
X119138276Y-113432834D01*
X119064826Y-113402410D01*
X118986851Y-113386900D01*
X118907349Y-113386900D01*
X118829374Y-113402410D01*
X118755924Y-113432834D01*
X118689820Y-113477003D01*
X118633603Y-113533220D01*
X118589434Y-113599324D01*
X118559010Y-113672774D01*
X118543500Y-113750749D01*
X118471860Y-113750749D01*
X118471860Y-113743129D01*
X118456350Y-113665154D01*
X118425926Y-113591704D01*
X118381757Y-113525600D01*
X118325540Y-113469383D01*
X118259436Y-113425214D01*
X118185986Y-113394790D01*
X118108011Y-113379280D01*
X118028509Y-113379280D01*
X117950534Y-113394790D01*
X117877084Y-113425214D01*
X117810980Y-113469383D01*
X117754763Y-113525600D01*
X117710594Y-113591704D01*
X117680170Y-113665154D01*
X117664660Y-113743129D01*
X114451587Y-113743129D01*
X114443150Y-113700714D01*
X114412726Y-113627264D01*
X114368557Y-113561160D01*
X114312340Y-113504943D01*
X114246236Y-113460774D01*
X114172786Y-113430350D01*
X114094811Y-113414840D01*
X114015309Y-113414840D01*
X113937334Y-113430350D01*
X113863884Y-113460774D01*
X113797780Y-113504943D01*
X113741563Y-113561160D01*
X113697394Y-113627264D01*
X113666970Y-113700714D01*
X113651460Y-113778689D01*
X113251100Y-113778689D01*
X113259538Y-113736271D01*
X113259538Y-113656769D01*
X113244028Y-113578794D01*
X113213604Y-113505344D01*
X113169435Y-113439240D01*
X113129656Y-113399461D01*
X113151897Y-113377220D01*
X113196066Y-113311116D01*
X113226490Y-113237666D01*
X113242000Y-113159691D01*
X113242000Y-113080189D01*
X113226490Y-113002214D01*
X113196066Y-112928764D01*
X113151897Y-112862660D01*
X113095680Y-112806443D01*
X113029576Y-112762274D01*
X112956126Y-112731850D01*
X112884888Y-112717680D01*
X112918111Y-112717680D01*
X112996086Y-112702170D01*
X113069536Y-112671746D01*
X113135640Y-112627577D01*
X113191857Y-112571360D01*
X113236026Y-112505256D01*
X113260906Y-112445189D01*
X119549340Y-112445189D01*
X119549340Y-112524691D01*
X119564850Y-112602666D01*
X119595274Y-112676116D01*
X119639443Y-112742220D01*
X119695660Y-112798437D01*
X119761764Y-112842606D01*
X119835214Y-112873030D01*
X119913189Y-112888540D01*
X119992691Y-112888540D01*
X120070666Y-112873030D01*
X120144116Y-112842606D01*
X120210220Y-112798437D01*
X120266437Y-112742220D01*
X120310606Y-112676116D01*
X120341030Y-112602666D01*
X120356540Y-112524691D01*
X120356540Y-112445189D01*
X120341030Y-112367214D01*
X120310606Y-112293764D01*
X120266437Y-112227660D01*
X120210220Y-112171443D01*
X120144116Y-112127274D01*
X120070666Y-112096850D01*
X119992691Y-112081340D01*
X119913189Y-112081340D01*
X119835214Y-112096850D01*
X119761764Y-112127274D01*
X119695660Y-112171443D01*
X119639443Y-112227660D01*
X119595274Y-112293764D01*
X119564850Y-112367214D01*
X119549340Y-112445189D01*
X113260906Y-112445189D01*
X113266450Y-112431806D01*
X113281960Y-112353831D01*
X113281960Y-112274329D01*
X113266450Y-112196354D01*
X113236026Y-112122904D01*
X113191857Y-112056800D01*
X113164747Y-112029690D01*
X113188137Y-112006300D01*
X113232306Y-111940196D01*
X113262730Y-111866746D01*
X113278240Y-111788771D01*
X113278240Y-111709269D01*
X113262730Y-111631294D01*
X113232306Y-111557844D01*
X113188137Y-111491740D01*
X113131920Y-111435523D01*
X113065816Y-111391354D01*
X112992366Y-111360930D01*
X112914391Y-111345420D01*
X112834889Y-111345420D01*
X112756914Y-111360930D01*
X112739797Y-111368020D01*
X112508200Y-111368020D01*
X112508200Y-110986360D01*
X118049530Y-110986360D01*
X118068240Y-110988203D01*
X118086950Y-110986360D01*
X118086953Y-110986360D01*
X118142929Y-110980847D01*
X118214748Y-110959061D01*
X118280936Y-110923682D01*
X118338951Y-110876071D01*
X118350885Y-110861529D01*
X118722380Y-110490036D01*
X118739496Y-110482946D01*
X118805600Y-110438777D01*
X118861817Y-110382560D01*
X118905986Y-110316456D01*
X118936410Y-110243006D01*
X118951920Y-110165031D01*
X118951920Y-110126169D01*
X119092140Y-110126169D01*
X119092140Y-110205671D01*
X119107650Y-110283646D01*
X119138074Y-110357096D01*
X119182243Y-110423200D01*
X119238460Y-110479417D01*
X119304564Y-110523586D01*
X119378014Y-110554010D01*
X119455989Y-110569520D01*
X119535491Y-110569520D01*
X119613466Y-110554010D01*
X119686916Y-110523586D01*
X119753020Y-110479417D01*
X119809237Y-110423200D01*
X119853406Y-110357096D01*
X119883830Y-110283646D01*
X119899340Y-110205671D01*
X119899340Y-110126169D01*
X119883830Y-110048194D01*
X119882462Y-110044889D01*
X120331660Y-110044889D01*
X120331660Y-110124391D01*
X120347170Y-110202366D01*
X120377594Y-110275816D01*
X120421763Y-110341920D01*
X120477980Y-110398137D01*
X120544084Y-110442306D01*
X120617534Y-110472730D01*
X120695509Y-110488240D01*
X120775011Y-110488240D01*
X120852986Y-110472730D01*
X120926436Y-110442306D01*
X120992540Y-110398137D01*
X121048757Y-110341920D01*
X121092926Y-110275816D01*
X121123350Y-110202366D01*
X121138860Y-110124391D01*
X121138860Y-110044889D01*
X121138355Y-110042349D01*
X121911540Y-110042349D01*
X121911540Y-110121851D01*
X121927050Y-110199826D01*
X121957474Y-110273276D01*
X122001643Y-110339380D01*
X122057860Y-110395597D01*
X122123964Y-110439766D01*
X122197414Y-110470190D01*
X122275389Y-110485700D01*
X122354891Y-110485700D01*
X122432866Y-110470190D01*
X122506316Y-110439766D01*
X122572420Y-110395597D01*
X122628637Y-110339380D01*
X122672806Y-110273276D01*
X122703230Y-110199826D01*
X122718740Y-110121851D01*
X122718740Y-110042349D01*
X122703230Y-109964374D01*
X122672806Y-109890924D01*
X122628637Y-109824820D01*
X122572420Y-109768603D01*
X122506316Y-109724434D01*
X122432866Y-109694010D01*
X122354891Y-109678500D01*
X122275389Y-109678500D01*
X122197414Y-109694010D01*
X122123964Y-109724434D01*
X122057860Y-109768603D01*
X122001643Y-109824820D01*
X121957474Y-109890924D01*
X121927050Y-109964374D01*
X121911540Y-110042349D01*
X121138355Y-110042349D01*
X121123350Y-109966914D01*
X121092926Y-109893464D01*
X121048757Y-109827360D01*
X120992540Y-109771143D01*
X120926436Y-109726974D01*
X120852986Y-109696550D01*
X120775011Y-109681040D01*
X120695509Y-109681040D01*
X120617534Y-109696550D01*
X120544084Y-109726974D01*
X120477980Y-109771143D01*
X120421763Y-109827360D01*
X120377594Y-109893464D01*
X120347170Y-109966914D01*
X120331660Y-110044889D01*
X119882462Y-110044889D01*
X119853406Y-109974744D01*
X119809237Y-109908640D01*
X119753020Y-109852423D01*
X119686916Y-109808254D01*
X119613466Y-109777830D01*
X119535491Y-109762320D01*
X119455989Y-109762320D01*
X119378014Y-109777830D01*
X119304564Y-109808254D01*
X119238460Y-109852423D01*
X119182243Y-109908640D01*
X119138074Y-109974744D01*
X119107650Y-110048194D01*
X119092140Y-110126169D01*
X118951920Y-110126169D01*
X118951920Y-110085529D01*
X118936410Y-110007554D01*
X118905986Y-109934104D01*
X118861817Y-109868000D01*
X118805600Y-109811783D01*
X118739496Y-109767614D01*
X118666046Y-109737190D01*
X118588071Y-109721680D01*
X118508569Y-109721680D01*
X118430594Y-109737190D01*
X118357144Y-109767614D01*
X118291040Y-109811783D01*
X118234823Y-109868000D01*
X118190654Y-109934104D01*
X118183564Y-109951220D01*
X117910426Y-110224360D01*
X112974115Y-110224360D01*
X112991540Y-110212717D01*
X113000237Y-110204020D01*
X117494502Y-110204020D01*
X117509460Y-110205493D01*
X117524418Y-110204020D01*
X117524426Y-110204020D01*
X117569211Y-110199609D01*
X117626666Y-110182180D01*
X117679617Y-110153878D01*
X117726028Y-110115788D01*
X117735572Y-110104159D01*
X118542493Y-109297240D01*
X123837349Y-109297240D01*
X124318122Y-109778014D01*
X124303071Y-109775020D01*
X124223569Y-109775020D01*
X124145594Y-109790530D01*
X124072144Y-109820954D01*
X124006040Y-109865123D01*
X123949823Y-109921340D01*
X123905654Y-109987444D01*
X123875230Y-110060894D01*
X123859720Y-110138869D01*
X123859720Y-110218371D01*
X123875230Y-110296346D01*
X123905654Y-110369796D01*
X123949823Y-110435900D01*
X124006040Y-110492117D01*
X124072144Y-110536286D01*
X124145594Y-110566710D01*
X124223569Y-110582220D01*
X124303071Y-110582220D01*
X124381046Y-110566710D01*
X124448740Y-110538670D01*
X124448741Y-112262167D01*
X124225709Y-112485200D01*
X124213409Y-112485200D01*
X124135434Y-112500710D01*
X124061984Y-112531134D01*
X123995880Y-112575303D01*
X123939663Y-112631520D01*
X123895494Y-112697624D01*
X123865070Y-112771074D01*
X123849560Y-112849049D01*
X123849560Y-112928551D01*
X123865070Y-113006526D01*
X123895494Y-113079976D01*
X123939663Y-113146080D01*
X123995880Y-113202297D01*
X124061984Y-113246466D01*
X124135434Y-113276890D01*
X124213409Y-113292400D01*
X124218650Y-113292400D01*
X124215534Y-113297064D01*
X124185110Y-113370514D01*
X124169600Y-113448489D01*
X124169600Y-113527991D01*
X124185110Y-113605966D01*
X124215534Y-113679416D01*
X124259703Y-113745520D01*
X124315920Y-113801737D01*
X124382024Y-113845906D01*
X124455474Y-113876330D01*
X124533449Y-113891840D01*
X124612951Y-113891840D01*
X124690926Y-113876330D01*
X124764376Y-113845906D01*
X124830480Y-113801737D01*
X124886697Y-113745520D01*
X124930866Y-113679416D01*
X124961290Y-113605966D01*
X124976800Y-113527991D01*
X124976800Y-113448489D01*
X124961290Y-113370514D01*
X124930866Y-113297064D01*
X124886697Y-113230960D01*
X124830480Y-113174743D01*
X124764376Y-113130574D01*
X124690926Y-113100150D01*
X124612951Y-113084640D01*
X124607710Y-113084640D01*
X124610826Y-113079976D01*
X124641250Y-113006526D01*
X124656760Y-112928551D01*
X124656760Y-112916251D01*
X124958484Y-112614528D01*
X124970108Y-112604988D01*
X125008198Y-112558577D01*
X125036500Y-112505626D01*
X125053929Y-112448171D01*
X125058340Y-112403386D01*
X125058340Y-112403379D01*
X125059813Y-112388421D01*
X125058340Y-112373463D01*
X125058340Y-110048357D01*
X125067037Y-110039660D01*
X125111206Y-109973556D01*
X125141630Y-109900106D01*
X125157140Y-109822131D01*
X125157140Y-109742629D01*
X125141630Y-109664654D01*
X125111206Y-109591204D01*
X125067037Y-109525100D01*
X125010820Y-109468883D01*
X124944716Y-109424714D01*
X124871266Y-109394290D01*
X124793291Y-109378780D01*
X124780992Y-109378780D01*
X124395541Y-108993329D01*
X125327840Y-108993329D01*
X125327840Y-109072831D01*
X125343350Y-109150806D01*
X125373774Y-109224256D01*
X125417943Y-109290360D01*
X125474160Y-109346577D01*
X125540264Y-109390746D01*
X125613714Y-109421170D01*
X125691689Y-109436680D01*
X125771191Y-109436680D01*
X125849166Y-109421170D01*
X125922616Y-109390746D01*
X125988720Y-109346577D01*
X126044937Y-109290360D01*
X126089106Y-109224256D01*
X126119530Y-109150806D01*
X126135040Y-109072831D01*
X126135040Y-108993329D01*
X126119530Y-108915354D01*
X126089106Y-108841904D01*
X126044937Y-108775800D01*
X125988720Y-108719583D01*
X125922616Y-108675414D01*
X125849166Y-108644990D01*
X125771191Y-108629480D01*
X125691689Y-108629480D01*
X125613714Y-108644990D01*
X125540264Y-108675414D01*
X125474160Y-108719583D01*
X125417943Y-108775800D01*
X125373774Y-108841904D01*
X125343350Y-108915354D01*
X125327840Y-108993329D01*
X124395541Y-108993329D01*
X124189712Y-108787501D01*
X124180168Y-108775872D01*
X124133757Y-108737782D01*
X124080806Y-108709480D01*
X124023351Y-108692051D01*
X123978566Y-108687640D01*
X123978558Y-108687640D01*
X123963600Y-108686167D01*
X123948642Y-108687640D01*
X122952977Y-108687640D01*
X122965697Y-108674920D01*
X123009866Y-108608816D01*
X123040290Y-108535366D01*
X123055800Y-108457391D01*
X123055800Y-108377889D01*
X123040290Y-108299914D01*
X123009866Y-108226464D01*
X122965697Y-108160360D01*
X122909480Y-108104143D01*
X122843376Y-108059974D01*
X122769926Y-108029550D01*
X122691951Y-108014040D01*
X122612449Y-108014040D01*
X122534474Y-108029550D01*
X122461024Y-108059974D01*
X122394920Y-108104143D01*
X122338703Y-108160360D01*
X122294534Y-108226464D01*
X122264110Y-108299914D01*
X122248600Y-108377889D01*
X122248600Y-108457391D01*
X122264110Y-108535366D01*
X122294534Y-108608816D01*
X122338703Y-108674920D01*
X122351423Y-108687640D01*
X118431198Y-108687640D01*
X118416240Y-108686167D01*
X118401282Y-108687640D01*
X118401274Y-108687640D01*
X118356489Y-108692051D01*
X118299034Y-108709480D01*
X118246083Y-108737782D01*
X118229195Y-108751642D01*
X118211296Y-108766331D01*
X118211290Y-108766337D01*
X118199672Y-108775872D01*
X118190137Y-108787490D01*
X117383209Y-109594420D01*
X113000237Y-109594420D01*
X112991540Y-109585723D01*
X112925436Y-109541554D01*
X112851986Y-109511130D01*
X112774011Y-109495620D01*
X112694509Y-109495620D01*
X112616534Y-109511130D01*
X112543084Y-109541554D01*
X112508200Y-109564863D01*
X112508200Y-108378209D01*
X114948660Y-108378209D01*
X114948660Y-108457711D01*
X114964170Y-108535686D01*
X114994594Y-108609136D01*
X115038763Y-108675240D01*
X115094980Y-108731457D01*
X115161084Y-108775626D01*
X115234534Y-108806050D01*
X115312509Y-108821560D01*
X115392011Y-108821560D01*
X115469986Y-108806050D01*
X115543436Y-108775626D01*
X115609540Y-108731457D01*
X115665757Y-108675240D01*
X115709926Y-108609136D01*
X115740350Y-108535686D01*
X115755860Y-108457711D01*
X115755860Y-108378209D01*
X115740350Y-108300234D01*
X115709926Y-108226784D01*
X115665757Y-108160680D01*
X115609540Y-108104463D01*
X115543436Y-108060294D01*
X115469986Y-108029870D01*
X115392011Y-108014360D01*
X115312509Y-108014360D01*
X115234534Y-108029870D01*
X115161084Y-108060294D01*
X115094980Y-108104463D01*
X115038763Y-108160680D01*
X114994594Y-108226784D01*
X114964170Y-108300234D01*
X114948660Y-108378209D01*
X112508200Y-108378209D01*
X112508200Y-107834200D01*
X126833800Y-107834200D01*
X126833800Y-110234061D01*
G37*
G04 #@! TD.AperFunction*
M02*
