M48
; DRILL file {KiCad (5.1.12)-1} date 03/07/24 16:39:07
; FORMAT={-:-/ absolute / metric / decimal}
; #@! TF.CreationDate,2024-03-07T16:39:07+08:00
; #@! TF.GenerationSoftware,Kicad,Pcbnew,(5.1.12)-1
; #@! TF.FileFunction,Plated,1,4,PTH
FMAT,2
METRIC
T1C0.150
%
G90
G05
T1
X97.955Y-108.088
X98.274Y-117.851
X98.402Y-109.238
X98.402Y-116.938
X98.497Y-111.323
X99.087Y-114.625
X99.137Y-108.503
X99.315Y-110.46
X99.442Y-112.466
X99.47Y-110.954
X99.547Y-109.368
X99.569Y-114.549
X99.696Y-111.958
X99.837Y-108.503
X99.849Y-116.2
X100.357Y-115.083
X100.537Y-108.503
X100.545Y-112.965
X100.555Y-109.369
X100.712Y-114.752
X101.055Y-114.039
X101.055Y-109.369
X101.22Y-108.504
X101.555Y-109.369
X101.555Y-114.039
X101.562Y-115.784
X101.713Y-111.72
X101.916Y-117.664
X101.932Y-108.58
X101.993Y-113.016
X102.043Y-116.546
X102.055Y-109.369
X102.055Y-114.039
X102.424Y-115.632
X102.555Y-109.369
X102.628Y-117.613
X102.643Y-108.58
X103.085Y-111.517
X103.136Y-110.374
X103.329Y-108.58
X103.339Y-117.613
X103.477Y-115.159
X104.04Y-108.504
X104.05Y-117.613
X104.144Y-110.445
X104.726Y-108.504
X104.737Y-117.673
X105.078Y-113.355
X105.513Y-115.337
X106.108Y-116.953
X106.148Y-117.673
X106.199Y-115.819
X106.377Y-109.698
X106.657Y-112.058
X106.794Y-116.953
X106.819Y-113.648
X106.844Y-115.417
X106.92Y-108.672
X107.447Y-108.651
X107.499Y-112.746
X107.504Y-112.051
X107.776Y-117.877
X107.912Y-108.342
X108.574Y-116.064
X108.586Y-114.542
X108.622Y-110.605
X112.734Y-109.899
X112.838Y-113.12
X112.856Y-113.697
X112.875Y-111.749
X112.878Y-112.314
X113.316Y-115.698
X113.321Y-115.152
X113.326Y-114.657
X113.435Y-111.199
X113.557Y-117.105
X114.035Y-115.67
X114.051Y-116.322
X114.055Y-113.818
X114.486Y-109.308
X114.582Y-115.053
X115.241Y-116.308
X115.332Y-114.455
X115.332Y-114.955
X115.352Y-108.418
X116.212Y-114.421
X116.212Y-115.412
X116.417Y-111.728
X117.075Y-114.955
X117.092Y-116.449
X117.459Y-108.916
X117.883Y-111.736
X118.068Y-113.783
X118.548Y-110.125
X118.947Y-113.79
X119.074Y-116.021
X119.496Y-110.166
X119.953Y-112.485
X119.971Y-113.798
X120.268Y-117.245
X120.692Y-115.825
X120.735Y-110.085
X120.771Y-117.745
X121.766Y-117.748
X121.769Y-117.245
X122.269Y-117.745
X122.269Y-117.245
X122.315Y-110.082
X122.558Y-112.021
X122.652Y-108.418
X122.716Y-113.973
X123.092Y-116.836
X123.301Y-110.478
X123.334Y-116.15
X123.578Y-117.608
X124.044Y-115.734
X124.083Y-108.429
X124.253Y-112.889
X124.263Y-110.179
X124.487Y-114.956
X124.573Y-113.488
X124.754Y-109.782
X125.356Y-114.685
X125.597Y-111.507
X125.731Y-109.033
X125.757Y-115.883
X125.856Y-114.972
X126.062Y-112.033
X126.298Y-112.899
X126.338Y-109.833
X126.341Y-111.035
X126.349Y-110.519
X126.45Y-116.567
X126.796Y-114.113
X128.264Y-113.102
X128.294Y-112.094
T0
M30
