G04 #@! TF.GenerationSoftware,KiCad,Pcbnew,(5.1.12)-1*
G04 #@! TF.CreationDate,2024-03-07T16:38:44+08:00*
G04 #@! TF.ProjectId,CM2_MesoScope,434d325f-4d65-4736-9f53-636f70652e6b,rev?*
G04 #@! TF.SameCoordinates,Original*
G04 #@! TF.FileFunction,Paste,Top*
G04 #@! TF.FilePolarity,Positive*
%FSLAX46Y46*%
G04 Gerber Fmt 4.6, Leading zero omitted, Abs format (unit mm)*
G04 Created by KiCad (PCBNEW (5.1.12)-1) date 2024-03-07 16:38:44*
%MOMM*%
%LPD*%
G01*
G04 APERTURE LIST*
%ADD10R,0.800000X0.400000*%
%ADD11R,0.800000X0.300000*%
%ADD12R,0.340000X0.310000*%
%ADD13R,0.310000X0.340000*%
%ADD14R,0.630000X0.580000*%
%ADD15R,0.750000X0.750000*%
%ADD16C,0.350000*%
%ADD17R,2.500000X2.500000*%
%ADD18R,0.260000X0.680000*%
%ADD19R,0.680000X0.260000*%
%ADD20R,1.350000X1.350000*%
%ADD21R,2.200000X1.050000*%
%ADD22R,1.050000X1.000000*%
%ADD23R,1.060000X0.540000*%
%ADD24R,0.830000X0.880000*%
%ADD25R,0.675000X0.254000*%
%ADD26R,0.254000X0.675000*%
%ADD27R,0.870000X2.620000*%
G04 APERTURE END LIST*
D10*
X131505500Y-111065080D03*
D11*
X129005500Y-114101080D03*
X129005500Y-112601080D03*
X129005500Y-113101080D03*
X129005500Y-113601080D03*
D10*
X131505500Y-115101080D03*
D11*
X129005500Y-112093080D03*
D10*
X122809800Y-111339460D03*
D11*
X125309800Y-112839460D03*
X125309800Y-113339460D03*
X125309800Y-113839460D03*
X125309800Y-112339460D03*
D10*
X122809800Y-114839460D03*
D12*
X126455340Y-116557240D03*
X126455340Y-116007240D03*
X126290240Y-114294100D03*
X126290240Y-113744100D03*
X125756840Y-115882780D03*
X125756840Y-116432780D03*
D13*
X124721880Y-116437180D03*
X124171880Y-116437180D03*
D14*
X106844040Y-115416620D03*
X106844040Y-114526620D03*
X106818640Y-113648020D03*
X106818640Y-112758020D03*
X106336040Y-110752420D03*
X106336040Y-109862420D03*
X106351240Y-109050620D03*
X106351240Y-108160620D03*
X98096240Y-114943420D03*
X98096240Y-114053420D03*
D15*
X123966140Y-112042980D03*
X123968680Y-114110540D03*
D16*
X120268660Y-116744900D03*
X120768660Y-116744900D03*
X121268660Y-116744900D03*
X121768660Y-116744900D03*
X122268660Y-116744900D03*
X120268660Y-117244900D03*
X120768660Y-117244900D03*
X121268660Y-117244900D03*
X121768660Y-117244900D03*
X122268660Y-117244900D03*
X120268660Y-117744900D03*
X120768660Y-117744900D03*
X121268660Y-117744900D03*
X121768660Y-117744900D03*
X122268660Y-117744900D03*
D17*
X114476860Y-110222640D03*
D18*
X100054640Y-114039420D03*
X100554640Y-114039420D03*
X101054640Y-114039420D03*
X101554640Y-114039420D03*
X102054640Y-114039420D03*
X102554640Y-114039420D03*
X103054640Y-114039420D03*
X103554640Y-114039420D03*
D19*
X104139640Y-113454420D03*
X104139640Y-112954420D03*
X104139640Y-112454420D03*
X104139640Y-111954420D03*
X104139640Y-111454420D03*
X104139640Y-110954420D03*
X104139640Y-110454420D03*
X104139640Y-109954420D03*
D18*
X103554640Y-109369420D03*
X103054640Y-109369420D03*
X102554640Y-109369420D03*
X102054640Y-109369420D03*
X101554640Y-109369420D03*
X101054640Y-109369420D03*
X100554640Y-109369420D03*
X100054640Y-109369420D03*
D19*
X99469640Y-109954420D03*
X99469640Y-110454420D03*
X99469640Y-110954420D03*
X99469640Y-111454420D03*
X99469640Y-111954420D03*
X99469640Y-112454420D03*
X99469640Y-112954420D03*
X99469640Y-113454420D03*
D20*
X102579640Y-112479420D03*
X102579640Y-110929420D03*
X101029640Y-112479420D03*
X101029640Y-110929420D03*
D21*
X117042900Y-108727680D03*
X117042900Y-111677680D03*
D22*
X118542900Y-110202680D03*
D23*
X123883560Y-117623360D03*
X125943560Y-117623360D03*
D24*
X98189040Y-115966420D03*
X98189040Y-117856420D03*
X99629040Y-117856420D03*
X99629040Y-115966420D03*
D25*
X118194360Y-116192640D03*
X118194360Y-115692640D03*
X118194360Y-115192640D03*
D26*
X118056860Y-117105140D03*
X117556860Y-117105140D03*
X117056860Y-117105140D03*
X116556860Y-117105140D03*
X116056860Y-117105140D03*
X115556860Y-117105140D03*
X115056860Y-117105140D03*
X114556860Y-117105140D03*
X114056860Y-117105140D03*
X118056860Y-113780140D03*
X117556860Y-113780140D03*
X117056860Y-113780140D03*
X116556860Y-113780140D03*
X116056860Y-113780140D03*
X115556860Y-113780140D03*
X115056860Y-113780140D03*
X114556860Y-113780140D03*
X114056860Y-113780140D03*
D25*
X113419360Y-116192640D03*
X113419360Y-115692640D03*
X113419360Y-115192640D03*
D26*
X113556860Y-113780140D03*
D25*
X113419360Y-114692640D03*
D26*
X113556860Y-117105140D03*
D25*
X118194360Y-114692640D03*
D12*
X105523240Y-115348220D03*
X105523240Y-114798220D03*
X104126240Y-114569620D03*
X104126240Y-115119620D03*
X104685040Y-115119620D03*
X104685040Y-114569620D03*
D13*
X106651640Y-112060020D03*
X106101640Y-112060020D03*
D12*
X106107440Y-114798220D03*
X106107440Y-115348220D03*
D13*
X105559440Y-112060020D03*
X105009440Y-112060020D03*
X105559440Y-111475820D03*
X105009440Y-111475820D03*
G36*
G01*
X121154360Y-108897640D02*
X120299360Y-108897640D01*
G75*
G02*
X120066860Y-108665140I0J232500D01*
G01*
X120066860Y-108200140D01*
G75*
G02*
X120299360Y-107967640I232500J0D01*
G01*
X121154360Y-107967640D01*
G75*
G02*
X121386860Y-108200140I0J-232500D01*
G01*
X121386860Y-108665140D01*
G75*
G02*
X121154360Y-108897640I-232500J0D01*
G01*
G37*
G36*
G01*
X121154360Y-110537640D02*
X120299360Y-110537640D01*
G75*
G02*
X120066860Y-110305140I0J232500D01*
G01*
X120066860Y-109840140D01*
G75*
G02*
X120299360Y-109607640I232500J0D01*
G01*
X121154360Y-109607640D01*
G75*
G02*
X121386860Y-109840140I0J-232500D01*
G01*
X121386860Y-110305140D01*
G75*
G02*
X121154360Y-110537640I-232500J0D01*
G01*
G37*
G36*
G01*
X100376140Y-115557620D02*
X100561140Y-115557620D01*
G75*
G02*
X100638640Y-115635120I0J-77500D01*
G01*
X100638640Y-115790120D01*
G75*
G02*
X100561140Y-115867620I-77500J0D01*
G01*
X100376140Y-115867620D01*
G75*
G02*
X100298640Y-115790120I0J77500D01*
G01*
X100298640Y-115635120D01*
G75*
G02*
X100376140Y-115557620I77500J0D01*
G01*
G37*
G36*
G01*
X100376140Y-116107620D02*
X100561140Y-116107620D01*
G75*
G02*
X100638640Y-116185120I0J-77500D01*
G01*
X100638640Y-116340120D01*
G75*
G02*
X100561140Y-116417620I-77500J0D01*
G01*
X100376140Y-116417620D01*
G75*
G02*
X100298640Y-116340120I0J77500D01*
G01*
X100298640Y-116185120D01*
G75*
G02*
X100376140Y-116107620I77500J0D01*
G01*
G37*
G36*
G01*
X102696440Y-114748320D02*
X102696440Y-115093320D01*
G75*
G02*
X102548940Y-115240820I-147500J0D01*
G01*
X102253940Y-115240820D01*
G75*
G02*
X102106440Y-115093320I0J147500D01*
G01*
X102106440Y-114748320D01*
G75*
G02*
X102253940Y-114600820I147500J0D01*
G01*
X102548940Y-114600820D01*
G75*
G02*
X102696440Y-114748320I0J-147500D01*
G01*
G37*
G36*
G01*
X101726440Y-114748320D02*
X101726440Y-115093320D01*
G75*
G02*
X101578940Y-115240820I-147500J0D01*
G01*
X101283940Y-115240820D01*
G75*
G02*
X101136440Y-115093320I0J147500D01*
G01*
X101136440Y-114748320D01*
G75*
G02*
X101283940Y-114600820I147500J0D01*
G01*
X101578940Y-114600820D01*
G75*
G02*
X101726440Y-114748320I0J-147500D01*
G01*
G37*
G36*
G01*
X107307340Y-118032620D02*
X107122340Y-118032620D01*
G75*
G02*
X107044840Y-117955120I0J77500D01*
G01*
X107044840Y-117800120D01*
G75*
G02*
X107122340Y-117722620I77500J0D01*
G01*
X107307340Y-117722620D01*
G75*
G02*
X107384840Y-117800120I0J-77500D01*
G01*
X107384840Y-117955120D01*
G75*
G02*
X107307340Y-118032620I-77500J0D01*
G01*
G37*
G36*
G01*
X107307340Y-117482620D02*
X107122340Y-117482620D01*
G75*
G02*
X107044840Y-117405120I0J77500D01*
G01*
X107044840Y-117250120D01*
G75*
G02*
X107122340Y-117172620I77500J0D01*
G01*
X107307340Y-117172620D01*
G75*
G02*
X107384840Y-117250120I0J-77500D01*
G01*
X107384840Y-117405120D01*
G75*
G02*
X107307340Y-117482620I-77500J0D01*
G01*
G37*
G36*
G01*
X107686320Y-117172620D02*
X107871320Y-117172620D01*
G75*
G02*
X107948820Y-117250120I0J-77500D01*
G01*
X107948820Y-117405120D01*
G75*
G02*
X107871320Y-117482620I-77500J0D01*
G01*
X107686320Y-117482620D01*
G75*
G02*
X107608820Y-117405120I0J77500D01*
G01*
X107608820Y-117250120D01*
G75*
G02*
X107686320Y-117172620I77500J0D01*
G01*
G37*
G36*
G01*
X107686320Y-117722620D02*
X107871320Y-117722620D01*
G75*
G02*
X107948820Y-117800120I0J-77500D01*
G01*
X107948820Y-117955120D01*
G75*
G02*
X107871320Y-118032620I-77500J0D01*
G01*
X107686320Y-118032620D01*
G75*
G02*
X107608820Y-117955120I0J77500D01*
G01*
X107608820Y-117800120D01*
G75*
G02*
X107686320Y-117722620I77500J0D01*
G01*
G37*
G36*
G01*
X98656640Y-112907320D02*
X98656640Y-113092320D01*
G75*
G02*
X98579140Y-113169820I-77500J0D01*
G01*
X98424140Y-113169820D01*
G75*
G02*
X98346640Y-113092320I0J77500D01*
G01*
X98346640Y-112907320D01*
G75*
G02*
X98424140Y-112829820I77500J0D01*
G01*
X98579140Y-112829820D01*
G75*
G02*
X98656640Y-112907320I0J-77500D01*
G01*
G37*
G36*
G01*
X98106640Y-112907320D02*
X98106640Y-113092320D01*
G75*
G02*
X98029140Y-113169820I-77500J0D01*
G01*
X97874140Y-113169820D01*
G75*
G02*
X97796640Y-113092320I0J77500D01*
G01*
X97796640Y-112907320D01*
G75*
G02*
X97874140Y-112829820I77500J0D01*
G01*
X98029140Y-112829820D01*
G75*
G02*
X98106640Y-112907320I0J-77500D01*
G01*
G37*
G36*
G01*
X100050240Y-115015520D02*
X100050240Y-115200520D01*
G75*
G02*
X99972740Y-115278020I-77500J0D01*
G01*
X99817740Y-115278020D01*
G75*
G02*
X99740240Y-115200520I0J77500D01*
G01*
X99740240Y-115015520D01*
G75*
G02*
X99817740Y-114938020I77500J0D01*
G01*
X99972740Y-114938020D01*
G75*
G02*
X100050240Y-115015520I0J-77500D01*
G01*
G37*
G36*
G01*
X99500240Y-115015520D02*
X99500240Y-115200520D01*
G75*
G02*
X99422740Y-115278020I-77500J0D01*
G01*
X99267740Y-115278020D01*
G75*
G02*
X99190240Y-115200520I0J77500D01*
G01*
X99190240Y-115015520D01*
G75*
G02*
X99267740Y-114938020I77500J0D01*
G01*
X99422740Y-114938020D01*
G75*
G02*
X99500240Y-115015520I0J-77500D01*
G01*
G37*
G36*
G01*
X100365940Y-116862420D02*
X100550940Y-116862420D01*
G75*
G02*
X100628440Y-116939920I0J-77500D01*
G01*
X100628440Y-117094920D01*
G75*
G02*
X100550940Y-117172420I-77500J0D01*
G01*
X100365940Y-117172420D01*
G75*
G02*
X100288440Y-117094920I0J77500D01*
G01*
X100288440Y-116939920D01*
G75*
G02*
X100365940Y-116862420I77500J0D01*
G01*
G37*
G36*
G01*
X100365940Y-117412420D02*
X100550940Y-117412420D01*
G75*
G02*
X100628440Y-117489920I0J-77500D01*
G01*
X100628440Y-117644920D01*
G75*
G02*
X100550940Y-117722420I-77500J0D01*
G01*
X100365940Y-117722420D01*
G75*
G02*
X100288440Y-117644920I0J77500D01*
G01*
X100288440Y-117489920D01*
G75*
G02*
X100365940Y-117412420I77500J0D01*
G01*
G37*
G36*
G01*
X103246340Y-117462620D02*
X103431340Y-117462620D01*
G75*
G02*
X103508840Y-117540120I0J-77500D01*
G01*
X103508840Y-117695120D01*
G75*
G02*
X103431340Y-117772620I-77500J0D01*
G01*
X103246340Y-117772620D01*
G75*
G02*
X103168840Y-117695120I0J77500D01*
G01*
X103168840Y-117540120D01*
G75*
G02*
X103246340Y-117462620I77500J0D01*
G01*
G37*
G36*
G01*
X103246340Y-118012620D02*
X103431340Y-118012620D01*
G75*
G02*
X103508840Y-118090120I0J-77500D01*
G01*
X103508840Y-118245120D01*
G75*
G02*
X103431340Y-118322620I-77500J0D01*
G01*
X103246340Y-118322620D01*
G75*
G02*
X103168840Y-118245120I0J77500D01*
G01*
X103168840Y-118090120D01*
G75*
G02*
X103246340Y-118012620I77500J0D01*
G01*
G37*
G36*
G01*
X103957540Y-117462620D02*
X104142540Y-117462620D01*
G75*
G02*
X104220040Y-117540120I0J-77500D01*
G01*
X104220040Y-117695120D01*
G75*
G02*
X104142540Y-117772620I-77500J0D01*
G01*
X103957540Y-117772620D01*
G75*
G02*
X103880040Y-117695120I0J77500D01*
G01*
X103880040Y-117540120D01*
G75*
G02*
X103957540Y-117462620I77500J0D01*
G01*
G37*
G36*
G01*
X103957540Y-118012620D02*
X104142540Y-118012620D01*
G75*
G02*
X104220040Y-118090120I0J-77500D01*
G01*
X104220040Y-118245120D01*
G75*
G02*
X104142540Y-118322620I-77500J0D01*
G01*
X103957540Y-118322620D01*
G75*
G02*
X103880040Y-118245120I0J77500D01*
G01*
X103880040Y-118090120D01*
G75*
G02*
X103957540Y-118012620I77500J0D01*
G01*
G37*
G36*
G01*
X103421140Y-108730820D02*
X103236140Y-108730820D01*
G75*
G02*
X103158640Y-108653320I0J77500D01*
G01*
X103158640Y-108498320D01*
G75*
G02*
X103236140Y-108420820I77500J0D01*
G01*
X103421140Y-108420820D01*
G75*
G02*
X103498640Y-108498320I0J-77500D01*
G01*
X103498640Y-108653320D01*
G75*
G02*
X103421140Y-108730820I-77500J0D01*
G01*
G37*
G36*
G01*
X103421140Y-108180820D02*
X103236140Y-108180820D01*
G75*
G02*
X103158640Y-108103320I0J77500D01*
G01*
X103158640Y-107948320D01*
G75*
G02*
X103236140Y-107870820I77500J0D01*
G01*
X103421140Y-107870820D01*
G75*
G02*
X103498640Y-107948320I0J-77500D01*
G01*
X103498640Y-108103320D01*
G75*
G02*
X103421140Y-108180820I-77500J0D01*
G01*
G37*
G36*
G01*
X105547540Y-107870820D02*
X105732540Y-107870820D01*
G75*
G02*
X105810040Y-107948320I0J-77500D01*
G01*
X105810040Y-108103320D01*
G75*
G02*
X105732540Y-108180820I-77500J0D01*
G01*
X105547540Y-108180820D01*
G75*
G02*
X105470040Y-108103320I0J77500D01*
G01*
X105470040Y-107948320D01*
G75*
G02*
X105547540Y-107870820I77500J0D01*
G01*
G37*
G36*
G01*
X105547540Y-108420820D02*
X105732540Y-108420820D01*
G75*
G02*
X105810040Y-108498320I0J-77500D01*
G01*
X105810040Y-108653320D01*
G75*
G02*
X105732540Y-108730820I-77500J0D01*
G01*
X105547540Y-108730820D01*
G75*
G02*
X105470040Y-108653320I0J77500D01*
G01*
X105470040Y-108498320D01*
G75*
G02*
X105547540Y-108420820I77500J0D01*
G01*
G37*
G36*
G01*
X98656640Y-111225320D02*
X98656640Y-111410320D01*
G75*
G02*
X98579140Y-111487820I-77500J0D01*
G01*
X98424140Y-111487820D01*
G75*
G02*
X98346640Y-111410320I0J77500D01*
G01*
X98346640Y-111225320D01*
G75*
G02*
X98424140Y-111147820I77500J0D01*
G01*
X98579140Y-111147820D01*
G75*
G02*
X98656640Y-111225320I0J-77500D01*
G01*
G37*
G36*
G01*
X98106640Y-111225320D02*
X98106640Y-111410320D01*
G75*
G02*
X98029140Y-111487820I-77500J0D01*
G01*
X97874140Y-111487820D01*
G75*
G02*
X97796640Y-111410320I0J77500D01*
G01*
X97796640Y-111225320D01*
G75*
G02*
X97874140Y-111147820I77500J0D01*
G01*
X98029140Y-111147820D01*
G75*
G02*
X98106640Y-111225320I0J-77500D01*
G01*
G37*
G36*
G01*
X102535140Y-117462620D02*
X102720140Y-117462620D01*
G75*
G02*
X102797640Y-117540120I0J-77500D01*
G01*
X102797640Y-117695120D01*
G75*
G02*
X102720140Y-117772620I-77500J0D01*
G01*
X102535140Y-117772620D01*
G75*
G02*
X102457640Y-117695120I0J77500D01*
G01*
X102457640Y-117540120D01*
G75*
G02*
X102535140Y-117462620I77500J0D01*
G01*
G37*
G36*
G01*
X102535140Y-118012620D02*
X102720140Y-118012620D01*
G75*
G02*
X102797640Y-118090120I0J-77500D01*
G01*
X102797640Y-118245120D01*
G75*
G02*
X102720140Y-118322620I-77500J0D01*
G01*
X102535140Y-118322620D01*
G75*
G02*
X102457640Y-118245120I0J77500D01*
G01*
X102457640Y-118090120D01*
G75*
G02*
X102535140Y-118012620I77500J0D01*
G01*
G37*
G36*
G01*
X102735340Y-108730820D02*
X102550340Y-108730820D01*
G75*
G02*
X102472840Y-108653320I0J77500D01*
G01*
X102472840Y-108498320D01*
G75*
G02*
X102550340Y-108420820I77500J0D01*
G01*
X102735340Y-108420820D01*
G75*
G02*
X102812840Y-108498320I0J-77500D01*
G01*
X102812840Y-108653320D01*
G75*
G02*
X102735340Y-108730820I-77500J0D01*
G01*
G37*
G36*
G01*
X102735340Y-108180820D02*
X102550340Y-108180820D01*
G75*
G02*
X102472840Y-108103320I0J77500D01*
G01*
X102472840Y-107948320D01*
G75*
G02*
X102550340Y-107870820I77500J0D01*
G01*
X102735340Y-107870820D01*
G75*
G02*
X102812840Y-107948320I0J-77500D01*
G01*
X102812840Y-108103320D01*
G75*
G02*
X102735340Y-108180820I-77500J0D01*
G01*
G37*
G36*
G01*
X107343640Y-112127120D02*
X107343640Y-111942120D01*
G75*
G02*
X107421140Y-111864620I77500J0D01*
G01*
X107576140Y-111864620D01*
G75*
G02*
X107653640Y-111942120I0J-77500D01*
G01*
X107653640Y-112127120D01*
G75*
G02*
X107576140Y-112204620I-77500J0D01*
G01*
X107421140Y-112204620D01*
G75*
G02*
X107343640Y-112127120I0J77500D01*
G01*
G37*
G36*
G01*
X107893640Y-112127120D02*
X107893640Y-111942120D01*
G75*
G02*
X107971140Y-111864620I77500J0D01*
G01*
X108126140Y-111864620D01*
G75*
G02*
X108203640Y-111942120I0J-77500D01*
G01*
X108203640Y-112127120D01*
G75*
G02*
X108126140Y-112204620I-77500J0D01*
G01*
X107971140Y-112204620D01*
G75*
G02*
X107893640Y-112127120I0J77500D01*
G01*
G37*
G36*
G01*
X107343640Y-112838320D02*
X107343640Y-112653320D01*
G75*
G02*
X107421140Y-112575820I77500J0D01*
G01*
X107576140Y-112575820D01*
G75*
G02*
X107653640Y-112653320I0J-77500D01*
G01*
X107653640Y-112838320D01*
G75*
G02*
X107576140Y-112915820I-77500J0D01*
G01*
X107421140Y-112915820D01*
G75*
G02*
X107343640Y-112838320I0J77500D01*
G01*
G37*
G36*
G01*
X107893640Y-112838320D02*
X107893640Y-112653320D01*
G75*
G02*
X107971140Y-112575820I77500J0D01*
G01*
X108126140Y-112575820D01*
G75*
G02*
X108203640Y-112653320I0J-77500D01*
G01*
X108203640Y-112838320D01*
G75*
G02*
X108126140Y-112915820I-77500J0D01*
G01*
X107971140Y-112915820D01*
G75*
G02*
X107893640Y-112838320I0J77500D01*
G01*
G37*
G36*
G01*
X102024140Y-108730820D02*
X101839140Y-108730820D01*
G75*
G02*
X101761640Y-108653320I0J77500D01*
G01*
X101761640Y-108498320D01*
G75*
G02*
X101839140Y-108420820I77500J0D01*
G01*
X102024140Y-108420820D01*
G75*
G02*
X102101640Y-108498320I0J-77500D01*
G01*
X102101640Y-108653320D01*
G75*
G02*
X102024140Y-108730820I-77500J0D01*
G01*
G37*
G36*
G01*
X102024140Y-108180820D02*
X101839140Y-108180820D01*
G75*
G02*
X101761640Y-108103320I0J77500D01*
G01*
X101761640Y-107948320D01*
G75*
G02*
X101839140Y-107870820I77500J0D01*
G01*
X102024140Y-107870820D01*
G75*
G02*
X102101640Y-107948320I0J-77500D01*
G01*
X102101640Y-108103320D01*
G75*
G02*
X102024140Y-108180820I-77500J0D01*
G01*
G37*
D27*
X125561260Y-109327720D03*
X122511260Y-109327720D03*
D12*
X106132840Y-112639220D03*
X106132840Y-113189220D03*
X105574040Y-113189220D03*
X105574040Y-112639220D03*
D13*
X98498240Y-110739220D03*
X97948240Y-110739220D03*
X97952640Y-110180420D03*
X98502640Y-110180420D03*
D12*
X106112440Y-113724820D03*
X106112440Y-114274820D03*
X105538440Y-114265420D03*
X105538440Y-113715420D03*
X105596640Y-110902820D03*
X105596640Y-110352820D03*
X105015240Y-110353220D03*
X105015240Y-110903220D03*
D13*
X98501640Y-112441020D03*
X97951640Y-112441020D03*
X97951640Y-111882220D03*
X98501640Y-111882220D03*
G36*
G01*
X107535140Y-114217020D02*
X107880140Y-114217020D01*
G75*
G02*
X108027640Y-114364520I0J-147500D01*
G01*
X108027640Y-114659520D01*
G75*
G02*
X107880140Y-114807020I-147500J0D01*
G01*
X107535140Y-114807020D01*
G75*
G02*
X107387640Y-114659520I0J147500D01*
G01*
X107387640Y-114364520D01*
G75*
G02*
X107535140Y-114217020I147500J0D01*
G01*
G37*
G36*
G01*
X107535140Y-115187020D02*
X107880140Y-115187020D01*
G75*
G02*
X108027640Y-115334520I0J-147500D01*
G01*
X108027640Y-115629520D01*
G75*
G02*
X107880140Y-115777020I-147500J0D01*
G01*
X107535140Y-115777020D01*
G75*
G02*
X107387640Y-115629520I0J147500D01*
G01*
X107387640Y-115334520D01*
G75*
G02*
X107535140Y-115187020I147500J0D01*
G01*
G37*
G36*
G01*
X107361940Y-110066620D02*
X107016940Y-110066620D01*
G75*
G02*
X106869440Y-109919120I0J147500D01*
G01*
X106869440Y-109624120D01*
G75*
G02*
X107016940Y-109476620I147500J0D01*
G01*
X107361940Y-109476620D01*
G75*
G02*
X107509440Y-109624120I0J-147500D01*
G01*
X107509440Y-109919120D01*
G75*
G02*
X107361940Y-110066620I-147500J0D01*
G01*
G37*
G36*
G01*
X107361940Y-111036620D02*
X107016940Y-111036620D01*
G75*
G02*
X106869440Y-110889120I0J147500D01*
G01*
X106869440Y-110594120D01*
G75*
G02*
X107016940Y-110446620I147500J0D01*
G01*
X107361940Y-110446620D01*
G75*
G02*
X107509440Y-110594120I0J-147500D01*
G01*
X107509440Y-110889120D01*
G75*
G02*
X107361940Y-111036620I-147500J0D01*
G01*
G37*
M02*
