G04 #@! TF.GenerationSoftware,KiCad,Pcbnew,(5.1.12)-1*
G04 #@! TF.CreationDate,2024-03-07T16:38:44+08:00*
G04 #@! TF.ProjectId,CM2_MesoScope,434d325f-4d65-4736-9f53-636f70652e6b,rev?*
G04 #@! TF.SameCoordinates,Original*
G04 #@! TF.FileFunction,Copper,L4,Bot*
G04 #@! TF.FilePolarity,Positive*
%FSLAX46Y46*%
G04 Gerber Fmt 4.6, Leading zero omitted, Abs format (unit mm)*
G04 Created by KiCad (PCBNEW (5.1.12)-1) date 2024-03-07 16:38:44*
%MOMM*%
%LPD*%
G01*
G04 APERTURE LIST*
G04 #@! TA.AperFunction,SMDPad,CuDef*
%ADD10R,0.610000X0.220000*%
G04 #@! TD*
G04 #@! TA.AperFunction,SMDPad,CuDef*
%ADD11R,0.220000X0.610000*%
G04 #@! TD*
G04 #@! TA.AperFunction,SMDPad,CuDef*
%ADD12R,1.500000X1.500000*%
G04 #@! TD*
G04 #@! TA.AperFunction,SMDPad,CuDef*
%ADD13R,0.310000X0.340000*%
G04 #@! TD*
G04 #@! TA.AperFunction,SMDPad,CuDef*
%ADD14R,0.340000X0.310000*%
G04 #@! TD*
G04 #@! TA.AperFunction,SMDPad,CuDef*
%ADD15R,0.630000X0.580000*%
G04 #@! TD*
G04 #@! TA.AperFunction,SMDPad,CuDef*
%ADD16R,0.580000X0.630000*%
G04 #@! TD*
G04 #@! TA.AperFunction,SMDPad,CuDef*
%ADD17R,0.920000X0.890000*%
G04 #@! TD*
G04 #@! TA.AperFunction,SMDPad,CuDef*
%ADD18R,0.810000X0.870000*%
G04 #@! TD*
G04 #@! TA.AperFunction,SMDPad,CuDef*
%ADD19R,0.740000X0.500000*%
G04 #@! TD*
G04 #@! TA.AperFunction,SMDPad,CuDef*
%ADD20R,0.500000X0.740000*%
G04 #@! TD*
G04 #@! TA.AperFunction,SMDPad,CuDef*
%ADD21R,0.500000X1.248000*%
G04 #@! TD*
G04 #@! TA.AperFunction,SMDPad,CuDef*
%ADD22R,1.800000X2.500000*%
G04 #@! TD*
G04 #@! TA.AperFunction,SMDPad,CuDef*
%ADD23R,0.660000X0.260000*%
G04 #@! TD*
G04 #@! TA.AperFunction,SMDPad,CuDef*
%ADD24R,0.800000X1.700000*%
G04 #@! TD*
G04 #@! TA.AperFunction,SMDPad,CuDef*
%ADD25R,0.560000X0.260000*%
G04 #@! TD*
G04 #@! TA.AperFunction,SMDPad,CuDef*
%ADD26R,2.120000X1.090000*%
G04 #@! TD*
G04 #@! TA.AperFunction,ViaPad*
%ADD27C,0.350000*%
G04 #@! TD*
G04 #@! TA.AperFunction,Conductor*
%ADD28C,0.152400*%
G04 #@! TD*
G04 #@! TA.AperFunction,Conductor*
%ADD29C,0.254000*%
G04 #@! TD*
G04 #@! TA.AperFunction,Conductor*
%ADD30C,0.304800*%
G04 #@! TD*
G04 APERTURE END LIST*
D10*
X124054640Y-116434480D03*
X124054640Y-116834480D03*
D11*
X124099640Y-117479480D03*
X124499640Y-117479480D03*
X124899640Y-117479480D03*
X125299640Y-117479480D03*
X125699640Y-117479480D03*
D10*
X125744640Y-116834480D03*
X125744640Y-116434480D03*
D11*
X125699640Y-115789480D03*
X125299640Y-115789480D03*
X124899640Y-115789480D03*
X124499640Y-115789480D03*
X124099640Y-115789480D03*
D12*
X124507160Y-111270820D03*
G04 #@! TA.AperFunction,SMDPad,CuDef*
G36*
G01*
X122694660Y-110395820D02*
X123444660Y-110395820D01*
G75*
G02*
X123507160Y-110458320I0J-62500D01*
G01*
X123507160Y-110583320D01*
G75*
G02*
X123444660Y-110645820I-62500J0D01*
G01*
X122694660Y-110645820D01*
G75*
G02*
X122632160Y-110583320I0J62500D01*
G01*
X122632160Y-110458320D01*
G75*
G02*
X122694660Y-110395820I62500J0D01*
G01*
G37*
G04 #@! TD.AperFunction*
G04 #@! TA.AperFunction,SMDPad,CuDef*
G36*
G01*
X122694660Y-110895820D02*
X123444660Y-110895820D01*
G75*
G02*
X123507160Y-110958320I0J-62500D01*
G01*
X123507160Y-111083320D01*
G75*
G02*
X123444660Y-111145820I-62500J0D01*
G01*
X122694660Y-111145820D01*
G75*
G02*
X122632160Y-111083320I0J62500D01*
G01*
X122632160Y-110958320D01*
G75*
G02*
X122694660Y-110895820I62500J0D01*
G01*
G37*
G04 #@! TD.AperFunction*
G04 #@! TA.AperFunction,SMDPad,CuDef*
G36*
G01*
X122694660Y-111395820D02*
X123444660Y-111395820D01*
G75*
G02*
X123507160Y-111458320I0J-62500D01*
G01*
X123507160Y-111583320D01*
G75*
G02*
X123444660Y-111645820I-62500J0D01*
G01*
X122694660Y-111645820D01*
G75*
G02*
X122632160Y-111583320I0J62500D01*
G01*
X122632160Y-111458320D01*
G75*
G02*
X122694660Y-111395820I62500J0D01*
G01*
G37*
G04 #@! TD.AperFunction*
G04 #@! TA.AperFunction,SMDPad,CuDef*
G36*
G01*
X122694660Y-111895820D02*
X123444660Y-111895820D01*
G75*
G02*
X123507160Y-111958320I0J-62500D01*
G01*
X123507160Y-112083320D01*
G75*
G02*
X123444660Y-112145820I-62500J0D01*
G01*
X122694660Y-112145820D01*
G75*
G02*
X122632160Y-112083320I0J62500D01*
G01*
X122632160Y-111958320D01*
G75*
G02*
X122694660Y-111895820I62500J0D01*
G01*
G37*
G04 #@! TD.AperFunction*
G04 #@! TA.AperFunction,SMDPad,CuDef*
G36*
G01*
X123694660Y-112270820D02*
X123819660Y-112270820D01*
G75*
G02*
X123882160Y-112333320I0J-62500D01*
G01*
X123882160Y-113083320D01*
G75*
G02*
X123819660Y-113145820I-62500J0D01*
G01*
X123694660Y-113145820D01*
G75*
G02*
X123632160Y-113083320I0J62500D01*
G01*
X123632160Y-112333320D01*
G75*
G02*
X123694660Y-112270820I62500J0D01*
G01*
G37*
G04 #@! TD.AperFunction*
G04 #@! TA.AperFunction,SMDPad,CuDef*
G36*
G01*
X124194660Y-112270820D02*
X124319660Y-112270820D01*
G75*
G02*
X124382160Y-112333320I0J-62500D01*
G01*
X124382160Y-113083320D01*
G75*
G02*
X124319660Y-113145820I-62500J0D01*
G01*
X124194660Y-113145820D01*
G75*
G02*
X124132160Y-113083320I0J62500D01*
G01*
X124132160Y-112333320D01*
G75*
G02*
X124194660Y-112270820I62500J0D01*
G01*
G37*
G04 #@! TD.AperFunction*
G04 #@! TA.AperFunction,SMDPad,CuDef*
G36*
G01*
X124694660Y-112270820D02*
X124819660Y-112270820D01*
G75*
G02*
X124882160Y-112333320I0J-62500D01*
G01*
X124882160Y-113083320D01*
G75*
G02*
X124819660Y-113145820I-62500J0D01*
G01*
X124694660Y-113145820D01*
G75*
G02*
X124632160Y-113083320I0J62500D01*
G01*
X124632160Y-112333320D01*
G75*
G02*
X124694660Y-112270820I62500J0D01*
G01*
G37*
G04 #@! TD.AperFunction*
G04 #@! TA.AperFunction,SMDPad,CuDef*
G36*
G01*
X125194660Y-112270820D02*
X125319660Y-112270820D01*
G75*
G02*
X125382160Y-112333320I0J-62500D01*
G01*
X125382160Y-113083320D01*
G75*
G02*
X125319660Y-113145820I-62500J0D01*
G01*
X125194660Y-113145820D01*
G75*
G02*
X125132160Y-113083320I0J62500D01*
G01*
X125132160Y-112333320D01*
G75*
G02*
X125194660Y-112270820I62500J0D01*
G01*
G37*
G04 #@! TD.AperFunction*
G04 #@! TA.AperFunction,SMDPad,CuDef*
G36*
G01*
X125569660Y-111895820D02*
X126319660Y-111895820D01*
G75*
G02*
X126382160Y-111958320I0J-62500D01*
G01*
X126382160Y-112083320D01*
G75*
G02*
X126319660Y-112145820I-62500J0D01*
G01*
X125569660Y-112145820D01*
G75*
G02*
X125507160Y-112083320I0J62500D01*
G01*
X125507160Y-111958320D01*
G75*
G02*
X125569660Y-111895820I62500J0D01*
G01*
G37*
G04 #@! TD.AperFunction*
G04 #@! TA.AperFunction,SMDPad,CuDef*
G36*
G01*
X125569660Y-111395820D02*
X126319660Y-111395820D01*
G75*
G02*
X126382160Y-111458320I0J-62500D01*
G01*
X126382160Y-111583320D01*
G75*
G02*
X126319660Y-111645820I-62500J0D01*
G01*
X125569660Y-111645820D01*
G75*
G02*
X125507160Y-111583320I0J62500D01*
G01*
X125507160Y-111458320D01*
G75*
G02*
X125569660Y-111395820I62500J0D01*
G01*
G37*
G04 #@! TD.AperFunction*
G04 #@! TA.AperFunction,SMDPad,CuDef*
G36*
G01*
X125569660Y-110895820D02*
X126319660Y-110895820D01*
G75*
G02*
X126382160Y-110958320I0J-62500D01*
G01*
X126382160Y-111083320D01*
G75*
G02*
X126319660Y-111145820I-62500J0D01*
G01*
X125569660Y-111145820D01*
G75*
G02*
X125507160Y-111083320I0J62500D01*
G01*
X125507160Y-110958320D01*
G75*
G02*
X125569660Y-110895820I62500J0D01*
G01*
G37*
G04 #@! TD.AperFunction*
G04 #@! TA.AperFunction,SMDPad,CuDef*
G36*
G01*
X125569660Y-110395820D02*
X126319660Y-110395820D01*
G75*
G02*
X126382160Y-110458320I0J-62500D01*
G01*
X126382160Y-110583320D01*
G75*
G02*
X126319660Y-110645820I-62500J0D01*
G01*
X125569660Y-110645820D01*
G75*
G02*
X125507160Y-110583320I0J62500D01*
G01*
X125507160Y-110458320D01*
G75*
G02*
X125569660Y-110395820I62500J0D01*
G01*
G37*
G04 #@! TD.AperFunction*
G04 #@! TA.AperFunction,SMDPad,CuDef*
G36*
G01*
X125194660Y-109395820D02*
X125319660Y-109395820D01*
G75*
G02*
X125382160Y-109458320I0J-62500D01*
G01*
X125382160Y-110208320D01*
G75*
G02*
X125319660Y-110270820I-62500J0D01*
G01*
X125194660Y-110270820D01*
G75*
G02*
X125132160Y-110208320I0J62500D01*
G01*
X125132160Y-109458320D01*
G75*
G02*
X125194660Y-109395820I62500J0D01*
G01*
G37*
G04 #@! TD.AperFunction*
G04 #@! TA.AperFunction,SMDPad,CuDef*
G36*
G01*
X124694660Y-109395820D02*
X124819660Y-109395820D01*
G75*
G02*
X124882160Y-109458320I0J-62500D01*
G01*
X124882160Y-110208320D01*
G75*
G02*
X124819660Y-110270820I-62500J0D01*
G01*
X124694660Y-110270820D01*
G75*
G02*
X124632160Y-110208320I0J62500D01*
G01*
X124632160Y-109458320D01*
G75*
G02*
X124694660Y-109395820I62500J0D01*
G01*
G37*
G04 #@! TD.AperFunction*
G04 #@! TA.AperFunction,SMDPad,CuDef*
G36*
G01*
X124194660Y-109395820D02*
X124319660Y-109395820D01*
G75*
G02*
X124382160Y-109458320I0J-62500D01*
G01*
X124382160Y-110208320D01*
G75*
G02*
X124319660Y-110270820I-62500J0D01*
G01*
X124194660Y-110270820D01*
G75*
G02*
X124132160Y-110208320I0J62500D01*
G01*
X124132160Y-109458320D01*
G75*
G02*
X124194660Y-109395820I62500J0D01*
G01*
G37*
G04 #@! TD.AperFunction*
G04 #@! TA.AperFunction,SMDPad,CuDef*
G36*
G01*
X123694660Y-109395820D02*
X123819660Y-109395820D01*
G75*
G02*
X123882160Y-109458320I0J-62500D01*
G01*
X123882160Y-110208320D01*
G75*
G02*
X123819660Y-110270820I-62500J0D01*
G01*
X123694660Y-110270820D01*
G75*
G02*
X123632160Y-110208320I0J62500D01*
G01*
X123632160Y-109458320D01*
G75*
G02*
X123694660Y-109395820I62500J0D01*
G01*
G37*
G04 #@! TD.AperFunction*
D13*
X125447640Y-114113080D03*
X124897640Y-114113080D03*
D14*
X126605200Y-114633100D03*
X126605200Y-115183100D03*
D13*
X124486840Y-114956360D03*
X123936840Y-114956360D03*
X125851500Y-114969060D03*
X125301500Y-114969060D03*
D14*
X121753800Y-109608980D03*
X121753800Y-110158980D03*
D13*
X123211760Y-108428560D03*
X122661760Y-108428560D03*
X123273400Y-113973380D03*
X122723400Y-113973380D03*
X124087380Y-108426020D03*
X124637380Y-108426020D03*
D15*
X114488040Y-108417960D03*
X114488040Y-109307960D03*
X113599040Y-109307960D03*
X113599040Y-108417960D03*
G04 #@! TA.AperFunction,SMDPad,CuDef*
G36*
G01*
X115208560Y-109015860D02*
X115548560Y-109015860D01*
G75*
G02*
X115693560Y-109160860I0J-145000D01*
G01*
X115693560Y-109450860D01*
G75*
G02*
X115548560Y-109595860I-145000J0D01*
G01*
X115208560Y-109595860D01*
G75*
G02*
X115063560Y-109450860I0J145000D01*
G01*
X115063560Y-109160860D01*
G75*
G02*
X115208560Y-109015860I145000J0D01*
G01*
G37*
G04 #@! TD.AperFunction*
G04 #@! TA.AperFunction,SMDPad,CuDef*
G36*
G01*
X115208560Y-108125860D02*
X115548560Y-108125860D01*
G75*
G02*
X115693560Y-108270860I0J-145000D01*
G01*
X115693560Y-108560860D01*
G75*
G02*
X115548560Y-108705860I-145000J0D01*
G01*
X115208560Y-108705860D01*
G75*
G02*
X115063560Y-108560860I0J145000D01*
G01*
X115063560Y-108270860D01*
G75*
G02*
X115208560Y-108125860I145000J0D01*
G01*
G37*
G04 #@! TD.AperFunction*
D16*
X116182960Y-117606040D03*
X117072960Y-117606040D03*
G04 #@! TA.AperFunction,SMDPad,CuDef*
G36*
G01*
X116489560Y-116453440D02*
X116489560Y-116793440D01*
G75*
G02*
X116344560Y-116938440I-145000J0D01*
G01*
X116054560Y-116938440D01*
G75*
G02*
X115909560Y-116793440I0J145000D01*
G01*
X115909560Y-116453440D01*
G75*
G02*
X116054560Y-116308440I145000J0D01*
G01*
X116344560Y-116308440D01*
G75*
G02*
X116489560Y-116453440I0J-145000D01*
G01*
G37*
G04 #@! TD.AperFunction*
G04 #@! TA.AperFunction,SMDPad,CuDef*
G36*
G01*
X117379560Y-116453440D02*
X117379560Y-116793440D01*
G75*
G02*
X117234560Y-116938440I-145000J0D01*
G01*
X116944560Y-116938440D01*
G75*
G02*
X116799560Y-116793440I0J145000D01*
G01*
X116799560Y-116453440D01*
G75*
G02*
X116944560Y-116308440I145000J0D01*
G01*
X117234560Y-116308440D01*
G75*
G02*
X117379560Y-116453440I0J-145000D01*
G01*
G37*
G04 #@! TD.AperFunction*
D14*
X118068260Y-113236100D03*
X118068260Y-113786100D03*
X118957260Y-113233560D03*
X118957260Y-113783560D03*
D17*
X119958020Y-112480340D03*
X119958020Y-113810340D03*
D18*
X122055340Y-116096820D03*
X120695340Y-116096820D03*
D13*
X113546860Y-117142640D03*
X114096860Y-117142640D03*
X114041860Y-116312640D03*
X114591860Y-116312640D03*
D14*
X113326860Y-115722640D03*
X113326860Y-116272640D03*
D13*
X114031860Y-115052640D03*
X114581860Y-115052640D03*
X114031860Y-114412640D03*
X114581860Y-114412640D03*
D14*
X113326080Y-114607700D03*
X113326080Y-115157700D03*
D13*
X114581860Y-115682640D03*
X114031860Y-115682640D03*
D19*
X107571640Y-116937820D03*
X107571640Y-116237820D03*
X107571640Y-115537820D03*
X107571640Y-114837820D03*
X107571640Y-114137820D03*
X107571640Y-113437820D03*
X107571640Y-112737820D03*
X107571640Y-112037820D03*
X107571640Y-111337820D03*
X107571640Y-110637820D03*
X107571640Y-109937820D03*
X107571640Y-109237820D03*
D20*
X106836640Y-108502820D03*
X106136640Y-108502820D03*
X105436640Y-108502820D03*
X104736640Y-108502820D03*
X104036640Y-108502820D03*
D21*
X103336640Y-108756820D03*
D20*
X102636640Y-108502820D03*
X101936640Y-108502820D03*
X101236640Y-108502820D03*
X100536640Y-108502820D03*
X99836640Y-108502820D03*
X99136640Y-108502820D03*
D19*
X98401640Y-109237820D03*
X98401640Y-109937820D03*
X98401640Y-110637820D03*
X98401640Y-111337820D03*
X98401640Y-112037820D03*
X98401640Y-112737820D03*
X98401640Y-113437820D03*
X98401640Y-114137820D03*
X98401640Y-114837820D03*
X98401640Y-115537820D03*
X98401640Y-116237820D03*
X98401640Y-116937820D03*
D20*
X99136640Y-117672820D03*
X99836640Y-117672820D03*
X100536640Y-117672820D03*
X101236640Y-117672820D03*
X101936640Y-117672820D03*
X102636640Y-117672820D03*
X103336640Y-117672820D03*
X104036640Y-117672820D03*
X104736640Y-117672820D03*
X105436640Y-117672820D03*
X106136640Y-117672820D03*
X106836640Y-117672820D03*
D22*
X115802900Y-111812220D03*
D23*
X117232900Y-112812220D03*
X117232900Y-112312220D03*
X117232900Y-111812220D03*
X117232900Y-111312220D03*
X117232900Y-110812220D03*
X114372900Y-110812220D03*
X114372900Y-111312220D03*
X114372900Y-111812220D03*
X114372900Y-112312220D03*
X114372900Y-112812220D03*
D24*
X116211660Y-114954800D03*
D25*
X117091660Y-115454800D03*
X117091660Y-114954800D03*
X117091660Y-114454800D03*
X115331660Y-114454800D03*
X115331660Y-114954800D03*
X115331660Y-115454800D03*
D26*
X118759500Y-115122560D03*
X118759500Y-117152560D03*
G04 #@! TA.AperFunction,SMDPad,CuDef*
G36*
G01*
X113335180Y-112709080D02*
X113520180Y-112709080D01*
G75*
G02*
X113597680Y-112786580I0J-77500D01*
G01*
X113597680Y-112941580D01*
G75*
G02*
X113520180Y-113019080I-77500J0D01*
G01*
X113335180Y-113019080D01*
G75*
G02*
X113257680Y-112941580I0J77500D01*
G01*
X113257680Y-112786580D01*
G75*
G02*
X113335180Y-112709080I77500J0D01*
G01*
G37*
G04 #@! TD.AperFunction*
G04 #@! TA.AperFunction,SMDPad,CuDef*
G36*
G01*
X113335180Y-112159080D02*
X113520180Y-112159080D01*
G75*
G02*
X113597680Y-112236580I0J-77500D01*
G01*
X113597680Y-112391580D01*
G75*
G02*
X113520180Y-112469080I-77500J0D01*
G01*
X113335180Y-112469080D01*
G75*
G02*
X113257680Y-112391580I0J77500D01*
G01*
X113257680Y-112236580D01*
G75*
G02*
X113335180Y-112159080I77500J0D01*
G01*
G37*
G04 #@! TD.AperFunction*
G04 #@! TA.AperFunction,SMDPad,CuDef*
G36*
G01*
X113527800Y-111904020D02*
X113342800Y-111904020D01*
G75*
G02*
X113265300Y-111826520I0J77500D01*
G01*
X113265300Y-111671520D01*
G75*
G02*
X113342800Y-111594020I77500J0D01*
G01*
X113527800Y-111594020D01*
G75*
G02*
X113605300Y-111671520I0J-77500D01*
G01*
X113605300Y-111826520D01*
G75*
G02*
X113527800Y-111904020I-77500J0D01*
G01*
G37*
G04 #@! TD.AperFunction*
G04 #@! TA.AperFunction,SMDPad,CuDef*
G36*
G01*
X113527800Y-111354020D02*
X113342800Y-111354020D01*
G75*
G02*
X113265300Y-111276520I0J77500D01*
G01*
X113265300Y-111121520D01*
G75*
G02*
X113342800Y-111044020I77500J0D01*
G01*
X113527800Y-111044020D01*
G75*
G02*
X113605300Y-111121520I0J-77500D01*
G01*
X113605300Y-111276520D01*
G75*
G02*
X113527800Y-111354020I-77500J0D01*
G01*
G37*
G04 #@! TD.AperFunction*
G04 #@! TA.AperFunction,SMDPad,CuDef*
G36*
G01*
X115180900Y-118013040D02*
X115180900Y-117828040D01*
G75*
G02*
X115258400Y-117750540I77500J0D01*
G01*
X115413400Y-117750540D01*
G75*
G02*
X115490900Y-117828040I0J-77500D01*
G01*
X115490900Y-118013040D01*
G75*
G02*
X115413400Y-118090540I-77500J0D01*
G01*
X115258400Y-118090540D01*
G75*
G02*
X115180900Y-118013040I0J77500D01*
G01*
G37*
G04 #@! TD.AperFunction*
G04 #@! TA.AperFunction,SMDPad,CuDef*
G36*
G01*
X114630900Y-118013040D02*
X114630900Y-117828040D01*
G75*
G02*
X114708400Y-117750540I77500J0D01*
G01*
X114863400Y-117750540D01*
G75*
G02*
X114940900Y-117828040I0J-77500D01*
G01*
X114940900Y-118013040D01*
G75*
G02*
X114863400Y-118090540I-77500J0D01*
G01*
X114708400Y-118090540D01*
G75*
G02*
X114630900Y-118013040I0J77500D01*
G01*
G37*
G04 #@! TD.AperFunction*
G04 #@! TA.AperFunction,SMDPad,CuDef*
G36*
G01*
X118368200Y-110808040D02*
X118713200Y-110808040D01*
G75*
G02*
X118860700Y-110955540I0J-147500D01*
G01*
X118860700Y-111250540D01*
G75*
G02*
X118713200Y-111398040I-147500J0D01*
G01*
X118368200Y-111398040D01*
G75*
G02*
X118220700Y-111250540I0J147500D01*
G01*
X118220700Y-110955540D01*
G75*
G02*
X118368200Y-110808040I147500J0D01*
G01*
G37*
G04 #@! TD.AperFunction*
G04 #@! TA.AperFunction,SMDPad,CuDef*
G36*
G01*
X118368200Y-109838040D02*
X118713200Y-109838040D01*
G75*
G02*
X118860700Y-109985540I0J-147500D01*
G01*
X118860700Y-110280540D01*
G75*
G02*
X118713200Y-110428040I-147500J0D01*
G01*
X118368200Y-110428040D01*
G75*
G02*
X118220700Y-110280540I0J147500D01*
G01*
X118220700Y-109985540D01*
G75*
G02*
X118368200Y-109838040I147500J0D01*
G01*
G37*
G04 #@! TD.AperFunction*
D14*
X116416860Y-108967640D03*
X116416860Y-108417640D03*
D27*
X126061640Y-112032820D03*
X125855900Y-114971600D03*
X126450260Y-116566720D03*
X121766500Y-117747820D03*
X120692080Y-115825040D03*
X116417260Y-111728020D03*
X117458660Y-108916240D03*
X117882840Y-111735640D03*
X113326080Y-114656640D03*
X103084840Y-111517220D03*
X101992640Y-113015820D03*
X100544840Y-112965020D03*
X101713240Y-111720420D03*
X116211660Y-115412000D03*
X116211660Y-114421400D03*
X106148040Y-117673420D03*
X101220440Y-108504020D03*
X104725640Y-108504020D03*
X104039840Y-108504020D03*
X99086840Y-114625420D03*
X98274040Y-117851220D03*
X101916400Y-117664000D03*
X103476640Y-115158820D03*
X106818640Y-113648020D03*
X105078450Y-113355420D03*
X106376640Y-109697820D03*
X107776040Y-117876620D03*
X106844028Y-115416608D03*
X106656640Y-112057820D03*
X104736640Y-117672820D03*
X106920240Y-108672420D03*
X103135640Y-110374220D03*
X97954840Y-108088220D03*
X102424440Y-115632020D03*
X117075360Y-114954800D03*
X114485860Y-109307960D03*
X114581860Y-115052640D03*
X113556860Y-117105140D03*
X113435300Y-111199020D03*
X123092382Y-116835960D03*
X124486840Y-114956360D03*
X122558280Y-112020820D03*
X124082980Y-108428560D03*
X125756840Y-115882780D03*
X115331660Y-114454800D03*
X115331660Y-114954800D03*
X115352260Y-108417960D03*
X122652200Y-108417640D03*
X122315140Y-110082100D03*
X106794040Y-116952820D03*
X98401640Y-116937820D03*
X120735260Y-110084640D03*
X119952940Y-112484940D03*
X114055060Y-113818440D03*
X113321000Y-115151940D03*
X117091660Y-116448580D03*
X121768660Y-117244900D03*
X114051040Y-116321820D03*
X123333680Y-116150160D03*
X126297860Y-112898960D03*
X122716460Y-113973380D03*
X123300660Y-110478340D03*
X114034740Y-115670100D03*
X101931640Y-108580220D03*
X99569440Y-114549220D03*
X107498640Y-112745820D03*
X106198840Y-115819220D03*
X107911640Y-108342224D03*
X112878360Y-112314080D03*
X108622000Y-110605360D03*
X118548320Y-110125280D03*
X101054634Y-114039414D03*
X100712440Y-114752424D03*
X100356840Y-115082618D03*
X118068260Y-113782880D03*
X102054640Y-114039406D03*
X102043400Y-116546400D03*
X108573740Y-116063800D03*
X112855938Y-113696520D03*
X122268660Y-117744900D03*
X122269420Y-117244900D03*
X118947100Y-113790500D03*
X101554640Y-114039438D03*
X101561640Y-115784420D03*
X108586440Y-114542340D03*
X112838400Y-113119940D03*
X119074100Y-116020620D03*
X102554640Y-109369422D03*
X102054640Y-109369426D03*
X101554640Y-109369422D03*
X101054640Y-109369422D03*
X100554640Y-109369406D03*
X99546840Y-109367620D03*
X98401640Y-109237820D03*
X99315440Y-110459820D03*
X99136640Y-108502820D03*
X99469642Y-110954420D03*
X99836640Y-108502820D03*
X99696440Y-111958420D03*
X100536640Y-108502820D03*
X99442440Y-112466420D03*
X104050040Y-117613220D03*
X99848840Y-116200220D03*
X103328640Y-108580220D03*
X102642840Y-108580220D03*
X98496640Y-111323420D03*
X105513040Y-115336620D03*
X102627640Y-117613220D03*
X103338840Y-117613220D03*
X107504440Y-112050620D03*
X107447038Y-108650991D03*
X106108240Y-116952820D03*
X112874640Y-111749020D03*
X113315920Y-115698040D03*
X115241240Y-116307640D03*
X125731440Y-109033080D03*
X119495740Y-110165920D03*
X124573200Y-113488240D03*
X126795700Y-114113080D03*
X119970720Y-113798120D03*
X120770820Y-117745280D03*
X120267900Y-117244900D03*
X123577520Y-117608120D03*
X125355520Y-114684580D03*
X124044320Y-115734160D03*
X124253160Y-112888800D03*
X104143980Y-110445320D03*
X124753540Y-109782380D03*
X112734260Y-109899220D03*
X124263320Y-110178620D03*
X128263820Y-113102160D03*
X126338360Y-109833320D03*
X128294300Y-112093780D03*
X126348660Y-110518980D03*
X126341040Y-111034600D03*
X125596820Y-111507040D03*
D28*
X104736640Y-117672820D02*
X105436640Y-117672820D01*
X108154640Y-117498020D02*
X107776040Y-117876620D01*
X108154640Y-116454220D02*
X108154640Y-117498020D01*
X107571640Y-116237820D02*
X107938240Y-116237820D01*
X107938240Y-116237820D02*
X108154640Y-116454220D01*
X107049240Y-111337820D02*
X106681440Y-111705620D01*
X106681440Y-111705620D02*
X106681440Y-112085420D01*
X107571640Y-111337820D02*
X107049240Y-111337820D01*
D29*
X113599040Y-109307960D02*
X114485860Y-109307960D01*
X114869500Y-112814620D02*
X115869500Y-111814620D01*
X114439500Y-112814620D02*
X114869500Y-112814620D01*
D28*
X106836640Y-108502820D02*
X106920240Y-108586420D01*
X106920240Y-108586420D02*
X106920240Y-108672420D01*
D29*
X114775660Y-109307960D02*
X115352260Y-109307960D01*
X116199560Y-116623440D02*
X116199560Y-117589440D01*
X117091660Y-114954800D02*
X117075360Y-114954800D01*
X117075360Y-114954800D02*
X116211660Y-114954800D01*
X114485860Y-109307960D02*
X114485860Y-109307960D01*
X115302900Y-111312220D02*
X115802900Y-111812220D01*
X114372900Y-111312220D02*
X115302900Y-111312220D01*
D28*
X114581860Y-114412640D02*
X114581860Y-115052640D01*
X114581860Y-115052640D02*
X114581860Y-115682640D01*
D29*
X116178340Y-117610660D02*
X116182960Y-117606040D01*
X116211660Y-114954800D02*
X116211660Y-116611340D01*
X115802900Y-109730200D02*
X115378560Y-109305860D01*
X115802900Y-111812220D02*
X115802900Y-109730200D01*
D28*
X114581860Y-115052640D02*
X114581860Y-115052640D01*
D29*
X115868460Y-117920540D02*
X116182960Y-117606040D01*
X115335900Y-117920540D02*
X115868460Y-117920540D01*
X113548500Y-111312220D02*
X113435300Y-111199020D01*
X114372900Y-111312220D02*
X113548500Y-111312220D01*
X113479540Y-112812220D02*
X113427680Y-112864080D01*
X114372900Y-112812220D02*
X113479540Y-112812220D01*
X113435300Y-111199020D02*
X113435300Y-111199020D01*
X116211660Y-116611340D02*
X116199560Y-116623440D01*
D28*
X124462120Y-114956360D02*
X124462120Y-114956360D01*
X124054640Y-116834480D02*
X123093862Y-116834480D01*
X123093862Y-116834480D02*
X123092382Y-116835960D01*
X124499640Y-114969160D02*
X124486840Y-114956360D01*
X124499640Y-115789480D02*
X124499640Y-114969160D01*
X124486840Y-114956360D02*
X124486840Y-114956360D01*
X123069660Y-112020820D02*
X122558280Y-112020820D01*
X122558280Y-112020820D02*
X122558280Y-112020820D01*
X124084840Y-108428560D02*
X124087380Y-108426020D01*
X123211760Y-108428560D02*
X124082980Y-108428560D01*
X124082980Y-108428560D02*
X124084840Y-108428560D01*
X124054640Y-117434480D02*
X124099640Y-117479480D01*
X124054640Y-116834480D02*
X124054640Y-117434480D01*
X124099640Y-117479480D02*
X124499640Y-117479480D01*
X125744640Y-117434480D02*
X125699640Y-117479480D01*
X125744640Y-116834480D02*
X125744640Y-117434480D01*
X126182500Y-116834480D02*
X126450260Y-116566720D01*
X125744640Y-116834480D02*
X126182500Y-116834480D01*
D29*
X113599040Y-108417960D02*
X115352260Y-108417960D01*
X115331660Y-114954800D02*
X115331660Y-114954800D01*
X115331660Y-114454800D02*
X115331660Y-114954800D01*
X113513960Y-108503040D02*
X113599040Y-108417960D01*
X116415080Y-108415860D02*
X116416860Y-108417640D01*
X115378560Y-108415860D02*
X116415080Y-108415860D01*
X115352260Y-108417960D02*
X115352260Y-108417960D01*
X116416860Y-108417640D02*
X121734260Y-108417640D01*
X121734260Y-108417640D02*
X122652200Y-108417640D01*
X122652200Y-108417640D02*
X122652200Y-108417640D01*
D28*
X122632160Y-111020820D02*
X122315140Y-110703800D01*
X123069660Y-111020820D02*
X122632160Y-111020820D01*
X122315140Y-110703800D02*
X122315140Y-110082100D01*
X122315140Y-110082100D02*
X122315140Y-110082100D01*
X107571640Y-115537820D02*
X107304656Y-115537820D01*
X106794040Y-116121133D02*
X106794040Y-116952820D01*
X107377353Y-115537820D02*
X106794040Y-116121133D01*
X107571640Y-115537820D02*
X107377353Y-115537820D01*
X98350240Y-116989220D02*
X98401640Y-116937820D01*
D29*
X117232900Y-112812220D02*
X117232900Y-112812220D01*
X117232900Y-111312220D02*
X117232900Y-111812220D01*
X117232900Y-111812220D02*
X117232900Y-112312220D01*
X117089560Y-116623440D02*
X117089560Y-117589440D01*
X117232900Y-112812220D02*
X117232900Y-112409060D01*
D28*
X114031860Y-115052640D02*
X114031860Y-114412640D01*
X113932560Y-115151940D02*
X114031860Y-115052640D01*
X113321000Y-115151940D02*
X113932560Y-115151940D01*
X114001860Y-116272640D02*
X114041860Y-116312640D01*
X113326860Y-116272640D02*
X114001860Y-116272640D01*
X114096860Y-116367640D02*
X114051040Y-116321820D01*
X114096860Y-117142640D02*
X114096860Y-116367640D01*
D29*
X118306020Y-117606040D02*
X118759500Y-117152560D01*
X117072960Y-117606040D02*
X118306020Y-117606040D01*
X117091660Y-116621340D02*
X117089560Y-116623440D01*
X117091660Y-115454800D02*
X117091660Y-116448580D01*
D28*
X114042150Y-116312930D02*
X114041860Y-116312640D01*
D29*
X117091660Y-116448580D02*
X117091660Y-116621340D01*
D28*
X114096860Y-117230820D02*
X114786580Y-117920540D01*
X114096860Y-117142640D02*
X114096860Y-117230820D01*
X118954720Y-113236100D02*
X118957260Y-113233560D01*
X118337500Y-113236100D02*
X118954720Y-113236100D01*
D29*
X119705880Y-112484940D02*
X118957260Y-113233560D01*
X119952940Y-112484940D02*
X119705880Y-112484940D01*
D28*
X118337500Y-113236100D02*
X118068260Y-113236100D01*
D29*
X117644380Y-112812220D02*
X118068260Y-113236100D01*
X117232900Y-112812220D02*
X117644380Y-112812220D01*
D28*
X114051040Y-116321820D02*
X114042150Y-116312930D01*
X124054640Y-116434480D02*
X123618000Y-116434480D01*
X123618000Y-116434480D02*
X123333680Y-116150160D01*
D29*
X113428220Y-112314620D02*
X113427680Y-112314080D01*
X114439500Y-112314620D02*
X113428220Y-112314620D01*
D30*
X113427680Y-112314080D02*
X112878360Y-112314080D01*
X112878360Y-112314080D02*
X112878360Y-112314080D01*
D28*
X100807147Y-114039414D02*
X101054634Y-114039414D01*
X98401640Y-116237820D02*
X98608741Y-116237820D01*
X98608741Y-116237820D02*
X100807147Y-114039414D01*
X101848923Y-114752424D02*
X100712440Y-114752424D01*
X107363527Y-109237820D02*
X101848923Y-114752424D01*
X107571640Y-109237820D02*
X107363527Y-109237820D01*
X100382242Y-115108020D02*
X100356840Y-115082618D01*
X101879040Y-115108020D02*
X100382242Y-115108020D01*
X107571640Y-109937820D02*
X107049240Y-109937820D01*
X107049240Y-109937820D02*
X101879040Y-115108020D01*
X106136640Y-108502820D02*
X105995640Y-108643820D01*
X105995640Y-110098406D02*
X102054640Y-114039406D01*
X105995640Y-108643820D02*
X105995640Y-110098406D01*
X125299640Y-117936880D02*
X124863860Y-118372660D01*
X125299640Y-117479480D02*
X125299640Y-117936880D01*
X122896420Y-118372660D02*
X122268660Y-117744900D01*
X124863860Y-118372660D02*
X122896420Y-118372660D01*
X105436640Y-110157438D02*
X101554640Y-114039438D01*
X105436640Y-108502820D02*
X105436640Y-110157438D01*
X122269420Y-117244900D02*
X123084760Y-118060240D01*
X124899640Y-117936880D02*
X124899640Y-117479480D01*
X124776280Y-118060240D02*
X124899640Y-117936880D01*
X123084760Y-118060240D02*
X124776280Y-118060240D01*
X98401640Y-114137820D02*
X100315465Y-114137820D01*
X102554640Y-111898645D02*
X102554640Y-109369422D01*
X100315465Y-114137820D02*
X102554640Y-111898645D01*
X102054640Y-111539674D02*
X102054640Y-109369426D01*
X102066041Y-111551075D02*
X102054640Y-111539674D01*
X100656240Y-113437820D02*
X102054640Y-112039420D01*
X98401640Y-113437820D02*
X100656240Y-113437820D01*
X102054640Y-111901166D02*
X102066041Y-111889765D01*
X102054640Y-112039420D02*
X102054640Y-111901166D01*
X102066041Y-111889765D02*
X102066041Y-111551075D01*
X98419040Y-112720420D02*
X98659082Y-112720420D01*
X98924040Y-112737820D02*
X98401640Y-112737820D01*
X99061440Y-112600420D02*
X98924040Y-112737820D01*
X101554640Y-110278020D02*
X100229840Y-111602820D01*
X99061440Y-111983820D02*
X99061440Y-112600420D01*
X101554640Y-109369422D02*
X101554640Y-110278020D01*
X100229840Y-111602820D02*
X99442440Y-111602820D01*
X99442440Y-111602820D02*
X99061440Y-111983820D01*
X101054640Y-110320820D02*
X101054640Y-109369422D01*
X98401640Y-112037820D02*
X98404840Y-112034620D01*
X98404840Y-112034620D02*
X98644882Y-112034620D01*
X98644882Y-112034620D02*
X99356082Y-111323420D01*
X99356082Y-111323420D02*
X100052040Y-111323420D01*
X100052040Y-111323420D02*
X101054640Y-110320820D01*
X98604040Y-110637820D02*
X98401640Y-110637820D01*
X99213840Y-110028020D02*
X98604040Y-110637820D01*
X100554640Y-109369406D02*
X99896026Y-110028020D01*
X99896026Y-110028020D02*
X99213840Y-110028020D01*
X98872240Y-109937820D02*
X98401640Y-109937820D01*
X99546840Y-109367620D02*
X99442440Y-109367620D01*
X99442440Y-109367620D02*
X98872240Y-109937820D01*
X102636640Y-117672820D02*
X102627640Y-117613220D01*
X102642240Y-117672820D02*
X102642840Y-117673420D01*
X103336640Y-117672820D02*
X103338840Y-117613220D01*
X103336640Y-117868620D02*
X103328640Y-117876620D01*
X102627640Y-117613220D02*
X102642240Y-117672820D01*
X103338840Y-117613220D02*
X103336640Y-117868620D01*
X107571640Y-113437820D02*
X107571640Y-114137820D01*
X106711840Y-114137820D02*
X105513040Y-115336620D01*
X107571640Y-114137820D02*
X106711840Y-114137820D01*
D29*
X113498500Y-111812220D02*
X113435300Y-111749020D01*
X114372900Y-111812220D02*
X113498500Y-111812220D01*
D30*
X113435300Y-111749020D02*
X112874640Y-111749020D01*
X112874640Y-111749020D02*
X112874640Y-111749020D01*
D28*
X115236240Y-116312640D02*
X115241240Y-116307640D01*
X114591860Y-116312640D02*
X115236240Y-116312640D01*
D29*
X118091740Y-114454800D02*
X117091660Y-114454800D01*
X118759500Y-115122560D02*
X118091740Y-114454800D01*
X125731440Y-109033080D02*
X125731440Y-109033080D01*
X119495740Y-110879660D02*
X119495740Y-110165920D01*
X119272360Y-111103040D02*
X119495740Y-110879660D01*
X118540700Y-111103040D02*
X119272360Y-111103040D01*
D28*
X118540700Y-111091480D02*
X116416860Y-108967640D01*
X118540700Y-111103040D02*
X118540700Y-111091480D01*
D29*
X119495740Y-110165920D02*
X119495740Y-110165920D01*
D28*
X126605200Y-114633100D02*
X126605200Y-114303580D01*
X126605200Y-114303580D02*
X126795700Y-114113080D01*
X126795700Y-114113080D02*
X126795700Y-114113080D01*
X124757160Y-113304280D02*
X124573200Y-113488240D01*
X124757160Y-112708320D02*
X124757160Y-113304280D01*
X122632160Y-111520820D02*
X121753800Y-110642460D01*
X121753800Y-110642460D02*
X121753800Y-110158980D01*
X123069660Y-111520820D02*
X122632160Y-111520820D01*
X123757160Y-113489620D02*
X123273400Y-113973380D01*
X123757160Y-112708320D02*
X123757160Y-113489620D01*
X123755440Y-109835040D02*
X123757160Y-109833320D01*
X123532820Y-109608980D02*
X123757160Y-109833320D01*
X121753800Y-109608980D02*
X123532820Y-109608980D01*
X120907260Y-117244900D02*
X122055340Y-116096820D01*
X120267900Y-117244900D02*
X120907260Y-117244900D01*
X122055340Y-116096820D02*
X122055340Y-116477100D01*
X122055340Y-116477100D02*
X123186360Y-117608120D01*
X123186360Y-117608120D02*
X123577520Y-117608120D01*
X123577520Y-117608120D02*
X123577520Y-117608120D01*
X125301500Y-115787620D02*
X125299640Y-115789480D01*
X125301500Y-114969060D02*
X125301500Y-115787620D01*
X125301500Y-114969060D02*
X125301500Y-114738600D01*
X125301500Y-114738600D02*
X125355520Y-114684580D01*
X123936840Y-115626680D02*
X124044320Y-115734160D01*
X123936840Y-114956360D02*
X123936840Y-115626680D01*
X124044320Y-115734160D02*
X124099640Y-115789480D01*
X125909400Y-116434480D02*
X125744640Y-116434480D01*
X126605200Y-115738680D02*
X125909400Y-116434480D01*
X126605200Y-115183100D02*
X126605200Y-115738680D01*
X125257160Y-113922600D02*
X125447640Y-114113080D01*
X125257160Y-112708320D02*
X125257160Y-113922600D01*
X124899640Y-114128960D02*
X124896460Y-114125780D01*
X124899640Y-115789480D02*
X124899640Y-114128960D01*
X124257160Y-109833320D02*
X124257160Y-109206880D01*
X124637380Y-108826660D02*
X124637380Y-108426020D01*
X124257160Y-109206880D02*
X124637380Y-108826660D01*
X125257160Y-109833320D02*
X126338360Y-109833320D01*
X126338360Y-109833320D02*
X126338360Y-109833320D01*
X126346820Y-110520820D02*
X126348660Y-110518980D01*
X125944660Y-110520820D02*
X126346820Y-110520820D01*
M02*
