G04 #@! TF.GenerationSoftware,KiCad,Pcbnew,(5.1.12)-1*
G04 #@! TF.CreationDate,2024-03-07T16:38:44+08:00*
G04 #@! TF.ProjectId,CM2_MesoScope,434d325f-4d65-4736-9f53-636f70652e6b,rev?*
G04 #@! TF.SameCoordinates,Original*
G04 #@! TF.FileFunction,Soldermask,Bot*
G04 #@! TF.FilePolarity,Negative*
%FSLAX46Y46*%
G04 Gerber Fmt 4.6, Leading zero omitted, Abs format (unit mm)*
G04 Created by KiCad (PCBNEW (5.1.12)-1) date 2024-03-07 16:38:44*
%MOMM*%
%LPD*%
G01*
G04 APERTURE LIST*
%ADD10C,0.050000*%
%ADD11C,1.050800*%
G04 APERTURE END LIST*
D10*
X124976260Y-110677720D02*
X123096260Y-110677720D01*
X124976260Y-107977720D02*
X123096260Y-107977720D01*
X124976260Y-110677720D02*
X123096260Y-110677720D01*
X124976260Y-107977720D02*
X123096260Y-107977720D01*
D11*
X102971340Y-106477860D03*
X102973880Y-119656120D03*
X117195340Y-106477860D03*
X117197880Y-119656120D03*
G36*
G01*
X123724240Y-116544480D02*
X123724240Y-116324480D01*
G75*
G02*
X123749640Y-116299080I25400J0D01*
G01*
X124359640Y-116299080D01*
G75*
G02*
X124385040Y-116324480I0J-25400D01*
G01*
X124385040Y-116544480D01*
G75*
G02*
X124359640Y-116569880I-25400J0D01*
G01*
X123749640Y-116569880D01*
G75*
G02*
X123724240Y-116544480I0J25400D01*
G01*
G37*
G36*
G01*
X123724240Y-116944480D02*
X123724240Y-116724480D01*
G75*
G02*
X123749640Y-116699080I25400J0D01*
G01*
X124359640Y-116699080D01*
G75*
G02*
X124385040Y-116724480I0J-25400D01*
G01*
X124385040Y-116944480D01*
G75*
G02*
X124359640Y-116969880I-25400J0D01*
G01*
X123749640Y-116969880D01*
G75*
G02*
X123724240Y-116944480I0J25400D01*
G01*
G37*
G36*
G01*
X123989640Y-117149080D02*
X124209640Y-117149080D01*
G75*
G02*
X124235040Y-117174480I0J-25400D01*
G01*
X124235040Y-117784480D01*
G75*
G02*
X124209640Y-117809880I-25400J0D01*
G01*
X123989640Y-117809880D01*
G75*
G02*
X123964240Y-117784480I0J25400D01*
G01*
X123964240Y-117174480D01*
G75*
G02*
X123989640Y-117149080I25400J0D01*
G01*
G37*
G36*
G01*
X124389640Y-117149080D02*
X124609640Y-117149080D01*
G75*
G02*
X124635040Y-117174480I0J-25400D01*
G01*
X124635040Y-117784480D01*
G75*
G02*
X124609640Y-117809880I-25400J0D01*
G01*
X124389640Y-117809880D01*
G75*
G02*
X124364240Y-117784480I0J25400D01*
G01*
X124364240Y-117174480D01*
G75*
G02*
X124389640Y-117149080I25400J0D01*
G01*
G37*
G36*
G01*
X124789640Y-117149080D02*
X125009640Y-117149080D01*
G75*
G02*
X125035040Y-117174480I0J-25400D01*
G01*
X125035040Y-117784480D01*
G75*
G02*
X125009640Y-117809880I-25400J0D01*
G01*
X124789640Y-117809880D01*
G75*
G02*
X124764240Y-117784480I0J25400D01*
G01*
X124764240Y-117174480D01*
G75*
G02*
X124789640Y-117149080I25400J0D01*
G01*
G37*
G36*
G01*
X125189640Y-117149080D02*
X125409640Y-117149080D01*
G75*
G02*
X125435040Y-117174480I0J-25400D01*
G01*
X125435040Y-117784480D01*
G75*
G02*
X125409640Y-117809880I-25400J0D01*
G01*
X125189640Y-117809880D01*
G75*
G02*
X125164240Y-117784480I0J25400D01*
G01*
X125164240Y-117174480D01*
G75*
G02*
X125189640Y-117149080I25400J0D01*
G01*
G37*
G36*
G01*
X125589640Y-117149080D02*
X125809640Y-117149080D01*
G75*
G02*
X125835040Y-117174480I0J-25400D01*
G01*
X125835040Y-117784480D01*
G75*
G02*
X125809640Y-117809880I-25400J0D01*
G01*
X125589640Y-117809880D01*
G75*
G02*
X125564240Y-117784480I0J25400D01*
G01*
X125564240Y-117174480D01*
G75*
G02*
X125589640Y-117149080I25400J0D01*
G01*
G37*
G36*
G01*
X125414240Y-116944480D02*
X125414240Y-116724480D01*
G75*
G02*
X125439640Y-116699080I25400J0D01*
G01*
X126049640Y-116699080D01*
G75*
G02*
X126075040Y-116724480I0J-25400D01*
G01*
X126075040Y-116944480D01*
G75*
G02*
X126049640Y-116969880I-25400J0D01*
G01*
X125439640Y-116969880D01*
G75*
G02*
X125414240Y-116944480I0J25400D01*
G01*
G37*
G36*
G01*
X125414240Y-116544480D02*
X125414240Y-116324480D01*
G75*
G02*
X125439640Y-116299080I25400J0D01*
G01*
X126049640Y-116299080D01*
G75*
G02*
X126075040Y-116324480I0J-25400D01*
G01*
X126075040Y-116544480D01*
G75*
G02*
X126049640Y-116569880I-25400J0D01*
G01*
X125439640Y-116569880D01*
G75*
G02*
X125414240Y-116544480I0J25400D01*
G01*
G37*
G36*
G01*
X125589640Y-115459080D02*
X125809640Y-115459080D01*
G75*
G02*
X125835040Y-115484480I0J-25400D01*
G01*
X125835040Y-116094480D01*
G75*
G02*
X125809640Y-116119880I-25400J0D01*
G01*
X125589640Y-116119880D01*
G75*
G02*
X125564240Y-116094480I0J25400D01*
G01*
X125564240Y-115484480D01*
G75*
G02*
X125589640Y-115459080I25400J0D01*
G01*
G37*
G36*
G01*
X125189640Y-115459080D02*
X125409640Y-115459080D01*
G75*
G02*
X125435040Y-115484480I0J-25400D01*
G01*
X125435040Y-116094480D01*
G75*
G02*
X125409640Y-116119880I-25400J0D01*
G01*
X125189640Y-116119880D01*
G75*
G02*
X125164240Y-116094480I0J25400D01*
G01*
X125164240Y-115484480D01*
G75*
G02*
X125189640Y-115459080I25400J0D01*
G01*
G37*
G36*
G01*
X124789640Y-115459080D02*
X125009640Y-115459080D01*
G75*
G02*
X125035040Y-115484480I0J-25400D01*
G01*
X125035040Y-116094480D01*
G75*
G02*
X125009640Y-116119880I-25400J0D01*
G01*
X124789640Y-116119880D01*
G75*
G02*
X124764240Y-116094480I0J25400D01*
G01*
X124764240Y-115484480D01*
G75*
G02*
X124789640Y-115459080I25400J0D01*
G01*
G37*
G36*
G01*
X124389640Y-115459080D02*
X124609640Y-115459080D01*
G75*
G02*
X124635040Y-115484480I0J-25400D01*
G01*
X124635040Y-116094480D01*
G75*
G02*
X124609640Y-116119880I-25400J0D01*
G01*
X124389640Y-116119880D01*
G75*
G02*
X124364240Y-116094480I0J25400D01*
G01*
X124364240Y-115484480D01*
G75*
G02*
X124389640Y-115459080I25400J0D01*
G01*
G37*
G36*
G01*
X123989640Y-115459080D02*
X124209640Y-115459080D01*
G75*
G02*
X124235040Y-115484480I0J-25400D01*
G01*
X124235040Y-116094480D01*
G75*
G02*
X124209640Y-116119880I-25400J0D01*
G01*
X123989640Y-116119880D01*
G75*
G02*
X123964240Y-116094480I0J25400D01*
G01*
X123964240Y-115484480D01*
G75*
G02*
X123989640Y-115459080I25400J0D01*
G01*
G37*
G36*
G01*
X123757160Y-110495420D02*
X125257160Y-110495420D01*
G75*
G02*
X125282560Y-110520820I0J-25400D01*
G01*
X125282560Y-112020820D01*
G75*
G02*
X125257160Y-112046220I-25400J0D01*
G01*
X123757160Y-112046220D01*
G75*
G02*
X123731760Y-112020820I0J25400D01*
G01*
X123731760Y-110520820D01*
G75*
G02*
X123757160Y-110495420I25400J0D01*
G01*
G37*
G36*
G01*
X122681960Y-110370420D02*
X123457360Y-110370420D01*
G75*
G02*
X123532560Y-110445620I0J-75200D01*
G01*
X123532560Y-110596020D01*
G75*
G02*
X123457360Y-110671220I-75200J0D01*
G01*
X122681960Y-110671220D01*
G75*
G02*
X122606760Y-110596020I0J75200D01*
G01*
X122606760Y-110445620D01*
G75*
G02*
X122681960Y-110370420I75200J0D01*
G01*
G37*
G36*
G01*
X122681960Y-110870420D02*
X123457360Y-110870420D01*
G75*
G02*
X123532560Y-110945620I0J-75200D01*
G01*
X123532560Y-111096020D01*
G75*
G02*
X123457360Y-111171220I-75200J0D01*
G01*
X122681960Y-111171220D01*
G75*
G02*
X122606760Y-111096020I0J75200D01*
G01*
X122606760Y-110945620D01*
G75*
G02*
X122681960Y-110870420I75200J0D01*
G01*
G37*
G36*
G01*
X122681960Y-111370420D02*
X123457360Y-111370420D01*
G75*
G02*
X123532560Y-111445620I0J-75200D01*
G01*
X123532560Y-111596020D01*
G75*
G02*
X123457360Y-111671220I-75200J0D01*
G01*
X122681960Y-111671220D01*
G75*
G02*
X122606760Y-111596020I0J75200D01*
G01*
X122606760Y-111445620D01*
G75*
G02*
X122681960Y-111370420I75200J0D01*
G01*
G37*
G36*
G01*
X122681960Y-111870420D02*
X123457360Y-111870420D01*
G75*
G02*
X123532560Y-111945620I0J-75200D01*
G01*
X123532560Y-112096020D01*
G75*
G02*
X123457360Y-112171220I-75200J0D01*
G01*
X122681960Y-112171220D01*
G75*
G02*
X122606760Y-112096020I0J75200D01*
G01*
X122606760Y-111945620D01*
G75*
G02*
X122681960Y-111870420I75200J0D01*
G01*
G37*
G36*
G01*
X123681960Y-112245420D02*
X123832360Y-112245420D01*
G75*
G02*
X123907560Y-112320620I0J-75200D01*
G01*
X123907560Y-113096020D01*
G75*
G02*
X123832360Y-113171220I-75200J0D01*
G01*
X123681960Y-113171220D01*
G75*
G02*
X123606760Y-113096020I0J75200D01*
G01*
X123606760Y-112320620D01*
G75*
G02*
X123681960Y-112245420I75200J0D01*
G01*
G37*
G36*
G01*
X124181960Y-112245420D02*
X124332360Y-112245420D01*
G75*
G02*
X124407560Y-112320620I0J-75200D01*
G01*
X124407560Y-113096020D01*
G75*
G02*
X124332360Y-113171220I-75200J0D01*
G01*
X124181960Y-113171220D01*
G75*
G02*
X124106760Y-113096020I0J75200D01*
G01*
X124106760Y-112320620D01*
G75*
G02*
X124181960Y-112245420I75200J0D01*
G01*
G37*
G36*
G01*
X124681960Y-112245420D02*
X124832360Y-112245420D01*
G75*
G02*
X124907560Y-112320620I0J-75200D01*
G01*
X124907560Y-113096020D01*
G75*
G02*
X124832360Y-113171220I-75200J0D01*
G01*
X124681960Y-113171220D01*
G75*
G02*
X124606760Y-113096020I0J75200D01*
G01*
X124606760Y-112320620D01*
G75*
G02*
X124681960Y-112245420I75200J0D01*
G01*
G37*
G36*
G01*
X125181960Y-112245420D02*
X125332360Y-112245420D01*
G75*
G02*
X125407560Y-112320620I0J-75200D01*
G01*
X125407560Y-113096020D01*
G75*
G02*
X125332360Y-113171220I-75200J0D01*
G01*
X125181960Y-113171220D01*
G75*
G02*
X125106760Y-113096020I0J75200D01*
G01*
X125106760Y-112320620D01*
G75*
G02*
X125181960Y-112245420I75200J0D01*
G01*
G37*
G36*
G01*
X125556960Y-111870420D02*
X126332360Y-111870420D01*
G75*
G02*
X126407560Y-111945620I0J-75200D01*
G01*
X126407560Y-112096020D01*
G75*
G02*
X126332360Y-112171220I-75200J0D01*
G01*
X125556960Y-112171220D01*
G75*
G02*
X125481760Y-112096020I0J75200D01*
G01*
X125481760Y-111945620D01*
G75*
G02*
X125556960Y-111870420I75200J0D01*
G01*
G37*
G36*
G01*
X125556960Y-111370420D02*
X126332360Y-111370420D01*
G75*
G02*
X126407560Y-111445620I0J-75200D01*
G01*
X126407560Y-111596020D01*
G75*
G02*
X126332360Y-111671220I-75200J0D01*
G01*
X125556960Y-111671220D01*
G75*
G02*
X125481760Y-111596020I0J75200D01*
G01*
X125481760Y-111445620D01*
G75*
G02*
X125556960Y-111370420I75200J0D01*
G01*
G37*
G36*
G01*
X125556960Y-110870420D02*
X126332360Y-110870420D01*
G75*
G02*
X126407560Y-110945620I0J-75200D01*
G01*
X126407560Y-111096020D01*
G75*
G02*
X126332360Y-111171220I-75200J0D01*
G01*
X125556960Y-111171220D01*
G75*
G02*
X125481760Y-111096020I0J75200D01*
G01*
X125481760Y-110945620D01*
G75*
G02*
X125556960Y-110870420I75200J0D01*
G01*
G37*
G36*
G01*
X125556960Y-110370420D02*
X126332360Y-110370420D01*
G75*
G02*
X126407560Y-110445620I0J-75200D01*
G01*
X126407560Y-110596020D01*
G75*
G02*
X126332360Y-110671220I-75200J0D01*
G01*
X125556960Y-110671220D01*
G75*
G02*
X125481760Y-110596020I0J75200D01*
G01*
X125481760Y-110445620D01*
G75*
G02*
X125556960Y-110370420I75200J0D01*
G01*
G37*
G36*
G01*
X125181960Y-109370420D02*
X125332360Y-109370420D01*
G75*
G02*
X125407560Y-109445620I0J-75200D01*
G01*
X125407560Y-110221020D01*
G75*
G02*
X125332360Y-110296220I-75200J0D01*
G01*
X125181960Y-110296220D01*
G75*
G02*
X125106760Y-110221020I0J75200D01*
G01*
X125106760Y-109445620D01*
G75*
G02*
X125181960Y-109370420I75200J0D01*
G01*
G37*
G36*
G01*
X124681960Y-109370420D02*
X124832360Y-109370420D01*
G75*
G02*
X124907560Y-109445620I0J-75200D01*
G01*
X124907560Y-110221020D01*
G75*
G02*
X124832360Y-110296220I-75200J0D01*
G01*
X124681960Y-110296220D01*
G75*
G02*
X124606760Y-110221020I0J75200D01*
G01*
X124606760Y-109445620D01*
G75*
G02*
X124681960Y-109370420I75200J0D01*
G01*
G37*
G36*
G01*
X124181960Y-109370420D02*
X124332360Y-109370420D01*
G75*
G02*
X124407560Y-109445620I0J-75200D01*
G01*
X124407560Y-110221020D01*
G75*
G02*
X124332360Y-110296220I-75200J0D01*
G01*
X124181960Y-110296220D01*
G75*
G02*
X124106760Y-110221020I0J75200D01*
G01*
X124106760Y-109445620D01*
G75*
G02*
X124181960Y-109370420I75200J0D01*
G01*
G37*
G36*
G01*
X123681960Y-109370420D02*
X123832360Y-109370420D01*
G75*
G02*
X123907560Y-109445620I0J-75200D01*
G01*
X123907560Y-110221020D01*
G75*
G02*
X123832360Y-110296220I-75200J0D01*
G01*
X123681960Y-110296220D01*
G75*
G02*
X123606760Y-110221020I0J75200D01*
G01*
X123606760Y-109445620D01*
G75*
G02*
X123681960Y-109370420I75200J0D01*
G01*
G37*
G36*
G01*
X125267240Y-114283080D02*
X125267240Y-113943080D01*
G75*
G02*
X125292640Y-113917680I25400J0D01*
G01*
X125602640Y-113917680D01*
G75*
G02*
X125628040Y-113943080I0J-25400D01*
G01*
X125628040Y-114283080D01*
G75*
G02*
X125602640Y-114308480I-25400J0D01*
G01*
X125292640Y-114308480D01*
G75*
G02*
X125267240Y-114283080I0J25400D01*
G01*
G37*
G36*
G01*
X124717240Y-114283080D02*
X124717240Y-113943080D01*
G75*
G02*
X124742640Y-113917680I25400J0D01*
G01*
X125052640Y-113917680D01*
G75*
G02*
X125078040Y-113943080I0J-25400D01*
G01*
X125078040Y-114283080D01*
G75*
G02*
X125052640Y-114308480I-25400J0D01*
G01*
X124742640Y-114308480D01*
G75*
G02*
X124717240Y-114283080I0J25400D01*
G01*
G37*
G36*
G01*
X126775200Y-114813500D02*
X126435200Y-114813500D01*
G75*
G02*
X126409800Y-114788100I0J25400D01*
G01*
X126409800Y-114478100D01*
G75*
G02*
X126435200Y-114452700I25400J0D01*
G01*
X126775200Y-114452700D01*
G75*
G02*
X126800600Y-114478100I0J-25400D01*
G01*
X126800600Y-114788100D01*
G75*
G02*
X126775200Y-114813500I-25400J0D01*
G01*
G37*
G36*
G01*
X126775200Y-115363500D02*
X126435200Y-115363500D01*
G75*
G02*
X126409800Y-115338100I0J25400D01*
G01*
X126409800Y-115028100D01*
G75*
G02*
X126435200Y-115002700I25400J0D01*
G01*
X126775200Y-115002700D01*
G75*
G02*
X126800600Y-115028100I0J-25400D01*
G01*
X126800600Y-115338100D01*
G75*
G02*
X126775200Y-115363500I-25400J0D01*
G01*
G37*
G36*
G01*
X124306440Y-115126360D02*
X124306440Y-114786360D01*
G75*
G02*
X124331840Y-114760960I25400J0D01*
G01*
X124641840Y-114760960D01*
G75*
G02*
X124667240Y-114786360I0J-25400D01*
G01*
X124667240Y-115126360D01*
G75*
G02*
X124641840Y-115151760I-25400J0D01*
G01*
X124331840Y-115151760D01*
G75*
G02*
X124306440Y-115126360I0J25400D01*
G01*
G37*
G36*
G01*
X123756440Y-115126360D02*
X123756440Y-114786360D01*
G75*
G02*
X123781840Y-114760960I25400J0D01*
G01*
X124091840Y-114760960D01*
G75*
G02*
X124117240Y-114786360I0J-25400D01*
G01*
X124117240Y-115126360D01*
G75*
G02*
X124091840Y-115151760I-25400J0D01*
G01*
X123781840Y-115151760D01*
G75*
G02*
X123756440Y-115126360I0J25400D01*
G01*
G37*
G36*
G01*
X125671100Y-115139060D02*
X125671100Y-114799060D01*
G75*
G02*
X125696500Y-114773660I25400J0D01*
G01*
X126006500Y-114773660D01*
G75*
G02*
X126031900Y-114799060I0J-25400D01*
G01*
X126031900Y-115139060D01*
G75*
G02*
X126006500Y-115164460I-25400J0D01*
G01*
X125696500Y-115164460D01*
G75*
G02*
X125671100Y-115139060I0J25400D01*
G01*
G37*
G36*
G01*
X125121100Y-115139060D02*
X125121100Y-114799060D01*
G75*
G02*
X125146500Y-114773660I25400J0D01*
G01*
X125456500Y-114773660D01*
G75*
G02*
X125481900Y-114799060I0J-25400D01*
G01*
X125481900Y-115139060D01*
G75*
G02*
X125456500Y-115164460I-25400J0D01*
G01*
X125146500Y-115164460D01*
G75*
G02*
X125121100Y-115139060I0J25400D01*
G01*
G37*
G36*
G01*
X121923800Y-109789380D02*
X121583800Y-109789380D01*
G75*
G02*
X121558400Y-109763980I0J25400D01*
G01*
X121558400Y-109453980D01*
G75*
G02*
X121583800Y-109428580I25400J0D01*
G01*
X121923800Y-109428580D01*
G75*
G02*
X121949200Y-109453980I0J-25400D01*
G01*
X121949200Y-109763980D01*
G75*
G02*
X121923800Y-109789380I-25400J0D01*
G01*
G37*
G36*
G01*
X121923800Y-110339380D02*
X121583800Y-110339380D01*
G75*
G02*
X121558400Y-110313980I0J25400D01*
G01*
X121558400Y-110003980D01*
G75*
G02*
X121583800Y-109978580I25400J0D01*
G01*
X121923800Y-109978580D01*
G75*
G02*
X121949200Y-110003980I0J-25400D01*
G01*
X121949200Y-110313980D01*
G75*
G02*
X121923800Y-110339380I-25400J0D01*
G01*
G37*
G36*
G01*
X123031360Y-108598560D02*
X123031360Y-108258560D01*
G75*
G02*
X123056760Y-108233160I25400J0D01*
G01*
X123366760Y-108233160D01*
G75*
G02*
X123392160Y-108258560I0J-25400D01*
G01*
X123392160Y-108598560D01*
G75*
G02*
X123366760Y-108623960I-25400J0D01*
G01*
X123056760Y-108623960D01*
G75*
G02*
X123031360Y-108598560I0J25400D01*
G01*
G37*
G36*
G01*
X122481360Y-108598560D02*
X122481360Y-108258560D01*
G75*
G02*
X122506760Y-108233160I25400J0D01*
G01*
X122816760Y-108233160D01*
G75*
G02*
X122842160Y-108258560I0J-25400D01*
G01*
X122842160Y-108598560D01*
G75*
G02*
X122816760Y-108623960I-25400J0D01*
G01*
X122506760Y-108623960D01*
G75*
G02*
X122481360Y-108598560I0J25400D01*
G01*
G37*
G36*
G01*
X123093000Y-114143380D02*
X123093000Y-113803380D01*
G75*
G02*
X123118400Y-113777980I25400J0D01*
G01*
X123428400Y-113777980D01*
G75*
G02*
X123453800Y-113803380I0J-25400D01*
G01*
X123453800Y-114143380D01*
G75*
G02*
X123428400Y-114168780I-25400J0D01*
G01*
X123118400Y-114168780D01*
G75*
G02*
X123093000Y-114143380I0J25400D01*
G01*
G37*
G36*
G01*
X122543000Y-114143380D02*
X122543000Y-113803380D01*
G75*
G02*
X122568400Y-113777980I25400J0D01*
G01*
X122878400Y-113777980D01*
G75*
G02*
X122903800Y-113803380I0J-25400D01*
G01*
X122903800Y-114143380D01*
G75*
G02*
X122878400Y-114168780I-25400J0D01*
G01*
X122568400Y-114168780D01*
G75*
G02*
X122543000Y-114143380I0J25400D01*
G01*
G37*
G36*
G01*
X124267780Y-108256020D02*
X124267780Y-108596020D01*
G75*
G02*
X124242380Y-108621420I-25400J0D01*
G01*
X123932380Y-108621420D01*
G75*
G02*
X123906980Y-108596020I0J25400D01*
G01*
X123906980Y-108256020D01*
G75*
G02*
X123932380Y-108230620I25400J0D01*
G01*
X124242380Y-108230620D01*
G75*
G02*
X124267780Y-108256020I0J-25400D01*
G01*
G37*
G36*
G01*
X124817780Y-108256020D02*
X124817780Y-108596020D01*
G75*
G02*
X124792380Y-108621420I-25400J0D01*
G01*
X124482380Y-108621420D01*
G75*
G02*
X124456980Y-108596020I0J25400D01*
G01*
X124456980Y-108256020D01*
G75*
G02*
X124482380Y-108230620I25400J0D01*
G01*
X124792380Y-108230620D01*
G75*
G02*
X124817780Y-108256020I0J-25400D01*
G01*
G37*
G36*
G01*
X114173040Y-108102560D02*
X114803040Y-108102560D01*
G75*
G02*
X114828440Y-108127960I0J-25400D01*
G01*
X114828440Y-108707960D01*
G75*
G02*
X114803040Y-108733360I-25400J0D01*
G01*
X114173040Y-108733360D01*
G75*
G02*
X114147640Y-108707960I0J25400D01*
G01*
X114147640Y-108127960D01*
G75*
G02*
X114173040Y-108102560I25400J0D01*
G01*
G37*
G36*
G01*
X114173040Y-108992560D02*
X114803040Y-108992560D01*
G75*
G02*
X114828440Y-109017960I0J-25400D01*
G01*
X114828440Y-109597960D01*
G75*
G02*
X114803040Y-109623360I-25400J0D01*
G01*
X114173040Y-109623360D01*
G75*
G02*
X114147640Y-109597960I0J25400D01*
G01*
X114147640Y-109017960D01*
G75*
G02*
X114173040Y-108992560I25400J0D01*
G01*
G37*
G36*
G01*
X113284040Y-108992560D02*
X113914040Y-108992560D01*
G75*
G02*
X113939440Y-109017960I0J-25400D01*
G01*
X113939440Y-109597960D01*
G75*
G02*
X113914040Y-109623360I-25400J0D01*
G01*
X113284040Y-109623360D01*
G75*
G02*
X113258640Y-109597960I0J25400D01*
G01*
X113258640Y-109017960D01*
G75*
G02*
X113284040Y-108992560I25400J0D01*
G01*
G37*
G36*
G01*
X113284040Y-108102560D02*
X113914040Y-108102560D01*
G75*
G02*
X113939440Y-108127960I0J-25400D01*
G01*
X113939440Y-108707960D01*
G75*
G02*
X113914040Y-108733360I-25400J0D01*
G01*
X113284040Y-108733360D01*
G75*
G02*
X113258640Y-108707960I0J25400D01*
G01*
X113258640Y-108127960D01*
G75*
G02*
X113284040Y-108102560I25400J0D01*
G01*
G37*
G36*
G01*
X115195860Y-108990460D02*
X115561260Y-108990460D01*
G75*
G02*
X115718960Y-109148160I0J-157700D01*
G01*
X115718960Y-109463560D01*
G75*
G02*
X115561260Y-109621260I-157700J0D01*
G01*
X115195860Y-109621260D01*
G75*
G02*
X115038160Y-109463560I0J157700D01*
G01*
X115038160Y-109148160D01*
G75*
G02*
X115195860Y-108990460I157700J0D01*
G01*
G37*
G36*
G01*
X115195860Y-108100460D02*
X115561260Y-108100460D01*
G75*
G02*
X115718960Y-108258160I0J-157700D01*
G01*
X115718960Y-108573560D01*
G75*
G02*
X115561260Y-108731260I-157700J0D01*
G01*
X115195860Y-108731260D01*
G75*
G02*
X115038160Y-108573560I0J157700D01*
G01*
X115038160Y-108258160D01*
G75*
G02*
X115195860Y-108100460I157700J0D01*
G01*
G37*
G36*
G01*
X116498360Y-117291040D02*
X116498360Y-117921040D01*
G75*
G02*
X116472960Y-117946440I-25400J0D01*
G01*
X115892960Y-117946440D01*
G75*
G02*
X115867560Y-117921040I0J25400D01*
G01*
X115867560Y-117291040D01*
G75*
G02*
X115892960Y-117265640I25400J0D01*
G01*
X116472960Y-117265640D01*
G75*
G02*
X116498360Y-117291040I0J-25400D01*
G01*
G37*
G36*
G01*
X117388360Y-117291040D02*
X117388360Y-117921040D01*
G75*
G02*
X117362960Y-117946440I-25400J0D01*
G01*
X116782960Y-117946440D01*
G75*
G02*
X116757560Y-117921040I0J25400D01*
G01*
X116757560Y-117291040D01*
G75*
G02*
X116782960Y-117265640I25400J0D01*
G01*
X117362960Y-117265640D01*
G75*
G02*
X117388360Y-117291040I0J-25400D01*
G01*
G37*
G36*
G01*
X116514960Y-116440740D02*
X116514960Y-116806140D01*
G75*
G02*
X116357260Y-116963840I-157700J0D01*
G01*
X116041860Y-116963840D01*
G75*
G02*
X115884160Y-116806140I0J157700D01*
G01*
X115884160Y-116440740D01*
G75*
G02*
X116041860Y-116283040I157700J0D01*
G01*
X116357260Y-116283040D01*
G75*
G02*
X116514960Y-116440740I0J-157700D01*
G01*
G37*
G36*
G01*
X117404960Y-116440740D02*
X117404960Y-116806140D01*
G75*
G02*
X117247260Y-116963840I-157700J0D01*
G01*
X116931860Y-116963840D01*
G75*
G02*
X116774160Y-116806140I0J157700D01*
G01*
X116774160Y-116440740D01*
G75*
G02*
X116931860Y-116283040I157700J0D01*
G01*
X117247260Y-116283040D01*
G75*
G02*
X117404960Y-116440740I0J-157700D01*
G01*
G37*
G36*
G01*
X118238260Y-113416500D02*
X117898260Y-113416500D01*
G75*
G02*
X117872860Y-113391100I0J25400D01*
G01*
X117872860Y-113081100D01*
G75*
G02*
X117898260Y-113055700I25400J0D01*
G01*
X118238260Y-113055700D01*
G75*
G02*
X118263660Y-113081100I0J-25400D01*
G01*
X118263660Y-113391100D01*
G75*
G02*
X118238260Y-113416500I-25400J0D01*
G01*
G37*
G36*
G01*
X118238260Y-113966500D02*
X117898260Y-113966500D01*
G75*
G02*
X117872860Y-113941100I0J25400D01*
G01*
X117872860Y-113631100D01*
G75*
G02*
X117898260Y-113605700I25400J0D01*
G01*
X118238260Y-113605700D01*
G75*
G02*
X118263660Y-113631100I0J-25400D01*
G01*
X118263660Y-113941100D01*
G75*
G02*
X118238260Y-113966500I-25400J0D01*
G01*
G37*
G36*
G01*
X119127260Y-113413960D02*
X118787260Y-113413960D01*
G75*
G02*
X118761860Y-113388560I0J25400D01*
G01*
X118761860Y-113078560D01*
G75*
G02*
X118787260Y-113053160I25400J0D01*
G01*
X119127260Y-113053160D01*
G75*
G02*
X119152660Y-113078560I0J-25400D01*
G01*
X119152660Y-113388560D01*
G75*
G02*
X119127260Y-113413960I-25400J0D01*
G01*
G37*
G36*
G01*
X119127260Y-113963960D02*
X118787260Y-113963960D01*
G75*
G02*
X118761860Y-113938560I0J25400D01*
G01*
X118761860Y-113628560D01*
G75*
G02*
X118787260Y-113603160I25400J0D01*
G01*
X119127260Y-113603160D01*
G75*
G02*
X119152660Y-113628560I0J-25400D01*
G01*
X119152660Y-113938560D01*
G75*
G02*
X119127260Y-113963960I-25400J0D01*
G01*
G37*
G36*
G01*
X119498020Y-112009940D02*
X120418020Y-112009940D01*
G75*
G02*
X120443420Y-112035340I0J-25400D01*
G01*
X120443420Y-112925340D01*
G75*
G02*
X120418020Y-112950740I-25400J0D01*
G01*
X119498020Y-112950740D01*
G75*
G02*
X119472620Y-112925340I0J25400D01*
G01*
X119472620Y-112035340D01*
G75*
G02*
X119498020Y-112009940I25400J0D01*
G01*
G37*
G36*
G01*
X119498020Y-113339940D02*
X120418020Y-113339940D01*
G75*
G02*
X120443420Y-113365340I0J-25400D01*
G01*
X120443420Y-114255340D01*
G75*
G02*
X120418020Y-114280740I-25400J0D01*
G01*
X119498020Y-114280740D01*
G75*
G02*
X119472620Y-114255340I0J25400D01*
G01*
X119472620Y-113365340D01*
G75*
G02*
X119498020Y-113339940I25400J0D01*
G01*
G37*
G36*
G01*
X122485740Y-115661820D02*
X122485740Y-116531820D01*
G75*
G02*
X122460340Y-116557220I-25400J0D01*
G01*
X121650340Y-116557220D01*
G75*
G02*
X121624940Y-116531820I0J25400D01*
G01*
X121624940Y-115661820D01*
G75*
G02*
X121650340Y-115636420I25400J0D01*
G01*
X122460340Y-115636420D01*
G75*
G02*
X122485740Y-115661820I0J-25400D01*
G01*
G37*
G36*
G01*
X121125740Y-115661820D02*
X121125740Y-116531820D01*
G75*
G02*
X121100340Y-116557220I-25400J0D01*
G01*
X120290340Y-116557220D01*
G75*
G02*
X120264940Y-116531820I0J25400D01*
G01*
X120264940Y-115661820D01*
G75*
G02*
X120290340Y-115636420I25400J0D01*
G01*
X121100340Y-115636420D01*
G75*
G02*
X121125740Y-115661820I0J-25400D01*
G01*
G37*
G36*
G01*
X113727260Y-116972640D02*
X113727260Y-117312640D01*
G75*
G02*
X113701860Y-117338040I-25400J0D01*
G01*
X113391860Y-117338040D01*
G75*
G02*
X113366460Y-117312640I0J25400D01*
G01*
X113366460Y-116972640D01*
G75*
G02*
X113391860Y-116947240I25400J0D01*
G01*
X113701860Y-116947240D01*
G75*
G02*
X113727260Y-116972640I0J-25400D01*
G01*
G37*
G36*
G01*
X114277260Y-116972640D02*
X114277260Y-117312640D01*
G75*
G02*
X114251860Y-117338040I-25400J0D01*
G01*
X113941860Y-117338040D01*
G75*
G02*
X113916460Y-117312640I0J25400D01*
G01*
X113916460Y-116972640D01*
G75*
G02*
X113941860Y-116947240I25400J0D01*
G01*
X114251860Y-116947240D01*
G75*
G02*
X114277260Y-116972640I0J-25400D01*
G01*
G37*
G36*
G01*
X113861460Y-116482640D02*
X113861460Y-116142640D01*
G75*
G02*
X113886860Y-116117240I25400J0D01*
G01*
X114196860Y-116117240D01*
G75*
G02*
X114222260Y-116142640I0J-25400D01*
G01*
X114222260Y-116482640D01*
G75*
G02*
X114196860Y-116508040I-25400J0D01*
G01*
X113886860Y-116508040D01*
G75*
G02*
X113861460Y-116482640I0J25400D01*
G01*
G37*
G36*
G01*
X114411460Y-116482640D02*
X114411460Y-116142640D01*
G75*
G02*
X114436860Y-116117240I25400J0D01*
G01*
X114746860Y-116117240D01*
G75*
G02*
X114772260Y-116142640I0J-25400D01*
G01*
X114772260Y-116482640D01*
G75*
G02*
X114746860Y-116508040I-25400J0D01*
G01*
X114436860Y-116508040D01*
G75*
G02*
X114411460Y-116482640I0J25400D01*
G01*
G37*
G36*
G01*
X113496860Y-115903040D02*
X113156860Y-115903040D01*
G75*
G02*
X113131460Y-115877640I0J25400D01*
G01*
X113131460Y-115567640D01*
G75*
G02*
X113156860Y-115542240I25400J0D01*
G01*
X113496860Y-115542240D01*
G75*
G02*
X113522260Y-115567640I0J-25400D01*
G01*
X113522260Y-115877640D01*
G75*
G02*
X113496860Y-115903040I-25400J0D01*
G01*
G37*
G36*
G01*
X113496860Y-116453040D02*
X113156860Y-116453040D01*
G75*
G02*
X113131460Y-116427640I0J25400D01*
G01*
X113131460Y-116117640D01*
G75*
G02*
X113156860Y-116092240I25400J0D01*
G01*
X113496860Y-116092240D01*
G75*
G02*
X113522260Y-116117640I0J-25400D01*
G01*
X113522260Y-116427640D01*
G75*
G02*
X113496860Y-116453040I-25400J0D01*
G01*
G37*
G36*
G01*
X113851460Y-115222640D02*
X113851460Y-114882640D01*
G75*
G02*
X113876860Y-114857240I25400J0D01*
G01*
X114186860Y-114857240D01*
G75*
G02*
X114212260Y-114882640I0J-25400D01*
G01*
X114212260Y-115222640D01*
G75*
G02*
X114186860Y-115248040I-25400J0D01*
G01*
X113876860Y-115248040D01*
G75*
G02*
X113851460Y-115222640I0J25400D01*
G01*
G37*
G36*
G01*
X114401460Y-115222640D02*
X114401460Y-114882640D01*
G75*
G02*
X114426860Y-114857240I25400J0D01*
G01*
X114736860Y-114857240D01*
G75*
G02*
X114762260Y-114882640I0J-25400D01*
G01*
X114762260Y-115222640D01*
G75*
G02*
X114736860Y-115248040I-25400J0D01*
G01*
X114426860Y-115248040D01*
G75*
G02*
X114401460Y-115222640I0J25400D01*
G01*
G37*
G36*
G01*
X113851460Y-114582640D02*
X113851460Y-114242640D01*
G75*
G02*
X113876860Y-114217240I25400J0D01*
G01*
X114186860Y-114217240D01*
G75*
G02*
X114212260Y-114242640I0J-25400D01*
G01*
X114212260Y-114582640D01*
G75*
G02*
X114186860Y-114608040I-25400J0D01*
G01*
X113876860Y-114608040D01*
G75*
G02*
X113851460Y-114582640I0J25400D01*
G01*
G37*
G36*
G01*
X114401460Y-114582640D02*
X114401460Y-114242640D01*
G75*
G02*
X114426860Y-114217240I25400J0D01*
G01*
X114736860Y-114217240D01*
G75*
G02*
X114762260Y-114242640I0J-25400D01*
G01*
X114762260Y-114582640D01*
G75*
G02*
X114736860Y-114608040I-25400J0D01*
G01*
X114426860Y-114608040D01*
G75*
G02*
X114401460Y-114582640I0J25400D01*
G01*
G37*
G36*
G01*
X113156080Y-114427300D02*
X113496080Y-114427300D01*
G75*
G02*
X113521480Y-114452700I0J-25400D01*
G01*
X113521480Y-114762700D01*
G75*
G02*
X113496080Y-114788100I-25400J0D01*
G01*
X113156080Y-114788100D01*
G75*
G02*
X113130680Y-114762700I0J25400D01*
G01*
X113130680Y-114452700D01*
G75*
G02*
X113156080Y-114427300I25400J0D01*
G01*
G37*
G36*
G01*
X113156080Y-114977300D02*
X113496080Y-114977300D01*
G75*
G02*
X113521480Y-115002700I0J-25400D01*
G01*
X113521480Y-115312700D01*
G75*
G02*
X113496080Y-115338100I-25400J0D01*
G01*
X113156080Y-115338100D01*
G75*
G02*
X113130680Y-115312700I0J25400D01*
G01*
X113130680Y-115002700D01*
G75*
G02*
X113156080Y-114977300I25400J0D01*
G01*
G37*
G36*
G01*
X114762260Y-115512640D02*
X114762260Y-115852640D01*
G75*
G02*
X114736860Y-115878040I-25400J0D01*
G01*
X114426860Y-115878040D01*
G75*
G02*
X114401460Y-115852640I0J25400D01*
G01*
X114401460Y-115512640D01*
G75*
G02*
X114426860Y-115487240I25400J0D01*
G01*
X114736860Y-115487240D01*
G75*
G02*
X114762260Y-115512640I0J-25400D01*
G01*
G37*
G36*
G01*
X114212260Y-115512640D02*
X114212260Y-115852640D01*
G75*
G02*
X114186860Y-115878040I-25400J0D01*
G01*
X113876860Y-115878040D01*
G75*
G02*
X113851460Y-115852640I0J25400D01*
G01*
X113851460Y-115512640D01*
G75*
G02*
X113876860Y-115487240I25400J0D01*
G01*
X114186860Y-115487240D01*
G75*
G02*
X114212260Y-115512640I0J-25400D01*
G01*
G37*
G36*
G01*
X107967040Y-116687820D02*
X107967040Y-117187820D01*
G75*
G02*
X107941640Y-117213220I-25400J0D01*
G01*
X107201640Y-117213220D01*
G75*
G02*
X107176240Y-117187820I0J25400D01*
G01*
X107176240Y-116687820D01*
G75*
G02*
X107201640Y-116662420I25400J0D01*
G01*
X107941640Y-116662420D01*
G75*
G02*
X107967040Y-116687820I0J-25400D01*
G01*
G37*
G36*
G01*
X107967040Y-115987820D02*
X107967040Y-116487820D01*
G75*
G02*
X107941640Y-116513220I-25400J0D01*
G01*
X107201640Y-116513220D01*
G75*
G02*
X107176240Y-116487820I0J25400D01*
G01*
X107176240Y-115987820D01*
G75*
G02*
X107201640Y-115962420I25400J0D01*
G01*
X107941640Y-115962420D01*
G75*
G02*
X107967040Y-115987820I0J-25400D01*
G01*
G37*
G36*
G01*
X107967040Y-115287820D02*
X107967040Y-115787820D01*
G75*
G02*
X107941640Y-115813220I-25400J0D01*
G01*
X107201640Y-115813220D01*
G75*
G02*
X107176240Y-115787820I0J25400D01*
G01*
X107176240Y-115287820D01*
G75*
G02*
X107201640Y-115262420I25400J0D01*
G01*
X107941640Y-115262420D01*
G75*
G02*
X107967040Y-115287820I0J-25400D01*
G01*
G37*
G36*
G01*
X107967040Y-114587820D02*
X107967040Y-115087820D01*
G75*
G02*
X107941640Y-115113220I-25400J0D01*
G01*
X107201640Y-115113220D01*
G75*
G02*
X107176240Y-115087820I0J25400D01*
G01*
X107176240Y-114587820D01*
G75*
G02*
X107201640Y-114562420I25400J0D01*
G01*
X107941640Y-114562420D01*
G75*
G02*
X107967040Y-114587820I0J-25400D01*
G01*
G37*
G36*
G01*
X107967040Y-113887820D02*
X107967040Y-114387820D01*
G75*
G02*
X107941640Y-114413220I-25400J0D01*
G01*
X107201640Y-114413220D01*
G75*
G02*
X107176240Y-114387820I0J25400D01*
G01*
X107176240Y-113887820D01*
G75*
G02*
X107201640Y-113862420I25400J0D01*
G01*
X107941640Y-113862420D01*
G75*
G02*
X107967040Y-113887820I0J-25400D01*
G01*
G37*
G36*
G01*
X107967040Y-113187820D02*
X107967040Y-113687820D01*
G75*
G02*
X107941640Y-113713220I-25400J0D01*
G01*
X107201640Y-113713220D01*
G75*
G02*
X107176240Y-113687820I0J25400D01*
G01*
X107176240Y-113187820D01*
G75*
G02*
X107201640Y-113162420I25400J0D01*
G01*
X107941640Y-113162420D01*
G75*
G02*
X107967040Y-113187820I0J-25400D01*
G01*
G37*
G36*
G01*
X107967040Y-112487820D02*
X107967040Y-112987820D01*
G75*
G02*
X107941640Y-113013220I-25400J0D01*
G01*
X107201640Y-113013220D01*
G75*
G02*
X107176240Y-112987820I0J25400D01*
G01*
X107176240Y-112487820D01*
G75*
G02*
X107201640Y-112462420I25400J0D01*
G01*
X107941640Y-112462420D01*
G75*
G02*
X107967040Y-112487820I0J-25400D01*
G01*
G37*
G36*
G01*
X107967040Y-111787820D02*
X107967040Y-112287820D01*
G75*
G02*
X107941640Y-112313220I-25400J0D01*
G01*
X107201640Y-112313220D01*
G75*
G02*
X107176240Y-112287820I0J25400D01*
G01*
X107176240Y-111787820D01*
G75*
G02*
X107201640Y-111762420I25400J0D01*
G01*
X107941640Y-111762420D01*
G75*
G02*
X107967040Y-111787820I0J-25400D01*
G01*
G37*
G36*
G01*
X107967040Y-111087820D02*
X107967040Y-111587820D01*
G75*
G02*
X107941640Y-111613220I-25400J0D01*
G01*
X107201640Y-111613220D01*
G75*
G02*
X107176240Y-111587820I0J25400D01*
G01*
X107176240Y-111087820D01*
G75*
G02*
X107201640Y-111062420I25400J0D01*
G01*
X107941640Y-111062420D01*
G75*
G02*
X107967040Y-111087820I0J-25400D01*
G01*
G37*
G36*
G01*
X107967040Y-110387820D02*
X107967040Y-110887820D01*
G75*
G02*
X107941640Y-110913220I-25400J0D01*
G01*
X107201640Y-110913220D01*
G75*
G02*
X107176240Y-110887820I0J25400D01*
G01*
X107176240Y-110387820D01*
G75*
G02*
X107201640Y-110362420I25400J0D01*
G01*
X107941640Y-110362420D01*
G75*
G02*
X107967040Y-110387820I0J-25400D01*
G01*
G37*
G36*
G01*
X107967040Y-109687820D02*
X107967040Y-110187820D01*
G75*
G02*
X107941640Y-110213220I-25400J0D01*
G01*
X107201640Y-110213220D01*
G75*
G02*
X107176240Y-110187820I0J25400D01*
G01*
X107176240Y-109687820D01*
G75*
G02*
X107201640Y-109662420I25400J0D01*
G01*
X107941640Y-109662420D01*
G75*
G02*
X107967040Y-109687820I0J-25400D01*
G01*
G37*
G36*
G01*
X107967040Y-108987820D02*
X107967040Y-109487820D01*
G75*
G02*
X107941640Y-109513220I-25400J0D01*
G01*
X107201640Y-109513220D01*
G75*
G02*
X107176240Y-109487820I0J25400D01*
G01*
X107176240Y-108987820D01*
G75*
G02*
X107201640Y-108962420I25400J0D01*
G01*
X107941640Y-108962420D01*
G75*
G02*
X107967040Y-108987820I0J-25400D01*
G01*
G37*
G36*
G01*
X107086640Y-108898220D02*
X106586640Y-108898220D01*
G75*
G02*
X106561240Y-108872820I0J25400D01*
G01*
X106561240Y-108132820D01*
G75*
G02*
X106586640Y-108107420I25400J0D01*
G01*
X107086640Y-108107420D01*
G75*
G02*
X107112040Y-108132820I0J-25400D01*
G01*
X107112040Y-108872820D01*
G75*
G02*
X107086640Y-108898220I-25400J0D01*
G01*
G37*
G36*
G01*
X106386640Y-108898220D02*
X105886640Y-108898220D01*
G75*
G02*
X105861240Y-108872820I0J25400D01*
G01*
X105861240Y-108132820D01*
G75*
G02*
X105886640Y-108107420I25400J0D01*
G01*
X106386640Y-108107420D01*
G75*
G02*
X106412040Y-108132820I0J-25400D01*
G01*
X106412040Y-108872820D01*
G75*
G02*
X106386640Y-108898220I-25400J0D01*
G01*
G37*
G36*
G01*
X105686640Y-108898220D02*
X105186640Y-108898220D01*
G75*
G02*
X105161240Y-108872820I0J25400D01*
G01*
X105161240Y-108132820D01*
G75*
G02*
X105186640Y-108107420I25400J0D01*
G01*
X105686640Y-108107420D01*
G75*
G02*
X105712040Y-108132820I0J-25400D01*
G01*
X105712040Y-108872820D01*
G75*
G02*
X105686640Y-108898220I-25400J0D01*
G01*
G37*
G36*
G01*
X104986640Y-108898220D02*
X104486640Y-108898220D01*
G75*
G02*
X104461240Y-108872820I0J25400D01*
G01*
X104461240Y-108132820D01*
G75*
G02*
X104486640Y-108107420I25400J0D01*
G01*
X104986640Y-108107420D01*
G75*
G02*
X105012040Y-108132820I0J-25400D01*
G01*
X105012040Y-108872820D01*
G75*
G02*
X104986640Y-108898220I-25400J0D01*
G01*
G37*
G36*
G01*
X104286640Y-108898220D02*
X103786640Y-108898220D01*
G75*
G02*
X103761240Y-108872820I0J25400D01*
G01*
X103761240Y-108132820D01*
G75*
G02*
X103786640Y-108107420I25400J0D01*
G01*
X104286640Y-108107420D01*
G75*
G02*
X104312040Y-108132820I0J-25400D01*
G01*
X104312040Y-108872820D01*
G75*
G02*
X104286640Y-108898220I-25400J0D01*
G01*
G37*
G36*
G01*
X103586640Y-109406220D02*
X103086640Y-109406220D01*
G75*
G02*
X103061240Y-109380820I0J25400D01*
G01*
X103061240Y-108132820D01*
G75*
G02*
X103086640Y-108107420I25400J0D01*
G01*
X103586640Y-108107420D01*
G75*
G02*
X103612040Y-108132820I0J-25400D01*
G01*
X103612040Y-109380820D01*
G75*
G02*
X103586640Y-109406220I-25400J0D01*
G01*
G37*
G36*
G01*
X102886640Y-108898220D02*
X102386640Y-108898220D01*
G75*
G02*
X102361240Y-108872820I0J25400D01*
G01*
X102361240Y-108132820D01*
G75*
G02*
X102386640Y-108107420I25400J0D01*
G01*
X102886640Y-108107420D01*
G75*
G02*
X102912040Y-108132820I0J-25400D01*
G01*
X102912040Y-108872820D01*
G75*
G02*
X102886640Y-108898220I-25400J0D01*
G01*
G37*
G36*
G01*
X102186640Y-108898220D02*
X101686640Y-108898220D01*
G75*
G02*
X101661240Y-108872820I0J25400D01*
G01*
X101661240Y-108132820D01*
G75*
G02*
X101686640Y-108107420I25400J0D01*
G01*
X102186640Y-108107420D01*
G75*
G02*
X102212040Y-108132820I0J-25400D01*
G01*
X102212040Y-108872820D01*
G75*
G02*
X102186640Y-108898220I-25400J0D01*
G01*
G37*
G36*
G01*
X101486640Y-108898220D02*
X100986640Y-108898220D01*
G75*
G02*
X100961240Y-108872820I0J25400D01*
G01*
X100961240Y-108132820D01*
G75*
G02*
X100986640Y-108107420I25400J0D01*
G01*
X101486640Y-108107420D01*
G75*
G02*
X101512040Y-108132820I0J-25400D01*
G01*
X101512040Y-108872820D01*
G75*
G02*
X101486640Y-108898220I-25400J0D01*
G01*
G37*
G36*
G01*
X100786640Y-108898220D02*
X100286640Y-108898220D01*
G75*
G02*
X100261240Y-108872820I0J25400D01*
G01*
X100261240Y-108132820D01*
G75*
G02*
X100286640Y-108107420I25400J0D01*
G01*
X100786640Y-108107420D01*
G75*
G02*
X100812040Y-108132820I0J-25400D01*
G01*
X100812040Y-108872820D01*
G75*
G02*
X100786640Y-108898220I-25400J0D01*
G01*
G37*
G36*
G01*
X100086640Y-108898220D02*
X99586640Y-108898220D01*
G75*
G02*
X99561240Y-108872820I0J25400D01*
G01*
X99561240Y-108132820D01*
G75*
G02*
X99586640Y-108107420I25400J0D01*
G01*
X100086640Y-108107420D01*
G75*
G02*
X100112040Y-108132820I0J-25400D01*
G01*
X100112040Y-108872820D01*
G75*
G02*
X100086640Y-108898220I-25400J0D01*
G01*
G37*
G36*
G01*
X99386640Y-108898220D02*
X98886640Y-108898220D01*
G75*
G02*
X98861240Y-108872820I0J25400D01*
G01*
X98861240Y-108132820D01*
G75*
G02*
X98886640Y-108107420I25400J0D01*
G01*
X99386640Y-108107420D01*
G75*
G02*
X99412040Y-108132820I0J-25400D01*
G01*
X99412040Y-108872820D01*
G75*
G02*
X99386640Y-108898220I-25400J0D01*
G01*
G37*
G36*
G01*
X98797040Y-108987820D02*
X98797040Y-109487820D01*
G75*
G02*
X98771640Y-109513220I-25400J0D01*
G01*
X98031640Y-109513220D01*
G75*
G02*
X98006240Y-109487820I0J25400D01*
G01*
X98006240Y-108987820D01*
G75*
G02*
X98031640Y-108962420I25400J0D01*
G01*
X98771640Y-108962420D01*
G75*
G02*
X98797040Y-108987820I0J-25400D01*
G01*
G37*
G36*
G01*
X98797040Y-109687820D02*
X98797040Y-110187820D01*
G75*
G02*
X98771640Y-110213220I-25400J0D01*
G01*
X98031640Y-110213220D01*
G75*
G02*
X98006240Y-110187820I0J25400D01*
G01*
X98006240Y-109687820D01*
G75*
G02*
X98031640Y-109662420I25400J0D01*
G01*
X98771640Y-109662420D01*
G75*
G02*
X98797040Y-109687820I0J-25400D01*
G01*
G37*
G36*
G01*
X98797040Y-110387820D02*
X98797040Y-110887820D01*
G75*
G02*
X98771640Y-110913220I-25400J0D01*
G01*
X98031640Y-110913220D01*
G75*
G02*
X98006240Y-110887820I0J25400D01*
G01*
X98006240Y-110387820D01*
G75*
G02*
X98031640Y-110362420I25400J0D01*
G01*
X98771640Y-110362420D01*
G75*
G02*
X98797040Y-110387820I0J-25400D01*
G01*
G37*
G36*
G01*
X98797040Y-111087820D02*
X98797040Y-111587820D01*
G75*
G02*
X98771640Y-111613220I-25400J0D01*
G01*
X98031640Y-111613220D01*
G75*
G02*
X98006240Y-111587820I0J25400D01*
G01*
X98006240Y-111087820D01*
G75*
G02*
X98031640Y-111062420I25400J0D01*
G01*
X98771640Y-111062420D01*
G75*
G02*
X98797040Y-111087820I0J-25400D01*
G01*
G37*
G36*
G01*
X98797040Y-111787820D02*
X98797040Y-112287820D01*
G75*
G02*
X98771640Y-112313220I-25400J0D01*
G01*
X98031640Y-112313220D01*
G75*
G02*
X98006240Y-112287820I0J25400D01*
G01*
X98006240Y-111787820D01*
G75*
G02*
X98031640Y-111762420I25400J0D01*
G01*
X98771640Y-111762420D01*
G75*
G02*
X98797040Y-111787820I0J-25400D01*
G01*
G37*
G36*
G01*
X98797040Y-112487820D02*
X98797040Y-112987820D01*
G75*
G02*
X98771640Y-113013220I-25400J0D01*
G01*
X98031640Y-113013220D01*
G75*
G02*
X98006240Y-112987820I0J25400D01*
G01*
X98006240Y-112487820D01*
G75*
G02*
X98031640Y-112462420I25400J0D01*
G01*
X98771640Y-112462420D01*
G75*
G02*
X98797040Y-112487820I0J-25400D01*
G01*
G37*
G36*
G01*
X98797040Y-113187820D02*
X98797040Y-113687820D01*
G75*
G02*
X98771640Y-113713220I-25400J0D01*
G01*
X98031640Y-113713220D01*
G75*
G02*
X98006240Y-113687820I0J25400D01*
G01*
X98006240Y-113187820D01*
G75*
G02*
X98031640Y-113162420I25400J0D01*
G01*
X98771640Y-113162420D01*
G75*
G02*
X98797040Y-113187820I0J-25400D01*
G01*
G37*
G36*
G01*
X98797040Y-113887820D02*
X98797040Y-114387820D01*
G75*
G02*
X98771640Y-114413220I-25400J0D01*
G01*
X98031640Y-114413220D01*
G75*
G02*
X98006240Y-114387820I0J25400D01*
G01*
X98006240Y-113887820D01*
G75*
G02*
X98031640Y-113862420I25400J0D01*
G01*
X98771640Y-113862420D01*
G75*
G02*
X98797040Y-113887820I0J-25400D01*
G01*
G37*
G36*
G01*
X98797040Y-114587820D02*
X98797040Y-115087820D01*
G75*
G02*
X98771640Y-115113220I-25400J0D01*
G01*
X98031640Y-115113220D01*
G75*
G02*
X98006240Y-115087820I0J25400D01*
G01*
X98006240Y-114587820D01*
G75*
G02*
X98031640Y-114562420I25400J0D01*
G01*
X98771640Y-114562420D01*
G75*
G02*
X98797040Y-114587820I0J-25400D01*
G01*
G37*
G36*
G01*
X98797040Y-115287820D02*
X98797040Y-115787820D01*
G75*
G02*
X98771640Y-115813220I-25400J0D01*
G01*
X98031640Y-115813220D01*
G75*
G02*
X98006240Y-115787820I0J25400D01*
G01*
X98006240Y-115287820D01*
G75*
G02*
X98031640Y-115262420I25400J0D01*
G01*
X98771640Y-115262420D01*
G75*
G02*
X98797040Y-115287820I0J-25400D01*
G01*
G37*
G36*
G01*
X98797040Y-115987820D02*
X98797040Y-116487820D01*
G75*
G02*
X98771640Y-116513220I-25400J0D01*
G01*
X98031640Y-116513220D01*
G75*
G02*
X98006240Y-116487820I0J25400D01*
G01*
X98006240Y-115987820D01*
G75*
G02*
X98031640Y-115962420I25400J0D01*
G01*
X98771640Y-115962420D01*
G75*
G02*
X98797040Y-115987820I0J-25400D01*
G01*
G37*
G36*
G01*
X98797040Y-116687820D02*
X98797040Y-117187820D01*
G75*
G02*
X98771640Y-117213220I-25400J0D01*
G01*
X98031640Y-117213220D01*
G75*
G02*
X98006240Y-117187820I0J25400D01*
G01*
X98006240Y-116687820D01*
G75*
G02*
X98031640Y-116662420I25400J0D01*
G01*
X98771640Y-116662420D01*
G75*
G02*
X98797040Y-116687820I0J-25400D01*
G01*
G37*
G36*
G01*
X99386640Y-118068220D02*
X98886640Y-118068220D01*
G75*
G02*
X98861240Y-118042820I0J25400D01*
G01*
X98861240Y-117302820D01*
G75*
G02*
X98886640Y-117277420I25400J0D01*
G01*
X99386640Y-117277420D01*
G75*
G02*
X99412040Y-117302820I0J-25400D01*
G01*
X99412040Y-118042820D01*
G75*
G02*
X99386640Y-118068220I-25400J0D01*
G01*
G37*
G36*
G01*
X100086640Y-118068220D02*
X99586640Y-118068220D01*
G75*
G02*
X99561240Y-118042820I0J25400D01*
G01*
X99561240Y-117302820D01*
G75*
G02*
X99586640Y-117277420I25400J0D01*
G01*
X100086640Y-117277420D01*
G75*
G02*
X100112040Y-117302820I0J-25400D01*
G01*
X100112040Y-118042820D01*
G75*
G02*
X100086640Y-118068220I-25400J0D01*
G01*
G37*
G36*
G01*
X100786640Y-118068220D02*
X100286640Y-118068220D01*
G75*
G02*
X100261240Y-118042820I0J25400D01*
G01*
X100261240Y-117302820D01*
G75*
G02*
X100286640Y-117277420I25400J0D01*
G01*
X100786640Y-117277420D01*
G75*
G02*
X100812040Y-117302820I0J-25400D01*
G01*
X100812040Y-118042820D01*
G75*
G02*
X100786640Y-118068220I-25400J0D01*
G01*
G37*
G36*
G01*
X101486640Y-118068220D02*
X100986640Y-118068220D01*
G75*
G02*
X100961240Y-118042820I0J25400D01*
G01*
X100961240Y-117302820D01*
G75*
G02*
X100986640Y-117277420I25400J0D01*
G01*
X101486640Y-117277420D01*
G75*
G02*
X101512040Y-117302820I0J-25400D01*
G01*
X101512040Y-118042820D01*
G75*
G02*
X101486640Y-118068220I-25400J0D01*
G01*
G37*
G36*
G01*
X102186640Y-118068220D02*
X101686640Y-118068220D01*
G75*
G02*
X101661240Y-118042820I0J25400D01*
G01*
X101661240Y-117302820D01*
G75*
G02*
X101686640Y-117277420I25400J0D01*
G01*
X102186640Y-117277420D01*
G75*
G02*
X102212040Y-117302820I0J-25400D01*
G01*
X102212040Y-118042820D01*
G75*
G02*
X102186640Y-118068220I-25400J0D01*
G01*
G37*
G36*
G01*
X102886640Y-118068220D02*
X102386640Y-118068220D01*
G75*
G02*
X102361240Y-118042820I0J25400D01*
G01*
X102361240Y-117302820D01*
G75*
G02*
X102386640Y-117277420I25400J0D01*
G01*
X102886640Y-117277420D01*
G75*
G02*
X102912040Y-117302820I0J-25400D01*
G01*
X102912040Y-118042820D01*
G75*
G02*
X102886640Y-118068220I-25400J0D01*
G01*
G37*
G36*
G01*
X103586640Y-118068220D02*
X103086640Y-118068220D01*
G75*
G02*
X103061240Y-118042820I0J25400D01*
G01*
X103061240Y-117302820D01*
G75*
G02*
X103086640Y-117277420I25400J0D01*
G01*
X103586640Y-117277420D01*
G75*
G02*
X103612040Y-117302820I0J-25400D01*
G01*
X103612040Y-118042820D01*
G75*
G02*
X103586640Y-118068220I-25400J0D01*
G01*
G37*
G36*
G01*
X104286640Y-118068220D02*
X103786640Y-118068220D01*
G75*
G02*
X103761240Y-118042820I0J25400D01*
G01*
X103761240Y-117302820D01*
G75*
G02*
X103786640Y-117277420I25400J0D01*
G01*
X104286640Y-117277420D01*
G75*
G02*
X104312040Y-117302820I0J-25400D01*
G01*
X104312040Y-118042820D01*
G75*
G02*
X104286640Y-118068220I-25400J0D01*
G01*
G37*
G36*
G01*
X104986640Y-118068220D02*
X104486640Y-118068220D01*
G75*
G02*
X104461240Y-118042820I0J25400D01*
G01*
X104461240Y-117302820D01*
G75*
G02*
X104486640Y-117277420I25400J0D01*
G01*
X104986640Y-117277420D01*
G75*
G02*
X105012040Y-117302820I0J-25400D01*
G01*
X105012040Y-118042820D01*
G75*
G02*
X104986640Y-118068220I-25400J0D01*
G01*
G37*
G36*
G01*
X105686640Y-118068220D02*
X105186640Y-118068220D01*
G75*
G02*
X105161240Y-118042820I0J25400D01*
G01*
X105161240Y-117302820D01*
G75*
G02*
X105186640Y-117277420I25400J0D01*
G01*
X105686640Y-117277420D01*
G75*
G02*
X105712040Y-117302820I0J-25400D01*
G01*
X105712040Y-118042820D01*
G75*
G02*
X105686640Y-118068220I-25400J0D01*
G01*
G37*
G36*
G01*
X106386640Y-118068220D02*
X105886640Y-118068220D01*
G75*
G02*
X105861240Y-118042820I0J25400D01*
G01*
X105861240Y-117302820D01*
G75*
G02*
X105886640Y-117277420I25400J0D01*
G01*
X106386640Y-117277420D01*
G75*
G02*
X106412040Y-117302820I0J-25400D01*
G01*
X106412040Y-118042820D01*
G75*
G02*
X106386640Y-118068220I-25400J0D01*
G01*
G37*
G36*
G01*
X107086640Y-118068220D02*
X106586640Y-118068220D01*
G75*
G02*
X106561240Y-118042820I0J25400D01*
G01*
X106561240Y-117302820D01*
G75*
G02*
X106586640Y-117277420I25400J0D01*
G01*
X107086640Y-117277420D01*
G75*
G02*
X107112040Y-117302820I0J-25400D01*
G01*
X107112040Y-118042820D01*
G75*
G02*
X107086640Y-118068220I-25400J0D01*
G01*
G37*
G36*
G01*
X114877500Y-113062220D02*
X114877500Y-110562220D01*
G75*
G02*
X114902900Y-110536820I25400J0D01*
G01*
X116702900Y-110536820D01*
G75*
G02*
X116728300Y-110562220I0J-25400D01*
G01*
X116728300Y-113062220D01*
G75*
G02*
X116702900Y-113087620I-25400J0D01*
G01*
X114902900Y-113087620D01*
G75*
G02*
X114877500Y-113062220I0J25400D01*
G01*
G37*
G36*
G01*
X116877500Y-112942221D02*
X116877500Y-112682219D01*
G75*
G02*
X116902899Y-112656820I25399J0D01*
G01*
X117562901Y-112656820D01*
G75*
G02*
X117588300Y-112682219I0J-25399D01*
G01*
X117588300Y-112942221D01*
G75*
G02*
X117562901Y-112967620I-25399J0D01*
G01*
X116902899Y-112967620D01*
G75*
G02*
X116877500Y-112942221I0J25399D01*
G01*
G37*
G36*
G01*
X116877500Y-112442221D02*
X116877500Y-112182219D01*
G75*
G02*
X116902899Y-112156820I25399J0D01*
G01*
X117562901Y-112156820D01*
G75*
G02*
X117588300Y-112182219I0J-25399D01*
G01*
X117588300Y-112442221D01*
G75*
G02*
X117562901Y-112467620I-25399J0D01*
G01*
X116902899Y-112467620D01*
G75*
G02*
X116877500Y-112442221I0J25399D01*
G01*
G37*
G36*
G01*
X116877500Y-111942221D02*
X116877500Y-111682219D01*
G75*
G02*
X116902899Y-111656820I25399J0D01*
G01*
X117562901Y-111656820D01*
G75*
G02*
X117588300Y-111682219I0J-25399D01*
G01*
X117588300Y-111942221D01*
G75*
G02*
X117562901Y-111967620I-25399J0D01*
G01*
X116902899Y-111967620D01*
G75*
G02*
X116877500Y-111942221I0J25399D01*
G01*
G37*
G36*
G01*
X116877500Y-111442221D02*
X116877500Y-111182219D01*
G75*
G02*
X116902899Y-111156820I25399J0D01*
G01*
X117562901Y-111156820D01*
G75*
G02*
X117588300Y-111182219I0J-25399D01*
G01*
X117588300Y-111442221D01*
G75*
G02*
X117562901Y-111467620I-25399J0D01*
G01*
X116902899Y-111467620D01*
G75*
G02*
X116877500Y-111442221I0J25399D01*
G01*
G37*
G36*
G01*
X116877500Y-110942221D02*
X116877500Y-110682219D01*
G75*
G02*
X116902899Y-110656820I25399J0D01*
G01*
X117562901Y-110656820D01*
G75*
G02*
X117588300Y-110682219I0J-25399D01*
G01*
X117588300Y-110942221D01*
G75*
G02*
X117562901Y-110967620I-25399J0D01*
G01*
X116902899Y-110967620D01*
G75*
G02*
X116877500Y-110942221I0J25399D01*
G01*
G37*
G36*
G01*
X114017500Y-110942221D02*
X114017500Y-110682219D01*
G75*
G02*
X114042899Y-110656820I25399J0D01*
G01*
X114702901Y-110656820D01*
G75*
G02*
X114728300Y-110682219I0J-25399D01*
G01*
X114728300Y-110942221D01*
G75*
G02*
X114702901Y-110967620I-25399J0D01*
G01*
X114042899Y-110967620D01*
G75*
G02*
X114017500Y-110942221I0J25399D01*
G01*
G37*
G36*
G01*
X114017500Y-111442221D02*
X114017500Y-111182219D01*
G75*
G02*
X114042899Y-111156820I25399J0D01*
G01*
X114702901Y-111156820D01*
G75*
G02*
X114728300Y-111182219I0J-25399D01*
G01*
X114728300Y-111442221D01*
G75*
G02*
X114702901Y-111467620I-25399J0D01*
G01*
X114042899Y-111467620D01*
G75*
G02*
X114017500Y-111442221I0J25399D01*
G01*
G37*
G36*
G01*
X114017500Y-111942221D02*
X114017500Y-111682219D01*
G75*
G02*
X114042899Y-111656820I25399J0D01*
G01*
X114702901Y-111656820D01*
G75*
G02*
X114728300Y-111682219I0J-25399D01*
G01*
X114728300Y-111942221D01*
G75*
G02*
X114702901Y-111967620I-25399J0D01*
G01*
X114042899Y-111967620D01*
G75*
G02*
X114017500Y-111942221I0J25399D01*
G01*
G37*
G36*
G01*
X114017500Y-112442221D02*
X114017500Y-112182219D01*
G75*
G02*
X114042899Y-112156820I25399J0D01*
G01*
X114702901Y-112156820D01*
G75*
G02*
X114728300Y-112182219I0J-25399D01*
G01*
X114728300Y-112442221D01*
G75*
G02*
X114702901Y-112467620I-25399J0D01*
G01*
X114042899Y-112467620D01*
G75*
G02*
X114017500Y-112442221I0J25399D01*
G01*
G37*
G36*
G01*
X114017500Y-112942221D02*
X114017500Y-112682219D01*
G75*
G02*
X114042899Y-112656820I25399J0D01*
G01*
X114702901Y-112656820D01*
G75*
G02*
X114728300Y-112682219I0J-25399D01*
G01*
X114728300Y-112942221D01*
G75*
G02*
X114702901Y-112967620I-25399J0D01*
G01*
X114042899Y-112967620D01*
G75*
G02*
X114017500Y-112942221I0J25399D01*
G01*
G37*
G36*
G01*
X115786260Y-115804800D02*
X115786260Y-114104800D01*
G75*
G02*
X115811660Y-114079400I25400J0D01*
G01*
X116611660Y-114079400D01*
G75*
G02*
X116637060Y-114104800I0J-25400D01*
G01*
X116637060Y-115804800D01*
G75*
G02*
X116611660Y-115830200I-25400J0D01*
G01*
X115811660Y-115830200D01*
G75*
G02*
X115786260Y-115804800I0J25400D01*
G01*
G37*
G36*
G01*
X116786260Y-115584801D02*
X116786260Y-115324799D01*
G75*
G02*
X116811659Y-115299400I25399J0D01*
G01*
X117371661Y-115299400D01*
G75*
G02*
X117397060Y-115324799I0J-25399D01*
G01*
X117397060Y-115584801D01*
G75*
G02*
X117371661Y-115610200I-25399J0D01*
G01*
X116811659Y-115610200D01*
G75*
G02*
X116786260Y-115584801I0J25399D01*
G01*
G37*
G36*
G01*
X116786260Y-115084801D02*
X116786260Y-114824799D01*
G75*
G02*
X116811659Y-114799400I25399J0D01*
G01*
X117371661Y-114799400D01*
G75*
G02*
X117397060Y-114824799I0J-25399D01*
G01*
X117397060Y-115084801D01*
G75*
G02*
X117371661Y-115110200I-25399J0D01*
G01*
X116811659Y-115110200D01*
G75*
G02*
X116786260Y-115084801I0J25399D01*
G01*
G37*
G36*
G01*
X116786260Y-114584801D02*
X116786260Y-114324799D01*
G75*
G02*
X116811659Y-114299400I25399J0D01*
G01*
X117371661Y-114299400D01*
G75*
G02*
X117397060Y-114324799I0J-25399D01*
G01*
X117397060Y-114584801D01*
G75*
G02*
X117371661Y-114610200I-25399J0D01*
G01*
X116811659Y-114610200D01*
G75*
G02*
X116786260Y-114584801I0J25399D01*
G01*
G37*
G36*
G01*
X115026260Y-114584801D02*
X115026260Y-114324799D01*
G75*
G02*
X115051659Y-114299400I25399J0D01*
G01*
X115611661Y-114299400D01*
G75*
G02*
X115637060Y-114324799I0J-25399D01*
G01*
X115637060Y-114584801D01*
G75*
G02*
X115611661Y-114610200I-25399J0D01*
G01*
X115051659Y-114610200D01*
G75*
G02*
X115026260Y-114584801I0J25399D01*
G01*
G37*
G36*
G01*
X115026260Y-115084801D02*
X115026260Y-114824799D01*
G75*
G02*
X115051659Y-114799400I25399J0D01*
G01*
X115611661Y-114799400D01*
G75*
G02*
X115637060Y-114824799I0J-25399D01*
G01*
X115637060Y-115084801D01*
G75*
G02*
X115611661Y-115110200I-25399J0D01*
G01*
X115051659Y-115110200D01*
G75*
G02*
X115026260Y-115084801I0J25399D01*
G01*
G37*
G36*
G01*
X115026260Y-115584801D02*
X115026260Y-115324799D01*
G75*
G02*
X115051659Y-115299400I25399J0D01*
G01*
X115611661Y-115299400D01*
G75*
G02*
X115637060Y-115324799I0J-25399D01*
G01*
X115637060Y-115584801D01*
G75*
G02*
X115611661Y-115610200I-25399J0D01*
G01*
X115051659Y-115610200D01*
G75*
G02*
X115026260Y-115584801I0J25399D01*
G01*
G37*
G36*
G01*
X117699500Y-114552160D02*
X119819500Y-114552160D01*
G75*
G02*
X119844900Y-114577560I0J-25400D01*
G01*
X119844900Y-115667560D01*
G75*
G02*
X119819500Y-115692960I-25400J0D01*
G01*
X117699500Y-115692960D01*
G75*
G02*
X117674100Y-115667560I0J25400D01*
G01*
X117674100Y-114577560D01*
G75*
G02*
X117699500Y-114552160I25400J0D01*
G01*
G37*
G36*
G01*
X117699500Y-116582160D02*
X119819500Y-116582160D01*
G75*
G02*
X119844900Y-116607560I0J-25400D01*
G01*
X119844900Y-117697560D01*
G75*
G02*
X119819500Y-117722960I-25400J0D01*
G01*
X117699500Y-117722960D01*
G75*
G02*
X117674100Y-117697560I0J25400D01*
G01*
X117674100Y-116607560D01*
G75*
G02*
X117699500Y-116582160I25400J0D01*
G01*
G37*
G36*
G01*
X113322480Y-112683680D02*
X113532880Y-112683680D01*
G75*
G02*
X113623080Y-112773880I0J-90200D01*
G01*
X113623080Y-112954280D01*
G75*
G02*
X113532880Y-113044480I-90200J0D01*
G01*
X113322480Y-113044480D01*
G75*
G02*
X113232280Y-112954280I0J90200D01*
G01*
X113232280Y-112773880D01*
G75*
G02*
X113322480Y-112683680I90200J0D01*
G01*
G37*
G36*
G01*
X113322480Y-112133680D02*
X113532880Y-112133680D01*
G75*
G02*
X113623080Y-112223880I0J-90200D01*
G01*
X113623080Y-112404280D01*
G75*
G02*
X113532880Y-112494480I-90200J0D01*
G01*
X113322480Y-112494480D01*
G75*
G02*
X113232280Y-112404280I0J90200D01*
G01*
X113232280Y-112223880D01*
G75*
G02*
X113322480Y-112133680I90200J0D01*
G01*
G37*
G36*
G01*
X113540500Y-111929420D02*
X113330100Y-111929420D01*
G75*
G02*
X113239900Y-111839220I0J90200D01*
G01*
X113239900Y-111658820D01*
G75*
G02*
X113330100Y-111568620I90200J0D01*
G01*
X113540500Y-111568620D01*
G75*
G02*
X113630700Y-111658820I0J-90200D01*
G01*
X113630700Y-111839220D01*
G75*
G02*
X113540500Y-111929420I-90200J0D01*
G01*
G37*
G36*
G01*
X113540500Y-111379420D02*
X113330100Y-111379420D01*
G75*
G02*
X113239900Y-111289220I0J90200D01*
G01*
X113239900Y-111108820D01*
G75*
G02*
X113330100Y-111018620I90200J0D01*
G01*
X113540500Y-111018620D01*
G75*
G02*
X113630700Y-111108820I0J-90200D01*
G01*
X113630700Y-111289220D01*
G75*
G02*
X113540500Y-111379420I-90200J0D01*
G01*
G37*
G36*
G01*
X115155500Y-118025740D02*
X115155500Y-117815340D01*
G75*
G02*
X115245700Y-117725140I90200J0D01*
G01*
X115426100Y-117725140D01*
G75*
G02*
X115516300Y-117815340I0J-90200D01*
G01*
X115516300Y-118025740D01*
G75*
G02*
X115426100Y-118115940I-90200J0D01*
G01*
X115245700Y-118115940D01*
G75*
G02*
X115155500Y-118025740I0J90200D01*
G01*
G37*
G36*
G01*
X114605500Y-118025740D02*
X114605500Y-117815340D01*
G75*
G02*
X114695700Y-117725140I90200J0D01*
G01*
X114876100Y-117725140D01*
G75*
G02*
X114966300Y-117815340I0J-90200D01*
G01*
X114966300Y-118025740D01*
G75*
G02*
X114876100Y-118115940I-90200J0D01*
G01*
X114695700Y-118115940D01*
G75*
G02*
X114605500Y-118025740I0J90200D01*
G01*
G37*
G36*
G01*
X118355500Y-110782640D02*
X118725900Y-110782640D01*
G75*
G02*
X118886100Y-110942840I0J-160200D01*
G01*
X118886100Y-111263240D01*
G75*
G02*
X118725900Y-111423440I-160200J0D01*
G01*
X118355500Y-111423440D01*
G75*
G02*
X118195300Y-111263240I0J160200D01*
G01*
X118195300Y-110942840D01*
G75*
G02*
X118355500Y-110782640I160200J0D01*
G01*
G37*
G36*
G01*
X118355500Y-109812640D02*
X118725900Y-109812640D01*
G75*
G02*
X118886100Y-109972840I0J-160200D01*
G01*
X118886100Y-110293240D01*
G75*
G02*
X118725900Y-110453440I-160200J0D01*
G01*
X118355500Y-110453440D01*
G75*
G02*
X118195300Y-110293240I0J160200D01*
G01*
X118195300Y-109972840D01*
G75*
G02*
X118355500Y-109812640I160200J0D01*
G01*
G37*
G36*
G01*
X116246860Y-108787240D02*
X116586860Y-108787240D01*
G75*
G02*
X116612260Y-108812640I0J-25400D01*
G01*
X116612260Y-109122640D01*
G75*
G02*
X116586860Y-109148040I-25400J0D01*
G01*
X116246860Y-109148040D01*
G75*
G02*
X116221460Y-109122640I0J25400D01*
G01*
X116221460Y-108812640D01*
G75*
G02*
X116246860Y-108787240I25400J0D01*
G01*
G37*
G36*
G01*
X116246860Y-108237240D02*
X116586860Y-108237240D01*
G75*
G02*
X116612260Y-108262640I0J-25400D01*
G01*
X116612260Y-108572640D01*
G75*
G02*
X116586860Y-108598040I-25400J0D01*
G01*
X116246860Y-108598040D01*
G75*
G02*
X116221460Y-108572640I0J25400D01*
G01*
X116221460Y-108262640D01*
G75*
G02*
X116246860Y-108237240I25400J0D01*
G01*
G37*
M02*
