G04 #@! TF.GenerationSoftware,KiCad,Pcbnew,(5.1.12)-1*
G04 #@! TF.CreationDate,2024-03-07T16:38:44+08:00*
G04 #@! TF.ProjectId,CM2_MesoScope,434d325f-4d65-4736-9f53-636f70652e6b,rev?*
G04 #@! TF.SameCoordinates,Original*
G04 #@! TF.FileFunction,Soldermask,Top*
G04 #@! TF.FilePolarity,Negative*
%FSLAX46Y46*%
G04 Gerber Fmt 4.6, Leading zero omitted, Abs format (unit mm)*
G04 Created by KiCad (PCBNEW (5.1.12)-1) date 2024-03-07 16:38:44*
%MOMM*%
%LPD*%
G01*
G04 APERTURE LIST*
%ADD10C,1.050800*%
%ADD11C,0.400800*%
G04 APERTURE END LIST*
D10*
X102971340Y-106477860D03*
X102973880Y-119656120D03*
X117195340Y-106477860D03*
X117197880Y-119656120D03*
G36*
G01*
X131905500Y-111290480D02*
X131105500Y-111290480D01*
G75*
G02*
X131080100Y-111265080I0J25400D01*
G01*
X131080100Y-110865080D01*
G75*
G02*
X131105500Y-110839680I25400J0D01*
G01*
X131905500Y-110839680D01*
G75*
G02*
X131930900Y-110865080I0J-25400D01*
G01*
X131930900Y-111265080D01*
G75*
G02*
X131905500Y-111290480I-25400J0D01*
G01*
G37*
G36*
G01*
X129405500Y-114276480D02*
X128605500Y-114276480D01*
G75*
G02*
X128580100Y-114251080I0J25400D01*
G01*
X128580100Y-113951080D01*
G75*
G02*
X128605500Y-113925680I25400J0D01*
G01*
X129405500Y-113925680D01*
G75*
G02*
X129430900Y-113951080I0J-25400D01*
G01*
X129430900Y-114251080D01*
G75*
G02*
X129405500Y-114276480I-25400J0D01*
G01*
G37*
G36*
G01*
X129405500Y-112776480D02*
X128605500Y-112776480D01*
G75*
G02*
X128580100Y-112751080I0J25400D01*
G01*
X128580100Y-112451080D01*
G75*
G02*
X128605500Y-112425680I25400J0D01*
G01*
X129405500Y-112425680D01*
G75*
G02*
X129430900Y-112451080I0J-25400D01*
G01*
X129430900Y-112751080D01*
G75*
G02*
X129405500Y-112776480I-25400J0D01*
G01*
G37*
G36*
G01*
X129405500Y-113276480D02*
X128605500Y-113276480D01*
G75*
G02*
X128580100Y-113251080I0J25400D01*
G01*
X128580100Y-112951080D01*
G75*
G02*
X128605500Y-112925680I25400J0D01*
G01*
X129405500Y-112925680D01*
G75*
G02*
X129430900Y-112951080I0J-25400D01*
G01*
X129430900Y-113251080D01*
G75*
G02*
X129405500Y-113276480I-25400J0D01*
G01*
G37*
G36*
G01*
X129405500Y-113776480D02*
X128605500Y-113776480D01*
G75*
G02*
X128580100Y-113751080I0J25400D01*
G01*
X128580100Y-113451080D01*
G75*
G02*
X128605500Y-113425680I25400J0D01*
G01*
X129405500Y-113425680D01*
G75*
G02*
X129430900Y-113451080I0J-25400D01*
G01*
X129430900Y-113751080D01*
G75*
G02*
X129405500Y-113776480I-25400J0D01*
G01*
G37*
G36*
G01*
X131905500Y-115326480D02*
X131105500Y-115326480D01*
G75*
G02*
X131080100Y-115301080I0J25400D01*
G01*
X131080100Y-114901080D01*
G75*
G02*
X131105500Y-114875680I25400J0D01*
G01*
X131905500Y-114875680D01*
G75*
G02*
X131930900Y-114901080I0J-25400D01*
G01*
X131930900Y-115301080D01*
G75*
G02*
X131905500Y-115326480I-25400J0D01*
G01*
G37*
G36*
G01*
X129405500Y-112268480D02*
X128605500Y-112268480D01*
G75*
G02*
X128580100Y-112243080I0J25400D01*
G01*
X128580100Y-111943080D01*
G75*
G02*
X128605500Y-111917680I25400J0D01*
G01*
X129405500Y-111917680D01*
G75*
G02*
X129430900Y-111943080I0J-25400D01*
G01*
X129430900Y-112243080D01*
G75*
G02*
X129405500Y-112268480I-25400J0D01*
G01*
G37*
G36*
G01*
X122409800Y-111114060D02*
X123209800Y-111114060D01*
G75*
G02*
X123235200Y-111139460I0J-25400D01*
G01*
X123235200Y-111539460D01*
G75*
G02*
X123209800Y-111564860I-25400J0D01*
G01*
X122409800Y-111564860D01*
G75*
G02*
X122384400Y-111539460I0J25400D01*
G01*
X122384400Y-111139460D01*
G75*
G02*
X122409800Y-111114060I25400J0D01*
G01*
G37*
G36*
G01*
X124909800Y-112664060D02*
X125709800Y-112664060D01*
G75*
G02*
X125735200Y-112689460I0J-25400D01*
G01*
X125735200Y-112989460D01*
G75*
G02*
X125709800Y-113014860I-25400J0D01*
G01*
X124909800Y-113014860D01*
G75*
G02*
X124884400Y-112989460I0J25400D01*
G01*
X124884400Y-112689460D01*
G75*
G02*
X124909800Y-112664060I25400J0D01*
G01*
G37*
G36*
G01*
X124909800Y-113164060D02*
X125709800Y-113164060D01*
G75*
G02*
X125735200Y-113189460I0J-25400D01*
G01*
X125735200Y-113489460D01*
G75*
G02*
X125709800Y-113514860I-25400J0D01*
G01*
X124909800Y-113514860D01*
G75*
G02*
X124884400Y-113489460I0J25400D01*
G01*
X124884400Y-113189460D01*
G75*
G02*
X124909800Y-113164060I25400J0D01*
G01*
G37*
G36*
G01*
X124909800Y-113664060D02*
X125709800Y-113664060D01*
G75*
G02*
X125735200Y-113689460I0J-25400D01*
G01*
X125735200Y-113989460D01*
G75*
G02*
X125709800Y-114014860I-25400J0D01*
G01*
X124909800Y-114014860D01*
G75*
G02*
X124884400Y-113989460I0J25400D01*
G01*
X124884400Y-113689460D01*
G75*
G02*
X124909800Y-113664060I25400J0D01*
G01*
G37*
G36*
G01*
X124909800Y-112164060D02*
X125709800Y-112164060D01*
G75*
G02*
X125735200Y-112189460I0J-25400D01*
G01*
X125735200Y-112489460D01*
G75*
G02*
X125709800Y-112514860I-25400J0D01*
G01*
X124909800Y-112514860D01*
G75*
G02*
X124884400Y-112489460I0J25400D01*
G01*
X124884400Y-112189460D01*
G75*
G02*
X124909800Y-112164060I25400J0D01*
G01*
G37*
G36*
G01*
X122409800Y-114614060D02*
X123209800Y-114614060D01*
G75*
G02*
X123235200Y-114639460I0J-25400D01*
G01*
X123235200Y-115039460D01*
G75*
G02*
X123209800Y-115064860I-25400J0D01*
G01*
X122409800Y-115064860D01*
G75*
G02*
X122384400Y-115039460I0J25400D01*
G01*
X122384400Y-114639460D01*
G75*
G02*
X122409800Y-114614060I25400J0D01*
G01*
G37*
G36*
G01*
X126285340Y-116376840D02*
X126625340Y-116376840D01*
G75*
G02*
X126650740Y-116402240I0J-25400D01*
G01*
X126650740Y-116712240D01*
G75*
G02*
X126625340Y-116737640I-25400J0D01*
G01*
X126285340Y-116737640D01*
G75*
G02*
X126259940Y-116712240I0J25400D01*
G01*
X126259940Y-116402240D01*
G75*
G02*
X126285340Y-116376840I25400J0D01*
G01*
G37*
G36*
G01*
X126285340Y-115826840D02*
X126625340Y-115826840D01*
G75*
G02*
X126650740Y-115852240I0J-25400D01*
G01*
X126650740Y-116162240D01*
G75*
G02*
X126625340Y-116187640I-25400J0D01*
G01*
X126285340Y-116187640D01*
G75*
G02*
X126259940Y-116162240I0J25400D01*
G01*
X126259940Y-115852240D01*
G75*
G02*
X126285340Y-115826840I25400J0D01*
G01*
G37*
G36*
G01*
X126120240Y-114113700D02*
X126460240Y-114113700D01*
G75*
G02*
X126485640Y-114139100I0J-25400D01*
G01*
X126485640Y-114449100D01*
G75*
G02*
X126460240Y-114474500I-25400J0D01*
G01*
X126120240Y-114474500D01*
G75*
G02*
X126094840Y-114449100I0J25400D01*
G01*
X126094840Y-114139100D01*
G75*
G02*
X126120240Y-114113700I25400J0D01*
G01*
G37*
G36*
G01*
X126120240Y-113563700D02*
X126460240Y-113563700D01*
G75*
G02*
X126485640Y-113589100I0J-25400D01*
G01*
X126485640Y-113899100D01*
G75*
G02*
X126460240Y-113924500I-25400J0D01*
G01*
X126120240Y-113924500D01*
G75*
G02*
X126094840Y-113899100I0J25400D01*
G01*
X126094840Y-113589100D01*
G75*
G02*
X126120240Y-113563700I25400J0D01*
G01*
G37*
G36*
G01*
X125926840Y-116063180D02*
X125586840Y-116063180D01*
G75*
G02*
X125561440Y-116037780I0J25400D01*
G01*
X125561440Y-115727780D01*
G75*
G02*
X125586840Y-115702380I25400J0D01*
G01*
X125926840Y-115702380D01*
G75*
G02*
X125952240Y-115727780I0J-25400D01*
G01*
X125952240Y-116037780D01*
G75*
G02*
X125926840Y-116063180I-25400J0D01*
G01*
G37*
G36*
G01*
X125926840Y-116613180D02*
X125586840Y-116613180D01*
G75*
G02*
X125561440Y-116587780I0J25400D01*
G01*
X125561440Y-116277780D01*
G75*
G02*
X125586840Y-116252380I25400J0D01*
G01*
X125926840Y-116252380D01*
G75*
G02*
X125952240Y-116277780I0J-25400D01*
G01*
X125952240Y-116587780D01*
G75*
G02*
X125926840Y-116613180I-25400J0D01*
G01*
G37*
G36*
G01*
X124541480Y-116607180D02*
X124541480Y-116267180D01*
G75*
G02*
X124566880Y-116241780I25400J0D01*
G01*
X124876880Y-116241780D01*
G75*
G02*
X124902280Y-116267180I0J-25400D01*
G01*
X124902280Y-116607180D01*
G75*
G02*
X124876880Y-116632580I-25400J0D01*
G01*
X124566880Y-116632580D01*
G75*
G02*
X124541480Y-116607180I0J25400D01*
G01*
G37*
G36*
G01*
X123991480Y-116607180D02*
X123991480Y-116267180D01*
G75*
G02*
X124016880Y-116241780I25400J0D01*
G01*
X124326880Y-116241780D01*
G75*
G02*
X124352280Y-116267180I0J-25400D01*
G01*
X124352280Y-116607180D01*
G75*
G02*
X124326880Y-116632580I-25400J0D01*
G01*
X124016880Y-116632580D01*
G75*
G02*
X123991480Y-116607180I0J25400D01*
G01*
G37*
G36*
G01*
X106529040Y-115101220D02*
X107159040Y-115101220D01*
G75*
G02*
X107184440Y-115126620I0J-25400D01*
G01*
X107184440Y-115706620D01*
G75*
G02*
X107159040Y-115732020I-25400J0D01*
G01*
X106529040Y-115732020D01*
G75*
G02*
X106503640Y-115706620I0J25400D01*
G01*
X106503640Y-115126620D01*
G75*
G02*
X106529040Y-115101220I25400J0D01*
G01*
G37*
G36*
G01*
X106529040Y-114211220D02*
X107159040Y-114211220D01*
G75*
G02*
X107184440Y-114236620I0J-25400D01*
G01*
X107184440Y-114816620D01*
G75*
G02*
X107159040Y-114842020I-25400J0D01*
G01*
X106529040Y-114842020D01*
G75*
G02*
X106503640Y-114816620I0J25400D01*
G01*
X106503640Y-114236620D01*
G75*
G02*
X106529040Y-114211220I25400J0D01*
G01*
G37*
G36*
G01*
X106503640Y-113332620D02*
X107133640Y-113332620D01*
G75*
G02*
X107159040Y-113358020I0J-25400D01*
G01*
X107159040Y-113938020D01*
G75*
G02*
X107133640Y-113963420I-25400J0D01*
G01*
X106503640Y-113963420D01*
G75*
G02*
X106478240Y-113938020I0J25400D01*
G01*
X106478240Y-113358020D01*
G75*
G02*
X106503640Y-113332620I25400J0D01*
G01*
G37*
G36*
G01*
X106503640Y-112442620D02*
X107133640Y-112442620D01*
G75*
G02*
X107159040Y-112468020I0J-25400D01*
G01*
X107159040Y-113048020D01*
G75*
G02*
X107133640Y-113073420I-25400J0D01*
G01*
X106503640Y-113073420D01*
G75*
G02*
X106478240Y-113048020I0J25400D01*
G01*
X106478240Y-112468020D01*
G75*
G02*
X106503640Y-112442620I25400J0D01*
G01*
G37*
G36*
G01*
X106651040Y-111067820D02*
X106021040Y-111067820D01*
G75*
G02*
X105995640Y-111042420I0J25400D01*
G01*
X105995640Y-110462420D01*
G75*
G02*
X106021040Y-110437020I25400J0D01*
G01*
X106651040Y-110437020D01*
G75*
G02*
X106676440Y-110462420I0J-25400D01*
G01*
X106676440Y-111042420D01*
G75*
G02*
X106651040Y-111067820I-25400J0D01*
G01*
G37*
G36*
G01*
X106651040Y-110177820D02*
X106021040Y-110177820D01*
G75*
G02*
X105995640Y-110152420I0J25400D01*
G01*
X105995640Y-109572420D01*
G75*
G02*
X106021040Y-109547020I25400J0D01*
G01*
X106651040Y-109547020D01*
G75*
G02*
X106676440Y-109572420I0J-25400D01*
G01*
X106676440Y-110152420D01*
G75*
G02*
X106651040Y-110177820I-25400J0D01*
G01*
G37*
G36*
G01*
X106036240Y-108735220D02*
X106666240Y-108735220D01*
G75*
G02*
X106691640Y-108760620I0J-25400D01*
G01*
X106691640Y-109340620D01*
G75*
G02*
X106666240Y-109366020I-25400J0D01*
G01*
X106036240Y-109366020D01*
G75*
G02*
X106010840Y-109340620I0J25400D01*
G01*
X106010840Y-108760620D01*
G75*
G02*
X106036240Y-108735220I25400J0D01*
G01*
G37*
G36*
G01*
X106036240Y-107845220D02*
X106666240Y-107845220D01*
G75*
G02*
X106691640Y-107870620I0J-25400D01*
G01*
X106691640Y-108450620D01*
G75*
G02*
X106666240Y-108476020I-25400J0D01*
G01*
X106036240Y-108476020D01*
G75*
G02*
X106010840Y-108450620I0J25400D01*
G01*
X106010840Y-107870620D01*
G75*
G02*
X106036240Y-107845220I25400J0D01*
G01*
G37*
G36*
G01*
X97781240Y-114628020D02*
X98411240Y-114628020D01*
G75*
G02*
X98436640Y-114653420I0J-25400D01*
G01*
X98436640Y-115233420D01*
G75*
G02*
X98411240Y-115258820I-25400J0D01*
G01*
X97781240Y-115258820D01*
G75*
G02*
X97755840Y-115233420I0J25400D01*
G01*
X97755840Y-114653420D01*
G75*
G02*
X97781240Y-114628020I25400J0D01*
G01*
G37*
G36*
G01*
X97781240Y-113738020D02*
X98411240Y-113738020D01*
G75*
G02*
X98436640Y-113763420I0J-25400D01*
G01*
X98436640Y-114343420D01*
G75*
G02*
X98411240Y-114368820I-25400J0D01*
G01*
X97781240Y-114368820D01*
G75*
G02*
X97755840Y-114343420I0J25400D01*
G01*
X97755840Y-113763420D01*
G75*
G02*
X97781240Y-113738020I25400J0D01*
G01*
G37*
G36*
G01*
X124341140Y-112443380D02*
X123591140Y-112443380D01*
G75*
G02*
X123565740Y-112417980I0J25400D01*
G01*
X123565740Y-111667980D01*
G75*
G02*
X123591140Y-111642580I25400J0D01*
G01*
X124341140Y-111642580D01*
G75*
G02*
X124366540Y-111667980I0J-25400D01*
G01*
X124366540Y-112417980D01*
G75*
G02*
X124341140Y-112443380I-25400J0D01*
G01*
G37*
G36*
G01*
X124343680Y-114510940D02*
X123593680Y-114510940D01*
G75*
G02*
X123568280Y-114485540I0J25400D01*
G01*
X123568280Y-113735540D01*
G75*
G02*
X123593680Y-113710140I25400J0D01*
G01*
X124343680Y-113710140D01*
G75*
G02*
X124369080Y-113735540I0J-25400D01*
G01*
X124369080Y-114485540D01*
G75*
G02*
X124343680Y-114510940I-25400J0D01*
G01*
G37*
D11*
X120268660Y-116744900D03*
X120768660Y-116744900D03*
X121268660Y-116744900D03*
X121768660Y-116744900D03*
X122268660Y-116744900D03*
X120268660Y-117244900D03*
X120768660Y-117244900D03*
X121268660Y-117244900D03*
X121768660Y-117244900D03*
X122268660Y-117244900D03*
X120268660Y-117744900D03*
X120768660Y-117744900D03*
X121268660Y-117744900D03*
X121768660Y-117744900D03*
X122268660Y-117744900D03*
G36*
G01*
X113201460Y-111472640D02*
X113201460Y-108972640D01*
G75*
G02*
X113226860Y-108947240I25400J0D01*
G01*
X115726860Y-108947240D01*
G75*
G02*
X115752260Y-108972640I0J-25400D01*
G01*
X115752260Y-111472640D01*
G75*
G02*
X115726860Y-111498040I-25400J0D01*
G01*
X113226860Y-111498040D01*
G75*
G02*
X113201460Y-111472640I0J25400D01*
G01*
G37*
G36*
G01*
X100184641Y-114404820D02*
X99924639Y-114404820D01*
G75*
G02*
X99899240Y-114379421I0J25399D01*
G01*
X99899240Y-113699419D01*
G75*
G02*
X99924639Y-113674020I25399J0D01*
G01*
X100184641Y-113674020D01*
G75*
G02*
X100210040Y-113699419I0J-25399D01*
G01*
X100210040Y-114379421D01*
G75*
G02*
X100184641Y-114404820I-25399J0D01*
G01*
G37*
G36*
G01*
X100684641Y-114404820D02*
X100424639Y-114404820D01*
G75*
G02*
X100399240Y-114379421I0J25399D01*
G01*
X100399240Y-113699419D01*
G75*
G02*
X100424639Y-113674020I25399J0D01*
G01*
X100684641Y-113674020D01*
G75*
G02*
X100710040Y-113699419I0J-25399D01*
G01*
X100710040Y-114379421D01*
G75*
G02*
X100684641Y-114404820I-25399J0D01*
G01*
G37*
G36*
G01*
X101184641Y-114404820D02*
X100924639Y-114404820D01*
G75*
G02*
X100899240Y-114379421I0J25399D01*
G01*
X100899240Y-113699419D01*
G75*
G02*
X100924639Y-113674020I25399J0D01*
G01*
X101184641Y-113674020D01*
G75*
G02*
X101210040Y-113699419I0J-25399D01*
G01*
X101210040Y-114379421D01*
G75*
G02*
X101184641Y-114404820I-25399J0D01*
G01*
G37*
G36*
G01*
X101684641Y-114404820D02*
X101424639Y-114404820D01*
G75*
G02*
X101399240Y-114379421I0J25399D01*
G01*
X101399240Y-113699419D01*
G75*
G02*
X101424639Y-113674020I25399J0D01*
G01*
X101684641Y-113674020D01*
G75*
G02*
X101710040Y-113699419I0J-25399D01*
G01*
X101710040Y-114379421D01*
G75*
G02*
X101684641Y-114404820I-25399J0D01*
G01*
G37*
G36*
G01*
X102184641Y-114404820D02*
X101924639Y-114404820D01*
G75*
G02*
X101899240Y-114379421I0J25399D01*
G01*
X101899240Y-113699419D01*
G75*
G02*
X101924639Y-113674020I25399J0D01*
G01*
X102184641Y-113674020D01*
G75*
G02*
X102210040Y-113699419I0J-25399D01*
G01*
X102210040Y-114379421D01*
G75*
G02*
X102184641Y-114404820I-25399J0D01*
G01*
G37*
G36*
G01*
X102684641Y-114404820D02*
X102424639Y-114404820D01*
G75*
G02*
X102399240Y-114379421I0J25399D01*
G01*
X102399240Y-113699419D01*
G75*
G02*
X102424639Y-113674020I25399J0D01*
G01*
X102684641Y-113674020D01*
G75*
G02*
X102710040Y-113699419I0J-25399D01*
G01*
X102710040Y-114379421D01*
G75*
G02*
X102684641Y-114404820I-25399J0D01*
G01*
G37*
G36*
G01*
X103184641Y-114404820D02*
X102924639Y-114404820D01*
G75*
G02*
X102899240Y-114379421I0J25399D01*
G01*
X102899240Y-113699419D01*
G75*
G02*
X102924639Y-113674020I25399J0D01*
G01*
X103184641Y-113674020D01*
G75*
G02*
X103210040Y-113699419I0J-25399D01*
G01*
X103210040Y-114379421D01*
G75*
G02*
X103184641Y-114404820I-25399J0D01*
G01*
G37*
G36*
G01*
X103684641Y-114404820D02*
X103424639Y-114404820D01*
G75*
G02*
X103399240Y-114379421I0J25399D01*
G01*
X103399240Y-113699419D01*
G75*
G02*
X103424639Y-113674020I25399J0D01*
G01*
X103684641Y-113674020D01*
G75*
G02*
X103710040Y-113699419I0J-25399D01*
G01*
X103710040Y-114379421D01*
G75*
G02*
X103684641Y-114404820I-25399J0D01*
G01*
G37*
G36*
G01*
X103774240Y-113584421D02*
X103774240Y-113324419D01*
G75*
G02*
X103799639Y-113299020I25399J0D01*
G01*
X104479641Y-113299020D01*
G75*
G02*
X104505040Y-113324419I0J-25399D01*
G01*
X104505040Y-113584421D01*
G75*
G02*
X104479641Y-113609820I-25399J0D01*
G01*
X103799639Y-113609820D01*
G75*
G02*
X103774240Y-113584421I0J25399D01*
G01*
G37*
G36*
G01*
X103774240Y-113084421D02*
X103774240Y-112824419D01*
G75*
G02*
X103799639Y-112799020I25399J0D01*
G01*
X104479641Y-112799020D01*
G75*
G02*
X104505040Y-112824419I0J-25399D01*
G01*
X104505040Y-113084421D01*
G75*
G02*
X104479641Y-113109820I-25399J0D01*
G01*
X103799639Y-113109820D01*
G75*
G02*
X103774240Y-113084421I0J25399D01*
G01*
G37*
G36*
G01*
X103774240Y-112584421D02*
X103774240Y-112324419D01*
G75*
G02*
X103799639Y-112299020I25399J0D01*
G01*
X104479641Y-112299020D01*
G75*
G02*
X104505040Y-112324419I0J-25399D01*
G01*
X104505040Y-112584421D01*
G75*
G02*
X104479641Y-112609820I-25399J0D01*
G01*
X103799639Y-112609820D01*
G75*
G02*
X103774240Y-112584421I0J25399D01*
G01*
G37*
G36*
G01*
X103774240Y-112084421D02*
X103774240Y-111824419D01*
G75*
G02*
X103799639Y-111799020I25399J0D01*
G01*
X104479641Y-111799020D01*
G75*
G02*
X104505040Y-111824419I0J-25399D01*
G01*
X104505040Y-112084421D01*
G75*
G02*
X104479641Y-112109820I-25399J0D01*
G01*
X103799639Y-112109820D01*
G75*
G02*
X103774240Y-112084421I0J25399D01*
G01*
G37*
G36*
G01*
X103774240Y-111584421D02*
X103774240Y-111324419D01*
G75*
G02*
X103799639Y-111299020I25399J0D01*
G01*
X104479641Y-111299020D01*
G75*
G02*
X104505040Y-111324419I0J-25399D01*
G01*
X104505040Y-111584421D01*
G75*
G02*
X104479641Y-111609820I-25399J0D01*
G01*
X103799639Y-111609820D01*
G75*
G02*
X103774240Y-111584421I0J25399D01*
G01*
G37*
G36*
G01*
X103774240Y-111084421D02*
X103774240Y-110824419D01*
G75*
G02*
X103799639Y-110799020I25399J0D01*
G01*
X104479641Y-110799020D01*
G75*
G02*
X104505040Y-110824419I0J-25399D01*
G01*
X104505040Y-111084421D01*
G75*
G02*
X104479641Y-111109820I-25399J0D01*
G01*
X103799639Y-111109820D01*
G75*
G02*
X103774240Y-111084421I0J25399D01*
G01*
G37*
G36*
G01*
X103774240Y-110584421D02*
X103774240Y-110324419D01*
G75*
G02*
X103799639Y-110299020I25399J0D01*
G01*
X104479641Y-110299020D01*
G75*
G02*
X104505040Y-110324419I0J-25399D01*
G01*
X104505040Y-110584421D01*
G75*
G02*
X104479641Y-110609820I-25399J0D01*
G01*
X103799639Y-110609820D01*
G75*
G02*
X103774240Y-110584421I0J25399D01*
G01*
G37*
G36*
G01*
X103774240Y-110084421D02*
X103774240Y-109824419D01*
G75*
G02*
X103799639Y-109799020I25399J0D01*
G01*
X104479641Y-109799020D01*
G75*
G02*
X104505040Y-109824419I0J-25399D01*
G01*
X104505040Y-110084421D01*
G75*
G02*
X104479641Y-110109820I-25399J0D01*
G01*
X103799639Y-110109820D01*
G75*
G02*
X103774240Y-110084421I0J25399D01*
G01*
G37*
G36*
G01*
X103684641Y-109734820D02*
X103424639Y-109734820D01*
G75*
G02*
X103399240Y-109709421I0J25399D01*
G01*
X103399240Y-109029419D01*
G75*
G02*
X103424639Y-109004020I25399J0D01*
G01*
X103684641Y-109004020D01*
G75*
G02*
X103710040Y-109029419I0J-25399D01*
G01*
X103710040Y-109709421D01*
G75*
G02*
X103684641Y-109734820I-25399J0D01*
G01*
G37*
G36*
G01*
X103184641Y-109734820D02*
X102924639Y-109734820D01*
G75*
G02*
X102899240Y-109709421I0J25399D01*
G01*
X102899240Y-109029419D01*
G75*
G02*
X102924639Y-109004020I25399J0D01*
G01*
X103184641Y-109004020D01*
G75*
G02*
X103210040Y-109029419I0J-25399D01*
G01*
X103210040Y-109709421D01*
G75*
G02*
X103184641Y-109734820I-25399J0D01*
G01*
G37*
G36*
G01*
X102684641Y-109734820D02*
X102424639Y-109734820D01*
G75*
G02*
X102399240Y-109709421I0J25399D01*
G01*
X102399240Y-109029419D01*
G75*
G02*
X102424639Y-109004020I25399J0D01*
G01*
X102684641Y-109004020D01*
G75*
G02*
X102710040Y-109029419I0J-25399D01*
G01*
X102710040Y-109709421D01*
G75*
G02*
X102684641Y-109734820I-25399J0D01*
G01*
G37*
G36*
G01*
X102184641Y-109734820D02*
X101924639Y-109734820D01*
G75*
G02*
X101899240Y-109709421I0J25399D01*
G01*
X101899240Y-109029419D01*
G75*
G02*
X101924639Y-109004020I25399J0D01*
G01*
X102184641Y-109004020D01*
G75*
G02*
X102210040Y-109029419I0J-25399D01*
G01*
X102210040Y-109709421D01*
G75*
G02*
X102184641Y-109734820I-25399J0D01*
G01*
G37*
G36*
G01*
X101684641Y-109734820D02*
X101424639Y-109734820D01*
G75*
G02*
X101399240Y-109709421I0J25399D01*
G01*
X101399240Y-109029419D01*
G75*
G02*
X101424639Y-109004020I25399J0D01*
G01*
X101684641Y-109004020D01*
G75*
G02*
X101710040Y-109029419I0J-25399D01*
G01*
X101710040Y-109709421D01*
G75*
G02*
X101684641Y-109734820I-25399J0D01*
G01*
G37*
G36*
G01*
X101184641Y-109734820D02*
X100924639Y-109734820D01*
G75*
G02*
X100899240Y-109709421I0J25399D01*
G01*
X100899240Y-109029419D01*
G75*
G02*
X100924639Y-109004020I25399J0D01*
G01*
X101184641Y-109004020D01*
G75*
G02*
X101210040Y-109029419I0J-25399D01*
G01*
X101210040Y-109709421D01*
G75*
G02*
X101184641Y-109734820I-25399J0D01*
G01*
G37*
G36*
G01*
X100684641Y-109734820D02*
X100424639Y-109734820D01*
G75*
G02*
X100399240Y-109709421I0J25399D01*
G01*
X100399240Y-109029419D01*
G75*
G02*
X100424639Y-109004020I25399J0D01*
G01*
X100684641Y-109004020D01*
G75*
G02*
X100710040Y-109029419I0J-25399D01*
G01*
X100710040Y-109709421D01*
G75*
G02*
X100684641Y-109734820I-25399J0D01*
G01*
G37*
G36*
G01*
X100184641Y-109734820D02*
X99924639Y-109734820D01*
G75*
G02*
X99899240Y-109709421I0J25399D01*
G01*
X99899240Y-109029419D01*
G75*
G02*
X99924639Y-109004020I25399J0D01*
G01*
X100184641Y-109004020D01*
G75*
G02*
X100210040Y-109029419I0J-25399D01*
G01*
X100210040Y-109709421D01*
G75*
G02*
X100184641Y-109734820I-25399J0D01*
G01*
G37*
G36*
G01*
X99104240Y-110084421D02*
X99104240Y-109824419D01*
G75*
G02*
X99129639Y-109799020I25399J0D01*
G01*
X99809641Y-109799020D01*
G75*
G02*
X99835040Y-109824419I0J-25399D01*
G01*
X99835040Y-110084421D01*
G75*
G02*
X99809641Y-110109820I-25399J0D01*
G01*
X99129639Y-110109820D01*
G75*
G02*
X99104240Y-110084421I0J25399D01*
G01*
G37*
G36*
G01*
X99104240Y-110584421D02*
X99104240Y-110324419D01*
G75*
G02*
X99129639Y-110299020I25399J0D01*
G01*
X99809641Y-110299020D01*
G75*
G02*
X99835040Y-110324419I0J-25399D01*
G01*
X99835040Y-110584421D01*
G75*
G02*
X99809641Y-110609820I-25399J0D01*
G01*
X99129639Y-110609820D01*
G75*
G02*
X99104240Y-110584421I0J25399D01*
G01*
G37*
G36*
G01*
X99104240Y-111084421D02*
X99104240Y-110824419D01*
G75*
G02*
X99129639Y-110799020I25399J0D01*
G01*
X99809641Y-110799020D01*
G75*
G02*
X99835040Y-110824419I0J-25399D01*
G01*
X99835040Y-111084421D01*
G75*
G02*
X99809641Y-111109820I-25399J0D01*
G01*
X99129639Y-111109820D01*
G75*
G02*
X99104240Y-111084421I0J25399D01*
G01*
G37*
G36*
G01*
X99104240Y-111584421D02*
X99104240Y-111324419D01*
G75*
G02*
X99129639Y-111299020I25399J0D01*
G01*
X99809641Y-111299020D01*
G75*
G02*
X99835040Y-111324419I0J-25399D01*
G01*
X99835040Y-111584421D01*
G75*
G02*
X99809641Y-111609820I-25399J0D01*
G01*
X99129639Y-111609820D01*
G75*
G02*
X99104240Y-111584421I0J25399D01*
G01*
G37*
G36*
G01*
X99104240Y-112084421D02*
X99104240Y-111824419D01*
G75*
G02*
X99129639Y-111799020I25399J0D01*
G01*
X99809641Y-111799020D01*
G75*
G02*
X99835040Y-111824419I0J-25399D01*
G01*
X99835040Y-112084421D01*
G75*
G02*
X99809641Y-112109820I-25399J0D01*
G01*
X99129639Y-112109820D01*
G75*
G02*
X99104240Y-112084421I0J25399D01*
G01*
G37*
G36*
G01*
X99104240Y-112584421D02*
X99104240Y-112324419D01*
G75*
G02*
X99129639Y-112299020I25399J0D01*
G01*
X99809641Y-112299020D01*
G75*
G02*
X99835040Y-112324419I0J-25399D01*
G01*
X99835040Y-112584421D01*
G75*
G02*
X99809641Y-112609820I-25399J0D01*
G01*
X99129639Y-112609820D01*
G75*
G02*
X99104240Y-112584421I0J25399D01*
G01*
G37*
G36*
G01*
X99104240Y-113084421D02*
X99104240Y-112824419D01*
G75*
G02*
X99129639Y-112799020I25399J0D01*
G01*
X99809641Y-112799020D01*
G75*
G02*
X99835040Y-112824419I0J-25399D01*
G01*
X99835040Y-113084421D01*
G75*
G02*
X99809641Y-113109820I-25399J0D01*
G01*
X99129639Y-113109820D01*
G75*
G02*
X99104240Y-113084421I0J25399D01*
G01*
G37*
G36*
G01*
X99104240Y-113584421D02*
X99104240Y-113324419D01*
G75*
G02*
X99129639Y-113299020I25399J0D01*
G01*
X99809641Y-113299020D01*
G75*
G02*
X99835040Y-113324419I0J-25399D01*
G01*
X99835040Y-113584421D01*
G75*
G02*
X99809641Y-113609820I-25399J0D01*
G01*
X99129639Y-113609820D01*
G75*
G02*
X99104240Y-113584421I0J25399D01*
G01*
G37*
G36*
G01*
X100229240Y-113254420D02*
X100229240Y-110154420D01*
G75*
G02*
X100254640Y-110129020I25400J0D01*
G01*
X103354640Y-110129020D01*
G75*
G02*
X103380040Y-110154420I0J-25400D01*
G01*
X103380040Y-113254420D01*
G75*
G02*
X103354640Y-113279820I-25400J0D01*
G01*
X100254640Y-113279820D01*
G75*
G02*
X100229240Y-113254420I0J25400D01*
G01*
G37*
G36*
G01*
X118142900Y-109278080D02*
X115942900Y-109278080D01*
G75*
G02*
X115917500Y-109252680I0J25400D01*
G01*
X115917500Y-108202680D01*
G75*
G02*
X115942900Y-108177280I25400J0D01*
G01*
X118142900Y-108177280D01*
G75*
G02*
X118168300Y-108202680I0J-25400D01*
G01*
X118168300Y-109252680D01*
G75*
G02*
X118142900Y-109278080I-25400J0D01*
G01*
G37*
G36*
G01*
X118142900Y-112228080D02*
X115942900Y-112228080D01*
G75*
G02*
X115917500Y-112202680I0J25400D01*
G01*
X115917500Y-111152680D01*
G75*
G02*
X115942900Y-111127280I25400J0D01*
G01*
X118142900Y-111127280D01*
G75*
G02*
X118168300Y-111152680I0J-25400D01*
G01*
X118168300Y-112202680D01*
G75*
G02*
X118142900Y-112228080I-25400J0D01*
G01*
G37*
G36*
G01*
X119067900Y-110728080D02*
X118017900Y-110728080D01*
G75*
G02*
X117992500Y-110702680I0J25400D01*
G01*
X117992500Y-109702680D01*
G75*
G02*
X118017900Y-109677280I25400J0D01*
G01*
X119067900Y-109677280D01*
G75*
G02*
X119093300Y-109702680I0J-25400D01*
G01*
X119093300Y-110702680D01*
G75*
G02*
X119067900Y-110728080I-25400J0D01*
G01*
G37*
G36*
G01*
X123328160Y-117893360D02*
X123328160Y-117353360D01*
G75*
G02*
X123353560Y-117327960I25400J0D01*
G01*
X124413560Y-117327960D01*
G75*
G02*
X124438960Y-117353360I0J-25400D01*
G01*
X124438960Y-117893360D01*
G75*
G02*
X124413560Y-117918760I-25400J0D01*
G01*
X123353560Y-117918760D01*
G75*
G02*
X123328160Y-117893360I0J25400D01*
G01*
G37*
G36*
G01*
X125388160Y-117893360D02*
X125388160Y-117353360D01*
G75*
G02*
X125413560Y-117327960I25400J0D01*
G01*
X126473560Y-117327960D01*
G75*
G02*
X126498960Y-117353360I0J-25400D01*
G01*
X126498960Y-117893360D01*
G75*
G02*
X126473560Y-117918760I-25400J0D01*
G01*
X125413560Y-117918760D01*
G75*
G02*
X125388160Y-117893360I0J25400D01*
G01*
G37*
G36*
G01*
X97748640Y-116406420D02*
X97748640Y-115526420D01*
G75*
G02*
X97774040Y-115501020I25400J0D01*
G01*
X98604040Y-115501020D01*
G75*
G02*
X98629440Y-115526420I0J-25400D01*
G01*
X98629440Y-116406420D01*
G75*
G02*
X98604040Y-116431820I-25400J0D01*
G01*
X97774040Y-116431820D01*
G75*
G02*
X97748640Y-116406420I0J25400D01*
G01*
G37*
G36*
G01*
X97748640Y-118296420D02*
X97748640Y-117416420D01*
G75*
G02*
X97774040Y-117391020I25400J0D01*
G01*
X98604040Y-117391020D01*
G75*
G02*
X98629440Y-117416420I0J-25400D01*
G01*
X98629440Y-118296420D01*
G75*
G02*
X98604040Y-118321820I-25400J0D01*
G01*
X97774040Y-118321820D01*
G75*
G02*
X97748640Y-118296420I0J25400D01*
G01*
G37*
G36*
G01*
X99188640Y-118296420D02*
X99188640Y-117416420D01*
G75*
G02*
X99214040Y-117391020I25400J0D01*
G01*
X100044040Y-117391020D01*
G75*
G02*
X100069440Y-117416420I0J-25400D01*
G01*
X100069440Y-118296420D01*
G75*
G02*
X100044040Y-118321820I-25400J0D01*
G01*
X99214040Y-118321820D01*
G75*
G02*
X99188640Y-118296420I0J25400D01*
G01*
G37*
G36*
G01*
X99188640Y-116406420D02*
X99188640Y-115526420D01*
G75*
G02*
X99214040Y-115501020I25400J0D01*
G01*
X100044040Y-115501020D01*
G75*
G02*
X100069440Y-115526420I0J-25400D01*
G01*
X100069440Y-116406420D01*
G75*
G02*
X100044040Y-116431820I-25400J0D01*
G01*
X99214040Y-116431820D01*
G75*
G02*
X99188640Y-116406420I0J25400D01*
G01*
G37*
G36*
G01*
X118531860Y-116345040D02*
X117856860Y-116345040D01*
G75*
G02*
X117831460Y-116319640I0J25400D01*
G01*
X117831460Y-116065640D01*
G75*
G02*
X117856860Y-116040240I25400J0D01*
G01*
X118531860Y-116040240D01*
G75*
G02*
X118557260Y-116065640I0J-25400D01*
G01*
X118557260Y-116319640D01*
G75*
G02*
X118531860Y-116345040I-25400J0D01*
G01*
G37*
G36*
G01*
X118531860Y-115845040D02*
X117856860Y-115845040D01*
G75*
G02*
X117831460Y-115819640I0J25400D01*
G01*
X117831460Y-115565640D01*
G75*
G02*
X117856860Y-115540240I25400J0D01*
G01*
X118531860Y-115540240D01*
G75*
G02*
X118557260Y-115565640I0J-25400D01*
G01*
X118557260Y-115819640D01*
G75*
G02*
X118531860Y-115845040I-25400J0D01*
G01*
G37*
G36*
G01*
X118531860Y-115345040D02*
X117856860Y-115345040D01*
G75*
G02*
X117831460Y-115319640I0J25400D01*
G01*
X117831460Y-115065640D01*
G75*
G02*
X117856860Y-115040240I25400J0D01*
G01*
X118531860Y-115040240D01*
G75*
G02*
X118557260Y-115065640I0J-25400D01*
G01*
X118557260Y-115319640D01*
G75*
G02*
X118531860Y-115345040I-25400J0D01*
G01*
G37*
G36*
G01*
X117904460Y-117442640D02*
X117904460Y-116767640D01*
G75*
G02*
X117929860Y-116742240I25400J0D01*
G01*
X118183860Y-116742240D01*
G75*
G02*
X118209260Y-116767640I0J-25400D01*
G01*
X118209260Y-117442640D01*
G75*
G02*
X118183860Y-117468040I-25400J0D01*
G01*
X117929860Y-117468040D01*
G75*
G02*
X117904460Y-117442640I0J25400D01*
G01*
G37*
G36*
G01*
X117404460Y-117442640D02*
X117404460Y-116767640D01*
G75*
G02*
X117429860Y-116742240I25400J0D01*
G01*
X117683860Y-116742240D01*
G75*
G02*
X117709260Y-116767640I0J-25400D01*
G01*
X117709260Y-117442640D01*
G75*
G02*
X117683860Y-117468040I-25400J0D01*
G01*
X117429860Y-117468040D01*
G75*
G02*
X117404460Y-117442640I0J25400D01*
G01*
G37*
G36*
G01*
X116904460Y-117442640D02*
X116904460Y-116767640D01*
G75*
G02*
X116929860Y-116742240I25400J0D01*
G01*
X117183860Y-116742240D01*
G75*
G02*
X117209260Y-116767640I0J-25400D01*
G01*
X117209260Y-117442640D01*
G75*
G02*
X117183860Y-117468040I-25400J0D01*
G01*
X116929860Y-117468040D01*
G75*
G02*
X116904460Y-117442640I0J25400D01*
G01*
G37*
G36*
G01*
X116404460Y-117442640D02*
X116404460Y-116767640D01*
G75*
G02*
X116429860Y-116742240I25400J0D01*
G01*
X116683860Y-116742240D01*
G75*
G02*
X116709260Y-116767640I0J-25400D01*
G01*
X116709260Y-117442640D01*
G75*
G02*
X116683860Y-117468040I-25400J0D01*
G01*
X116429860Y-117468040D01*
G75*
G02*
X116404460Y-117442640I0J25400D01*
G01*
G37*
G36*
G01*
X115904460Y-117442640D02*
X115904460Y-116767640D01*
G75*
G02*
X115929860Y-116742240I25400J0D01*
G01*
X116183860Y-116742240D01*
G75*
G02*
X116209260Y-116767640I0J-25400D01*
G01*
X116209260Y-117442640D01*
G75*
G02*
X116183860Y-117468040I-25400J0D01*
G01*
X115929860Y-117468040D01*
G75*
G02*
X115904460Y-117442640I0J25400D01*
G01*
G37*
G36*
G01*
X115404460Y-117442640D02*
X115404460Y-116767640D01*
G75*
G02*
X115429860Y-116742240I25400J0D01*
G01*
X115683860Y-116742240D01*
G75*
G02*
X115709260Y-116767640I0J-25400D01*
G01*
X115709260Y-117442640D01*
G75*
G02*
X115683860Y-117468040I-25400J0D01*
G01*
X115429860Y-117468040D01*
G75*
G02*
X115404460Y-117442640I0J25400D01*
G01*
G37*
G36*
G01*
X114904460Y-117442640D02*
X114904460Y-116767640D01*
G75*
G02*
X114929860Y-116742240I25400J0D01*
G01*
X115183860Y-116742240D01*
G75*
G02*
X115209260Y-116767640I0J-25400D01*
G01*
X115209260Y-117442640D01*
G75*
G02*
X115183860Y-117468040I-25400J0D01*
G01*
X114929860Y-117468040D01*
G75*
G02*
X114904460Y-117442640I0J25400D01*
G01*
G37*
G36*
G01*
X114404460Y-117442640D02*
X114404460Y-116767640D01*
G75*
G02*
X114429860Y-116742240I25400J0D01*
G01*
X114683860Y-116742240D01*
G75*
G02*
X114709260Y-116767640I0J-25400D01*
G01*
X114709260Y-117442640D01*
G75*
G02*
X114683860Y-117468040I-25400J0D01*
G01*
X114429860Y-117468040D01*
G75*
G02*
X114404460Y-117442640I0J25400D01*
G01*
G37*
G36*
G01*
X113904460Y-117442640D02*
X113904460Y-116767640D01*
G75*
G02*
X113929860Y-116742240I25400J0D01*
G01*
X114183860Y-116742240D01*
G75*
G02*
X114209260Y-116767640I0J-25400D01*
G01*
X114209260Y-117442640D01*
G75*
G02*
X114183860Y-117468040I-25400J0D01*
G01*
X113929860Y-117468040D01*
G75*
G02*
X113904460Y-117442640I0J25400D01*
G01*
G37*
G36*
G01*
X117904460Y-114117640D02*
X117904460Y-113442640D01*
G75*
G02*
X117929860Y-113417240I25400J0D01*
G01*
X118183860Y-113417240D01*
G75*
G02*
X118209260Y-113442640I0J-25400D01*
G01*
X118209260Y-114117640D01*
G75*
G02*
X118183860Y-114143040I-25400J0D01*
G01*
X117929860Y-114143040D01*
G75*
G02*
X117904460Y-114117640I0J25400D01*
G01*
G37*
G36*
G01*
X117404460Y-114117640D02*
X117404460Y-113442640D01*
G75*
G02*
X117429860Y-113417240I25400J0D01*
G01*
X117683860Y-113417240D01*
G75*
G02*
X117709260Y-113442640I0J-25400D01*
G01*
X117709260Y-114117640D01*
G75*
G02*
X117683860Y-114143040I-25400J0D01*
G01*
X117429860Y-114143040D01*
G75*
G02*
X117404460Y-114117640I0J25400D01*
G01*
G37*
G36*
G01*
X116904460Y-114117640D02*
X116904460Y-113442640D01*
G75*
G02*
X116929860Y-113417240I25400J0D01*
G01*
X117183860Y-113417240D01*
G75*
G02*
X117209260Y-113442640I0J-25400D01*
G01*
X117209260Y-114117640D01*
G75*
G02*
X117183860Y-114143040I-25400J0D01*
G01*
X116929860Y-114143040D01*
G75*
G02*
X116904460Y-114117640I0J25400D01*
G01*
G37*
G36*
G01*
X116404460Y-114117640D02*
X116404460Y-113442640D01*
G75*
G02*
X116429860Y-113417240I25400J0D01*
G01*
X116683860Y-113417240D01*
G75*
G02*
X116709260Y-113442640I0J-25400D01*
G01*
X116709260Y-114117640D01*
G75*
G02*
X116683860Y-114143040I-25400J0D01*
G01*
X116429860Y-114143040D01*
G75*
G02*
X116404460Y-114117640I0J25400D01*
G01*
G37*
G36*
G01*
X115904460Y-114117640D02*
X115904460Y-113442640D01*
G75*
G02*
X115929860Y-113417240I25400J0D01*
G01*
X116183860Y-113417240D01*
G75*
G02*
X116209260Y-113442640I0J-25400D01*
G01*
X116209260Y-114117640D01*
G75*
G02*
X116183860Y-114143040I-25400J0D01*
G01*
X115929860Y-114143040D01*
G75*
G02*
X115904460Y-114117640I0J25400D01*
G01*
G37*
G36*
G01*
X115404460Y-114117640D02*
X115404460Y-113442640D01*
G75*
G02*
X115429860Y-113417240I25400J0D01*
G01*
X115683860Y-113417240D01*
G75*
G02*
X115709260Y-113442640I0J-25400D01*
G01*
X115709260Y-114117640D01*
G75*
G02*
X115683860Y-114143040I-25400J0D01*
G01*
X115429860Y-114143040D01*
G75*
G02*
X115404460Y-114117640I0J25400D01*
G01*
G37*
G36*
G01*
X114904460Y-114117640D02*
X114904460Y-113442640D01*
G75*
G02*
X114929860Y-113417240I25400J0D01*
G01*
X115183860Y-113417240D01*
G75*
G02*
X115209260Y-113442640I0J-25400D01*
G01*
X115209260Y-114117640D01*
G75*
G02*
X115183860Y-114143040I-25400J0D01*
G01*
X114929860Y-114143040D01*
G75*
G02*
X114904460Y-114117640I0J25400D01*
G01*
G37*
G36*
G01*
X114404460Y-114117640D02*
X114404460Y-113442640D01*
G75*
G02*
X114429860Y-113417240I25400J0D01*
G01*
X114683860Y-113417240D01*
G75*
G02*
X114709260Y-113442640I0J-25400D01*
G01*
X114709260Y-114117640D01*
G75*
G02*
X114683860Y-114143040I-25400J0D01*
G01*
X114429860Y-114143040D01*
G75*
G02*
X114404460Y-114117640I0J25400D01*
G01*
G37*
G36*
G01*
X113904460Y-114117640D02*
X113904460Y-113442640D01*
G75*
G02*
X113929860Y-113417240I25400J0D01*
G01*
X114183860Y-113417240D01*
G75*
G02*
X114209260Y-113442640I0J-25400D01*
G01*
X114209260Y-114117640D01*
G75*
G02*
X114183860Y-114143040I-25400J0D01*
G01*
X113929860Y-114143040D01*
G75*
G02*
X113904460Y-114117640I0J25400D01*
G01*
G37*
G36*
G01*
X113756860Y-116345040D02*
X113081860Y-116345040D01*
G75*
G02*
X113056460Y-116319640I0J25400D01*
G01*
X113056460Y-116065640D01*
G75*
G02*
X113081860Y-116040240I25400J0D01*
G01*
X113756860Y-116040240D01*
G75*
G02*
X113782260Y-116065640I0J-25400D01*
G01*
X113782260Y-116319640D01*
G75*
G02*
X113756860Y-116345040I-25400J0D01*
G01*
G37*
G36*
G01*
X113756860Y-115845040D02*
X113081860Y-115845040D01*
G75*
G02*
X113056460Y-115819640I0J25400D01*
G01*
X113056460Y-115565640D01*
G75*
G02*
X113081860Y-115540240I25400J0D01*
G01*
X113756860Y-115540240D01*
G75*
G02*
X113782260Y-115565640I0J-25400D01*
G01*
X113782260Y-115819640D01*
G75*
G02*
X113756860Y-115845040I-25400J0D01*
G01*
G37*
G36*
G01*
X113756860Y-115345040D02*
X113081860Y-115345040D01*
G75*
G02*
X113056460Y-115319640I0J25400D01*
G01*
X113056460Y-115065640D01*
G75*
G02*
X113081860Y-115040240I25400J0D01*
G01*
X113756860Y-115040240D01*
G75*
G02*
X113782260Y-115065640I0J-25400D01*
G01*
X113782260Y-115319640D01*
G75*
G02*
X113756860Y-115345040I-25400J0D01*
G01*
G37*
G36*
G01*
X113404460Y-114117640D02*
X113404460Y-113442640D01*
G75*
G02*
X113429860Y-113417240I25400J0D01*
G01*
X113683860Y-113417240D01*
G75*
G02*
X113709260Y-113442640I0J-25400D01*
G01*
X113709260Y-114117640D01*
G75*
G02*
X113683860Y-114143040I-25400J0D01*
G01*
X113429860Y-114143040D01*
G75*
G02*
X113404460Y-114117640I0J25400D01*
G01*
G37*
G36*
G01*
X113756860Y-114845040D02*
X113081860Y-114845040D01*
G75*
G02*
X113056460Y-114819640I0J25400D01*
G01*
X113056460Y-114565640D01*
G75*
G02*
X113081860Y-114540240I25400J0D01*
G01*
X113756860Y-114540240D01*
G75*
G02*
X113782260Y-114565640I0J-25400D01*
G01*
X113782260Y-114819640D01*
G75*
G02*
X113756860Y-114845040I-25400J0D01*
G01*
G37*
G36*
G01*
X113404460Y-117442640D02*
X113404460Y-116767640D01*
G75*
G02*
X113429860Y-116742240I25400J0D01*
G01*
X113683860Y-116742240D01*
G75*
G02*
X113709260Y-116767640I0J-25400D01*
G01*
X113709260Y-117442640D01*
G75*
G02*
X113683860Y-117468040I-25400J0D01*
G01*
X113429860Y-117468040D01*
G75*
G02*
X113404460Y-117442640I0J25400D01*
G01*
G37*
G36*
G01*
X118531860Y-114845040D02*
X117856860Y-114845040D01*
G75*
G02*
X117831460Y-114819640I0J25400D01*
G01*
X117831460Y-114565640D01*
G75*
G02*
X117856860Y-114540240I25400J0D01*
G01*
X118531860Y-114540240D01*
G75*
G02*
X118557260Y-114565640I0J-25400D01*
G01*
X118557260Y-114819640D01*
G75*
G02*
X118531860Y-114845040I-25400J0D01*
G01*
G37*
G36*
G01*
X105693240Y-115528620D02*
X105353240Y-115528620D01*
G75*
G02*
X105327840Y-115503220I0J25400D01*
G01*
X105327840Y-115193220D01*
G75*
G02*
X105353240Y-115167820I25400J0D01*
G01*
X105693240Y-115167820D01*
G75*
G02*
X105718640Y-115193220I0J-25400D01*
G01*
X105718640Y-115503220D01*
G75*
G02*
X105693240Y-115528620I-25400J0D01*
G01*
G37*
G36*
G01*
X105693240Y-114978620D02*
X105353240Y-114978620D01*
G75*
G02*
X105327840Y-114953220I0J25400D01*
G01*
X105327840Y-114643220D01*
G75*
G02*
X105353240Y-114617820I25400J0D01*
G01*
X105693240Y-114617820D01*
G75*
G02*
X105718640Y-114643220I0J-25400D01*
G01*
X105718640Y-114953220D01*
G75*
G02*
X105693240Y-114978620I-25400J0D01*
G01*
G37*
G36*
G01*
X103956240Y-114389220D02*
X104296240Y-114389220D01*
G75*
G02*
X104321640Y-114414620I0J-25400D01*
G01*
X104321640Y-114724620D01*
G75*
G02*
X104296240Y-114750020I-25400J0D01*
G01*
X103956240Y-114750020D01*
G75*
G02*
X103930840Y-114724620I0J25400D01*
G01*
X103930840Y-114414620D01*
G75*
G02*
X103956240Y-114389220I25400J0D01*
G01*
G37*
G36*
G01*
X103956240Y-114939220D02*
X104296240Y-114939220D01*
G75*
G02*
X104321640Y-114964620I0J-25400D01*
G01*
X104321640Y-115274620D01*
G75*
G02*
X104296240Y-115300020I-25400J0D01*
G01*
X103956240Y-115300020D01*
G75*
G02*
X103930840Y-115274620I0J25400D01*
G01*
X103930840Y-114964620D01*
G75*
G02*
X103956240Y-114939220I25400J0D01*
G01*
G37*
G36*
G01*
X104855040Y-115300020D02*
X104515040Y-115300020D01*
G75*
G02*
X104489640Y-115274620I0J25400D01*
G01*
X104489640Y-114964620D01*
G75*
G02*
X104515040Y-114939220I25400J0D01*
G01*
X104855040Y-114939220D01*
G75*
G02*
X104880440Y-114964620I0J-25400D01*
G01*
X104880440Y-115274620D01*
G75*
G02*
X104855040Y-115300020I-25400J0D01*
G01*
G37*
G36*
G01*
X104855040Y-114750020D02*
X104515040Y-114750020D01*
G75*
G02*
X104489640Y-114724620I0J25400D01*
G01*
X104489640Y-114414620D01*
G75*
G02*
X104515040Y-114389220I25400J0D01*
G01*
X104855040Y-114389220D01*
G75*
G02*
X104880440Y-114414620I0J-25400D01*
G01*
X104880440Y-114724620D01*
G75*
G02*
X104855040Y-114750020I-25400J0D01*
G01*
G37*
G36*
G01*
X106832040Y-111890020D02*
X106832040Y-112230020D01*
G75*
G02*
X106806640Y-112255420I-25400J0D01*
G01*
X106496640Y-112255420D01*
G75*
G02*
X106471240Y-112230020I0J25400D01*
G01*
X106471240Y-111890020D01*
G75*
G02*
X106496640Y-111864620I25400J0D01*
G01*
X106806640Y-111864620D01*
G75*
G02*
X106832040Y-111890020I0J-25400D01*
G01*
G37*
G36*
G01*
X106282040Y-111890020D02*
X106282040Y-112230020D01*
G75*
G02*
X106256640Y-112255420I-25400J0D01*
G01*
X105946640Y-112255420D01*
G75*
G02*
X105921240Y-112230020I0J25400D01*
G01*
X105921240Y-111890020D01*
G75*
G02*
X105946640Y-111864620I25400J0D01*
G01*
X106256640Y-111864620D01*
G75*
G02*
X106282040Y-111890020I0J-25400D01*
G01*
G37*
G36*
G01*
X105937440Y-114617820D02*
X106277440Y-114617820D01*
G75*
G02*
X106302840Y-114643220I0J-25400D01*
G01*
X106302840Y-114953220D01*
G75*
G02*
X106277440Y-114978620I-25400J0D01*
G01*
X105937440Y-114978620D01*
G75*
G02*
X105912040Y-114953220I0J25400D01*
G01*
X105912040Y-114643220D01*
G75*
G02*
X105937440Y-114617820I25400J0D01*
G01*
G37*
G36*
G01*
X105937440Y-115167820D02*
X106277440Y-115167820D01*
G75*
G02*
X106302840Y-115193220I0J-25400D01*
G01*
X106302840Y-115503220D01*
G75*
G02*
X106277440Y-115528620I-25400J0D01*
G01*
X105937440Y-115528620D01*
G75*
G02*
X105912040Y-115503220I0J25400D01*
G01*
X105912040Y-115193220D01*
G75*
G02*
X105937440Y-115167820I25400J0D01*
G01*
G37*
G36*
G01*
X105739840Y-111890020D02*
X105739840Y-112230020D01*
G75*
G02*
X105714440Y-112255420I-25400J0D01*
G01*
X105404440Y-112255420D01*
G75*
G02*
X105379040Y-112230020I0J25400D01*
G01*
X105379040Y-111890020D01*
G75*
G02*
X105404440Y-111864620I25400J0D01*
G01*
X105714440Y-111864620D01*
G75*
G02*
X105739840Y-111890020I0J-25400D01*
G01*
G37*
G36*
G01*
X105189840Y-111890020D02*
X105189840Y-112230020D01*
G75*
G02*
X105164440Y-112255420I-25400J0D01*
G01*
X104854440Y-112255420D01*
G75*
G02*
X104829040Y-112230020I0J25400D01*
G01*
X104829040Y-111890020D01*
G75*
G02*
X104854440Y-111864620I25400J0D01*
G01*
X105164440Y-111864620D01*
G75*
G02*
X105189840Y-111890020I0J-25400D01*
G01*
G37*
G36*
G01*
X105739840Y-111305820D02*
X105739840Y-111645820D01*
G75*
G02*
X105714440Y-111671220I-25400J0D01*
G01*
X105404440Y-111671220D01*
G75*
G02*
X105379040Y-111645820I0J25400D01*
G01*
X105379040Y-111305820D01*
G75*
G02*
X105404440Y-111280420I25400J0D01*
G01*
X105714440Y-111280420D01*
G75*
G02*
X105739840Y-111305820I0J-25400D01*
G01*
G37*
G36*
G01*
X105189840Y-111305820D02*
X105189840Y-111645820D01*
G75*
G02*
X105164440Y-111671220I-25400J0D01*
G01*
X104854440Y-111671220D01*
G75*
G02*
X104829040Y-111645820I0J25400D01*
G01*
X104829040Y-111305820D01*
G75*
G02*
X104854440Y-111280420I25400J0D01*
G01*
X105164440Y-111280420D01*
G75*
G02*
X105189840Y-111305820I0J-25400D01*
G01*
G37*
G36*
G01*
X121167060Y-108923040D02*
X120286660Y-108923040D01*
G75*
G02*
X120041460Y-108677840I0J245200D01*
G01*
X120041460Y-108187440D01*
G75*
G02*
X120286660Y-107942240I245200J0D01*
G01*
X121167060Y-107942240D01*
G75*
G02*
X121412260Y-108187440I0J-245200D01*
G01*
X121412260Y-108677840D01*
G75*
G02*
X121167060Y-108923040I-245200J0D01*
G01*
G37*
G36*
G01*
X121167060Y-110563040D02*
X120286660Y-110563040D01*
G75*
G02*
X120041460Y-110317840I0J245200D01*
G01*
X120041460Y-109827440D01*
G75*
G02*
X120286660Y-109582240I245200J0D01*
G01*
X121167060Y-109582240D01*
G75*
G02*
X121412260Y-109827440I0J-245200D01*
G01*
X121412260Y-110317840D01*
G75*
G02*
X121167060Y-110563040I-245200J0D01*
G01*
G37*
G36*
G01*
X100363440Y-115532220D02*
X100573840Y-115532220D01*
G75*
G02*
X100664040Y-115622420I0J-90200D01*
G01*
X100664040Y-115802820D01*
G75*
G02*
X100573840Y-115893020I-90200J0D01*
G01*
X100363440Y-115893020D01*
G75*
G02*
X100273240Y-115802820I0J90200D01*
G01*
X100273240Y-115622420D01*
G75*
G02*
X100363440Y-115532220I90200J0D01*
G01*
G37*
G36*
G01*
X100363440Y-116082220D02*
X100573840Y-116082220D01*
G75*
G02*
X100664040Y-116172420I0J-90200D01*
G01*
X100664040Y-116352820D01*
G75*
G02*
X100573840Y-116443020I-90200J0D01*
G01*
X100363440Y-116443020D01*
G75*
G02*
X100273240Y-116352820I0J90200D01*
G01*
X100273240Y-116172420D01*
G75*
G02*
X100363440Y-116082220I90200J0D01*
G01*
G37*
G36*
G01*
X102721840Y-114735620D02*
X102721840Y-115106020D01*
G75*
G02*
X102561640Y-115266220I-160200J0D01*
G01*
X102241240Y-115266220D01*
G75*
G02*
X102081040Y-115106020I0J160200D01*
G01*
X102081040Y-114735620D01*
G75*
G02*
X102241240Y-114575420I160200J0D01*
G01*
X102561640Y-114575420D01*
G75*
G02*
X102721840Y-114735620I0J-160200D01*
G01*
G37*
G36*
G01*
X101751840Y-114735620D02*
X101751840Y-115106020D01*
G75*
G02*
X101591640Y-115266220I-160200J0D01*
G01*
X101271240Y-115266220D01*
G75*
G02*
X101111040Y-115106020I0J160200D01*
G01*
X101111040Y-114735620D01*
G75*
G02*
X101271240Y-114575420I160200J0D01*
G01*
X101591640Y-114575420D01*
G75*
G02*
X101751840Y-114735620I0J-160200D01*
G01*
G37*
G36*
G01*
X107320040Y-118058020D02*
X107109640Y-118058020D01*
G75*
G02*
X107019440Y-117967820I0J90200D01*
G01*
X107019440Y-117787420D01*
G75*
G02*
X107109640Y-117697220I90200J0D01*
G01*
X107320040Y-117697220D01*
G75*
G02*
X107410240Y-117787420I0J-90200D01*
G01*
X107410240Y-117967820D01*
G75*
G02*
X107320040Y-118058020I-90200J0D01*
G01*
G37*
G36*
G01*
X107320040Y-117508020D02*
X107109640Y-117508020D01*
G75*
G02*
X107019440Y-117417820I0J90200D01*
G01*
X107019440Y-117237420D01*
G75*
G02*
X107109640Y-117147220I90200J0D01*
G01*
X107320040Y-117147220D01*
G75*
G02*
X107410240Y-117237420I0J-90200D01*
G01*
X107410240Y-117417820D01*
G75*
G02*
X107320040Y-117508020I-90200J0D01*
G01*
G37*
G36*
G01*
X107673620Y-117147220D02*
X107884020Y-117147220D01*
G75*
G02*
X107974220Y-117237420I0J-90200D01*
G01*
X107974220Y-117417820D01*
G75*
G02*
X107884020Y-117508020I-90200J0D01*
G01*
X107673620Y-117508020D01*
G75*
G02*
X107583420Y-117417820I0J90200D01*
G01*
X107583420Y-117237420D01*
G75*
G02*
X107673620Y-117147220I90200J0D01*
G01*
G37*
G36*
G01*
X107673620Y-117697220D02*
X107884020Y-117697220D01*
G75*
G02*
X107974220Y-117787420I0J-90200D01*
G01*
X107974220Y-117967820D01*
G75*
G02*
X107884020Y-118058020I-90200J0D01*
G01*
X107673620Y-118058020D01*
G75*
G02*
X107583420Y-117967820I0J90200D01*
G01*
X107583420Y-117787420D01*
G75*
G02*
X107673620Y-117697220I90200J0D01*
G01*
G37*
G36*
G01*
X98682040Y-112894620D02*
X98682040Y-113105020D01*
G75*
G02*
X98591840Y-113195220I-90200J0D01*
G01*
X98411440Y-113195220D01*
G75*
G02*
X98321240Y-113105020I0J90200D01*
G01*
X98321240Y-112894620D01*
G75*
G02*
X98411440Y-112804420I90200J0D01*
G01*
X98591840Y-112804420D01*
G75*
G02*
X98682040Y-112894620I0J-90200D01*
G01*
G37*
G36*
G01*
X98132040Y-112894620D02*
X98132040Y-113105020D01*
G75*
G02*
X98041840Y-113195220I-90200J0D01*
G01*
X97861440Y-113195220D01*
G75*
G02*
X97771240Y-113105020I0J90200D01*
G01*
X97771240Y-112894620D01*
G75*
G02*
X97861440Y-112804420I90200J0D01*
G01*
X98041840Y-112804420D01*
G75*
G02*
X98132040Y-112894620I0J-90200D01*
G01*
G37*
G36*
G01*
X100075640Y-115002820D02*
X100075640Y-115213220D01*
G75*
G02*
X99985440Y-115303420I-90200J0D01*
G01*
X99805040Y-115303420D01*
G75*
G02*
X99714840Y-115213220I0J90200D01*
G01*
X99714840Y-115002820D01*
G75*
G02*
X99805040Y-114912620I90200J0D01*
G01*
X99985440Y-114912620D01*
G75*
G02*
X100075640Y-115002820I0J-90200D01*
G01*
G37*
G36*
G01*
X99525640Y-115002820D02*
X99525640Y-115213220D01*
G75*
G02*
X99435440Y-115303420I-90200J0D01*
G01*
X99255040Y-115303420D01*
G75*
G02*
X99164840Y-115213220I0J90200D01*
G01*
X99164840Y-115002820D01*
G75*
G02*
X99255040Y-114912620I90200J0D01*
G01*
X99435440Y-114912620D01*
G75*
G02*
X99525640Y-115002820I0J-90200D01*
G01*
G37*
G36*
G01*
X100353240Y-116837020D02*
X100563640Y-116837020D01*
G75*
G02*
X100653840Y-116927220I0J-90200D01*
G01*
X100653840Y-117107620D01*
G75*
G02*
X100563640Y-117197820I-90200J0D01*
G01*
X100353240Y-117197820D01*
G75*
G02*
X100263040Y-117107620I0J90200D01*
G01*
X100263040Y-116927220D01*
G75*
G02*
X100353240Y-116837020I90200J0D01*
G01*
G37*
G36*
G01*
X100353240Y-117387020D02*
X100563640Y-117387020D01*
G75*
G02*
X100653840Y-117477220I0J-90200D01*
G01*
X100653840Y-117657620D01*
G75*
G02*
X100563640Y-117747820I-90200J0D01*
G01*
X100353240Y-117747820D01*
G75*
G02*
X100263040Y-117657620I0J90200D01*
G01*
X100263040Y-117477220D01*
G75*
G02*
X100353240Y-117387020I90200J0D01*
G01*
G37*
G36*
G01*
X103233640Y-117437220D02*
X103444040Y-117437220D01*
G75*
G02*
X103534240Y-117527420I0J-90200D01*
G01*
X103534240Y-117707820D01*
G75*
G02*
X103444040Y-117798020I-90200J0D01*
G01*
X103233640Y-117798020D01*
G75*
G02*
X103143440Y-117707820I0J90200D01*
G01*
X103143440Y-117527420D01*
G75*
G02*
X103233640Y-117437220I90200J0D01*
G01*
G37*
G36*
G01*
X103233640Y-117987220D02*
X103444040Y-117987220D01*
G75*
G02*
X103534240Y-118077420I0J-90200D01*
G01*
X103534240Y-118257820D01*
G75*
G02*
X103444040Y-118348020I-90200J0D01*
G01*
X103233640Y-118348020D01*
G75*
G02*
X103143440Y-118257820I0J90200D01*
G01*
X103143440Y-118077420D01*
G75*
G02*
X103233640Y-117987220I90200J0D01*
G01*
G37*
G36*
G01*
X103944840Y-117437220D02*
X104155240Y-117437220D01*
G75*
G02*
X104245440Y-117527420I0J-90200D01*
G01*
X104245440Y-117707820D01*
G75*
G02*
X104155240Y-117798020I-90200J0D01*
G01*
X103944840Y-117798020D01*
G75*
G02*
X103854640Y-117707820I0J90200D01*
G01*
X103854640Y-117527420D01*
G75*
G02*
X103944840Y-117437220I90200J0D01*
G01*
G37*
G36*
G01*
X103944840Y-117987220D02*
X104155240Y-117987220D01*
G75*
G02*
X104245440Y-118077420I0J-90200D01*
G01*
X104245440Y-118257820D01*
G75*
G02*
X104155240Y-118348020I-90200J0D01*
G01*
X103944840Y-118348020D01*
G75*
G02*
X103854640Y-118257820I0J90200D01*
G01*
X103854640Y-118077420D01*
G75*
G02*
X103944840Y-117987220I90200J0D01*
G01*
G37*
G36*
G01*
X103433840Y-108756220D02*
X103223440Y-108756220D01*
G75*
G02*
X103133240Y-108666020I0J90200D01*
G01*
X103133240Y-108485620D01*
G75*
G02*
X103223440Y-108395420I90200J0D01*
G01*
X103433840Y-108395420D01*
G75*
G02*
X103524040Y-108485620I0J-90200D01*
G01*
X103524040Y-108666020D01*
G75*
G02*
X103433840Y-108756220I-90200J0D01*
G01*
G37*
G36*
G01*
X103433840Y-108206220D02*
X103223440Y-108206220D01*
G75*
G02*
X103133240Y-108116020I0J90200D01*
G01*
X103133240Y-107935620D01*
G75*
G02*
X103223440Y-107845420I90200J0D01*
G01*
X103433840Y-107845420D01*
G75*
G02*
X103524040Y-107935620I0J-90200D01*
G01*
X103524040Y-108116020D01*
G75*
G02*
X103433840Y-108206220I-90200J0D01*
G01*
G37*
G36*
G01*
X105534840Y-107845420D02*
X105745240Y-107845420D01*
G75*
G02*
X105835440Y-107935620I0J-90200D01*
G01*
X105835440Y-108116020D01*
G75*
G02*
X105745240Y-108206220I-90200J0D01*
G01*
X105534840Y-108206220D01*
G75*
G02*
X105444640Y-108116020I0J90200D01*
G01*
X105444640Y-107935620D01*
G75*
G02*
X105534840Y-107845420I90200J0D01*
G01*
G37*
G36*
G01*
X105534840Y-108395420D02*
X105745240Y-108395420D01*
G75*
G02*
X105835440Y-108485620I0J-90200D01*
G01*
X105835440Y-108666020D01*
G75*
G02*
X105745240Y-108756220I-90200J0D01*
G01*
X105534840Y-108756220D01*
G75*
G02*
X105444640Y-108666020I0J90200D01*
G01*
X105444640Y-108485620D01*
G75*
G02*
X105534840Y-108395420I90200J0D01*
G01*
G37*
G36*
G01*
X98682040Y-111212620D02*
X98682040Y-111423020D01*
G75*
G02*
X98591840Y-111513220I-90200J0D01*
G01*
X98411440Y-111513220D01*
G75*
G02*
X98321240Y-111423020I0J90200D01*
G01*
X98321240Y-111212620D01*
G75*
G02*
X98411440Y-111122420I90200J0D01*
G01*
X98591840Y-111122420D01*
G75*
G02*
X98682040Y-111212620I0J-90200D01*
G01*
G37*
G36*
G01*
X98132040Y-111212620D02*
X98132040Y-111423020D01*
G75*
G02*
X98041840Y-111513220I-90200J0D01*
G01*
X97861440Y-111513220D01*
G75*
G02*
X97771240Y-111423020I0J90200D01*
G01*
X97771240Y-111212620D01*
G75*
G02*
X97861440Y-111122420I90200J0D01*
G01*
X98041840Y-111122420D01*
G75*
G02*
X98132040Y-111212620I0J-90200D01*
G01*
G37*
G36*
G01*
X102522440Y-117437220D02*
X102732840Y-117437220D01*
G75*
G02*
X102823040Y-117527420I0J-90200D01*
G01*
X102823040Y-117707820D01*
G75*
G02*
X102732840Y-117798020I-90200J0D01*
G01*
X102522440Y-117798020D01*
G75*
G02*
X102432240Y-117707820I0J90200D01*
G01*
X102432240Y-117527420D01*
G75*
G02*
X102522440Y-117437220I90200J0D01*
G01*
G37*
G36*
G01*
X102522440Y-117987220D02*
X102732840Y-117987220D01*
G75*
G02*
X102823040Y-118077420I0J-90200D01*
G01*
X102823040Y-118257820D01*
G75*
G02*
X102732840Y-118348020I-90200J0D01*
G01*
X102522440Y-118348020D01*
G75*
G02*
X102432240Y-118257820I0J90200D01*
G01*
X102432240Y-118077420D01*
G75*
G02*
X102522440Y-117987220I90200J0D01*
G01*
G37*
G36*
G01*
X102748040Y-108756220D02*
X102537640Y-108756220D01*
G75*
G02*
X102447440Y-108666020I0J90200D01*
G01*
X102447440Y-108485620D01*
G75*
G02*
X102537640Y-108395420I90200J0D01*
G01*
X102748040Y-108395420D01*
G75*
G02*
X102838240Y-108485620I0J-90200D01*
G01*
X102838240Y-108666020D01*
G75*
G02*
X102748040Y-108756220I-90200J0D01*
G01*
G37*
G36*
G01*
X102748040Y-108206220D02*
X102537640Y-108206220D01*
G75*
G02*
X102447440Y-108116020I0J90200D01*
G01*
X102447440Y-107935620D01*
G75*
G02*
X102537640Y-107845420I90200J0D01*
G01*
X102748040Y-107845420D01*
G75*
G02*
X102838240Y-107935620I0J-90200D01*
G01*
X102838240Y-108116020D01*
G75*
G02*
X102748040Y-108206220I-90200J0D01*
G01*
G37*
G36*
G01*
X107318240Y-112139820D02*
X107318240Y-111929420D01*
G75*
G02*
X107408440Y-111839220I90200J0D01*
G01*
X107588840Y-111839220D01*
G75*
G02*
X107679040Y-111929420I0J-90200D01*
G01*
X107679040Y-112139820D01*
G75*
G02*
X107588840Y-112230020I-90200J0D01*
G01*
X107408440Y-112230020D01*
G75*
G02*
X107318240Y-112139820I0J90200D01*
G01*
G37*
G36*
G01*
X107868240Y-112139820D02*
X107868240Y-111929420D01*
G75*
G02*
X107958440Y-111839220I90200J0D01*
G01*
X108138840Y-111839220D01*
G75*
G02*
X108229040Y-111929420I0J-90200D01*
G01*
X108229040Y-112139820D01*
G75*
G02*
X108138840Y-112230020I-90200J0D01*
G01*
X107958440Y-112230020D01*
G75*
G02*
X107868240Y-112139820I0J90200D01*
G01*
G37*
G36*
G01*
X107318240Y-112851020D02*
X107318240Y-112640620D01*
G75*
G02*
X107408440Y-112550420I90200J0D01*
G01*
X107588840Y-112550420D01*
G75*
G02*
X107679040Y-112640620I0J-90200D01*
G01*
X107679040Y-112851020D01*
G75*
G02*
X107588840Y-112941220I-90200J0D01*
G01*
X107408440Y-112941220D01*
G75*
G02*
X107318240Y-112851020I0J90200D01*
G01*
G37*
G36*
G01*
X107868240Y-112851020D02*
X107868240Y-112640620D01*
G75*
G02*
X107958440Y-112550420I90200J0D01*
G01*
X108138840Y-112550420D01*
G75*
G02*
X108229040Y-112640620I0J-90200D01*
G01*
X108229040Y-112851020D01*
G75*
G02*
X108138840Y-112941220I-90200J0D01*
G01*
X107958440Y-112941220D01*
G75*
G02*
X107868240Y-112851020I0J90200D01*
G01*
G37*
G36*
G01*
X102036840Y-108756220D02*
X101826440Y-108756220D01*
G75*
G02*
X101736240Y-108666020I0J90200D01*
G01*
X101736240Y-108485620D01*
G75*
G02*
X101826440Y-108395420I90200J0D01*
G01*
X102036840Y-108395420D01*
G75*
G02*
X102127040Y-108485620I0J-90200D01*
G01*
X102127040Y-108666020D01*
G75*
G02*
X102036840Y-108756220I-90200J0D01*
G01*
G37*
G36*
G01*
X102036840Y-108206220D02*
X101826440Y-108206220D01*
G75*
G02*
X101736240Y-108116020I0J90200D01*
G01*
X101736240Y-107935620D01*
G75*
G02*
X101826440Y-107845420I90200J0D01*
G01*
X102036840Y-107845420D01*
G75*
G02*
X102127040Y-107935620I0J-90200D01*
G01*
X102127040Y-108116020D01*
G75*
G02*
X102036840Y-108206220I-90200J0D01*
G01*
G37*
G36*
G01*
X126021660Y-108017720D02*
X126021660Y-110637720D01*
G75*
G02*
X125996260Y-110663120I-25400J0D01*
G01*
X125126260Y-110663120D01*
G75*
G02*
X125100860Y-110637720I0J25400D01*
G01*
X125100860Y-108017720D01*
G75*
G02*
X125126260Y-107992320I25400J0D01*
G01*
X125996260Y-107992320D01*
G75*
G02*
X126021660Y-108017720I0J-25400D01*
G01*
G37*
G36*
G01*
X122971660Y-108017720D02*
X122971660Y-110637720D01*
G75*
G02*
X122946260Y-110663120I-25400J0D01*
G01*
X122076260Y-110663120D01*
G75*
G02*
X122050860Y-110637720I0J25400D01*
G01*
X122050860Y-108017720D01*
G75*
G02*
X122076260Y-107992320I25400J0D01*
G01*
X122946260Y-107992320D01*
G75*
G02*
X122971660Y-108017720I0J-25400D01*
G01*
G37*
G36*
G01*
X105962840Y-112458820D02*
X106302840Y-112458820D01*
G75*
G02*
X106328240Y-112484220I0J-25400D01*
G01*
X106328240Y-112794220D01*
G75*
G02*
X106302840Y-112819620I-25400J0D01*
G01*
X105962840Y-112819620D01*
G75*
G02*
X105937440Y-112794220I0J25400D01*
G01*
X105937440Y-112484220D01*
G75*
G02*
X105962840Y-112458820I25400J0D01*
G01*
G37*
G36*
G01*
X105962840Y-113008820D02*
X106302840Y-113008820D01*
G75*
G02*
X106328240Y-113034220I0J-25400D01*
G01*
X106328240Y-113344220D01*
G75*
G02*
X106302840Y-113369620I-25400J0D01*
G01*
X105962840Y-113369620D01*
G75*
G02*
X105937440Y-113344220I0J25400D01*
G01*
X105937440Y-113034220D01*
G75*
G02*
X105962840Y-113008820I25400J0D01*
G01*
G37*
G36*
G01*
X105404040Y-113008820D02*
X105744040Y-113008820D01*
G75*
G02*
X105769440Y-113034220I0J-25400D01*
G01*
X105769440Y-113344220D01*
G75*
G02*
X105744040Y-113369620I-25400J0D01*
G01*
X105404040Y-113369620D01*
G75*
G02*
X105378640Y-113344220I0J25400D01*
G01*
X105378640Y-113034220D01*
G75*
G02*
X105404040Y-113008820I25400J0D01*
G01*
G37*
G36*
G01*
X105404040Y-112458820D02*
X105744040Y-112458820D01*
G75*
G02*
X105769440Y-112484220I0J-25400D01*
G01*
X105769440Y-112794220D01*
G75*
G02*
X105744040Y-112819620I-25400J0D01*
G01*
X105404040Y-112819620D01*
G75*
G02*
X105378640Y-112794220I0J25400D01*
G01*
X105378640Y-112484220D01*
G75*
G02*
X105404040Y-112458820I25400J0D01*
G01*
G37*
G36*
G01*
X98678640Y-110569220D02*
X98678640Y-110909220D01*
G75*
G02*
X98653240Y-110934620I-25400J0D01*
G01*
X98343240Y-110934620D01*
G75*
G02*
X98317840Y-110909220I0J25400D01*
G01*
X98317840Y-110569220D01*
G75*
G02*
X98343240Y-110543820I25400J0D01*
G01*
X98653240Y-110543820D01*
G75*
G02*
X98678640Y-110569220I0J-25400D01*
G01*
G37*
G36*
G01*
X98128640Y-110569220D02*
X98128640Y-110909220D01*
G75*
G02*
X98103240Y-110934620I-25400J0D01*
G01*
X97793240Y-110934620D01*
G75*
G02*
X97767840Y-110909220I0J25400D01*
G01*
X97767840Y-110569220D01*
G75*
G02*
X97793240Y-110543820I25400J0D01*
G01*
X98103240Y-110543820D01*
G75*
G02*
X98128640Y-110569220I0J-25400D01*
G01*
G37*
G36*
G01*
X98133040Y-110010420D02*
X98133040Y-110350420D01*
G75*
G02*
X98107640Y-110375820I-25400J0D01*
G01*
X97797640Y-110375820D01*
G75*
G02*
X97772240Y-110350420I0J25400D01*
G01*
X97772240Y-110010420D01*
G75*
G02*
X97797640Y-109985020I25400J0D01*
G01*
X98107640Y-109985020D01*
G75*
G02*
X98133040Y-110010420I0J-25400D01*
G01*
G37*
G36*
G01*
X98683040Y-110010420D02*
X98683040Y-110350420D01*
G75*
G02*
X98657640Y-110375820I-25400J0D01*
G01*
X98347640Y-110375820D01*
G75*
G02*
X98322240Y-110350420I0J25400D01*
G01*
X98322240Y-110010420D01*
G75*
G02*
X98347640Y-109985020I25400J0D01*
G01*
X98657640Y-109985020D01*
G75*
G02*
X98683040Y-110010420I0J-25400D01*
G01*
G37*
G36*
G01*
X106282440Y-113905220D02*
X105942440Y-113905220D01*
G75*
G02*
X105917040Y-113879820I0J25400D01*
G01*
X105917040Y-113569820D01*
G75*
G02*
X105942440Y-113544420I25400J0D01*
G01*
X106282440Y-113544420D01*
G75*
G02*
X106307840Y-113569820I0J-25400D01*
G01*
X106307840Y-113879820D01*
G75*
G02*
X106282440Y-113905220I-25400J0D01*
G01*
G37*
G36*
G01*
X106282440Y-114455220D02*
X105942440Y-114455220D01*
G75*
G02*
X105917040Y-114429820I0J25400D01*
G01*
X105917040Y-114119820D01*
G75*
G02*
X105942440Y-114094420I25400J0D01*
G01*
X106282440Y-114094420D01*
G75*
G02*
X106307840Y-114119820I0J-25400D01*
G01*
X106307840Y-114429820D01*
G75*
G02*
X106282440Y-114455220I-25400J0D01*
G01*
G37*
G36*
G01*
X105708440Y-114445820D02*
X105368440Y-114445820D01*
G75*
G02*
X105343040Y-114420420I0J25400D01*
G01*
X105343040Y-114110420D01*
G75*
G02*
X105368440Y-114085020I25400J0D01*
G01*
X105708440Y-114085020D01*
G75*
G02*
X105733840Y-114110420I0J-25400D01*
G01*
X105733840Y-114420420D01*
G75*
G02*
X105708440Y-114445820I-25400J0D01*
G01*
G37*
G36*
G01*
X105708440Y-113895820D02*
X105368440Y-113895820D01*
G75*
G02*
X105343040Y-113870420I0J25400D01*
G01*
X105343040Y-113560420D01*
G75*
G02*
X105368440Y-113535020I25400J0D01*
G01*
X105708440Y-113535020D01*
G75*
G02*
X105733840Y-113560420I0J-25400D01*
G01*
X105733840Y-113870420D01*
G75*
G02*
X105708440Y-113895820I-25400J0D01*
G01*
G37*
G36*
G01*
X105766640Y-111083220D02*
X105426640Y-111083220D01*
G75*
G02*
X105401240Y-111057820I0J25400D01*
G01*
X105401240Y-110747820D01*
G75*
G02*
X105426640Y-110722420I25400J0D01*
G01*
X105766640Y-110722420D01*
G75*
G02*
X105792040Y-110747820I0J-25400D01*
G01*
X105792040Y-111057820D01*
G75*
G02*
X105766640Y-111083220I-25400J0D01*
G01*
G37*
G36*
G01*
X105766640Y-110533220D02*
X105426640Y-110533220D01*
G75*
G02*
X105401240Y-110507820I0J25400D01*
G01*
X105401240Y-110197820D01*
G75*
G02*
X105426640Y-110172420I25400J0D01*
G01*
X105766640Y-110172420D01*
G75*
G02*
X105792040Y-110197820I0J-25400D01*
G01*
X105792040Y-110507820D01*
G75*
G02*
X105766640Y-110533220I-25400J0D01*
G01*
G37*
G36*
G01*
X105185240Y-110533620D02*
X104845240Y-110533620D01*
G75*
G02*
X104819840Y-110508220I0J25400D01*
G01*
X104819840Y-110198220D01*
G75*
G02*
X104845240Y-110172820I25400J0D01*
G01*
X105185240Y-110172820D01*
G75*
G02*
X105210640Y-110198220I0J-25400D01*
G01*
X105210640Y-110508220D01*
G75*
G02*
X105185240Y-110533620I-25400J0D01*
G01*
G37*
G36*
G01*
X105185240Y-111083620D02*
X104845240Y-111083620D01*
G75*
G02*
X104819840Y-111058220I0J25400D01*
G01*
X104819840Y-110748220D01*
G75*
G02*
X104845240Y-110722820I25400J0D01*
G01*
X105185240Y-110722820D01*
G75*
G02*
X105210640Y-110748220I0J-25400D01*
G01*
X105210640Y-111058220D01*
G75*
G02*
X105185240Y-111083620I-25400J0D01*
G01*
G37*
G36*
G01*
X98682040Y-112271020D02*
X98682040Y-112611020D01*
G75*
G02*
X98656640Y-112636420I-25400J0D01*
G01*
X98346640Y-112636420D01*
G75*
G02*
X98321240Y-112611020I0J25400D01*
G01*
X98321240Y-112271020D01*
G75*
G02*
X98346640Y-112245620I25400J0D01*
G01*
X98656640Y-112245620D01*
G75*
G02*
X98682040Y-112271020I0J-25400D01*
G01*
G37*
G36*
G01*
X98132040Y-112271020D02*
X98132040Y-112611020D01*
G75*
G02*
X98106640Y-112636420I-25400J0D01*
G01*
X97796640Y-112636420D01*
G75*
G02*
X97771240Y-112611020I0J25400D01*
G01*
X97771240Y-112271020D01*
G75*
G02*
X97796640Y-112245620I25400J0D01*
G01*
X98106640Y-112245620D01*
G75*
G02*
X98132040Y-112271020I0J-25400D01*
G01*
G37*
G36*
G01*
X98132040Y-111712220D02*
X98132040Y-112052220D01*
G75*
G02*
X98106640Y-112077620I-25400J0D01*
G01*
X97796640Y-112077620D01*
G75*
G02*
X97771240Y-112052220I0J25400D01*
G01*
X97771240Y-111712220D01*
G75*
G02*
X97796640Y-111686820I25400J0D01*
G01*
X98106640Y-111686820D01*
G75*
G02*
X98132040Y-111712220I0J-25400D01*
G01*
G37*
G36*
G01*
X98682040Y-111712220D02*
X98682040Y-112052220D01*
G75*
G02*
X98656640Y-112077620I-25400J0D01*
G01*
X98346640Y-112077620D01*
G75*
G02*
X98321240Y-112052220I0J25400D01*
G01*
X98321240Y-111712220D01*
G75*
G02*
X98346640Y-111686820I25400J0D01*
G01*
X98656640Y-111686820D01*
G75*
G02*
X98682040Y-111712220I0J-25400D01*
G01*
G37*
G36*
G01*
X107522440Y-114191620D02*
X107892840Y-114191620D01*
G75*
G02*
X108053040Y-114351820I0J-160200D01*
G01*
X108053040Y-114672220D01*
G75*
G02*
X107892840Y-114832420I-160200J0D01*
G01*
X107522440Y-114832420D01*
G75*
G02*
X107362240Y-114672220I0J160200D01*
G01*
X107362240Y-114351820D01*
G75*
G02*
X107522440Y-114191620I160200J0D01*
G01*
G37*
G36*
G01*
X107522440Y-115161620D02*
X107892840Y-115161620D01*
G75*
G02*
X108053040Y-115321820I0J-160200D01*
G01*
X108053040Y-115642220D01*
G75*
G02*
X107892840Y-115802420I-160200J0D01*
G01*
X107522440Y-115802420D01*
G75*
G02*
X107362240Y-115642220I0J160200D01*
G01*
X107362240Y-115321820D01*
G75*
G02*
X107522440Y-115161620I160200J0D01*
G01*
G37*
G36*
G01*
X107374640Y-110092020D02*
X107004240Y-110092020D01*
G75*
G02*
X106844040Y-109931820I0J160200D01*
G01*
X106844040Y-109611420D01*
G75*
G02*
X107004240Y-109451220I160200J0D01*
G01*
X107374640Y-109451220D01*
G75*
G02*
X107534840Y-109611420I0J-160200D01*
G01*
X107534840Y-109931820D01*
G75*
G02*
X107374640Y-110092020I-160200J0D01*
G01*
G37*
G36*
G01*
X107374640Y-111062020D02*
X107004240Y-111062020D01*
G75*
G02*
X106844040Y-110901820I0J160200D01*
G01*
X106844040Y-110581420D01*
G75*
G02*
X107004240Y-110421220I160200J0D01*
G01*
X107374640Y-110421220D01*
G75*
G02*
X107534840Y-110581420I0J-160200D01*
G01*
X107534840Y-110901820D01*
G75*
G02*
X107374640Y-111062020I-160200J0D01*
G01*
G37*
M02*
