%TF.GenerationSoftware,KiCad,Pcbnew,8.0.0*%
%TF.CreationDate,2024-03-07T16:43:38+08:00*%
%TF.ProjectId,LED_ring,4c45445f-7269-46e6-972e-6b696361645f,rev?*%
%TF.SameCoordinates,Original*%
%TF.FileFunction,Legend,Top*%
%TF.FilePolarity,Positive*%
%FSLAX46Y46*%
G04 Gerber Fmt 4.6, Leading zero omitted, Abs format (unit mm)*
G04 Created by KiCad (PCBNEW 8.0.0) date 2024-03-07 16:43:38*
%MOMM*%
%LPD*%
G01*
G04 APERTURE LIST*
%ADD10C,0.174625*%
G04 APERTURE END LIST*
D10*
X153662588Y-110402410D02*
X154226455Y-110914951D01*
X154226455Y-110914951D02*
X154114591Y-111038017D01*
X154114591Y-111038017D02*
X154020622Y-111087450D01*
X154020622Y-111087450D02*
X153922175Y-111087863D01*
X153922175Y-111087863D02*
X153846101Y-111063663D01*
X153846101Y-111063663D02*
X153716324Y-110990650D01*
X153716324Y-110990650D02*
X153635772Y-110917430D01*
X153635772Y-110917430D02*
X153550741Y-110795190D01*
X153550741Y-110795190D02*
X153519413Y-110721763D01*
X153519413Y-110721763D02*
X153510457Y-110623723D01*
X153510457Y-110623723D02*
X153550724Y-110525477D01*
X153550724Y-110525477D02*
X153662588Y-110402410D01*
X153555272Y-111653348D02*
X153644763Y-111554895D01*
X153644763Y-111554895D02*
X153662658Y-111481262D01*
X153662658Y-111481262D02*
X153658180Y-111432242D01*
X153658180Y-111432242D02*
X153622373Y-111309796D01*
X153622373Y-111309796D02*
X153537342Y-111187556D01*
X153537342Y-111187556D02*
X153322536Y-110992302D01*
X153322536Y-110992302D02*
X153246461Y-110968102D01*
X153246461Y-110968102D02*
X153197237Y-110968309D01*
X153197237Y-110968309D02*
X153125641Y-110993128D01*
X153125641Y-110993128D02*
X153036150Y-111091582D01*
X153036150Y-111091582D02*
X153018255Y-111165215D01*
X153018255Y-111165215D02*
X153022733Y-111214235D01*
X153022733Y-111214235D02*
X153054062Y-111287661D01*
X153054062Y-111287661D02*
X153188316Y-111409695D01*
X153188316Y-111409695D02*
X153264391Y-111433895D01*
X153264391Y-111433895D02*
X153313614Y-111433688D01*
X153313614Y-111433688D02*
X153385211Y-111408868D01*
X153385211Y-111408868D02*
X153474702Y-111310415D01*
X153474702Y-111310415D02*
X153492597Y-111236782D01*
X153492597Y-111236782D02*
X153488118Y-111187762D01*
X153488118Y-111187762D02*
X153456790Y-111114336D01*
X158008404Y-111693678D02*
X158762132Y-111805651D01*
X158762132Y-111805651D02*
X158737693Y-111970156D01*
X158737693Y-111970156D02*
X158687138Y-112063526D01*
X158687138Y-112063526D02*
X158605579Y-112118664D01*
X158605579Y-112118664D02*
X158528908Y-112140900D01*
X158528908Y-112140900D02*
X158380453Y-112152473D01*
X158380453Y-112152473D02*
X158272777Y-112136477D01*
X158272777Y-112136477D02*
X158134098Y-112082248D01*
X158134098Y-112082248D02*
X158067202Y-112038683D01*
X158067202Y-112038683D02*
X158005194Y-111962217D01*
X158005194Y-111962217D02*
X157983965Y-111858182D01*
X157983965Y-111858182D02*
X158008404Y-111693678D01*
X158669265Y-112430767D02*
X158600837Y-112891379D01*
X158600837Y-112891379D02*
X157891098Y-112483298D01*
X155818859Y-96037531D02*
X155069498Y-96175741D01*
X155069498Y-96175741D02*
X155039334Y-96012190D01*
X155039334Y-96012190D02*
X155056919Y-95907478D01*
X155056919Y-95907478D02*
X155116220Y-95828895D01*
X155116220Y-95828895D02*
X155181555Y-95783022D01*
X155181555Y-95783022D02*
X155318258Y-95723986D01*
X155318258Y-95723986D02*
X155425309Y-95704241D01*
X155425309Y-95704241D02*
X155574078Y-95710626D01*
X155574078Y-95710626D02*
X155651478Y-95730173D01*
X155651478Y-95730173D02*
X155734912Y-95782431D01*
X155734912Y-95782431D02*
X155788695Y-95873980D01*
X155788695Y-95873980D02*
X155818859Y-96037531D01*
X155020207Y-95508374D02*
X154978490Y-95482245D01*
X154978490Y-95482245D02*
X154930740Y-95423406D01*
X154930740Y-95423406D02*
X154900575Y-95259855D01*
X154900575Y-95259855D02*
X154924193Y-95187853D01*
X154924193Y-95187853D02*
X154953844Y-95148562D01*
X154953844Y-95148562D02*
X155019179Y-95102689D01*
X155019179Y-95102689D02*
X155090547Y-95089526D01*
X155090547Y-95089526D02*
X155203631Y-95102492D01*
X155203631Y-95102492D02*
X155704233Y-95416037D01*
X155704233Y-95416037D02*
X155625805Y-94990805D01*
X150942130Y-106949997D02*
X151151015Y-107682808D01*
X151151015Y-107682808D02*
X150991076Y-107728398D01*
X150991076Y-107728398D02*
X150885166Y-107720856D01*
X150885166Y-107720856D02*
X150801297Y-107669301D01*
X150801297Y-107669301D02*
X150749415Y-107608627D01*
X150749415Y-107608627D02*
X150677640Y-107478162D01*
X150677640Y-107478162D02*
X150647799Y-107373475D01*
X150647799Y-107373475D02*
X150640000Y-107224774D01*
X150640000Y-107224774D02*
X150652094Y-107145865D01*
X150652094Y-107145865D02*
X150696175Y-107057837D01*
X150696175Y-107057837D02*
X150782192Y-106995587D01*
X150782192Y-106995587D02*
X150942130Y-106949997D01*
X150159395Y-107965466D02*
X150479272Y-107874286D01*
X150479272Y-107874286D02*
X150411791Y-107516210D01*
X150411791Y-107516210D02*
X150389750Y-107560224D01*
X150389750Y-107560224D02*
X150335722Y-107613356D01*
X150335722Y-107613356D02*
X150175783Y-107658946D01*
X150175783Y-107658946D02*
X150101860Y-107642286D01*
X150101860Y-107642286D02*
X150059926Y-107616508D01*
X150059926Y-107616508D02*
X150008044Y-107555835D01*
X150008044Y-107555835D02*
X149958310Y-107381356D01*
X149958310Y-107381356D02*
X149970404Y-107302447D01*
X149970404Y-107302447D02*
X149992445Y-107258433D01*
X149992445Y-107258433D02*
X150046473Y-107205301D01*
X150046473Y-107205301D02*
X150206412Y-107159711D01*
X150206412Y-107159711D02*
X150280334Y-107176371D01*
X150280334Y-107176371D02*
X150322269Y-107202149D01*
X160258664Y-95814836D02*
X159549057Y-95537163D01*
X159549057Y-95537163D02*
X159609660Y-95382288D01*
X159609660Y-95382288D02*
X159679813Y-95302586D01*
X159679813Y-95302586D02*
X159771636Y-95267082D01*
X159771636Y-95267082D02*
X159851338Y-95262552D01*
X159851338Y-95262552D02*
X159998622Y-95284467D01*
X159998622Y-95284467D02*
X160099994Y-95324135D01*
X160099994Y-95324135D02*
X160223037Y-95408000D01*
X160223037Y-95408000D02*
X160278498Y-95465420D01*
X160278498Y-95465420D02*
X160321838Y-95553814D01*
X160321838Y-95553814D02*
X160319267Y-95659962D01*
X160319267Y-95659962D02*
X160258664Y-95814836D01*
X160646525Y-94823640D02*
X160501077Y-95195338D01*
X160573801Y-95009489D02*
X159864194Y-94731816D01*
X159864194Y-94731816D02*
X159941325Y-94833433D01*
X159941325Y-94833433D02*
X159984665Y-94921828D01*
X159984665Y-94921828D02*
X159994215Y-94997000D01*
X151959635Y-98622754D02*
X151395768Y-99135295D01*
X151395768Y-99135295D02*
X151283904Y-99012228D01*
X151283904Y-99012228D02*
X151243636Y-98913982D01*
X151243636Y-98913982D02*
X151252592Y-98815942D01*
X151252592Y-98815942D02*
X151283921Y-98742515D01*
X151283921Y-98742515D02*
X151368952Y-98620275D01*
X151368952Y-98620275D02*
X151449504Y-98547055D01*
X151449504Y-98547055D02*
X151579280Y-98474042D01*
X151579280Y-98474042D02*
X151655355Y-98449842D01*
X151655355Y-98449842D02*
X151753802Y-98450255D01*
X151753802Y-98450255D02*
X151847771Y-98499688D01*
X151847771Y-98499688D02*
X151959635Y-98622754D01*
X150970685Y-98667643D02*
X150679839Y-98347670D01*
X150679839Y-98347670D02*
X151051255Y-98324710D01*
X151051255Y-98324710D02*
X150984136Y-98250870D01*
X150984136Y-98250870D02*
X150966242Y-98177237D01*
X150966242Y-98177237D02*
X150970720Y-98128217D01*
X150970720Y-98128217D02*
X151002048Y-98054790D01*
X151002048Y-98054790D02*
X151136303Y-97932757D01*
X151136303Y-97932757D02*
X151212377Y-97908557D01*
X151212377Y-97908557D02*
X151261601Y-97908763D01*
X151261601Y-97908763D02*
X151333197Y-97933583D01*
X151333197Y-97933583D02*
X151467434Y-98081263D01*
X151467434Y-98081263D02*
X151485329Y-98154896D01*
X151485329Y-98154896D02*
X151480851Y-98203916D01*
X150303525Y-102594332D02*
X150094640Y-103327142D01*
X150094640Y-103327142D02*
X149934701Y-103281552D01*
X149934701Y-103281552D02*
X149848685Y-103219303D01*
X149848685Y-103219303D02*
X149804603Y-103131275D01*
X149804603Y-103131275D02*
X149792509Y-103052366D01*
X149792509Y-103052366D02*
X149800309Y-102903665D01*
X149800309Y-102903665D02*
X149830149Y-102798978D01*
X149830149Y-102798978D02*
X149901925Y-102668513D01*
X149901925Y-102668513D02*
X149953806Y-102607839D01*
X149953806Y-102607839D02*
X150037676Y-102556284D01*
X150037676Y-102556284D02*
X150143586Y-102548742D01*
X150143586Y-102548742D02*
X150303525Y-102594332D01*
X149204635Y-102809333D02*
X149343892Y-102320792D01*
X149284999Y-103134088D02*
X149594141Y-102656242D01*
X149594141Y-102656242D02*
X149178300Y-102537708D01*
X161957263Y-110903070D02*
X162666873Y-110625406D01*
X162666873Y-110625406D02*
X162727474Y-110780281D01*
X162727474Y-110780281D02*
X162730044Y-110886428D01*
X162730044Y-110886428D02*
X162686703Y-110974822D01*
X162686703Y-110974822D02*
X162631241Y-111032242D01*
X162631241Y-111032242D02*
X162508198Y-111116105D01*
X162508198Y-111116105D02*
X162406825Y-111155772D01*
X162406825Y-111155772D02*
X162259541Y-111177685D01*
X162259541Y-111177685D02*
X162179838Y-111173154D01*
X162179838Y-111173154D02*
X162088016Y-111137648D01*
X162088016Y-111137648D02*
X162017864Y-111057945D01*
X162017864Y-111057945D02*
X161957263Y-110903070D01*
X162653641Y-111487806D02*
X162663191Y-111412633D01*
X162663191Y-111412633D02*
X162684862Y-111368436D01*
X162684862Y-111368436D02*
X162740324Y-111311017D01*
X162740324Y-111311017D02*
X162774115Y-111297795D01*
X162774115Y-111297795D02*
X162853817Y-111302326D01*
X162853817Y-111302326D02*
X162899728Y-111320079D01*
X162899728Y-111320079D02*
X162957760Y-111368807D01*
X162957760Y-111368807D02*
X163006241Y-111492707D01*
X163006241Y-111492707D02*
X162996690Y-111567879D01*
X162996690Y-111567879D02*
X162975020Y-111612076D01*
X162975020Y-111612076D02*
X162919558Y-111669495D01*
X162919558Y-111669495D02*
X162885767Y-111682717D01*
X162885767Y-111682717D02*
X162806065Y-111678187D01*
X162806065Y-111678187D02*
X162760154Y-111660434D01*
X162760154Y-111660434D02*
X162702122Y-111611706D01*
X162702122Y-111611706D02*
X162653641Y-111487806D01*
X162653641Y-111487806D02*
X162595609Y-111439078D01*
X162595609Y-111439078D02*
X162549698Y-111421325D01*
X162549698Y-111421325D02*
X162469996Y-111416794D01*
X162469996Y-111416794D02*
X162334832Y-111469682D01*
X162334832Y-111469682D02*
X162279371Y-111527102D01*
X162279371Y-111527102D02*
X162257700Y-111571299D01*
X162257700Y-111571299D02*
X162248150Y-111646471D01*
X162248150Y-111646471D02*
X162296631Y-111770371D01*
X162296631Y-111770371D02*
X162354662Y-111819099D01*
X162354662Y-111819099D02*
X162400573Y-111836852D01*
X162400573Y-111836852D02*
X162480276Y-111841383D01*
X162480276Y-111841383D02*
X162615439Y-111788494D01*
X162615439Y-111788494D02*
X162670901Y-111731075D01*
X162670901Y-111731075D02*
X162692572Y-111686878D01*
X162692572Y-111686878D02*
X162702122Y-111611706D01*
M02*
