%TF.GenerationSoftware,KiCad,Pcbnew,8.0.0*%
%TF.CreationDate,2024-03-07T16:43:38+08:00*%
%TF.ProjectId,LED_ring,4c45445f-7269-46e6-972e-6b696361645f,rev?*%
%TF.SameCoordinates,Original*%
%TF.FileFunction,Copper,L2,Bot*%
%TF.FilePolarity,Positive*%
%FSLAX46Y46*%
G04 Gerber Fmt 4.6, Leading zero omitted, Abs format (unit mm)*
G04 Created by KiCad (PCBNEW 8.0.0) date 2024-03-07 16:43:38*
%MOMM*%
%LPD*%
G01*
G04 APERTURE LIST*
%TA.AperFunction,Conductor*%
%ADD10C,0.254000*%
%TD*%
%TA.AperFunction,SMDPad,CuDef*%
%ADD11R,2.000000X0.300000*%
%TD*%
%TA.AperFunction,ViaPad*%
%ADD12C,0.500000*%
%TD*%
%TA.AperFunction,ViaPad*%
%ADD13C,0.400000*%
%TD*%
G04 APERTURE END LIST*
D10*
%TO.N,$1N2857*%
X156647000Y-112428000D02*
G75*
G02*
X149339985Y-104812503I2001200J9233400D01*
G01*
%TO.N,$1N2904*%
X149395000Y-102554500D02*
G75*
G02*
X156633004Y-95030523I8891800J-1310400D01*
G01*
%TD*%
D11*
%TO.P,,1*%
%TO.N,$1N2857*%
X142346500Y-104704000D03*
%TD*%
%TO.P,,1*%
%TO.N,CPO*%
X142346500Y-103688000D03*
%TD*%
%TO.P,,1*%
%TO.N,$1N2896*%
X142346500Y-103205000D03*
%TD*%
%TO.P,,1*%
%TO.N,$1N2904*%
X142346500Y-102697000D03*
%TD*%
%TO.P,,1*%
%TO.N,$1N2869*%
X142346500Y-104196000D03*
%TD*%
D12*
%TO.N,$1N2857*%
X156647000Y-112428000D03*
D13*
%TO.N,CPO*%
X150043000Y-103690500D03*
%TO.N,$1N2869*%
X143838500Y-104207500D03*
%TO.N,$1N2896*%
X143838500Y-103191500D03*
D12*
%TO.N,$1N2904*%
X156596500Y-95029000D03*
%TD*%
D10*
%TO.N,$1N2857*%
X144852500Y-104704000D02*
X142346500Y-104704000D01*
X142339000Y-104711500D02*
X142346500Y-104704000D01*
X145207000Y-104349000D02*
X144852500Y-104704000D01*
X148877000Y-104349000D02*
X145207000Y-104349000D01*
X149340000Y-104812500D02*
X148877000Y-104349000D01*
%TO.N,CPO*%
X150043000Y-103690500D02*
X150040500Y-103688000D01*
X150040500Y-103688000D02*
X142346500Y-103688000D01*
%TO.N,$1N2869*%
X142346500Y-104196000D02*
X143827000Y-104196000D01*
X143827000Y-104196000D02*
X143838500Y-104207500D01*
%TO.N,$1N2896*%
X143824500Y-103205000D02*
X142346500Y-103205000D01*
X143838500Y-103191500D02*
X143824500Y-103205000D01*
%TO.N,$1N2904*%
X148936000Y-103013500D02*
X145166000Y-103013500D01*
X149395000Y-102554500D02*
X148936000Y-103013500D01*
X145166000Y-103013500D02*
X144849500Y-102697000D01*
X144849500Y-102697000D02*
X142346500Y-102697000D01*
%TD*%
M02*
