%TF.GenerationSoftware,KiCad,Pcbnew,8.0.0*%
%TF.CreationDate,2024-03-07T16:43:38+08:00*%
%TF.ProjectId,LED_ring,4c45445f-7269-46e6-972e-6b696361645f,rev?*%
%TF.SameCoordinates,Original*%
%TF.FileFunction,Copper,L1,Top*%
%TF.FilePolarity,Positive*%
%FSLAX46Y46*%
G04 Gerber Fmt 4.6, Leading zero omitted, Abs format (unit mm)*
G04 Created by KiCad (PCBNEW 8.0.0) date 2024-03-07 16:43:38*
%MOMM*%
%LPD*%
G01*
G04 APERTURE LIST*
G04 Aperture macros list*
%AMRotRect*
0 Rectangle, with rotation*
0 The origin of the aperture is its center*
0 $1 length*
0 $2 width*
0 $3 Rotation angle, in degrees counterclockwise*
0 Add horizontal line*
21,1,$1,$2,0,0,$3*%
G04 Aperture macros list end*
%TA.AperFunction,Conductor*%
%ADD10C,0.254000*%
%TD*%
%ADD11C,0.203000*%
%TA.AperFunction,NonConductor*%
%ADD12C,0.203000*%
%TD*%
%TA.AperFunction,SMDPad,CuDef*%
%ADD13RotRect,0.450000X1.500000X227.729700*%
%TD*%
%TA.AperFunction,SMDPad,CuDef*%
%ADD14RotRect,0.450000X1.500000X259.549500*%
%TD*%
%TA.AperFunction,SMDPad,CuDef*%
%ADD15RotRect,0.450000X1.500000X100.450500*%
%TD*%
%TA.AperFunction,SMDPad,CuDef*%
%ADD16RotRect,0.450000X1.500000X195.909900*%
%TD*%
%TA.AperFunction,SMDPad,CuDef*%
%ADD17RotRect,0.450000X1.500000X68.630000*%
%TD*%
%TA.AperFunction,SMDPad,CuDef*%
%ADD18RotRect,0.450000X1.500000X132.270300*%
%TD*%
%TA.AperFunction,SMDPad,CuDef*%
%ADD19RotRect,0.450000X1.500000X164.090100*%
%TD*%
%TA.AperFunction,SMDPad,CuDef*%
%ADD20RotRect,0.450000X1.500000X291.369300*%
%TD*%
%TA.AperFunction,ViaPad*%
%ADD21C,0.500000*%
%TD*%
%TA.AperFunction,ViaPad*%
%ADD22C,0.400000*%
%TD*%
G04 APERTURE END LIST*
D10*
%TO.N,$1N2869*%
X149313500Y-104662500D02*
G75*
G02*
X149745006Y-106074999I-8698900J-3429600D01*
G01*
%TO.N,$1N2896*%
X149733500Y-101359000D02*
G75*
G02*
X149395000Y-102554500I-13656500J3221100D01*
G01*
X149733501Y-101359000D02*
G75*
G02*
X152286514Y-97213017I7122899J-1527100D01*
G01*
%TO.N,$1N2857*%
X161452000Y-111980999D02*
G75*
G02*
X156647001Y-112427996I-3054100J6780899D01*
G01*
%TO.N,CPO*%
X150417500Y-101554000D02*
G75*
G02*
X152765003Y-97739004I7148700J-1769100D01*
G01*
X156762000Y-95730001D02*
G75*
G02*
X161189491Y-96131521I1556000J-7453599D01*
G01*
X150429000Y-105880000D02*
G75*
G02*
X150417497Y-101553999I5958690J2178860D01*
G01*
X152803500Y-109735000D02*
G75*
G02*
X150429011Y-105879997I4731900J5573400D01*
G01*
X152765000Y-97739000D02*
G75*
G02*
X156762000Y-95729998I4887000J-4742300D01*
G01*
%TO.N,$1N2869*%
X152325000Y-110261500D02*
G75*
G02*
X149745001Y-106075000I5361100J6192100D01*
G01*
%TO.N,CPO*%
X156788500Y-111718500D02*
G75*
G02*
X152803504Y-109734996I1122500J7250000D01*
G01*
%TO.N,$1N2904*%
X156596500Y-95029001D02*
G75*
G02*
X161448493Y-95469515I1828800J-6797999D01*
G01*
%TO.N,CPO*%
X161193000Y-111319000D02*
G75*
G02*
X156788502Y-111718493I-2756800J5914300D01*
G01*
D11*
D12*
X156034385Y-103586010D02*
X156034385Y-105008344D01*
X155598909Y-102773249D02*
X155163432Y-104297177D01*
X155163432Y-104297177D02*
X156295671Y-104297177D01*
X157863385Y-102874844D02*
X156992433Y-102874844D01*
X156992433Y-102874844D02*
X156905337Y-103890796D01*
X156905337Y-103890796D02*
X156992433Y-103789201D01*
X156992433Y-103789201D02*
X157166623Y-103687606D01*
X157166623Y-103687606D02*
X157602099Y-103687606D01*
X157602099Y-103687606D02*
X157776290Y-103789201D01*
X157776290Y-103789201D02*
X157863385Y-103890796D01*
X157863385Y-103890796D02*
X157950480Y-104093987D01*
X157950480Y-104093987D02*
X157950480Y-104601963D01*
X157950480Y-104601963D02*
X157863385Y-104805153D01*
X157863385Y-104805153D02*
X157776290Y-104906749D01*
X157776290Y-104906749D02*
X157602099Y-105008344D01*
X157602099Y-105008344D02*
X157166623Y-105008344D01*
X157166623Y-105008344D02*
X156992433Y-104906749D01*
X156992433Y-104906749D02*
X156905337Y-104805153D01*
X158995623Y-102874844D02*
X158821433Y-102976439D01*
X158821433Y-102976439D02*
X158734338Y-103179629D01*
X158734338Y-103179629D02*
X158821433Y-103382820D01*
X158821433Y-103382820D02*
X158995623Y-103484415D01*
X158995623Y-103484415D02*
X159169814Y-103382820D01*
X159169814Y-103382820D02*
X159256909Y-103179629D01*
X159256909Y-103179629D02*
X159169814Y-102976439D01*
X159169814Y-102976439D02*
X158995623Y-102874844D01*
X159692386Y-105211534D02*
X161085909Y-105211534D01*
X162305243Y-102874844D02*
X161956862Y-102874844D01*
X161956862Y-102874844D02*
X161782671Y-102976439D01*
X161782671Y-102976439D02*
X161695576Y-103078034D01*
X161695576Y-103078034D02*
X161521386Y-103382820D01*
X161521386Y-103382820D02*
X161434290Y-103789201D01*
X161434290Y-103789201D02*
X161434290Y-104601963D01*
X161434290Y-104601963D02*
X161521386Y-104805153D01*
X161521386Y-104805153D02*
X161608481Y-104906749D01*
X161608481Y-104906749D02*
X161782671Y-105008344D01*
X161782671Y-105008344D02*
X162131052Y-105008344D01*
X162131052Y-105008344D02*
X162305243Y-104906749D01*
X162305243Y-104906749D02*
X162392338Y-104805153D01*
X162392338Y-104805153D02*
X162479433Y-104601963D01*
X162479433Y-104601963D02*
X162479433Y-104093987D01*
X162479433Y-104093987D02*
X162392338Y-103890796D01*
X162392338Y-103890796D02*
X162305243Y-103789201D01*
X162305243Y-103789201D02*
X162131052Y-103687606D01*
X162131052Y-103687606D02*
X161782671Y-103687606D01*
X161782671Y-103687606D02*
X161608481Y-103789201D01*
X161608481Y-103789201D02*
X161521386Y-103890796D01*
X161521386Y-103890796D02*
X161434290Y-104093987D01*
%TD*%
D13*
%TO.P,D6,A*%
%TO.N,CPO*%
X152803250Y-109734785D03*
%TO.P,D6,C*%
%TO.N,$1N2869*%
X152325011Y-110260911D03*
%TD*%
D14*
%TO.P,D7,A*%
%TO.N,CPO*%
X156788406Y-111718272D03*
%TO.P,D7,C*%
%TO.N,$1N2857*%
X156659440Y-112417478D03*
%TD*%
D15*
%TO.P,D2,A*%
%TO.N,CPO*%
X156762060Y-95729978D03*
%TO.P,D2,C*%
%TO.N,$1N2904*%
X156633094Y-95030772D03*
%TD*%
D16*
%TO.P,D5,A*%
%TO.N,CPO*%
X150428892Y-105880025D03*
%TO.P,D5,C*%
%TO.N,$1N2869*%
X149745128Y-106074928D03*
%TD*%
D17*
%TO.P,D1,A*%
%TO.N,CPO*%
X161189706Y-96131350D03*
%TO.P,D1,C*%
%TO.N,$1N2904*%
X161448787Y-95469234D03*
%TD*%
D18*
%TO.P,D3,A*%
%TO.N,CPO*%
X152764989Y-97738911D03*
%TO.P,D3,C*%
%TO.N,$1N2896*%
X152286750Y-97212785D03*
%TD*%
D19*
%TO.P,D4,A*%
%TO.N,CPO*%
X150417372Y-101553928D03*
%TO.P,D4,C*%
%TO.N,$1N2896*%
X149733608Y-101359025D03*
%TD*%
D20*
%TO.P,D8,A*%
%TO.N,CPO*%
X161192717Y-111319232D03*
%TO.P,D8,C*%
%TO.N,$1N2857*%
X161451789Y-111981351D03*
%TD*%
D21*
%TO.N,$1N2857*%
X156647000Y-112428000D03*
D22*
%TO.N,CPO*%
X150043000Y-103690500D03*
%TO.N,$1N2869*%
X143838500Y-104207500D03*
%TO.N,$1N2896*%
X143838500Y-103191500D03*
D21*
%TO.N,$1N2904*%
X156596500Y-95029000D03*
%TD*%
D10*
%TO.N,$1N2869*%
X148839000Y-104188000D02*
X143857500Y-104188000D01*
X143857500Y-104188000D02*
X143838500Y-104207500D01*
X149313500Y-104662500D02*
X148839000Y-104188000D01*
%TO.N,$1N2896*%
X143845000Y-103197500D02*
X143838500Y-103191500D01*
X149376000Y-102605000D02*
X148783500Y-103197500D01*
X148783500Y-103197500D02*
X143845000Y-103197500D01*
%TD*%
M02*
